G75*
%MOIN*%
%OFA0B0*%
%FSLAX25Y25*%
%IPPOS*%
%LPD*%
%AMOC8*
5,1,8,0,0,1.08239X$1,22.5*
%
%ADD10C,0.00000*%
%ADD11C,0.01181*%
%ADD12R,0.02362X0.02362*%
%ADD13R,0.03937X0.03543*%
%ADD14R,0.04134X0.03543*%
%ADD15R,0.03150X0.01181*%
%ADD16R,0.10236X0.02362*%
%ADD17R,0.02756X0.06299*%
%ADD18R,0.06299X0.02756*%
%ADD19R,0.02362X0.02362*%
%ADD20R,0.03346X0.00787*%
%ADD21R,0.02559X0.06004*%
D10*
X0080331Y0048835D02*
X0080331Y0149228D01*
X0213402Y0149228D01*
X0213402Y0048835D01*
X0080331Y0048835D01*
D11*
X0082288Y0069307D02*
X0082288Y0072063D01*
X0085044Y0072063D01*
X0085044Y0069307D01*
X0082288Y0069307D01*
X0082288Y0070429D02*
X0085044Y0070429D01*
X0085044Y0071551D02*
X0082288Y0071551D01*
X0082322Y0075837D02*
X0082322Y0078593D01*
X0085078Y0078593D01*
X0085078Y0075837D01*
X0082322Y0075837D01*
X0082322Y0076959D02*
X0085078Y0076959D01*
X0085078Y0078081D02*
X0082322Y0078081D01*
X0089228Y0078593D02*
X0089228Y0075837D01*
X0089228Y0078593D02*
X0091984Y0078593D01*
X0091984Y0075837D01*
X0089228Y0075837D01*
X0089228Y0076959D02*
X0091984Y0076959D01*
X0091984Y0078081D02*
X0089228Y0078081D01*
X0089194Y0072063D02*
X0089194Y0069307D01*
X0089194Y0072063D02*
X0091950Y0072063D01*
X0091950Y0069307D01*
X0089194Y0069307D01*
X0089194Y0070429D02*
X0091950Y0070429D01*
X0091950Y0071551D02*
X0089194Y0071551D01*
D12*
X0097260Y0070685D03*
X0101591Y0070685D03*
X0097654Y0077181D03*
X0097654Y0081512D03*
X0100803Y0092732D03*
X0100803Y0097063D03*
X0100803Y0101000D03*
X0100803Y0105331D03*
X0104740Y0106906D03*
X0104740Y0111236D03*
X0111039Y0111236D03*
X0111039Y0106906D03*
X0119307Y0108677D03*
X0123244Y0108677D03*
X0123244Y0104346D03*
X0119307Y0104346D03*
X0111039Y0115764D03*
X0111039Y0120094D03*
X0115173Y0122850D03*
X0119504Y0122850D03*
X0134661Y0120291D03*
X0134661Y0115961D03*
X0146472Y0120488D03*
X0146472Y0124819D03*
D13*
X0144898Y0107102D03*
X0138598Y0107102D03*
X0138598Y0090961D03*
X0144898Y0090961D03*
D14*
X0124031Y0135055D03*
X0117732Y0135055D03*
D15*
X0096079Y0102969D03*
X0096079Y0101000D03*
X0096079Y0099031D03*
X0096079Y0097063D03*
X0096079Y0095094D03*
D16*
X0087024Y0091551D03*
X0087024Y0106512D03*
D17*
X0158677Y0125606D03*
X0163008Y0125606D03*
X0167339Y0125606D03*
X0171669Y0125606D03*
X0176000Y0125606D03*
X0180331Y0125606D03*
X0184661Y0125606D03*
X0188992Y0125606D03*
X0193323Y0125606D03*
X0197654Y0125606D03*
X0201984Y0125606D03*
X0206315Y0125606D03*
X0210646Y0125606D03*
X0210646Y0072457D03*
X0206315Y0072457D03*
X0201984Y0072457D03*
X0197654Y0072457D03*
X0193323Y0072457D03*
X0188992Y0072457D03*
X0184661Y0072457D03*
X0180331Y0072457D03*
X0176000Y0072457D03*
X0171669Y0072457D03*
X0167339Y0072457D03*
X0163008Y0072457D03*
X0158677Y0072457D03*
D18*
X0152772Y0077378D03*
X0152772Y0081709D03*
X0152772Y0086039D03*
X0152772Y0090370D03*
X0152772Y0094701D03*
X0152772Y0099031D03*
X0152772Y0103362D03*
X0152772Y0107693D03*
X0152772Y0112024D03*
X0152772Y0116354D03*
X0152772Y0120685D03*
D19*
G36*
X0156460Y0134834D02*
X0158130Y0136504D01*
X0159800Y0134834D01*
X0158130Y0133164D01*
X0156460Y0134834D01*
G37*
G36*
X0159523Y0137897D02*
X0161193Y0139567D01*
X0162863Y0137897D01*
X0161193Y0136227D01*
X0159523Y0137897D01*
G37*
D20*
X0123441Y0118913D03*
X0123441Y0117339D03*
X0123441Y0115764D03*
X0123441Y0114189D03*
X0123441Y0112614D03*
X0115961Y0112614D03*
X0115961Y0114189D03*
X0115961Y0115764D03*
X0115961Y0117339D03*
X0115961Y0118913D03*
D21*
X0099642Y0112961D03*
X0094642Y0112961D03*
X0089642Y0112961D03*
X0084642Y0112961D03*
X0084642Y0134315D03*
X0089642Y0134315D03*
X0094642Y0134315D03*
X0099642Y0134315D03*
M02*
