G75*
%MOIN*%
%OFA0B0*%
%FSLAX25Y25*%
%IPPOS*%
%LPD*%
%AMOC8*
5,1,8,0,0,1.08239X$1,22.5*
%
%ADD10C,0.00000*%
%ADD11R,0.04337X0.08274*%
%ADD12R,0.08274X0.04337*%
%ADD13C,0.04400*%
%ADD14R,0.03550X0.03943*%
%ADD15R,0.04731X0.04337*%
%ADD16C,0.01301*%
%ADD17R,0.04337X0.04731*%
%ADD18C,0.07800*%
%ADD19R,0.03943X0.04337*%
%ADD20R,0.03550X0.01581*%
%ADD21R,0.10636X0.02762*%
%ADD22R,0.03943X0.03746*%
%ADD23R,0.01581X0.02762*%
%ADD24R,0.02762X0.01581*%
%ADD25R,0.03746X0.03943*%
D10*
X0060646Y0048835D02*
X0060646Y0149228D01*
X0213402Y0149228D01*
X0213402Y0048835D01*
X0060646Y0048835D01*
D11*
X0129406Y0064583D03*
X0134406Y0064583D03*
X0139406Y0064583D03*
X0144406Y0064583D03*
X0149406Y0064583D03*
X0154406Y0064583D03*
X0159406Y0064583D03*
X0164406Y0064583D03*
X0169406Y0064583D03*
X0174406Y0064583D03*
X0179406Y0064583D03*
X0184406Y0064583D03*
X0189406Y0064583D03*
X0194406Y0064583D03*
X0204406Y0064583D03*
X0209406Y0064583D03*
X0208146Y0133480D03*
X0203146Y0133480D03*
X0193146Y0133480D03*
X0188146Y0133480D03*
X0183146Y0133480D03*
X0178146Y0133480D03*
X0173146Y0133480D03*
X0168146Y0133480D03*
X0163146Y0133480D03*
X0158146Y0133480D03*
X0153146Y0133480D03*
X0148146Y0133480D03*
X0143146Y0133480D03*
X0138146Y0133480D03*
X0133146Y0133480D03*
X0128146Y0133480D03*
D12*
X0121276Y0126531D03*
X0121276Y0121531D03*
X0121276Y0116531D03*
X0121276Y0111531D03*
X0121276Y0106531D03*
X0121276Y0101531D03*
X0121276Y0096531D03*
X0121276Y0091531D03*
X0121276Y0086531D03*
X0121276Y0081531D03*
X0121276Y0076531D03*
X0121276Y0071531D03*
D13*
X0101335Y0073638D03*
X0096335Y0073638D03*
X0096335Y0068638D03*
X0101335Y0068638D03*
X0101335Y0063638D03*
X0096335Y0063638D03*
X0096335Y0078638D03*
X0101335Y0078638D03*
X0101335Y0083638D03*
X0096335Y0083638D03*
D14*
X0080921Y0127181D03*
X0073441Y0127181D03*
X0077181Y0135449D03*
D15*
X0073835Y0121669D03*
X0080528Y0121669D03*
X0106118Y0127181D03*
X0112811Y0127181D03*
D16*
X0111495Y0123187D02*
X0111495Y0120151D01*
X0111495Y0123187D02*
X0114531Y0123187D01*
X0114531Y0120151D01*
X0111495Y0120151D01*
X0111495Y0121451D02*
X0114531Y0121451D01*
X0114531Y0122751D02*
X0111495Y0122751D01*
X0104589Y0123187D02*
X0104589Y0120151D01*
X0104589Y0123187D02*
X0107625Y0123187D01*
X0107625Y0120151D01*
X0104589Y0120151D01*
X0104589Y0121451D02*
X0107625Y0121451D01*
X0107625Y0122751D02*
X0104589Y0122751D01*
X0104820Y0117906D02*
X0104820Y0114870D01*
X0104820Y0117906D02*
X0107856Y0117906D01*
X0107856Y0114870D01*
X0104820Y0114870D01*
X0104820Y0116170D02*
X0107856Y0116170D01*
X0107856Y0117470D02*
X0104820Y0117470D01*
X0111725Y0117906D02*
X0111725Y0114870D01*
X0111725Y0117906D02*
X0114761Y0117906D01*
X0114761Y0114870D01*
X0111725Y0114870D01*
X0111725Y0116170D02*
X0114761Y0116170D01*
X0114761Y0117470D02*
X0111725Y0117470D01*
D17*
X0100016Y0120291D03*
X0100016Y0126984D03*
X0087024Y0126591D03*
X0087024Y0133283D03*
X0067732Y0128559D03*
X0067732Y0121866D03*
X0090961Y0114780D03*
X0090961Y0108087D03*
D18*
X0086945Y0143323D03*
X0096945Y0143323D03*
X0106945Y0143323D03*
X0116945Y0143323D03*
X0126945Y0143323D03*
X0136945Y0143323D03*
X0146945Y0143323D03*
X0156945Y0143323D03*
X0166945Y0143323D03*
X0176945Y0143323D03*
X0186945Y0143323D03*
X0196945Y0143323D03*
X0206945Y0143323D03*
X0206945Y0054740D03*
X0196945Y0054740D03*
X0186945Y0054740D03*
X0176945Y0054740D03*
X0166945Y0054740D03*
X0156945Y0054740D03*
X0146945Y0054740D03*
X0136945Y0054740D03*
X0126945Y0054740D03*
X0116945Y0054740D03*
X0106945Y0054740D03*
X0096945Y0054740D03*
X0086945Y0054740D03*
X0076945Y0054740D03*
X0066945Y0054740D03*
X0066945Y0143323D03*
X0076945Y0143323D03*
D19*
X0080134Y0114583D03*
X0080134Y0108283D03*
X0063992Y0108283D03*
X0063992Y0114583D03*
X0068323Y0071669D03*
X0068323Y0065370D03*
X0084465Y0065370D03*
X0084465Y0071669D03*
D20*
X0076394Y0088205D03*
X0076394Y0090173D03*
X0076394Y0092142D03*
X0076394Y0094110D03*
X0076394Y0096079D03*
D21*
X0067339Y0099622D03*
X0067339Y0084661D03*
D22*
X0081118Y0083559D03*
X0081118Y0088126D03*
X0081118Y0093402D03*
X0081118Y0097969D03*
X0114189Y0100488D03*
X0114189Y0105055D03*
D23*
X0105134Y0101197D03*
X0103165Y0101197D03*
X0101197Y0101197D03*
X0099228Y0101197D03*
X0097260Y0101197D03*
X0097260Y0110646D03*
X0099228Y0110646D03*
X0101197Y0110646D03*
X0103165Y0110646D03*
X0105134Y0110646D03*
D24*
X0105921Y0107890D03*
X0105921Y0105921D03*
X0105921Y0103953D03*
X0096472Y0103953D03*
X0096472Y0105921D03*
X0096472Y0107890D03*
D25*
X0091079Y0101984D03*
X0086512Y0101984D03*
X0090843Y0096079D03*
X0095409Y0096079D03*
X0103638Y0095685D03*
X0108205Y0095685D03*
M02*
