%
M48
M72
T01C0.0157
T02C0.0200
T03C0.0400
%
T01
X8309Y6065
X9135Y6616
X10277Y6616
X10986Y6261
X11183Y7482
X10474Y7443
X11183Y8151
X10277Y8466
X9765Y8899
X9411Y8112
X8781Y8151
X8427Y8427
X8781Y8781
X9450Y7403
X11301Y9411
X10572Y9706
X10572Y10100
X10828Y10395
X11498Y10395
X11576Y10986
X10592Y11655
X10238Y12088
X11183Y12482
X10505Y12724
X9962Y12876
X9135Y12876
X8348Y12757
X8348Y11931
X9214Y11891
X9175Y13939
X12167Y13978
X12954Y13545
X13309Y12994
X14175Y12443
X15277Y12482
X15828Y12009
X15828Y11634
X15828Y11260
X15828Y10885
X15868Y10435
X16202Y10100
X16202Y9706
X16498Y9372
X15868Y9214
X15828Y8663
X16261Y8702
X17443Y8702
X17718Y9411
X18466Y8702
X19490Y9293
X20080Y8742
X21025Y8781
X21025Y7876
X20080Y6655
X21025Y6616
X21065Y6025
X19411Y7836
X18860Y8033
X18466Y7836
X15435Y7364
X14687Y7561
X15277Y6498
X14214Y5907
X12443Y9214
X13387Y10395
X13184Y11268
X12836Y11634
X12797Y12009
X12364Y12403
X17246Y10513
X18506Y10435
X19450Y10553
X19962Y11065
X21025Y11025
X21025Y11931
X21025Y13191
X21025Y13781
X20159Y13899
X20159Y13112
X19254Y13230
T02
X14267Y8364
X13767Y8364
X13767Y7864
X14267Y7864
X14267Y7364
X13767Y7364
X13767Y6864
X14267Y6864
X14267Y6364
X13767Y6364
T03
X8687Y5474
X9687Y5474
X10687Y5474
X11687Y5474
X12687Y5474
X13687Y5474
X14687Y5474
X15687Y5474
X16687Y5474
X17687Y5474
X18687Y5474
X19687Y5474
X20687Y5474
X20687Y14332
X19687Y14332
X18687Y14332
X17687Y14332
X16687Y14332
X15687Y14332
X14687Y14332
X13687Y14332
X12687Y14332
X11687Y14332
X10687Y14332
X9687Y14332
X8687Y14332
M30
