G75*
%MOIN*%
%OFA0B0*%
%FSLAX25Y25*%
%IPPOS*%
%LPD*%
%AMOC8*
5,1,8,0,0,1.08239X$1,22.5*
%
%ADD10C,0.00000*%
%ADD11R,0.03937X0.07874*%
%ADD12R,0.07874X0.03937*%
%ADD13C,0.04000*%
%ADD14R,0.03150X0.03543*%
%ADD15R,0.04331X0.03937*%
%ADD16C,0.01181*%
%ADD17R,0.03937X0.04331*%
%ADD18C,0.07400*%
%ADD19R,0.03543X0.03937*%
%ADD20R,0.03150X0.01181*%
%ADD21R,0.10236X0.02362*%
%ADD22R,0.03543X0.03346*%
%ADD23R,0.01181X0.02362*%
%ADD24R,0.02362X0.01181*%
%ADD25R,0.03346X0.03543*%
%ADD26C,0.03150*%
%ADD27C,0.01575*%
%ADD28C,0.03150*%
D10*
X0060646Y0048835D02*
X0060646Y0149228D01*
X0213402Y0149228D01*
X0213402Y0048835D01*
X0060646Y0048835D01*
D11*
X0129406Y0064583D03*
X0134406Y0064583D03*
X0139406Y0064583D03*
X0144406Y0064583D03*
X0149406Y0064583D03*
X0154406Y0064583D03*
X0159406Y0064583D03*
X0164406Y0064583D03*
X0169406Y0064583D03*
X0174406Y0064583D03*
X0179406Y0064583D03*
X0184406Y0064583D03*
X0189406Y0064583D03*
X0194406Y0064583D03*
X0204406Y0064583D03*
X0209406Y0064583D03*
X0208146Y0133480D03*
X0203146Y0133480D03*
X0193146Y0133480D03*
X0188146Y0133480D03*
X0183146Y0133480D03*
X0178146Y0133480D03*
X0173146Y0133480D03*
X0168146Y0133480D03*
X0163146Y0133480D03*
X0158146Y0133480D03*
X0153146Y0133480D03*
X0148146Y0133480D03*
X0143146Y0133480D03*
X0138146Y0133480D03*
X0133146Y0133480D03*
X0128146Y0133480D03*
D12*
X0121276Y0126531D03*
X0121276Y0121531D03*
X0121276Y0116531D03*
X0121276Y0111531D03*
X0121276Y0106531D03*
X0121276Y0101531D03*
X0121276Y0096531D03*
X0121276Y0091531D03*
X0121276Y0086531D03*
X0121276Y0081531D03*
X0121276Y0076531D03*
X0121276Y0071531D03*
D13*
X0101335Y0073638D03*
X0096335Y0073638D03*
X0096335Y0068638D03*
X0101335Y0068638D03*
X0101335Y0063638D03*
X0096335Y0063638D03*
X0096335Y0078638D03*
X0101335Y0078638D03*
X0101335Y0083638D03*
X0096335Y0083638D03*
D14*
X0080921Y0127181D03*
X0073441Y0127181D03*
X0077181Y0135449D03*
D15*
X0073835Y0121669D03*
X0080528Y0121669D03*
X0106118Y0127181D03*
X0112811Y0127181D03*
D16*
X0120310Y0131408D02*
X0124587Y0131408D01*
X0124587Y0132587D02*
X0119131Y0132587D01*
X0118640Y0133078D02*
X0117862Y0133856D01*
X0116845Y0134277D01*
X0093954Y0134277D01*
X0092937Y0133856D01*
X0090583Y0131501D01*
X0090583Y0132890D01*
X0087417Y0132890D01*
X0087417Y0133677D01*
X0086630Y0133677D01*
X0086630Y0132890D01*
X0083465Y0132890D01*
X0083465Y0130909D01*
X0083573Y0130504D01*
X0083782Y0130141D01*
X0084078Y0129845D01*
X0084321Y0129705D01*
X0083971Y0129356D01*
X0083687Y0129356D01*
X0083687Y0129446D01*
X0082989Y0130143D01*
X0078853Y0130143D01*
X0078156Y0129446D01*
X0078156Y0124828D01*
X0077869Y0124828D01*
X0077181Y0124140D01*
X0076493Y0124828D01*
X0076206Y0124828D01*
X0076206Y0129446D01*
X0075509Y0130143D01*
X0073996Y0130143D01*
X0072931Y0131208D01*
X0072931Y0131208D01*
X0070667Y0133472D01*
X0070498Y0133641D01*
X0070498Y0139959D01*
X0071091Y0140553D01*
X0071768Y0142188D01*
X0071785Y0142084D01*
X0072042Y0141292D01*
X0072420Y0140550D01*
X0072909Y0139876D01*
X0073498Y0139287D01*
X0074172Y0138798D01*
X0074696Y0138531D01*
X0074630Y0138493D01*
X0074334Y0138197D01*
X0074124Y0137834D01*
X0074016Y0137430D01*
X0074016Y0135646D01*
X0076984Y0135646D01*
X0076984Y0138811D01*
X0076535Y0138811D01*
X0076535Y0142913D01*
X0077354Y0142913D01*
X0077354Y0138032D01*
X0077361Y0138032D01*
X0077378Y0138035D01*
X0077378Y0135646D01*
X0076984Y0135646D01*
X0076984Y0135252D01*
X0074016Y0135252D01*
X0074016Y0133468D01*
X0074124Y0133063D01*
X0074334Y0132701D01*
X0074630Y0132404D01*
X0074992Y0132195D01*
X0075397Y0132087D01*
X0076984Y0132087D01*
X0076984Y0135252D01*
X0077378Y0135252D01*
X0077378Y0135646D01*
X0080346Y0135646D01*
X0080346Y0137430D01*
X0080238Y0137834D01*
X0080029Y0138197D01*
X0079733Y0138493D01*
X0079445Y0138659D01*
X0079718Y0138798D01*
X0080391Y0139287D01*
X0080980Y0139876D01*
X0081470Y0140550D01*
X0081848Y0141292D01*
X0082105Y0142084D01*
X0082122Y0142188D01*
X0082799Y0140553D01*
X0084175Y0139177D01*
X0085972Y0138432D01*
X0087918Y0138432D01*
X0089715Y0139177D01*
X0091091Y0140553D01*
X0091835Y0142350D01*
X0091835Y0144296D01*
X0091091Y0146093D01*
X0089715Y0147469D01*
X0089307Y0147638D01*
X0094583Y0147638D01*
X0094175Y0147469D01*
X0092799Y0146093D01*
X0092054Y0144296D01*
X0092054Y0142350D01*
X0092799Y0140553D01*
X0094175Y0139177D01*
X0095972Y0138432D01*
X0097918Y0138432D01*
X0099715Y0139177D01*
X0101091Y0140553D01*
X0101835Y0142350D01*
X0101835Y0144296D01*
X0101091Y0146093D01*
X0099715Y0147469D01*
X0099307Y0147638D01*
X0104583Y0147638D01*
X0104175Y0147469D01*
X0102799Y0146093D01*
X0102054Y0144296D01*
X0102054Y0142350D01*
X0102799Y0140553D01*
X0104175Y0139177D01*
X0105972Y0138432D01*
X0107918Y0138432D01*
X0109715Y0139177D01*
X0111091Y0140553D01*
X0111835Y0142350D01*
X0111835Y0144296D01*
X0111091Y0146093D01*
X0109715Y0147469D01*
X0109307Y0147638D01*
X0114583Y0147638D01*
X0114175Y0147469D01*
X0112799Y0146093D01*
X0112054Y0144296D01*
X0112054Y0142350D01*
X0112799Y0140553D01*
X0114175Y0139177D01*
X0115972Y0138432D01*
X0117918Y0138432D01*
X0119715Y0139177D01*
X0121091Y0140553D01*
X0121835Y0142350D01*
X0121835Y0144296D01*
X0121091Y0146093D01*
X0119715Y0147469D01*
X0119307Y0147638D01*
X0124583Y0147638D01*
X0124175Y0147469D01*
X0122799Y0146093D01*
X0122054Y0144296D01*
X0122054Y0142350D01*
X0122799Y0140553D01*
X0124175Y0139177D01*
X0125263Y0138726D01*
X0125201Y0138690D01*
X0124904Y0138394D01*
X0124695Y0138031D01*
X0124587Y0137627D01*
X0124587Y0133874D01*
X0127752Y0133874D01*
X0127752Y0133087D01*
X0124587Y0133087D01*
X0124587Y0129691D01*
X0122027Y0129691D01*
X0118640Y0133078D01*
X0117951Y0133767D02*
X0127752Y0133767D01*
X0127752Y0133087D02*
X0128539Y0133087D01*
X0128539Y0127953D01*
X0130182Y0127953D01*
X0129928Y0127337D01*
X0129928Y0126237D01*
X0130349Y0125221D01*
X0131126Y0124443D01*
X0132143Y0124022D01*
X0132939Y0124022D01*
X0134317Y0122644D01*
X0160596Y0122644D01*
X0161639Y0123687D01*
X0164927Y0126975D01*
X0164927Y0128353D01*
X0165607Y0128353D01*
X0165646Y0128391D01*
X0165684Y0128353D01*
X0170607Y0128353D01*
X0170646Y0128391D01*
X0170684Y0128353D01*
X0175607Y0128353D01*
X0175646Y0128391D01*
X0175684Y0128353D01*
X0180607Y0128353D01*
X0180646Y0128391D01*
X0180684Y0128353D01*
X0185607Y0128353D01*
X0185646Y0128391D01*
X0185684Y0128353D01*
X0190118Y0128353D01*
X0190201Y0128271D01*
X0190563Y0128061D01*
X0190968Y0127953D01*
X0192752Y0127953D01*
X0192752Y0133087D01*
X0193539Y0133087D01*
X0193539Y0133874D01*
X0192752Y0133874D01*
X0192752Y0139008D01*
X0190968Y0139008D01*
X0190563Y0138899D01*
X0190201Y0138690D01*
X0190118Y0138608D01*
X0188342Y0138608D01*
X0189715Y0139177D01*
X0191091Y0140553D01*
X0191768Y0142188D01*
X0191785Y0142084D01*
X0192042Y0141292D01*
X0192420Y0140550D01*
X0192909Y0139876D01*
X0193498Y0139287D01*
X0193883Y0139008D01*
X0193539Y0139008D01*
X0193539Y0133874D01*
X0196705Y0133874D01*
X0196705Y0137627D01*
X0196596Y0138031D01*
X0196535Y0138137D01*
X0196535Y0142913D01*
X0197354Y0142913D01*
X0197354Y0138032D01*
X0197361Y0138032D01*
X0198184Y0138163D01*
X0198976Y0138420D01*
X0199718Y0138798D01*
X0200391Y0139287D01*
X0200980Y0139876D01*
X0201470Y0140550D01*
X0201848Y0141292D01*
X0201945Y0141591D01*
X0202042Y0141292D01*
X0202420Y0140550D01*
X0202909Y0139876D01*
X0203498Y0139287D01*
X0203883Y0139008D01*
X0203539Y0139008D01*
X0203539Y0133874D01*
X0202752Y0133874D01*
X0202752Y0139008D01*
X0200968Y0139008D01*
X0200563Y0138899D01*
X0200201Y0138690D01*
X0199904Y0138394D01*
X0199695Y0138031D01*
X0199587Y0137627D01*
X0199587Y0133874D01*
X0202752Y0133874D01*
X0202752Y0133087D01*
X0199587Y0133087D01*
X0199587Y0129334D01*
X0199695Y0128929D01*
X0199904Y0128567D01*
X0200201Y0128271D01*
X0200563Y0128061D01*
X0200968Y0127953D01*
X0202752Y0127953D01*
X0202752Y0133087D01*
X0203539Y0133087D01*
X0203539Y0133874D01*
X0206705Y0133874D01*
X0207752Y0133874D01*
X0207752Y0138094D01*
X0208184Y0138163D01*
X0208539Y0138278D01*
X0208539Y0133874D01*
X0207752Y0133874D01*
X0207752Y0133087D01*
X0203539Y0133087D01*
X0203539Y0127953D01*
X0205324Y0127953D01*
X0205646Y0128039D01*
X0205968Y0127953D01*
X0207752Y0127953D01*
X0207752Y0133087D01*
X0208539Y0133087D01*
X0208539Y0133874D01*
X0211705Y0133874D01*
X0211705Y0137627D01*
X0211596Y0138031D01*
X0211387Y0138394D01*
X0211091Y0138690D01*
X0210728Y0138899D01*
X0210324Y0139008D01*
X0210007Y0139008D01*
X0210391Y0139287D01*
X0210980Y0139876D01*
X0211470Y0140550D01*
X0211811Y0141220D01*
X0211811Y0070049D01*
X0211583Y0070110D01*
X0209799Y0070110D01*
X0209799Y0064976D01*
X0209012Y0064976D01*
X0209012Y0064189D01*
X0205846Y0064189D01*
X0204799Y0064189D01*
X0204799Y0064976D01*
X0209012Y0064976D01*
X0209012Y0070110D01*
X0207228Y0070110D01*
X0206905Y0070024D01*
X0206583Y0070110D01*
X0204799Y0070110D01*
X0204799Y0064976D01*
X0204012Y0064976D01*
X0204012Y0064189D01*
X0200846Y0064189D01*
X0200846Y0060436D01*
X0200955Y0060032D01*
X0201164Y0059669D01*
X0201460Y0059373D01*
X0201823Y0059164D01*
X0202228Y0059055D01*
X0203883Y0059055D01*
X0203498Y0058776D01*
X0202909Y0058187D01*
X0202420Y0057513D01*
X0202042Y0056771D01*
X0201785Y0055979D01*
X0201768Y0055875D01*
X0201091Y0057510D01*
X0199715Y0058886D01*
X0197918Y0059631D01*
X0197043Y0059631D01*
X0197565Y0060153D01*
X0197565Y0069013D01*
X0196867Y0069710D01*
X0191944Y0069710D01*
X0191905Y0069672D01*
X0191867Y0069710D01*
X0186944Y0069710D01*
X0186905Y0069672D01*
X0186867Y0069710D01*
X0181944Y0069710D01*
X0181905Y0069672D01*
X0181867Y0069710D01*
X0179386Y0069710D01*
X0163835Y0085261D01*
X0130492Y0085261D01*
X0129929Y0085825D01*
X0128912Y0086246D01*
X0127812Y0086246D01*
X0126796Y0085825D01*
X0126403Y0085432D01*
X0126403Y0088993D01*
X0126365Y0089031D01*
X0126403Y0089070D01*
X0126403Y0093993D01*
X0126365Y0094031D01*
X0126403Y0094070D01*
X0126403Y0094128D01*
X0127418Y0093707D01*
X0128519Y0093707D01*
X0129535Y0094128D01*
X0130313Y0094906D01*
X0130734Y0095922D01*
X0130734Y0097023D01*
X0130313Y0098039D01*
X0129535Y0098817D01*
X0128541Y0099228D01*
X0129535Y0099640D01*
X0130313Y0100418D01*
X0130734Y0101434D01*
X0130734Y0102534D01*
X0130313Y0103551D01*
X0129535Y0104329D01*
X0129492Y0104346D01*
X0129535Y0104364D01*
X0130313Y0105142D01*
X0130734Y0106159D01*
X0130734Y0107259D01*
X0130313Y0108275D01*
X0129535Y0109053D01*
X0129492Y0109071D01*
X0129535Y0109089D01*
X0130313Y0109867D01*
X0130734Y0110883D01*
X0130734Y0111983D01*
X0130313Y0113000D01*
X0129535Y0113777D01*
X0128519Y0114198D01*
X0127418Y0114198D01*
X0126403Y0113778D01*
X0126403Y0113993D01*
X0126365Y0114031D01*
X0126403Y0114070D01*
X0126403Y0118993D01*
X0126365Y0119031D01*
X0126403Y0119070D01*
X0126403Y0123993D01*
X0126365Y0124031D01*
X0126403Y0124070D01*
X0126403Y0127953D01*
X0127752Y0127953D01*
X0127752Y0133087D01*
X0127752Y0132587D02*
X0128539Y0132587D01*
X0128539Y0131408D02*
X0127752Y0131408D01*
X0127752Y0130228D02*
X0128539Y0130228D01*
X0128539Y0129048D02*
X0127752Y0129048D01*
X0126403Y0127869D02*
X0130148Y0127869D01*
X0129928Y0126689D02*
X0126403Y0126689D01*
X0126403Y0125510D02*
X0130229Y0125510D01*
X0131400Y0124330D02*
X0126403Y0124330D01*
X0126403Y0123150D02*
X0133811Y0123150D01*
X0135055Y0124425D02*
X0132693Y0126787D01*
X0135055Y0124425D02*
X0159858Y0124425D01*
X0163146Y0127713D01*
X0163146Y0133480D01*
X0168146Y0133480D02*
X0168146Y0142122D01*
X0166945Y0143323D01*
X0173146Y0139524D02*
X0176945Y0143323D01*
X0173146Y0139524D02*
X0173146Y0133480D01*
X0178146Y0133480D02*
X0178146Y0136807D01*
X0180331Y0138992D01*
X0182614Y0138992D01*
X0186945Y0143323D01*
X0191700Y0142024D02*
X0191804Y0142024D01*
X0192270Y0140845D02*
X0191212Y0140845D01*
X0190203Y0139665D02*
X0193121Y0139665D01*
X0192752Y0138485D02*
X0193539Y0138485D01*
X0193539Y0137306D02*
X0192752Y0137306D01*
X0192752Y0136126D02*
X0193539Y0136126D01*
X0193539Y0134946D02*
X0192752Y0134946D01*
X0193539Y0133767D02*
X0202752Y0133767D01*
X0203539Y0133767D02*
X0207752Y0133767D01*
X0208539Y0133767D02*
X0211811Y0133767D01*
X0211705Y0133087D02*
X0208539Y0133087D01*
X0208539Y0127953D01*
X0210324Y0127953D01*
X0210728Y0128061D01*
X0211091Y0128271D01*
X0211387Y0128567D01*
X0211596Y0128929D01*
X0211705Y0129334D01*
X0211705Y0133087D01*
X0211705Y0132587D02*
X0211811Y0132587D01*
X0211811Y0131408D02*
X0211705Y0131408D01*
X0211705Y0130228D02*
X0211811Y0130228D01*
X0211811Y0129048D02*
X0211628Y0129048D01*
X0211811Y0127869D02*
X0164927Y0127869D01*
X0164641Y0126689D02*
X0211811Y0126689D01*
X0211811Y0125510D02*
X0163461Y0125510D01*
X0162282Y0124330D02*
X0211811Y0124330D01*
X0211811Y0123150D02*
X0161102Y0123150D01*
X0153146Y0130891D02*
X0149623Y0127369D01*
X0137811Y0127369D01*
X0148146Y0133480D02*
X0148146Y0142122D01*
X0146945Y0143323D01*
X0156945Y0143323D02*
X0158146Y0142122D01*
X0158146Y0133480D01*
X0153146Y0133480D02*
X0153146Y0130891D01*
X0129599Y0113713D02*
X0211811Y0113713D01*
X0211811Y0112534D02*
X0130506Y0112534D01*
X0130734Y0111354D02*
X0211811Y0111354D01*
X0211811Y0110175D02*
X0130440Y0110175D01*
X0129593Y0108995D02*
X0211811Y0108995D01*
X0211811Y0107815D02*
X0130503Y0107815D01*
X0130734Y0106636D02*
X0211811Y0106636D01*
X0211811Y0105456D02*
X0130443Y0105456D01*
X0129587Y0104276D02*
X0211811Y0104276D01*
X0211811Y0103097D02*
X0130501Y0103097D01*
X0130734Y0101917D02*
X0211811Y0101917D01*
X0211811Y0100738D02*
X0130445Y0100738D01*
X0129337Y0099558D02*
X0211811Y0099558D01*
X0211811Y0098378D02*
X0129973Y0098378D01*
X0130661Y0097199D02*
X0211811Y0097199D01*
X0211811Y0096019D02*
X0130734Y0096019D01*
X0130246Y0094840D02*
X0211811Y0094840D01*
X0211811Y0093660D02*
X0126403Y0093660D01*
X0126403Y0092480D02*
X0211811Y0092480D01*
X0211811Y0091301D02*
X0126403Y0091301D01*
X0126403Y0090121D02*
X0211811Y0090121D01*
X0211811Y0088942D02*
X0126403Y0088942D01*
X0126403Y0087762D02*
X0211811Y0087762D01*
X0211811Y0086582D02*
X0126403Y0086582D01*
X0121276Y0086531D02*
X0111138Y0086531D01*
X0105528Y0092142D01*
X0081118Y0092142D01*
X0081118Y0093402D01*
X0081118Y0094110D01*
X0076394Y0094110D01*
X0073628Y0093660D02*
X0062236Y0093660D01*
X0062236Y0094840D02*
X0073628Y0094840D01*
X0073628Y0096019D02*
X0062236Y0096019D01*
X0062236Y0097199D02*
X0073665Y0097199D01*
X0073628Y0097162D02*
X0073628Y0087121D01*
X0074326Y0086424D01*
X0078156Y0086424D01*
X0078156Y0086291D01*
X0078074Y0086209D01*
X0077864Y0085846D01*
X0077756Y0085442D01*
X0077756Y0083805D01*
X0080872Y0083805D01*
X0080872Y0083313D01*
X0077756Y0083313D01*
X0077756Y0081676D01*
X0077864Y0081272D01*
X0078074Y0080909D01*
X0078370Y0080613D01*
X0078733Y0080404D01*
X0079137Y0080295D01*
X0080872Y0080295D01*
X0080872Y0083313D01*
X0081364Y0083313D01*
X0081364Y0080295D01*
X0083099Y0080295D01*
X0083504Y0080404D01*
X0083866Y0080613D01*
X0084163Y0080909D01*
X0084372Y0081272D01*
X0084480Y0081676D01*
X0084480Y0083313D01*
X0081364Y0083313D01*
X0081364Y0083805D01*
X0084480Y0083805D01*
X0084480Y0085442D01*
X0084372Y0085846D01*
X0084163Y0086209D01*
X0084080Y0086291D01*
X0084080Y0088392D01*
X0100853Y0088392D01*
X0102733Y0086512D01*
X0101969Y0086828D01*
X0100700Y0086828D01*
X0099527Y0086343D01*
X0098835Y0085650D01*
X0098142Y0086343D01*
X0096969Y0086828D01*
X0095700Y0086828D01*
X0094527Y0086343D01*
X0093630Y0085445D01*
X0093144Y0084272D01*
X0093144Y0083003D01*
X0093630Y0081830D01*
X0094040Y0081421D01*
X0093546Y0080927D01*
X0093153Y0080339D01*
X0092882Y0079685D01*
X0092744Y0078991D01*
X0092744Y0078638D01*
X0096335Y0078638D01*
X0096335Y0075047D01*
X0096335Y0073638D01*
X0096335Y0073638D01*
X0096335Y0078638D01*
X0096335Y0078638D01*
X0096335Y0078638D01*
X0092744Y0078638D01*
X0092744Y0078284D01*
X0092882Y0077590D01*
X0093153Y0076937D01*
X0093546Y0076349D01*
X0093757Y0076138D01*
X0093546Y0075927D01*
X0093153Y0075339D01*
X0092882Y0074685D01*
X0092744Y0073991D01*
X0092744Y0073638D01*
X0096335Y0073638D01*
X0096335Y0073638D01*
X0092744Y0073638D01*
X0092744Y0073284D01*
X0092882Y0072590D01*
X0093153Y0071937D01*
X0093546Y0071349D01*
X0094040Y0070855D01*
X0093630Y0070445D01*
X0093144Y0069272D01*
X0093144Y0068003D01*
X0093630Y0066830D01*
X0094040Y0066421D01*
X0093546Y0065927D01*
X0093153Y0065339D01*
X0092882Y0064685D01*
X0092744Y0063991D01*
X0092744Y0063638D01*
X0096335Y0063638D01*
X0096335Y0063638D01*
X0092744Y0063638D01*
X0092744Y0063284D01*
X0092882Y0062590D01*
X0093153Y0061937D01*
X0093352Y0061639D01*
X0090714Y0061639D01*
X0087427Y0064927D01*
X0087427Y0067832D01*
X0086970Y0068288D01*
X0087213Y0068428D01*
X0087509Y0068724D01*
X0087718Y0069087D01*
X0087827Y0069491D01*
X0087827Y0071374D01*
X0084760Y0071374D01*
X0084760Y0071965D01*
X0084169Y0071965D01*
X0084169Y0075228D01*
X0082484Y0075228D01*
X0082079Y0075120D01*
X0081716Y0074911D01*
X0081420Y0074614D01*
X0081211Y0074252D01*
X0081102Y0073847D01*
X0081102Y0071965D01*
X0084169Y0071965D01*
X0084169Y0071374D01*
X0081102Y0071374D01*
X0081102Y0069491D01*
X0081211Y0069087D01*
X0081420Y0068724D01*
X0081716Y0068428D01*
X0081959Y0068288D01*
X0081502Y0067832D01*
X0081502Y0067151D01*
X0071285Y0067151D01*
X0071285Y0067832D01*
X0070829Y0068288D01*
X0071071Y0068428D01*
X0071367Y0068724D01*
X0071577Y0069087D01*
X0071685Y0069491D01*
X0071685Y0071374D01*
X0068618Y0071374D01*
X0068618Y0071965D01*
X0068028Y0071965D01*
X0068028Y0075228D01*
X0066342Y0075228D01*
X0065937Y0075120D01*
X0065575Y0074911D01*
X0065278Y0074614D01*
X0065069Y0074252D01*
X0064961Y0073847D01*
X0064961Y0071965D01*
X0068027Y0071965D01*
X0068027Y0071374D01*
X0064961Y0071374D01*
X0064961Y0069491D01*
X0065069Y0069087D01*
X0065278Y0068724D01*
X0065575Y0068428D01*
X0065817Y0068288D01*
X0065361Y0067832D01*
X0065361Y0062908D01*
X0066058Y0062211D01*
X0070588Y0062211D01*
X0071285Y0062908D01*
X0071285Y0063589D01*
X0081502Y0063589D01*
X0081502Y0062908D01*
X0082200Y0062211D01*
X0085105Y0062211D01*
X0087354Y0059961D01*
X0087354Y0055150D01*
X0086535Y0055150D01*
X0086535Y0054331D01*
X0082235Y0054331D01*
X0077354Y0054331D01*
X0077354Y0055150D01*
X0076535Y0055150D01*
X0076535Y0060031D01*
X0076528Y0060031D01*
X0075706Y0059900D01*
X0074914Y0059643D01*
X0074172Y0059265D01*
X0073498Y0058776D01*
X0072909Y0058187D01*
X0072420Y0057513D01*
X0072042Y0056771D01*
X0071785Y0055979D01*
X0071768Y0055875D01*
X0071091Y0057510D01*
X0069715Y0058886D01*
X0067918Y0059631D01*
X0065972Y0059631D01*
X0064175Y0058886D01*
X0062799Y0057510D01*
X0062236Y0056152D01*
X0062236Y0082290D01*
X0072950Y0082290D01*
X0073647Y0082987D01*
X0073647Y0086336D01*
X0072950Y0087033D01*
X0062236Y0087033D01*
X0062236Y0097250D01*
X0072950Y0097250D01*
X0073647Y0097948D01*
X0073647Y0101296D01*
X0072950Y0101994D01*
X0062236Y0101994D01*
X0062236Y0104724D01*
X0063697Y0104724D01*
X0063697Y0107988D01*
X0064287Y0107988D01*
X0064287Y0104724D01*
X0065973Y0104724D01*
X0066378Y0104833D01*
X0066740Y0105042D01*
X0067037Y0105338D01*
X0067246Y0105701D01*
X0067354Y0106106D01*
X0067354Y0107988D01*
X0064287Y0107988D01*
X0064287Y0108579D01*
X0067354Y0108579D01*
X0067354Y0110461D01*
X0067246Y0110866D01*
X0067037Y0111229D01*
X0066740Y0111525D01*
X0066498Y0111665D01*
X0066954Y0112121D01*
X0066954Y0112802D01*
X0077172Y0112802D01*
X0077172Y0112121D01*
X0077628Y0111665D01*
X0077386Y0111525D01*
X0077089Y0111229D01*
X0076880Y0110866D01*
X0076772Y0110461D01*
X0076772Y0108579D01*
X0079838Y0108579D01*
X0079838Y0107988D01*
X0076772Y0107988D01*
X0076772Y0106106D01*
X0076880Y0105701D01*
X0077089Y0105338D01*
X0077386Y0105042D01*
X0077748Y0104833D01*
X0078153Y0104724D01*
X0079839Y0104724D01*
X0079839Y0107988D01*
X0080429Y0107988D01*
X0080429Y0104724D01*
X0082115Y0104724D01*
X0082519Y0104833D01*
X0082882Y0105042D01*
X0083178Y0105338D01*
X0083388Y0105701D01*
X0083496Y0106106D01*
X0083496Y0107988D01*
X0080429Y0107988D01*
X0080429Y0108579D01*
X0083496Y0108579D01*
X0083496Y0108756D01*
X0083708Y0108668D01*
X0084258Y0108668D01*
X0084258Y0107733D01*
X0084679Y0106717D01*
X0085457Y0105939D01*
X0086474Y0105518D01*
X0087574Y0105518D01*
X0087802Y0105613D01*
X0087802Y0105428D01*
X0087883Y0105346D01*
X0086758Y0105346D01*
X0086758Y0102230D01*
X0086266Y0102230D01*
X0086266Y0101738D01*
X0086758Y0101738D01*
X0086758Y0098622D01*
X0087778Y0098622D01*
X0087687Y0098464D01*
X0087579Y0098060D01*
X0087579Y0096325D01*
X0090596Y0096325D01*
X0090596Y0095833D01*
X0087579Y0095833D01*
X0087579Y0094098D01*
X0087626Y0093923D01*
X0084080Y0093923D01*
X0084080Y0095236D01*
X0084163Y0095319D01*
X0084372Y0095681D01*
X0084480Y0096086D01*
X0084480Y0097722D01*
X0081364Y0097722D01*
X0081364Y0098215D01*
X0080872Y0098215D01*
X0080872Y0101232D01*
X0079137Y0101232D01*
X0078733Y0101124D01*
X0078370Y0100914D01*
X0078074Y0100618D01*
X0077864Y0100256D01*
X0077756Y0099851D01*
X0077756Y0098215D01*
X0080872Y0098215D01*
X0080872Y0097722D01*
X0078599Y0097722D01*
X0078462Y0097860D01*
X0074326Y0097860D01*
X0073628Y0097162D01*
X0073647Y0098378D02*
X0077756Y0098378D01*
X0077756Y0099558D02*
X0073647Y0099558D01*
X0073647Y0100738D02*
X0078193Y0100738D01*
X0080872Y0100738D02*
X0081364Y0100738D01*
X0081364Y0101232D02*
X0081364Y0098215D01*
X0084480Y0098215D01*
X0084480Y0098662D01*
X0084629Y0098622D01*
X0086266Y0098622D01*
X0086266Y0101738D01*
X0083248Y0101738D01*
X0083248Y0101192D01*
X0083099Y0101232D01*
X0081364Y0101232D01*
X0081364Y0099558D02*
X0080872Y0099558D01*
X0080872Y0098378D02*
X0081364Y0098378D01*
X0084480Y0098378D02*
X0087664Y0098378D01*
X0087579Y0097199D02*
X0084480Y0097199D01*
X0084462Y0096019D02*
X0090596Y0096019D01*
X0087579Y0094840D02*
X0084080Y0094840D01*
X0086266Y0099558D02*
X0086758Y0099558D01*
X0086758Y0100738D02*
X0086266Y0100738D01*
X0086266Y0101917D02*
X0073026Y0101917D01*
X0077021Y0105456D02*
X0067105Y0105456D01*
X0067354Y0106636D02*
X0076772Y0106636D01*
X0076772Y0107815D02*
X0067354Y0107815D01*
X0067354Y0108995D02*
X0076772Y0108995D01*
X0076772Y0110175D02*
X0067354Y0110175D01*
X0066911Y0111354D02*
X0077215Y0111354D01*
X0077172Y0112534D02*
X0066954Y0112534D01*
X0063992Y0114583D02*
X0080134Y0114583D01*
X0081109Y0114583D01*
X0084258Y0111433D01*
X0085243Y0114019D02*
X0084808Y0114198D01*
X0084012Y0114198D01*
X0083096Y0115114D01*
X0083096Y0117044D01*
X0082399Y0117742D01*
X0077869Y0117742D01*
X0077172Y0117044D01*
X0077172Y0116364D01*
X0066954Y0116364D01*
X0066954Y0117044D01*
X0066257Y0117742D01*
X0062236Y0117742D01*
X0062236Y0141911D01*
X0062799Y0140553D01*
X0064175Y0139177D01*
X0064967Y0138849D01*
X0064967Y0131611D01*
X0064573Y0131218D01*
X0064573Y0125901D01*
X0065030Y0125444D01*
X0064787Y0125304D01*
X0064491Y0125008D01*
X0064282Y0124645D01*
X0064173Y0124241D01*
X0064173Y0122260D01*
X0067338Y0122260D01*
X0067338Y0121472D01*
X0064173Y0121472D01*
X0064173Y0119491D01*
X0064282Y0119087D01*
X0064491Y0118724D01*
X0064787Y0118428D01*
X0065150Y0118219D01*
X0065554Y0118110D01*
X0067339Y0118110D01*
X0067339Y0121472D01*
X0068126Y0121472D01*
X0068126Y0118110D01*
X0069910Y0118110D01*
X0070315Y0118219D01*
X0070677Y0118428D01*
X0070968Y0118719D01*
X0071176Y0118510D01*
X0076493Y0118510D01*
X0077181Y0119198D01*
X0077869Y0118510D01*
X0083186Y0118510D01*
X0083883Y0119208D01*
X0083883Y0123825D01*
X0083971Y0123825D01*
X0084562Y0123235D01*
X0085243Y0123235D01*
X0085243Y0114019D01*
X0085243Y0114893D02*
X0083317Y0114893D01*
X0083096Y0116073D02*
X0085243Y0116073D01*
X0085243Y0117252D02*
X0082888Y0117252D01*
X0083883Y0119611D02*
X0085243Y0119611D01*
X0085243Y0118432D02*
X0070681Y0118432D01*
X0068126Y0118432D02*
X0067339Y0118432D01*
X0067339Y0119611D02*
X0068126Y0119611D01*
X0068126Y0120791D02*
X0067339Y0120791D01*
X0067338Y0121971D02*
X0062236Y0121971D01*
X0062236Y0123150D02*
X0064173Y0123150D01*
X0064197Y0124330D02*
X0062236Y0124330D01*
X0062236Y0125510D02*
X0064964Y0125510D01*
X0064573Y0126689D02*
X0062236Y0126689D01*
X0062236Y0127869D02*
X0064573Y0127869D01*
X0064573Y0129048D02*
X0062236Y0129048D01*
X0062236Y0130228D02*
X0064573Y0130228D01*
X0064763Y0131408D02*
X0062236Y0131408D01*
X0062236Y0132587D02*
X0064967Y0132587D01*
X0064967Y0133767D02*
X0062236Y0133767D01*
X0062236Y0134946D02*
X0064967Y0134946D01*
X0064967Y0136126D02*
X0062236Y0136126D01*
X0062236Y0137306D02*
X0064967Y0137306D01*
X0064967Y0138485D02*
X0062236Y0138485D01*
X0062236Y0139665D02*
X0063687Y0139665D01*
X0062678Y0140845D02*
X0062236Y0140845D01*
X0070498Y0139665D02*
X0073121Y0139665D01*
X0072270Y0140845D02*
X0071212Y0140845D01*
X0071700Y0142024D02*
X0071804Y0142024D01*
X0070498Y0138485D02*
X0074622Y0138485D01*
X0074016Y0137306D02*
X0070498Y0137306D01*
X0070498Y0136126D02*
X0074016Y0136126D01*
X0074016Y0134946D02*
X0070498Y0134946D01*
X0070498Y0133767D02*
X0074016Y0133767D01*
X0074447Y0132587D02*
X0071552Y0132587D01*
X0072732Y0131408D02*
X0083465Y0131408D01*
X0083465Y0132587D02*
X0079915Y0132587D01*
X0080029Y0132701D02*
X0080238Y0133063D01*
X0080346Y0133468D01*
X0080346Y0135252D01*
X0077378Y0135252D01*
X0077378Y0132087D01*
X0078965Y0132087D01*
X0079370Y0132195D01*
X0079733Y0132404D01*
X0080029Y0132701D01*
X0080346Y0133767D02*
X0083465Y0133767D01*
X0083465Y0133677D02*
X0086630Y0133677D01*
X0086630Y0137039D01*
X0084846Y0137039D01*
X0084441Y0136931D01*
X0084078Y0136722D01*
X0083782Y0136425D01*
X0083573Y0136063D01*
X0083465Y0135658D01*
X0083465Y0133677D01*
X0083465Y0134946D02*
X0080346Y0134946D01*
X0080346Y0136126D02*
X0083610Y0136126D01*
X0086630Y0136126D02*
X0087417Y0136126D01*
X0087417Y0137039D02*
X0087417Y0133677D01*
X0090583Y0133677D01*
X0090583Y0135658D01*
X0090474Y0136063D01*
X0090265Y0136425D01*
X0089969Y0136722D01*
X0089606Y0136931D01*
X0089202Y0137039D01*
X0087417Y0137039D01*
X0088046Y0138485D02*
X0095844Y0138485D01*
X0098046Y0138485D02*
X0105844Y0138485D01*
X0108046Y0138485D02*
X0115844Y0138485D01*
X0118046Y0138485D02*
X0124996Y0138485D01*
X0124587Y0137306D02*
X0080346Y0137306D01*
X0079740Y0138485D02*
X0085844Y0138485D01*
X0083687Y0139665D02*
X0080769Y0139665D01*
X0081620Y0140845D02*
X0082678Y0140845D01*
X0082189Y0142024D02*
X0082086Y0142024D01*
X0077354Y0142024D02*
X0076535Y0142024D01*
X0076535Y0140845D02*
X0077354Y0140845D01*
X0077354Y0139665D02*
X0076535Y0139665D01*
X0076984Y0138485D02*
X0077354Y0138485D01*
X0077378Y0137306D02*
X0076984Y0137306D01*
X0076984Y0136126D02*
X0077378Y0136126D01*
X0077378Y0134946D02*
X0076984Y0134946D01*
X0076984Y0133767D02*
X0077378Y0133767D01*
X0077378Y0132587D02*
X0076984Y0132587D01*
X0076206Y0129048D02*
X0078156Y0129048D01*
X0078156Y0127869D02*
X0076206Y0127869D01*
X0076206Y0126689D02*
X0078156Y0126689D01*
X0078156Y0125510D02*
X0076206Y0125510D01*
X0076992Y0124330D02*
X0077371Y0124330D01*
X0083883Y0123150D02*
X0085243Y0123150D01*
X0085243Y0121971D02*
X0083883Y0121971D01*
X0083883Y0120791D02*
X0085243Y0120791D01*
X0088805Y0120791D02*
X0096857Y0120791D01*
X0096857Y0119611D02*
X0088805Y0119611D01*
X0088805Y0118535D02*
X0088805Y0123235D01*
X0089485Y0123235D01*
X0090076Y0123825D01*
X0090133Y0123825D01*
X0091149Y0124246D01*
X0095649Y0128746D01*
X0096857Y0128746D01*
X0096857Y0124326D01*
X0097545Y0123638D01*
X0096857Y0122950D01*
X0096857Y0117633D01*
X0097554Y0116935D01*
X0100853Y0116935D01*
X0102138Y0115650D01*
X0102990Y0114798D01*
X0101344Y0114798D01*
X0100301Y0113755D01*
X0099963Y0113417D01*
X0099228Y0113417D01*
X0098428Y0113417D01*
X0098024Y0113309D01*
X0097661Y0113100D01*
X0097579Y0113017D01*
X0096176Y0113017D01*
X0095479Y0112320D01*
X0095479Y0109671D01*
X0094120Y0109671D01*
X0094120Y0110745D01*
X0093663Y0111201D01*
X0093906Y0111341D01*
X0094202Y0111638D01*
X0094411Y0112000D01*
X0094520Y0112405D01*
X0094520Y0114386D01*
X0091354Y0114386D01*
X0091354Y0115173D01*
X0090567Y0115173D01*
X0090567Y0118535D01*
X0088805Y0118535D01*
X0090567Y0118432D02*
X0091354Y0118432D01*
X0091354Y0118535D02*
X0091354Y0115173D01*
X0094520Y0115173D01*
X0094520Y0117154D01*
X0094411Y0117559D01*
X0094202Y0117921D01*
X0093906Y0118218D01*
X0093543Y0118427D01*
X0093139Y0118535D01*
X0091354Y0118535D01*
X0091354Y0117252D02*
X0090567Y0117252D01*
X0090567Y0116073D02*
X0091354Y0116073D01*
X0091354Y0114893D02*
X0102895Y0114893D01*
X0101716Y0116073D02*
X0094520Y0116073D01*
X0094493Y0117252D02*
X0097237Y0117252D01*
X0096857Y0118432D02*
X0093525Y0118432D01*
X0096857Y0121971D02*
X0088805Y0121971D01*
X0088805Y0123150D02*
X0097057Y0123150D01*
X0096857Y0124330D02*
X0091233Y0124330D01*
X0092412Y0125510D02*
X0096857Y0125510D01*
X0096857Y0126689D02*
X0093592Y0126689D01*
X0094772Y0127869D02*
X0096857Y0127869D01*
X0091669Y0132587D02*
X0090583Y0132587D01*
X0090583Y0133767D02*
X0092848Y0133767D01*
X0090583Y0134946D02*
X0124587Y0134946D01*
X0124587Y0136126D02*
X0090438Y0136126D01*
X0087417Y0134946D02*
X0086630Y0134946D01*
X0086630Y0133767D02*
X0087417Y0133767D01*
X0083732Y0130228D02*
X0073911Y0130228D01*
X0064173Y0120791D02*
X0062236Y0120791D01*
X0062236Y0119611D02*
X0064173Y0119611D01*
X0064783Y0118432D02*
X0062236Y0118432D01*
X0066746Y0117252D02*
X0077380Y0117252D01*
X0087024Y0111039D02*
X0089976Y0108087D01*
X0090961Y0108087D01*
X0087220Y0108087D01*
X0087024Y0108283D01*
X0087024Y0111039D02*
X0087024Y0126591D01*
X0100016Y0120291D02*
X0103919Y0116388D01*
X0106338Y0116388D01*
X0104960Y0115010D02*
X0104960Y0117766D01*
X0107716Y0117766D01*
X0107716Y0115010D01*
X0104960Y0115010D01*
X0104960Y0116190D02*
X0107716Y0116190D01*
X0107716Y0117370D02*
X0104960Y0117370D01*
X0104729Y0120291D02*
X0104729Y0123047D01*
X0107485Y0123047D01*
X0107485Y0120291D01*
X0104729Y0120291D01*
X0104729Y0121471D02*
X0107485Y0121471D01*
X0107485Y0122651D02*
X0104729Y0122651D01*
X0106107Y0121669D02*
X0106107Y0127170D01*
X0106118Y0127181D01*
X0111635Y0123047D02*
X0111635Y0120291D01*
X0111635Y0123047D02*
X0114391Y0123047D01*
X0114391Y0120291D01*
X0111635Y0120291D01*
X0111635Y0121471D02*
X0114391Y0121471D01*
X0114391Y0122651D02*
X0111635Y0122651D01*
X0113013Y0121669D02*
X0121138Y0121669D01*
X0121276Y0121531D01*
X0126403Y0121971D02*
X0211811Y0121971D01*
X0211811Y0120791D02*
X0126403Y0120791D01*
X0126403Y0119611D02*
X0211811Y0119611D01*
X0211811Y0118432D02*
X0126403Y0118432D01*
X0126403Y0117252D02*
X0211811Y0117252D01*
X0211811Y0116073D02*
X0126403Y0116073D01*
X0126403Y0114893D02*
X0211811Y0114893D01*
X0196091Y0128271D02*
X0195728Y0128061D01*
X0195324Y0127953D01*
X0193539Y0127953D01*
X0193539Y0133087D01*
X0196705Y0133087D01*
X0196705Y0129334D01*
X0196596Y0128929D01*
X0196387Y0128567D01*
X0196091Y0128271D01*
X0196628Y0129048D02*
X0199663Y0129048D01*
X0199587Y0130228D02*
X0196705Y0130228D01*
X0196705Y0131408D02*
X0199587Y0131408D01*
X0199587Y0132587D02*
X0196705Y0132587D01*
X0196705Y0134946D02*
X0199587Y0134946D01*
X0199587Y0136126D02*
X0196705Y0136126D01*
X0196705Y0137306D02*
X0199587Y0137306D01*
X0199996Y0138485D02*
X0199104Y0138485D01*
X0197354Y0138485D02*
X0196535Y0138485D01*
X0196535Y0139665D02*
X0197354Y0139665D01*
X0197354Y0140845D02*
X0196535Y0140845D01*
X0196535Y0142024D02*
X0197354Y0142024D01*
X0197354Y0142913D02*
X0201654Y0142913D01*
X0206535Y0142913D01*
X0206535Y0143732D01*
X0197354Y0143732D01*
X0197354Y0142913D01*
X0197354Y0143204D02*
X0206535Y0143204D01*
X0211620Y0140845D02*
X0211811Y0140845D01*
X0211811Y0139665D02*
X0210769Y0139665D01*
X0211296Y0138485D02*
X0211811Y0138485D01*
X0211811Y0137306D02*
X0211705Y0137306D01*
X0211705Y0136126D02*
X0211811Y0136126D01*
X0211811Y0134946D02*
X0211705Y0134946D01*
X0208539Y0134946D02*
X0207752Y0134946D01*
X0207752Y0136126D02*
X0208539Y0136126D01*
X0208539Y0137306D02*
X0207752Y0137306D01*
X0203539Y0137306D02*
X0202752Y0137306D01*
X0202752Y0138485D02*
X0203539Y0138485D01*
X0203121Y0139665D02*
X0200769Y0139665D01*
X0201620Y0140845D02*
X0202270Y0140845D01*
X0202752Y0136126D02*
X0203539Y0136126D01*
X0203539Y0134946D02*
X0202752Y0134946D01*
X0202752Y0132587D02*
X0203539Y0132587D01*
X0203539Y0131408D02*
X0202752Y0131408D01*
X0202752Y0130228D02*
X0203539Y0130228D01*
X0203539Y0129048D02*
X0202752Y0129048D01*
X0207752Y0129048D02*
X0208539Y0129048D01*
X0208539Y0130228D02*
X0207752Y0130228D01*
X0207752Y0131408D02*
X0208539Y0131408D01*
X0208539Y0132587D02*
X0207752Y0132587D01*
X0193539Y0132587D02*
X0192752Y0132587D01*
X0192752Y0131408D02*
X0193539Y0131408D01*
X0193539Y0130228D02*
X0192752Y0130228D01*
X0192752Y0129048D02*
X0193539Y0129048D01*
X0211811Y0085403D02*
X0130351Y0085403D01*
X0128362Y0083480D02*
X0163097Y0083480D01*
X0179406Y0067172D01*
X0179406Y0064583D01*
X0184406Y0064583D02*
X0184406Y0060390D01*
X0178756Y0054740D01*
X0176945Y0054740D01*
X0186945Y0054740D02*
X0189406Y0057201D01*
X0189406Y0064583D01*
X0194406Y0064583D02*
X0194406Y0057280D01*
X0196945Y0054740D01*
X0200330Y0058272D02*
X0202994Y0058272D01*
X0202205Y0057092D02*
X0201264Y0057092D01*
X0201753Y0055912D02*
X0201774Y0055912D01*
X0201382Y0059451D02*
X0198351Y0059451D01*
X0197565Y0060631D02*
X0200846Y0060631D01*
X0200846Y0061810D02*
X0197565Y0061810D01*
X0197565Y0062990D02*
X0200846Y0062990D01*
X0200846Y0064170D02*
X0197565Y0064170D01*
X0197565Y0065349D02*
X0200846Y0065349D01*
X0200846Y0064976D02*
X0204012Y0064976D01*
X0204012Y0070110D01*
X0202228Y0070110D01*
X0201823Y0070002D01*
X0201460Y0069792D01*
X0201164Y0069496D01*
X0200955Y0069134D01*
X0200846Y0068729D01*
X0200846Y0064976D01*
X0200846Y0066529D02*
X0197565Y0066529D01*
X0197565Y0067708D02*
X0200846Y0067708D01*
X0200889Y0068888D02*
X0197565Y0068888D01*
X0202069Y0070068D02*
X0179029Y0070068D01*
X0177849Y0071247D02*
X0211811Y0071247D01*
X0211811Y0070068D02*
X0211742Y0070068D01*
X0209799Y0070068D02*
X0209012Y0070068D01*
X0209012Y0068888D02*
X0209799Y0068888D01*
X0209799Y0067708D02*
X0209012Y0067708D01*
X0209012Y0066529D02*
X0209799Y0066529D01*
X0209799Y0065349D02*
X0209012Y0065349D01*
X0204799Y0065349D02*
X0204012Y0065349D01*
X0204012Y0066529D02*
X0204799Y0066529D01*
X0204799Y0067708D02*
X0204012Y0067708D01*
X0204012Y0068888D02*
X0204799Y0068888D01*
X0204799Y0070068D02*
X0204012Y0070068D01*
X0206742Y0070068D02*
X0207069Y0070068D01*
X0211811Y0072427D02*
X0176669Y0072427D01*
X0175490Y0073607D02*
X0211811Y0073607D01*
X0211811Y0074786D02*
X0174310Y0074786D01*
X0173130Y0075966D02*
X0211811Y0075966D01*
X0211811Y0077145D02*
X0171951Y0077145D01*
X0170771Y0078325D02*
X0211811Y0078325D01*
X0211811Y0079505D02*
X0169592Y0079505D01*
X0168412Y0080684D02*
X0211811Y0080684D01*
X0211811Y0081864D02*
X0167232Y0081864D01*
X0166053Y0083043D02*
X0211811Y0083043D01*
X0211811Y0084223D02*
X0164873Y0084223D01*
X0162821Y0078756D02*
X0174406Y0067172D01*
X0174406Y0064583D01*
X0169406Y0064583D02*
X0169406Y0068815D01*
X0164583Y0073638D01*
X0137417Y0073638D01*
X0129543Y0070488D02*
X0128756Y0071276D01*
X0129543Y0070488D02*
X0152378Y0070488D01*
X0154406Y0068461D01*
X0154406Y0064583D01*
X0159406Y0064583D02*
X0159406Y0057201D01*
X0156945Y0054740D01*
X0164406Y0057280D02*
X0166945Y0054740D01*
X0164406Y0057280D02*
X0164406Y0064583D01*
X0149406Y0064583D02*
X0149406Y0057201D01*
X0146945Y0054740D01*
X0139406Y0057201D02*
X0136945Y0054740D01*
X0139406Y0057201D02*
X0139406Y0064583D01*
X0134406Y0064583D02*
X0134406Y0060390D01*
X0128756Y0054740D01*
X0126945Y0054740D01*
X0126787Y0064583D02*
X0116945Y0054740D01*
X0108283Y0059858D02*
X0116148Y0067723D01*
X0116148Y0073993D01*
X0118686Y0076531D01*
X0121276Y0076531D01*
X0118264Y0076531D01*
X0118539Y0081531D02*
X0121276Y0081531D01*
X0110232Y0081531D01*
X0101591Y0090173D01*
X0081118Y0090173D01*
X0081118Y0088126D01*
X0081118Y0090173D02*
X0076394Y0090173D01*
X0073628Y0090121D02*
X0062236Y0090121D01*
X0062236Y0088942D02*
X0073628Y0088942D01*
X0073628Y0087762D02*
X0062236Y0087762D01*
X0062236Y0091301D02*
X0073628Y0091301D01*
X0073628Y0092480D02*
X0062236Y0092480D01*
X0073401Y0086582D02*
X0074167Y0086582D01*
X0073647Y0085403D02*
X0077756Y0085403D01*
X0077756Y0084223D02*
X0073647Y0084223D01*
X0073647Y0083043D02*
X0077756Y0083043D01*
X0077756Y0081864D02*
X0062236Y0081864D01*
X0062236Y0080684D02*
X0078299Y0080684D01*
X0080872Y0080684D02*
X0081364Y0080684D01*
X0081364Y0081864D02*
X0080872Y0081864D01*
X0080872Y0083043D02*
X0081364Y0083043D01*
X0084480Y0083043D02*
X0093144Y0083043D01*
X0093144Y0084223D02*
X0084480Y0084223D01*
X0084480Y0085403D02*
X0093612Y0085403D01*
X0095106Y0086582D02*
X0084080Y0086582D01*
X0084080Y0087762D02*
X0101483Y0087762D01*
X0102563Y0086582D02*
X0102663Y0086582D01*
X0100106Y0086582D02*
X0097563Y0086582D01*
X0093616Y0081864D02*
X0084480Y0081864D01*
X0083938Y0080684D02*
X0093384Y0080684D01*
X0092846Y0079505D02*
X0062236Y0079505D01*
X0062236Y0078325D02*
X0092744Y0078325D01*
X0093066Y0077145D02*
X0062236Y0077145D01*
X0062236Y0075966D02*
X0093585Y0075966D01*
X0092924Y0074786D02*
X0087337Y0074786D01*
X0087213Y0074911D02*
X0086850Y0075120D01*
X0086446Y0075228D01*
X0084760Y0075228D01*
X0084760Y0071965D01*
X0087827Y0071965D01*
X0087827Y0073847D01*
X0087718Y0074252D01*
X0087509Y0074614D01*
X0087213Y0074911D01*
X0087827Y0073607D02*
X0092744Y0073607D01*
X0092950Y0072427D02*
X0087827Y0072427D01*
X0087827Y0071247D02*
X0093647Y0071247D01*
X0093474Y0070068D02*
X0087827Y0070068D01*
X0087604Y0068888D02*
X0093144Y0068888D01*
X0093266Y0067708D02*
X0087427Y0067708D01*
X0087427Y0066529D02*
X0093931Y0066529D01*
X0093160Y0065349D02*
X0087427Y0065349D01*
X0088184Y0064170D02*
X0092780Y0064170D01*
X0092803Y0062990D02*
X0089363Y0062990D01*
X0090543Y0061810D02*
X0093237Y0061810D01*
X0089976Y0059858D02*
X0098047Y0059858D01*
X0101335Y0063146D01*
X0101335Y0063638D01*
X0102063Y0059858D02*
X0096945Y0054740D01*
X0102063Y0059858D02*
X0108283Y0059858D01*
X0106945Y0054740D02*
X0121276Y0069071D01*
X0121276Y0071531D01*
X0126787Y0064583D02*
X0129406Y0064583D01*
X0128362Y0078756D02*
X0162821Y0078756D01*
X0127969Y0096472D02*
X0127909Y0096531D01*
X0121276Y0096531D01*
X0107920Y0096531D01*
X0107920Y0095970D01*
X0108205Y0095685D01*
X0107920Y0096531D02*
X0105804Y0098647D01*
X0104140Y0098647D01*
X0103165Y0099622D01*
X0103165Y0101197D01*
X0105134Y0101197D02*
X0107315Y0101197D01*
X0107315Y0102172D01*
X0107939Y0102172D01*
X0110361Y0099750D01*
X0111227Y0099750D01*
X0111227Y0098322D01*
X0111236Y0098313D01*
X0110706Y0098313D01*
X0110371Y0098647D01*
X0108323Y0098647D01*
X0107283Y0099687D01*
X0107315Y0099806D01*
X0107315Y0101197D01*
X0105134Y0101197D01*
X0105134Y0101197D01*
X0107315Y0100738D02*
X0109373Y0100738D01*
X0108194Y0101917D02*
X0107315Y0101917D01*
X0107412Y0099558D02*
X0111227Y0099558D01*
X0111227Y0098378D02*
X0110640Y0098378D01*
X0111098Y0101531D02*
X0108677Y0103953D01*
X0105921Y0103953D01*
X0105921Y0105921D02*
X0103150Y0105921D01*
X0103150Y0105121D01*
X0103258Y0104717D01*
X0103467Y0104354D01*
X0103550Y0104272D01*
X0103550Y0103634D01*
X0103484Y0103568D01*
X0098844Y0103568D01*
X0098844Y0107874D01*
X0099228Y0107874D01*
X0099228Y0110646D01*
X0099228Y0113417D01*
X0099228Y0110646D01*
X0099228Y0110646D01*
X0099228Y0110646D01*
X0099228Y0107874D01*
X0100028Y0107874D01*
X0100433Y0107982D01*
X0100796Y0108192D01*
X0100878Y0108274D01*
X0101516Y0108274D01*
X0101598Y0108192D01*
X0101961Y0107982D01*
X0102365Y0107874D01*
X0103165Y0107874D01*
X0103165Y0110646D01*
X0103165Y0110646D01*
X0103165Y0107874D01*
X0103550Y0107874D01*
X0103550Y0107571D01*
X0103467Y0107488D01*
X0103258Y0107126D01*
X0103150Y0106721D01*
X0103150Y0105921D01*
X0105921Y0105921D01*
X0105921Y0105921D01*
X0105921Y0105921D01*
X0108693Y0105921D01*
X0108693Y0105734D01*
X0108881Y0105734D01*
X0108695Y0105920D01*
X0108693Y0105925D01*
X0108693Y0105921D01*
X0105921Y0105921D01*
X0103150Y0105456D02*
X0098844Y0105456D01*
X0098844Y0104276D02*
X0103545Y0104276D01*
X0103150Y0106636D02*
X0098844Y0106636D01*
X0098844Y0107815D02*
X0103550Y0107815D01*
X0103165Y0108995D02*
X0103165Y0108995D01*
X0103165Y0110175D02*
X0103165Y0110175D01*
X0101197Y0110646D02*
X0101197Y0112133D01*
X0102082Y0113017D01*
X0119790Y0113017D01*
X0121276Y0111531D01*
X0127870Y0111531D01*
X0127969Y0111433D01*
X0127969Y0106709D02*
X0127791Y0106531D01*
X0121276Y0106531D01*
X0118303Y0106531D01*
X0114189Y0110646D01*
X0105134Y0110646D01*
X0100259Y0113713D02*
X0094520Y0113713D01*
X0094520Y0112534D02*
X0095693Y0112534D01*
X0095479Y0111354D02*
X0093919Y0111354D01*
X0094120Y0110175D02*
X0095479Y0110175D01*
X0091157Y0107890D02*
X0090961Y0108087D01*
X0091079Y0107969D01*
X0091079Y0101984D01*
X0091866Y0101197D01*
X0097260Y0101197D01*
X0099228Y0101197D02*
X0099228Y0099228D01*
X0096079Y0096079D01*
X0095409Y0096079D01*
X0100016Y0095291D02*
X0100409Y0095685D01*
X0103638Y0095685D01*
X0111098Y0101531D02*
X0113795Y0101531D01*
X0113795Y0100882D01*
X0114189Y0100488D01*
X0113795Y0101531D02*
X0121276Y0101531D01*
X0121728Y0101984D01*
X0127969Y0101984D01*
X0120665Y0092142D02*
X0114976Y0092142D01*
X0120665Y0092142D02*
X0121276Y0091531D01*
X0121276Y0086531D02*
X0118421Y0086531D01*
X0096335Y0078325D02*
X0096335Y0078325D01*
X0096335Y0077145D02*
X0096335Y0077145D01*
X0096335Y0075966D02*
X0096335Y0075966D01*
X0096335Y0074786D02*
X0096335Y0074786D01*
X0084760Y0074786D02*
X0084169Y0074786D01*
X0084169Y0073607D02*
X0084760Y0073607D01*
X0084760Y0072427D02*
X0084169Y0072427D01*
X0081102Y0072427D02*
X0071685Y0072427D01*
X0071685Y0071965D02*
X0071685Y0073847D01*
X0071577Y0074252D01*
X0071367Y0074614D01*
X0071071Y0074911D01*
X0070708Y0075120D01*
X0070304Y0075228D01*
X0068618Y0075228D01*
X0068618Y0071965D01*
X0071685Y0071965D01*
X0071685Y0071247D02*
X0081102Y0071247D01*
X0081102Y0070068D02*
X0071685Y0070068D01*
X0071462Y0068888D02*
X0081326Y0068888D01*
X0081502Y0067708D02*
X0071285Y0067708D01*
X0068323Y0065370D02*
X0084465Y0065370D01*
X0089976Y0059858D01*
X0087354Y0059451D02*
X0086535Y0059451D01*
X0086535Y0060031D02*
X0086528Y0060031D01*
X0085706Y0059900D01*
X0084914Y0059643D01*
X0084172Y0059265D01*
X0083498Y0058776D01*
X0082909Y0058187D01*
X0082420Y0057513D01*
X0082042Y0056771D01*
X0081945Y0056472D01*
X0081848Y0056771D01*
X0081470Y0057513D01*
X0080980Y0058187D01*
X0080391Y0058776D01*
X0079718Y0059265D01*
X0078976Y0059643D01*
X0078184Y0059900D01*
X0077361Y0060031D01*
X0077354Y0060031D01*
X0077354Y0055150D01*
X0086535Y0055150D01*
X0086535Y0060031D01*
X0086685Y0060631D02*
X0062236Y0060631D01*
X0062236Y0061810D02*
X0085505Y0061810D01*
X0084537Y0059451D02*
X0079352Y0059451D01*
X0080895Y0058272D02*
X0082994Y0058272D01*
X0082205Y0057092D02*
X0081684Y0057092D01*
X0077354Y0057092D02*
X0076535Y0057092D01*
X0076535Y0058272D02*
X0077354Y0058272D01*
X0077354Y0059451D02*
X0076535Y0059451D01*
X0074537Y0059451D02*
X0068351Y0059451D01*
X0070330Y0058272D02*
X0072994Y0058272D01*
X0072205Y0057092D02*
X0071264Y0057092D01*
X0071753Y0055912D02*
X0071774Y0055912D01*
X0076535Y0055912D02*
X0077354Y0055912D01*
X0077354Y0054733D02*
X0086535Y0054733D01*
X0086535Y0055912D02*
X0087354Y0055912D01*
X0087354Y0057092D02*
X0086535Y0057092D01*
X0086535Y0058272D02*
X0087354Y0058272D01*
X0081502Y0062990D02*
X0071285Y0062990D01*
X0065361Y0062990D02*
X0062236Y0062990D01*
X0062236Y0064170D02*
X0065361Y0064170D01*
X0065361Y0065349D02*
X0062236Y0065349D01*
X0062236Y0066529D02*
X0065361Y0066529D01*
X0065361Y0067708D02*
X0062236Y0067708D01*
X0062236Y0068888D02*
X0065184Y0068888D01*
X0064961Y0070068D02*
X0062236Y0070068D01*
X0062236Y0071247D02*
X0064961Y0071247D01*
X0064961Y0072427D02*
X0062236Y0072427D01*
X0062236Y0073607D02*
X0064961Y0073607D01*
X0065450Y0074786D02*
X0062236Y0074786D01*
X0068028Y0074786D02*
X0068618Y0074786D01*
X0068618Y0073607D02*
X0068028Y0073607D01*
X0068028Y0072427D02*
X0068618Y0072427D01*
X0071195Y0074786D02*
X0081592Y0074786D01*
X0081102Y0073607D02*
X0071685Y0073607D01*
X0065539Y0059451D02*
X0062236Y0059451D01*
X0062236Y0058272D02*
X0063560Y0058272D01*
X0062626Y0057092D02*
X0062236Y0057092D01*
X0062236Y0103097D02*
X0083248Y0103097D01*
X0083248Y0102230D02*
X0086266Y0102230D01*
X0086266Y0105346D01*
X0084629Y0105346D01*
X0084225Y0105238D01*
X0083862Y0105029D01*
X0083566Y0104733D01*
X0083356Y0104370D01*
X0083248Y0103965D01*
X0083248Y0102230D01*
X0083331Y0104276D02*
X0062236Y0104276D01*
X0063697Y0105456D02*
X0064287Y0105456D01*
X0064287Y0106636D02*
X0063697Y0106636D01*
X0063697Y0107815D02*
X0064287Y0107815D01*
X0079839Y0107815D02*
X0080429Y0107815D01*
X0080429Y0106636D02*
X0079839Y0106636D01*
X0079839Y0105456D02*
X0080429Y0105456D01*
X0083246Y0105456D02*
X0087802Y0105456D01*
X0086758Y0104276D02*
X0086266Y0104276D01*
X0086266Y0103097D02*
X0086758Y0103097D01*
X0084761Y0106636D02*
X0083496Y0106636D01*
X0083496Y0107815D02*
X0084258Y0107815D01*
X0091157Y0107890D02*
X0096472Y0107890D01*
X0099228Y0108995D02*
X0099228Y0108995D01*
X0099228Y0110175D02*
X0099228Y0110175D01*
X0099228Y0111354D02*
X0099228Y0111354D01*
X0099228Y0112534D02*
X0099228Y0112534D01*
X0111039Y0107487D02*
X0113471Y0105055D01*
X0114189Y0105055D01*
X0111865Y0115010D02*
X0111865Y0117766D01*
X0114621Y0117766D01*
X0114621Y0115010D01*
X0111865Y0115010D01*
X0111865Y0116190D02*
X0114621Y0116190D01*
X0114621Y0117370D02*
X0111865Y0117370D01*
X0113243Y0116388D02*
X0113387Y0116531D01*
X0121276Y0116531D01*
X0121490Y0130228D02*
X0124587Y0130228D01*
X0123687Y0139665D02*
X0120203Y0139665D01*
X0121212Y0140845D02*
X0122678Y0140845D01*
X0122189Y0142024D02*
X0121700Y0142024D01*
X0121835Y0143204D02*
X0122054Y0143204D01*
X0122091Y0144383D02*
X0121799Y0144383D01*
X0121310Y0145563D02*
X0122579Y0145563D01*
X0123448Y0146743D02*
X0120441Y0146743D01*
X0113448Y0146743D02*
X0110441Y0146743D01*
X0111310Y0145563D02*
X0112579Y0145563D01*
X0112091Y0144383D02*
X0111799Y0144383D01*
X0111835Y0143204D02*
X0112054Y0143204D01*
X0112189Y0142024D02*
X0111700Y0142024D01*
X0111212Y0140845D02*
X0112678Y0140845D01*
X0113687Y0139665D02*
X0110203Y0139665D01*
X0103687Y0139665D02*
X0100203Y0139665D01*
X0101212Y0140845D02*
X0102678Y0140845D01*
X0102189Y0142024D02*
X0101700Y0142024D01*
X0101835Y0143204D02*
X0102054Y0143204D01*
X0102091Y0144383D02*
X0101799Y0144383D01*
X0101310Y0145563D02*
X0102579Y0145563D01*
X0103448Y0146743D02*
X0100441Y0146743D01*
X0093448Y0146743D02*
X0090441Y0146743D01*
X0091310Y0145563D02*
X0092579Y0145563D01*
X0092091Y0144383D02*
X0091799Y0144383D01*
X0091835Y0143204D02*
X0092054Y0143204D01*
X0092189Y0142024D02*
X0091700Y0142024D01*
X0091212Y0140845D02*
X0092678Y0140845D01*
X0093687Y0139665D02*
X0090203Y0139665D01*
D17*
X0087024Y0133283D03*
X0087024Y0126591D03*
X0100016Y0126984D03*
X0100016Y0120291D03*
X0090961Y0114780D03*
X0090961Y0108087D03*
X0067732Y0121866D03*
X0067732Y0128559D03*
D18*
X0066945Y0143323D03*
X0076945Y0143323D03*
X0086945Y0143323D03*
X0096945Y0143323D03*
X0106945Y0143323D03*
X0116945Y0143323D03*
X0126945Y0143323D03*
X0136945Y0143323D03*
X0146945Y0143323D03*
X0156945Y0143323D03*
X0166945Y0143323D03*
X0176945Y0143323D03*
X0186945Y0143323D03*
X0196945Y0143323D03*
X0206945Y0143323D03*
X0206945Y0054740D03*
X0196945Y0054740D03*
X0186945Y0054740D03*
X0176945Y0054740D03*
X0166945Y0054740D03*
X0156945Y0054740D03*
X0146945Y0054740D03*
X0136945Y0054740D03*
X0126945Y0054740D03*
X0116945Y0054740D03*
X0106945Y0054740D03*
X0096945Y0054740D03*
X0086945Y0054740D03*
X0076945Y0054740D03*
X0066945Y0054740D03*
D19*
X0068323Y0065370D03*
X0068323Y0071669D03*
X0084465Y0071669D03*
X0084465Y0065370D03*
X0080134Y0108283D03*
X0080134Y0114583D03*
X0063992Y0114583D03*
X0063992Y0108283D03*
D20*
X0076394Y0096079D03*
X0076394Y0094110D03*
X0076394Y0092142D03*
X0076394Y0090173D03*
X0076394Y0088205D03*
D21*
X0067339Y0084661D03*
X0067339Y0099622D03*
D22*
X0081118Y0097969D03*
X0081118Y0093402D03*
X0081118Y0088126D03*
X0081118Y0083559D03*
X0114189Y0100488D03*
X0114189Y0105055D03*
D23*
X0105134Y0101197D03*
X0103165Y0101197D03*
X0101197Y0101197D03*
X0099228Y0101197D03*
X0097260Y0101197D03*
X0097260Y0110646D03*
X0099228Y0110646D03*
X0101197Y0110646D03*
X0103165Y0110646D03*
X0105134Y0110646D03*
D24*
X0105921Y0107890D03*
X0105921Y0105921D03*
X0105921Y0103953D03*
X0096472Y0103953D03*
X0096472Y0105921D03*
X0096472Y0107890D03*
D25*
X0091079Y0101984D03*
X0086512Y0101984D03*
X0090843Y0096079D03*
X0095409Y0096079D03*
X0103638Y0095685D03*
X0108205Y0095685D03*
D26*
X0108677Y0100016D03*
X0100016Y0095291D03*
X0099228Y0087339D03*
X0089386Y0084661D03*
X0086236Y0077575D03*
X0076394Y0069307D03*
X0074031Y0077575D03*
X0063402Y0079150D03*
X0063402Y0072457D03*
X0063402Y0060252D03*
X0063402Y0088205D03*
X0072063Y0092142D03*
X0063402Y0096079D03*
X0063402Y0103165D03*
X0072063Y0111433D03*
X0075606Y0102772D03*
X0084258Y0111433D03*
X0087024Y0108283D03*
X0083874Y0117732D03*
X0090567Y0120882D03*
X0095685Y0126394D03*
X0082299Y0137811D03*
X0077181Y0130331D03*
X0071669Y0138205D03*
X0063402Y0137024D03*
X0063402Y0129150D03*
X0063402Y0121276D03*
X0086236Y0096079D03*
X0097654Y0114976D03*
X0111039Y0107487D03*
X0127969Y0106709D03*
X0127969Y0111433D03*
X0132299Y0104740D03*
X0127969Y0101984D03*
X0127969Y0096472D03*
X0128756Y0090567D03*
X0128362Y0083480D03*
X0128362Y0078756D03*
X0128756Y0071276D03*
X0137417Y0073638D03*
X0148441Y0090567D03*
X0166551Y0087811D03*
X0182299Y0087811D03*
X0198047Y0094110D03*
X0209858Y0095685D03*
X0209858Y0101984D03*
X0209858Y0109858D03*
X0209858Y0117732D03*
X0209858Y0125606D03*
X0198047Y0125606D03*
X0182299Y0125606D03*
X0164189Y0124425D03*
X0150803Y0118913D03*
X0137811Y0127369D03*
X0132693Y0126787D03*
X0131906Y0122063D03*
X0148047Y0105134D03*
X0166551Y0109858D03*
X0182299Y0108677D03*
X0198047Y0107890D03*
X0209858Y0087811D03*
X0209858Y0079937D03*
X0209858Y0072063D03*
X0198047Y0072063D03*
X0182299Y0072063D03*
X0114976Y0092142D03*
D27*
X0082299Y0139386D02*
X0080882Y0139386D01*
X0076945Y0143323D01*
X0076787Y0143323D01*
X0071669Y0138205D01*
X0202378Y0058677D02*
X0203008Y0058677D01*
X0206945Y0054740D01*
X0208283Y0135449D02*
X0206945Y0136787D01*
X0206945Y0143323D01*
D28*
X0121276Y0126531D02*
X0116295Y0131512D01*
X0113795Y0131512D01*
X0112811Y0130528D01*
X0112811Y0127181D01*
X0113795Y0131512D02*
X0100016Y0131512D01*
X0100016Y0126984D01*
X0100016Y0131512D02*
X0094504Y0131512D01*
X0089583Y0126591D01*
X0087024Y0126591D01*
X0081512Y0126591D01*
X0080921Y0127181D01*
X0080921Y0122063D01*
X0080528Y0121669D01*
X0073835Y0121669D02*
X0073441Y0122063D01*
X0073441Y0127181D01*
X0073047Y0127181D01*
X0070587Y0129642D01*
X0068323Y0131906D01*
X0067732Y0131906D01*
X0067732Y0128559D01*
X0068028Y0129642D01*
X0070587Y0129642D01*
X0067732Y0131906D02*
X0067732Y0142535D01*
X0066945Y0143323D01*
M02*
