G75*
%MOIN*%
%OFA0B0*%
%FSLAX25Y25*%
%IPPOS*%
%LPD*%
%AMOC8*
5,1,8,0,0,1.08239X$1,22.5*
%
%ADD10C,0.00000*%
%ADD11C,0.04400*%
%ADD12C,0.07800*%
D10*
X0060646Y0048835D02*
X0060646Y0149228D01*
X0213402Y0149228D01*
X0213402Y0048835D01*
X0060646Y0048835D01*
D11*
X0096335Y0063638D03*
X0101335Y0063638D03*
X0101335Y0068638D03*
X0096335Y0068638D03*
X0096335Y0073638D03*
X0101335Y0073638D03*
X0101335Y0078638D03*
X0096335Y0078638D03*
X0096335Y0083638D03*
X0101335Y0083638D03*
D12*
X0096945Y0054740D03*
X0106945Y0054740D03*
X0116945Y0054740D03*
X0126945Y0054740D03*
X0136945Y0054740D03*
X0146945Y0054740D03*
X0156945Y0054740D03*
X0166945Y0054740D03*
X0176945Y0054740D03*
X0186945Y0054740D03*
X0196945Y0054740D03*
X0206945Y0054740D03*
X0206945Y0143323D03*
X0196945Y0143323D03*
X0186945Y0143323D03*
X0176945Y0143323D03*
X0166945Y0143323D03*
X0156945Y0143323D03*
X0146945Y0143323D03*
X0136945Y0143323D03*
X0126945Y0143323D03*
X0116945Y0143323D03*
X0106945Y0143323D03*
X0096945Y0143323D03*
X0086945Y0143323D03*
X0076945Y0143323D03*
X0066945Y0143323D03*
X0066945Y0054740D03*
X0076945Y0054740D03*
X0086945Y0054740D03*
M02*
