G75*
%MOIN*%
%OFA0B0*%
%FSLAX25Y25*%
%IPPOS*%
%LPD*%
%AMOC8*
5,1,8,0,0,1.08239X$1,22.5*
%
%ADD10C,0.00000*%
%ADD11C,0.00001*%
%ADD12C,0.01000*%
%ADD13C,0.00400*%
%ADD14C,0.00800*%
%ADD15C,0.00500*%
%ADD16C,0.00394*%
%ADD17C,0.00197*%
%ADD18C,0.00787*%
%ADD19C,0.00984*%
D10*
X0060646Y0048835D02*
X0060646Y0149228D01*
X0213402Y0149228D01*
X0213402Y0048835D01*
X0060646Y0048835D01*
D11*
X0121276Y0064583D02*
X0121276Y0133480D01*
X0234268Y0133480D01*
X0234268Y0064583D01*
X0121276Y0064583D01*
X0128224Y0071531D02*
X0128146Y0126531D01*
X0203146Y0126531D01*
X0203146Y0106531D01*
X0193146Y0106531D01*
X0193146Y0071531D01*
X0128224Y0071531D01*
X0198146Y0090685D02*
X0198148Y0090826D01*
X0198154Y0090967D01*
X0198164Y0091107D01*
X0198178Y0091247D01*
X0198196Y0091387D01*
X0198217Y0091526D01*
X0198243Y0091665D01*
X0198272Y0091803D01*
X0198306Y0091939D01*
X0198343Y0092075D01*
X0198384Y0092210D01*
X0198429Y0092344D01*
X0198478Y0092476D01*
X0198530Y0092607D01*
X0198586Y0092736D01*
X0198646Y0092863D01*
X0198709Y0092989D01*
X0198775Y0093113D01*
X0198846Y0093236D01*
X0198919Y0093356D01*
X0198996Y0093474D01*
X0199076Y0093590D01*
X0199160Y0093703D01*
X0199246Y0093814D01*
X0199336Y0093923D01*
X0199429Y0094029D01*
X0199524Y0094132D01*
X0199623Y0094233D01*
X0199724Y0094331D01*
X0199828Y0094426D01*
X0199935Y0094518D01*
X0200044Y0094607D01*
X0200156Y0094692D01*
X0200270Y0094775D01*
X0200386Y0094855D01*
X0200505Y0094931D01*
X0200626Y0095003D01*
X0200748Y0095073D01*
X0200873Y0095138D01*
X0200999Y0095201D01*
X0201127Y0095259D01*
X0201257Y0095314D01*
X0201388Y0095366D01*
X0201521Y0095413D01*
X0201655Y0095457D01*
X0201790Y0095498D01*
X0201926Y0095534D01*
X0202063Y0095566D01*
X0202201Y0095595D01*
X0202339Y0095620D01*
X0202479Y0095640D01*
X0202619Y0095657D01*
X0202759Y0095670D01*
X0202900Y0095679D01*
X0203040Y0095684D01*
X0203181Y0095685D01*
X0203322Y0095682D01*
X0203463Y0095675D01*
X0203603Y0095664D01*
X0203743Y0095649D01*
X0203883Y0095630D01*
X0204022Y0095608D01*
X0204160Y0095581D01*
X0204298Y0095551D01*
X0204434Y0095516D01*
X0204570Y0095478D01*
X0204704Y0095436D01*
X0204838Y0095390D01*
X0204970Y0095341D01*
X0205100Y0095287D01*
X0205229Y0095230D01*
X0205356Y0095170D01*
X0205482Y0095106D01*
X0205605Y0095038D01*
X0205727Y0094967D01*
X0205847Y0094893D01*
X0205964Y0094815D01*
X0206079Y0094734D01*
X0206192Y0094650D01*
X0206303Y0094563D01*
X0206411Y0094472D01*
X0206516Y0094379D01*
X0206619Y0094282D01*
X0206719Y0094183D01*
X0206816Y0094081D01*
X0206910Y0093976D01*
X0207001Y0093869D01*
X0207089Y0093759D01*
X0207174Y0093647D01*
X0207256Y0093532D01*
X0207335Y0093415D01*
X0207410Y0093296D01*
X0207482Y0093175D01*
X0207550Y0093052D01*
X0207615Y0092927D01*
X0207677Y0092800D01*
X0207734Y0092671D01*
X0207789Y0092541D01*
X0207839Y0092410D01*
X0207886Y0092277D01*
X0207929Y0092143D01*
X0207968Y0092007D01*
X0208003Y0091871D01*
X0208035Y0091734D01*
X0208062Y0091596D01*
X0208086Y0091457D01*
X0208106Y0091317D01*
X0208122Y0091177D01*
X0208134Y0091037D01*
X0208142Y0090896D01*
X0208146Y0090755D01*
X0208146Y0090615D01*
X0208142Y0090474D01*
X0208134Y0090333D01*
X0208122Y0090193D01*
X0208106Y0090053D01*
X0208086Y0089913D01*
X0208062Y0089774D01*
X0208035Y0089636D01*
X0208003Y0089499D01*
X0207968Y0089363D01*
X0207929Y0089227D01*
X0207886Y0089093D01*
X0207839Y0088960D01*
X0207789Y0088829D01*
X0207734Y0088699D01*
X0207677Y0088570D01*
X0207615Y0088443D01*
X0207550Y0088318D01*
X0207482Y0088195D01*
X0207410Y0088074D01*
X0207335Y0087955D01*
X0207256Y0087838D01*
X0207174Y0087723D01*
X0207089Y0087611D01*
X0207001Y0087501D01*
X0206910Y0087394D01*
X0206816Y0087289D01*
X0206719Y0087187D01*
X0206619Y0087088D01*
X0206516Y0086991D01*
X0206411Y0086898D01*
X0206303Y0086807D01*
X0206192Y0086720D01*
X0206079Y0086636D01*
X0205964Y0086555D01*
X0205847Y0086477D01*
X0205727Y0086403D01*
X0205605Y0086332D01*
X0205482Y0086264D01*
X0205356Y0086200D01*
X0205229Y0086140D01*
X0205100Y0086083D01*
X0204970Y0086029D01*
X0204838Y0085980D01*
X0204704Y0085934D01*
X0204570Y0085892D01*
X0204434Y0085854D01*
X0204298Y0085819D01*
X0204160Y0085789D01*
X0204022Y0085762D01*
X0203883Y0085740D01*
X0203743Y0085721D01*
X0203603Y0085706D01*
X0203463Y0085695D01*
X0203322Y0085688D01*
X0203181Y0085685D01*
X0203040Y0085686D01*
X0202900Y0085691D01*
X0202759Y0085700D01*
X0202619Y0085713D01*
X0202479Y0085730D01*
X0202339Y0085750D01*
X0202201Y0085775D01*
X0202063Y0085804D01*
X0201926Y0085836D01*
X0201790Y0085872D01*
X0201655Y0085913D01*
X0201521Y0085957D01*
X0201388Y0086004D01*
X0201257Y0086056D01*
X0201127Y0086111D01*
X0200999Y0086169D01*
X0200873Y0086232D01*
X0200748Y0086297D01*
X0200626Y0086367D01*
X0200505Y0086439D01*
X0200386Y0086515D01*
X0200270Y0086595D01*
X0200156Y0086678D01*
X0200044Y0086763D01*
X0199935Y0086852D01*
X0199828Y0086944D01*
X0199724Y0087039D01*
X0199623Y0087137D01*
X0199524Y0087238D01*
X0199429Y0087341D01*
X0199336Y0087447D01*
X0199246Y0087556D01*
X0199160Y0087667D01*
X0199076Y0087780D01*
X0198996Y0087896D01*
X0198919Y0088014D01*
X0198846Y0088134D01*
X0198775Y0088257D01*
X0198709Y0088381D01*
X0198646Y0088507D01*
X0198586Y0088634D01*
X0198530Y0088763D01*
X0198478Y0088894D01*
X0198429Y0089026D01*
X0198384Y0089160D01*
X0198343Y0089295D01*
X0198306Y0089431D01*
X0198272Y0089567D01*
X0198243Y0089705D01*
X0198217Y0089844D01*
X0198196Y0089983D01*
X0198178Y0090123D01*
X0198164Y0090263D01*
X0198154Y0090403D01*
X0198148Y0090544D01*
X0198146Y0090685D01*
D12*
X0097815Y0087035D02*
X0094815Y0087035D01*
D13*
X0093919Y0089830D02*
X0094682Y0092580D01*
X0093155Y0092580D01*
X0093155Y0092274D01*
X0092004Y0092580D02*
X0091393Y0092580D01*
X0091345Y0092578D01*
X0091297Y0092572D01*
X0091250Y0092563D01*
X0091204Y0092550D01*
X0091159Y0092533D01*
X0091116Y0092513D01*
X0091074Y0092490D01*
X0091034Y0092463D01*
X0090996Y0092434D01*
X0090961Y0092401D01*
X0090928Y0092366D01*
X0090899Y0092328D01*
X0090872Y0092288D01*
X0090849Y0092246D01*
X0090829Y0092203D01*
X0090812Y0092158D01*
X0090799Y0092112D01*
X0090790Y0092065D01*
X0090784Y0092017D01*
X0090782Y0091969D01*
X0090782Y0090441D01*
X0090784Y0090393D01*
X0090790Y0090345D01*
X0090799Y0090298D01*
X0090812Y0090252D01*
X0090829Y0090207D01*
X0090849Y0090164D01*
X0090872Y0090122D01*
X0090899Y0090082D01*
X0090928Y0090044D01*
X0090961Y0090009D01*
X0090996Y0089976D01*
X0091034Y0089947D01*
X0091074Y0089920D01*
X0091116Y0089897D01*
X0091159Y0089877D01*
X0091204Y0089860D01*
X0091250Y0089847D01*
X0091297Y0089838D01*
X0091345Y0089832D01*
X0091393Y0089830D01*
X0092004Y0089830D01*
X0087068Y0090803D02*
X0087068Y0091414D01*
X0087068Y0090803D02*
X0087066Y0090755D01*
X0087060Y0090707D01*
X0087051Y0090660D01*
X0087038Y0090614D01*
X0087021Y0090569D01*
X0087001Y0090526D01*
X0086978Y0090484D01*
X0086951Y0090444D01*
X0086922Y0090406D01*
X0086889Y0090371D01*
X0086854Y0090338D01*
X0086816Y0090309D01*
X0086776Y0090282D01*
X0086734Y0090259D01*
X0086691Y0090239D01*
X0086646Y0090222D01*
X0086600Y0090209D01*
X0086553Y0090200D01*
X0086505Y0090194D01*
X0086457Y0090192D01*
X0084929Y0090192D01*
X0084881Y0090194D01*
X0084833Y0090200D01*
X0084786Y0090209D01*
X0084740Y0090222D01*
X0084695Y0090239D01*
X0084652Y0090259D01*
X0084610Y0090282D01*
X0084570Y0090309D01*
X0084532Y0090338D01*
X0084497Y0090371D01*
X0084464Y0090406D01*
X0084435Y0090444D01*
X0084408Y0090484D01*
X0084385Y0090526D01*
X0084365Y0090569D01*
X0084348Y0090614D01*
X0084335Y0090660D01*
X0084326Y0090707D01*
X0084320Y0090755D01*
X0084318Y0090803D01*
X0084318Y0091414D01*
X0084318Y0093175D02*
X0086457Y0092564D01*
X0086457Y0094092D01*
X0085846Y0093634D02*
X0087068Y0093634D01*
X0087068Y0087029D02*
X0087068Y0086265D01*
X0087068Y0087029D02*
X0087066Y0087084D01*
X0087060Y0087138D01*
X0087051Y0087191D01*
X0087037Y0087244D01*
X0087020Y0087296D01*
X0086999Y0087346D01*
X0086975Y0087395D01*
X0086947Y0087442D01*
X0086916Y0087487D01*
X0086881Y0087529D01*
X0086844Y0087569D01*
X0086804Y0087606D01*
X0086762Y0087641D01*
X0086717Y0087672D01*
X0086670Y0087700D01*
X0086621Y0087724D01*
X0086571Y0087745D01*
X0086519Y0087762D01*
X0086466Y0087776D01*
X0086413Y0087785D01*
X0086359Y0087791D01*
X0086304Y0087793D01*
X0086249Y0087791D01*
X0086195Y0087785D01*
X0086142Y0087776D01*
X0086089Y0087762D01*
X0086037Y0087745D01*
X0085987Y0087724D01*
X0085938Y0087700D01*
X0085891Y0087672D01*
X0085846Y0087641D01*
X0085804Y0087606D01*
X0085764Y0087569D01*
X0085727Y0087529D01*
X0085692Y0087487D01*
X0085661Y0087442D01*
X0085633Y0087395D01*
X0085609Y0087346D01*
X0085588Y0087296D01*
X0085571Y0087244D01*
X0085557Y0087191D01*
X0085548Y0087138D01*
X0085542Y0087084D01*
X0085540Y0087029D01*
X0085540Y0087182D02*
X0085540Y0086571D01*
X0085540Y0087182D02*
X0085538Y0087230D01*
X0085532Y0087278D01*
X0085523Y0087325D01*
X0085510Y0087371D01*
X0085493Y0087416D01*
X0085473Y0087459D01*
X0085450Y0087501D01*
X0085423Y0087541D01*
X0085394Y0087579D01*
X0085361Y0087614D01*
X0085326Y0087647D01*
X0085288Y0087676D01*
X0085248Y0087703D01*
X0085206Y0087726D01*
X0085163Y0087746D01*
X0085118Y0087763D01*
X0085072Y0087776D01*
X0085025Y0087785D01*
X0084977Y0087791D01*
X0084929Y0087793D01*
X0084881Y0087791D01*
X0084833Y0087785D01*
X0084786Y0087776D01*
X0084740Y0087763D01*
X0084695Y0087746D01*
X0084652Y0087726D01*
X0084610Y0087703D01*
X0084570Y0087676D01*
X0084532Y0087647D01*
X0084497Y0087614D01*
X0084464Y0087579D01*
X0084435Y0087541D01*
X0084408Y0087501D01*
X0084385Y0087459D01*
X0084365Y0087416D01*
X0084348Y0087371D01*
X0084335Y0087325D01*
X0084326Y0087278D01*
X0084320Y0087230D01*
X0084318Y0087182D01*
X0084318Y0086265D01*
X0084318Y0085114D02*
X0084318Y0084503D01*
X0084320Y0084455D01*
X0084326Y0084407D01*
X0084335Y0084360D01*
X0084348Y0084314D01*
X0084365Y0084269D01*
X0084385Y0084226D01*
X0084408Y0084184D01*
X0084435Y0084144D01*
X0084464Y0084106D01*
X0084497Y0084071D01*
X0084532Y0084038D01*
X0084570Y0084009D01*
X0084610Y0083982D01*
X0084652Y0083959D01*
X0084695Y0083939D01*
X0084740Y0083922D01*
X0084786Y0083909D01*
X0084833Y0083900D01*
X0084881Y0083894D01*
X0084929Y0083892D01*
X0086457Y0083892D01*
X0086505Y0083894D01*
X0086553Y0083900D01*
X0086600Y0083909D01*
X0086646Y0083922D01*
X0086691Y0083939D01*
X0086734Y0083959D01*
X0086776Y0083982D01*
X0086816Y0084009D01*
X0086854Y0084038D01*
X0086889Y0084071D01*
X0086922Y0084106D01*
X0086951Y0084144D01*
X0086978Y0084184D01*
X0087001Y0084226D01*
X0087021Y0084269D01*
X0087038Y0084314D01*
X0087051Y0084360D01*
X0087060Y0084407D01*
X0087066Y0084455D01*
X0087068Y0084503D01*
X0087068Y0085114D01*
X0083335Y0078068D02*
X0081807Y0078068D01*
X0082571Y0078068D02*
X0082571Y0075318D01*
X0080478Y0076464D02*
X0079638Y0076922D01*
X0079943Y0078068D02*
X0080010Y0078066D01*
X0080077Y0078060D01*
X0080143Y0078050D01*
X0080209Y0078037D01*
X0080273Y0078019D01*
X0080337Y0077998D01*
X0080399Y0077973D01*
X0080460Y0077945D01*
X0080519Y0077913D01*
X0080576Y0077877D01*
X0080631Y0077839D01*
X0079638Y0076922D02*
X0079599Y0076947D01*
X0079562Y0076974D01*
X0079527Y0077005D01*
X0079495Y0077038D01*
X0079465Y0077073D01*
X0079438Y0077110D01*
X0079414Y0077149D01*
X0079392Y0077190D01*
X0079374Y0077232D01*
X0079359Y0077275D01*
X0079347Y0077320D01*
X0079339Y0077365D01*
X0079334Y0077411D01*
X0079332Y0077457D01*
X0079334Y0077505D01*
X0079340Y0077553D01*
X0079349Y0077600D01*
X0079362Y0077646D01*
X0079379Y0077691D01*
X0079399Y0077734D01*
X0079422Y0077776D01*
X0079449Y0077816D01*
X0079478Y0077854D01*
X0079511Y0077889D01*
X0079546Y0077922D01*
X0079584Y0077951D01*
X0079624Y0077978D01*
X0079666Y0078001D01*
X0079709Y0078021D01*
X0079754Y0078038D01*
X0079800Y0078051D01*
X0079847Y0078060D01*
X0079895Y0078066D01*
X0079943Y0078068D01*
X0079255Y0075700D02*
X0079304Y0075653D01*
X0079356Y0075609D01*
X0079410Y0075567D01*
X0079466Y0075528D01*
X0079523Y0075493D01*
X0079583Y0075460D01*
X0079644Y0075431D01*
X0079707Y0075405D01*
X0079771Y0075382D01*
X0079836Y0075362D01*
X0079902Y0075347D01*
X0079969Y0075334D01*
X0080036Y0075325D01*
X0080104Y0075320D01*
X0080172Y0075318D01*
X0080220Y0075320D01*
X0080268Y0075326D01*
X0080315Y0075335D01*
X0080361Y0075348D01*
X0080406Y0075365D01*
X0080449Y0075385D01*
X0080491Y0075408D01*
X0080531Y0075435D01*
X0080569Y0075464D01*
X0080604Y0075497D01*
X0080637Y0075532D01*
X0080666Y0075570D01*
X0080693Y0075610D01*
X0080716Y0075652D01*
X0080736Y0075695D01*
X0080753Y0075740D01*
X0080766Y0075786D01*
X0080775Y0075833D01*
X0080781Y0075881D01*
X0080783Y0075929D01*
X0080784Y0075929D02*
X0080782Y0075975D01*
X0080777Y0076021D01*
X0080769Y0076066D01*
X0080757Y0076111D01*
X0080742Y0076154D01*
X0080724Y0076196D01*
X0080702Y0076237D01*
X0080678Y0076276D01*
X0080651Y0076313D01*
X0080621Y0076348D01*
X0080589Y0076381D01*
X0080554Y0076412D01*
X0080517Y0076439D01*
X0080478Y0076464D01*
X0078067Y0075318D02*
X0077456Y0076540D01*
X0077303Y0076540D02*
X0076539Y0076540D01*
X0077303Y0076540D02*
X0077358Y0076542D01*
X0077412Y0076548D01*
X0077465Y0076557D01*
X0077518Y0076571D01*
X0077570Y0076588D01*
X0077620Y0076609D01*
X0077669Y0076633D01*
X0077716Y0076661D01*
X0077761Y0076692D01*
X0077803Y0076727D01*
X0077843Y0076764D01*
X0077880Y0076804D01*
X0077915Y0076846D01*
X0077946Y0076891D01*
X0077974Y0076938D01*
X0077998Y0076987D01*
X0078019Y0077037D01*
X0078036Y0077089D01*
X0078050Y0077142D01*
X0078059Y0077195D01*
X0078065Y0077249D01*
X0078067Y0077304D01*
X0078065Y0077359D01*
X0078059Y0077413D01*
X0078050Y0077466D01*
X0078036Y0077519D01*
X0078019Y0077571D01*
X0077998Y0077621D01*
X0077974Y0077670D01*
X0077946Y0077717D01*
X0077915Y0077762D01*
X0077880Y0077804D01*
X0077843Y0077844D01*
X0077803Y0077881D01*
X0077761Y0077916D01*
X0077716Y0077947D01*
X0077669Y0077975D01*
X0077620Y0077999D01*
X0077570Y0078020D01*
X0077518Y0078037D01*
X0077465Y0078051D01*
X0077412Y0078060D01*
X0077358Y0078066D01*
X0077303Y0078068D01*
X0076539Y0078068D01*
X0076539Y0075318D01*
X0071988Y0077877D02*
X0071377Y0077877D01*
X0071329Y0077879D01*
X0071281Y0077885D01*
X0071234Y0077894D01*
X0071188Y0077907D01*
X0071143Y0077924D01*
X0071100Y0077944D01*
X0071058Y0077967D01*
X0071018Y0077994D01*
X0070980Y0078023D01*
X0070945Y0078056D01*
X0070912Y0078091D01*
X0070883Y0078129D01*
X0070856Y0078169D01*
X0070833Y0078211D01*
X0070813Y0078254D01*
X0070796Y0078299D01*
X0070783Y0078345D01*
X0070774Y0078392D01*
X0070768Y0078440D01*
X0070766Y0078488D01*
X0070766Y0080016D01*
X0070768Y0080064D01*
X0070774Y0080112D01*
X0070783Y0080159D01*
X0070796Y0080205D01*
X0070813Y0080250D01*
X0070833Y0080293D01*
X0070856Y0080335D01*
X0070883Y0080375D01*
X0070912Y0080413D01*
X0070945Y0080448D01*
X0070980Y0080481D01*
X0071018Y0080510D01*
X0071058Y0080537D01*
X0071100Y0080560D01*
X0071143Y0080580D01*
X0071188Y0080597D01*
X0071234Y0080610D01*
X0071281Y0080619D01*
X0071329Y0080625D01*
X0071377Y0080627D01*
X0071988Y0080627D01*
X0069643Y0080627D02*
X0068421Y0080627D01*
X0068421Y0077877D01*
X0066918Y0077877D02*
X0066918Y0080627D01*
X0065390Y0080627D02*
X0066918Y0077877D01*
X0065390Y0077877D02*
X0065390Y0080627D01*
X0068421Y0079405D02*
X0069643Y0079405D01*
X0071783Y0101885D02*
X0071783Y0104635D01*
X0072547Y0104635D01*
X0072602Y0104633D01*
X0072656Y0104627D01*
X0072709Y0104618D01*
X0072762Y0104604D01*
X0072814Y0104587D01*
X0072864Y0104566D01*
X0072913Y0104542D01*
X0072960Y0104514D01*
X0073005Y0104483D01*
X0073047Y0104448D01*
X0073087Y0104411D01*
X0073124Y0104371D01*
X0073159Y0104329D01*
X0073190Y0104284D01*
X0073218Y0104237D01*
X0073242Y0104188D01*
X0073263Y0104138D01*
X0073280Y0104086D01*
X0073294Y0104033D01*
X0073303Y0103980D01*
X0073309Y0103926D01*
X0073311Y0103871D01*
X0073309Y0103816D01*
X0073303Y0103762D01*
X0073294Y0103709D01*
X0073280Y0103656D01*
X0073263Y0103604D01*
X0073242Y0103554D01*
X0073218Y0103505D01*
X0073190Y0103458D01*
X0073159Y0103413D01*
X0073124Y0103371D01*
X0073087Y0103331D01*
X0073047Y0103294D01*
X0073005Y0103259D01*
X0072960Y0103228D01*
X0072913Y0103200D01*
X0072864Y0103176D01*
X0072814Y0103155D01*
X0072762Y0103138D01*
X0072709Y0103124D01*
X0072656Y0103115D01*
X0072602Y0103109D01*
X0072547Y0103107D01*
X0071783Y0103107D01*
X0072700Y0103107D02*
X0073311Y0101885D01*
X0070147Y0103031D02*
X0069307Y0103489D01*
X0069613Y0104635D02*
X0069680Y0104633D01*
X0069747Y0104627D01*
X0069813Y0104617D01*
X0069879Y0104604D01*
X0069943Y0104586D01*
X0070007Y0104565D01*
X0070069Y0104540D01*
X0070130Y0104512D01*
X0070189Y0104480D01*
X0070246Y0104444D01*
X0070301Y0104406D01*
X0069307Y0103489D02*
X0069268Y0103514D01*
X0069231Y0103541D01*
X0069196Y0103572D01*
X0069164Y0103605D01*
X0069134Y0103640D01*
X0069107Y0103677D01*
X0069083Y0103716D01*
X0069061Y0103757D01*
X0069043Y0103799D01*
X0069028Y0103842D01*
X0069016Y0103887D01*
X0069008Y0103932D01*
X0069003Y0103978D01*
X0069001Y0104024D01*
X0069002Y0104024D02*
X0069004Y0104072D01*
X0069010Y0104120D01*
X0069019Y0104167D01*
X0069032Y0104213D01*
X0069049Y0104258D01*
X0069069Y0104301D01*
X0069092Y0104343D01*
X0069119Y0104383D01*
X0069148Y0104421D01*
X0069181Y0104456D01*
X0069216Y0104489D01*
X0069254Y0104518D01*
X0069294Y0104545D01*
X0069336Y0104568D01*
X0069379Y0104588D01*
X0069424Y0104605D01*
X0069470Y0104618D01*
X0069517Y0104627D01*
X0069565Y0104633D01*
X0069613Y0104635D01*
X0068925Y0102267D02*
X0068974Y0102220D01*
X0069026Y0102176D01*
X0069080Y0102134D01*
X0069136Y0102095D01*
X0069193Y0102060D01*
X0069253Y0102027D01*
X0069314Y0101998D01*
X0069377Y0101972D01*
X0069441Y0101949D01*
X0069506Y0101929D01*
X0069572Y0101914D01*
X0069639Y0101901D01*
X0069706Y0101892D01*
X0069774Y0101887D01*
X0069842Y0101885D01*
X0069890Y0101887D01*
X0069938Y0101893D01*
X0069985Y0101902D01*
X0070031Y0101915D01*
X0070076Y0101932D01*
X0070119Y0101952D01*
X0070161Y0101975D01*
X0070201Y0102002D01*
X0070239Y0102031D01*
X0070274Y0102064D01*
X0070307Y0102099D01*
X0070336Y0102137D01*
X0070363Y0102177D01*
X0070386Y0102219D01*
X0070406Y0102262D01*
X0070423Y0102307D01*
X0070436Y0102353D01*
X0070445Y0102400D01*
X0070451Y0102448D01*
X0070453Y0102496D01*
X0070451Y0102542D01*
X0070446Y0102588D01*
X0070438Y0102633D01*
X0070426Y0102678D01*
X0070411Y0102721D01*
X0070393Y0102763D01*
X0070371Y0102804D01*
X0070347Y0102843D01*
X0070320Y0102880D01*
X0070290Y0102915D01*
X0070258Y0102948D01*
X0070223Y0102979D01*
X0070186Y0103006D01*
X0070147Y0103031D01*
X0067618Y0102649D02*
X0067618Y0104635D01*
X0066091Y0104635D02*
X0066091Y0102649D01*
X0066090Y0102649D02*
X0066092Y0102594D01*
X0066098Y0102540D01*
X0066107Y0102487D01*
X0066121Y0102434D01*
X0066138Y0102382D01*
X0066159Y0102332D01*
X0066183Y0102283D01*
X0066211Y0102236D01*
X0066242Y0102191D01*
X0066277Y0102149D01*
X0066314Y0102109D01*
X0066354Y0102072D01*
X0066396Y0102037D01*
X0066441Y0102006D01*
X0066488Y0101978D01*
X0066537Y0101954D01*
X0066587Y0101933D01*
X0066639Y0101916D01*
X0066692Y0101902D01*
X0066745Y0101893D01*
X0066799Y0101887D01*
X0066854Y0101885D01*
X0066909Y0101887D01*
X0066963Y0101893D01*
X0067016Y0101902D01*
X0067069Y0101916D01*
X0067121Y0101933D01*
X0067171Y0101954D01*
X0067220Y0101978D01*
X0067267Y0102006D01*
X0067312Y0102037D01*
X0067354Y0102072D01*
X0067394Y0102109D01*
X0067431Y0102149D01*
X0067466Y0102191D01*
X0067497Y0102236D01*
X0067525Y0102283D01*
X0067549Y0102332D01*
X0067570Y0102382D01*
X0067587Y0102434D01*
X0067601Y0102487D01*
X0067610Y0102540D01*
X0067616Y0102594D01*
X0067618Y0102649D01*
X0079365Y0102252D02*
X0079365Y0103780D01*
X0079367Y0103828D01*
X0079373Y0103876D01*
X0079382Y0103923D01*
X0079395Y0103969D01*
X0079412Y0104014D01*
X0079432Y0104057D01*
X0079455Y0104099D01*
X0079482Y0104139D01*
X0079511Y0104177D01*
X0079544Y0104212D01*
X0079579Y0104245D01*
X0079617Y0104274D01*
X0079657Y0104301D01*
X0079699Y0104324D01*
X0079742Y0104344D01*
X0079787Y0104361D01*
X0079833Y0104374D01*
X0079880Y0104383D01*
X0079928Y0104389D01*
X0079976Y0104391D01*
X0080587Y0104391D01*
X0081738Y0103169D02*
X0081738Y0102405D01*
X0081737Y0102405D02*
X0081739Y0102350D01*
X0081745Y0102296D01*
X0081754Y0102243D01*
X0081768Y0102190D01*
X0081785Y0102138D01*
X0081806Y0102088D01*
X0081830Y0102039D01*
X0081858Y0101992D01*
X0081889Y0101947D01*
X0081924Y0101905D01*
X0081961Y0101865D01*
X0082001Y0101828D01*
X0082043Y0101793D01*
X0082088Y0101762D01*
X0082135Y0101734D01*
X0082184Y0101710D01*
X0082234Y0101689D01*
X0082286Y0101672D01*
X0082339Y0101658D01*
X0082392Y0101649D01*
X0082446Y0101643D01*
X0082501Y0101641D01*
X0082556Y0101643D01*
X0082610Y0101649D01*
X0082663Y0101658D01*
X0082716Y0101672D01*
X0082768Y0101689D01*
X0082818Y0101710D01*
X0082867Y0101734D01*
X0082914Y0101762D01*
X0082959Y0101793D01*
X0083001Y0101828D01*
X0083041Y0101865D01*
X0083078Y0101905D01*
X0083113Y0101947D01*
X0083144Y0101992D01*
X0083172Y0102039D01*
X0083196Y0102088D01*
X0083217Y0102138D01*
X0083234Y0102190D01*
X0083248Y0102243D01*
X0083257Y0102296D01*
X0083263Y0102350D01*
X0083265Y0102405D01*
X0083265Y0102557D01*
X0083263Y0102605D01*
X0083257Y0102653D01*
X0083248Y0102700D01*
X0083235Y0102746D01*
X0083218Y0102791D01*
X0083198Y0102834D01*
X0083175Y0102876D01*
X0083148Y0102916D01*
X0083119Y0102954D01*
X0083086Y0102989D01*
X0083051Y0103022D01*
X0083013Y0103051D01*
X0082973Y0103078D01*
X0082931Y0103101D01*
X0082888Y0103121D01*
X0082843Y0103138D01*
X0082797Y0103151D01*
X0082750Y0103160D01*
X0082702Y0103166D01*
X0082654Y0103168D01*
X0082654Y0103169D02*
X0081738Y0103169D01*
X0081740Y0103238D01*
X0081746Y0103306D01*
X0081755Y0103374D01*
X0081769Y0103441D01*
X0081786Y0103507D01*
X0081807Y0103573D01*
X0081831Y0103637D01*
X0081859Y0103699D01*
X0081890Y0103760D01*
X0081925Y0103819D01*
X0081963Y0103876D01*
X0082005Y0103931D01*
X0082049Y0103983D01*
X0082096Y0104033D01*
X0082146Y0104080D01*
X0082198Y0104124D01*
X0082253Y0104166D01*
X0082310Y0104204D01*
X0082369Y0104239D01*
X0082430Y0104270D01*
X0082492Y0104298D01*
X0082556Y0104322D01*
X0082622Y0104343D01*
X0082688Y0104360D01*
X0082755Y0104374D01*
X0082823Y0104383D01*
X0082891Y0104389D01*
X0082960Y0104391D01*
X0079976Y0101641D02*
X0079928Y0101643D01*
X0079880Y0101649D01*
X0079833Y0101658D01*
X0079787Y0101671D01*
X0079742Y0101688D01*
X0079699Y0101708D01*
X0079657Y0101731D01*
X0079617Y0101758D01*
X0079579Y0101787D01*
X0079544Y0101820D01*
X0079511Y0101855D01*
X0079482Y0101893D01*
X0079455Y0101933D01*
X0079432Y0101975D01*
X0079412Y0102018D01*
X0079395Y0102063D01*
X0079382Y0102109D01*
X0079373Y0102156D01*
X0079367Y0102204D01*
X0079365Y0102252D01*
X0079976Y0101641D02*
X0080587Y0101641D01*
X0086016Y0112632D02*
X0087543Y0112632D01*
X0087543Y0112633D02*
X0087591Y0112635D01*
X0087639Y0112641D01*
X0087686Y0112650D01*
X0087732Y0112663D01*
X0087777Y0112680D01*
X0087820Y0112700D01*
X0087862Y0112723D01*
X0087902Y0112750D01*
X0087940Y0112779D01*
X0087975Y0112812D01*
X0088008Y0112847D01*
X0088037Y0112885D01*
X0088064Y0112925D01*
X0088087Y0112967D01*
X0088107Y0113010D01*
X0088124Y0113055D01*
X0088137Y0113101D01*
X0088146Y0113148D01*
X0088152Y0113196D01*
X0088154Y0113244D01*
X0088154Y0113855D01*
X0088154Y0115005D02*
X0088154Y0115922D01*
X0088152Y0115970D01*
X0088146Y0116018D01*
X0088137Y0116065D01*
X0088124Y0116111D01*
X0088107Y0116156D01*
X0088087Y0116199D01*
X0088064Y0116241D01*
X0088037Y0116281D01*
X0088008Y0116319D01*
X0087975Y0116354D01*
X0087940Y0116387D01*
X0087902Y0116416D01*
X0087862Y0116443D01*
X0087820Y0116466D01*
X0087777Y0116486D01*
X0087732Y0116503D01*
X0087686Y0116516D01*
X0087639Y0116525D01*
X0087591Y0116531D01*
X0087543Y0116533D01*
X0087238Y0116533D01*
X0087190Y0116531D01*
X0087142Y0116525D01*
X0087095Y0116516D01*
X0087049Y0116503D01*
X0087004Y0116486D01*
X0086961Y0116466D01*
X0086919Y0116443D01*
X0086879Y0116416D01*
X0086841Y0116387D01*
X0086806Y0116354D01*
X0086773Y0116319D01*
X0086744Y0116281D01*
X0086717Y0116241D01*
X0086694Y0116199D01*
X0086674Y0116156D01*
X0086657Y0116111D01*
X0086644Y0116065D01*
X0086635Y0116018D01*
X0086629Y0115970D01*
X0086627Y0115922D01*
X0086627Y0115005D01*
X0085405Y0115005D01*
X0085405Y0116533D01*
X0084854Y0119751D02*
X0084854Y0122501D01*
X0085618Y0122501D01*
X0085673Y0122499D01*
X0085727Y0122493D01*
X0085780Y0122484D01*
X0085833Y0122470D01*
X0085885Y0122453D01*
X0085935Y0122432D01*
X0085984Y0122408D01*
X0086031Y0122380D01*
X0086076Y0122349D01*
X0086118Y0122314D01*
X0086158Y0122277D01*
X0086195Y0122237D01*
X0086230Y0122195D01*
X0086261Y0122150D01*
X0086289Y0122103D01*
X0086313Y0122054D01*
X0086334Y0122004D01*
X0086351Y0121952D01*
X0086365Y0121899D01*
X0086374Y0121846D01*
X0086380Y0121792D01*
X0086382Y0121737D01*
X0086380Y0121682D01*
X0086374Y0121628D01*
X0086365Y0121575D01*
X0086351Y0121522D01*
X0086334Y0121470D01*
X0086313Y0121420D01*
X0086289Y0121371D01*
X0086261Y0121324D01*
X0086230Y0121279D01*
X0086195Y0121237D01*
X0086158Y0121197D01*
X0086118Y0121160D01*
X0086076Y0121125D01*
X0086031Y0121094D01*
X0085984Y0121066D01*
X0085935Y0121042D01*
X0085885Y0121021D01*
X0085833Y0121004D01*
X0085780Y0120990D01*
X0085727Y0120981D01*
X0085673Y0120975D01*
X0085618Y0120973D01*
X0084854Y0120973D01*
X0085771Y0120973D02*
X0086382Y0119751D01*
X0087665Y0119751D02*
X0089193Y0119751D01*
X0088429Y0119751D02*
X0088429Y0122501D01*
X0087665Y0121890D01*
X0093279Y0121917D02*
X0093279Y0122834D01*
X0093281Y0122882D01*
X0093287Y0122930D01*
X0093296Y0122977D01*
X0093309Y0123023D01*
X0093326Y0123068D01*
X0093346Y0123111D01*
X0093369Y0123153D01*
X0093396Y0123193D01*
X0093425Y0123231D01*
X0093458Y0123266D01*
X0093493Y0123299D01*
X0093531Y0123328D01*
X0093571Y0123355D01*
X0093613Y0123378D01*
X0093656Y0123398D01*
X0093701Y0123415D01*
X0093747Y0123428D01*
X0093794Y0123437D01*
X0093842Y0123443D01*
X0093890Y0123445D01*
X0093938Y0123443D01*
X0093986Y0123437D01*
X0094033Y0123428D01*
X0094079Y0123415D01*
X0094124Y0123398D01*
X0094167Y0123378D01*
X0094209Y0123355D01*
X0094249Y0123328D01*
X0094287Y0123299D01*
X0094322Y0123266D01*
X0094355Y0123231D01*
X0094384Y0123193D01*
X0094411Y0123153D01*
X0094434Y0123111D01*
X0094454Y0123068D01*
X0094471Y0123023D01*
X0094484Y0122977D01*
X0094493Y0122930D01*
X0094499Y0122882D01*
X0094501Y0122834D01*
X0094501Y0122223D01*
X0094501Y0122681D02*
X0094503Y0122736D01*
X0094509Y0122790D01*
X0094518Y0122843D01*
X0094532Y0122896D01*
X0094549Y0122948D01*
X0094570Y0122998D01*
X0094594Y0123047D01*
X0094622Y0123094D01*
X0094653Y0123139D01*
X0094688Y0123181D01*
X0094725Y0123221D01*
X0094765Y0123258D01*
X0094807Y0123293D01*
X0094852Y0123324D01*
X0094899Y0123352D01*
X0094948Y0123376D01*
X0094998Y0123397D01*
X0095050Y0123414D01*
X0095103Y0123428D01*
X0095156Y0123437D01*
X0095210Y0123443D01*
X0095265Y0123445D01*
X0095320Y0123443D01*
X0095374Y0123437D01*
X0095427Y0123428D01*
X0095480Y0123414D01*
X0095532Y0123397D01*
X0095582Y0123376D01*
X0095631Y0123352D01*
X0095678Y0123324D01*
X0095723Y0123293D01*
X0095765Y0123258D01*
X0095805Y0123221D01*
X0095842Y0123181D01*
X0095877Y0123139D01*
X0095908Y0123094D01*
X0095936Y0123047D01*
X0095960Y0122998D01*
X0095981Y0122948D01*
X0095998Y0122896D01*
X0096012Y0122843D01*
X0096021Y0122790D01*
X0096027Y0122736D01*
X0096029Y0122681D01*
X0096028Y0122681D02*
X0096028Y0121917D01*
X0096028Y0120634D02*
X0094806Y0120023D01*
X0094806Y0119870D02*
X0094806Y0119106D01*
X0094807Y0119870D02*
X0094805Y0119925D01*
X0094799Y0119979D01*
X0094790Y0120032D01*
X0094776Y0120085D01*
X0094759Y0120137D01*
X0094738Y0120187D01*
X0094714Y0120236D01*
X0094686Y0120283D01*
X0094655Y0120328D01*
X0094620Y0120370D01*
X0094583Y0120410D01*
X0094543Y0120447D01*
X0094501Y0120482D01*
X0094456Y0120513D01*
X0094409Y0120541D01*
X0094360Y0120565D01*
X0094310Y0120586D01*
X0094258Y0120603D01*
X0094205Y0120617D01*
X0094152Y0120626D01*
X0094098Y0120632D01*
X0094043Y0120634D01*
X0093988Y0120632D01*
X0093934Y0120626D01*
X0093881Y0120617D01*
X0093828Y0120603D01*
X0093776Y0120586D01*
X0093726Y0120565D01*
X0093677Y0120541D01*
X0093630Y0120513D01*
X0093585Y0120482D01*
X0093543Y0120447D01*
X0093503Y0120410D01*
X0093466Y0120370D01*
X0093431Y0120328D01*
X0093400Y0120283D01*
X0093372Y0120236D01*
X0093348Y0120187D01*
X0093327Y0120137D01*
X0093310Y0120085D01*
X0093296Y0120032D01*
X0093287Y0119979D01*
X0093281Y0119925D01*
X0093279Y0119870D01*
X0093279Y0119106D01*
X0096028Y0119106D01*
X0086016Y0112633D02*
X0085968Y0112635D01*
X0085920Y0112641D01*
X0085873Y0112650D01*
X0085827Y0112663D01*
X0085782Y0112680D01*
X0085739Y0112700D01*
X0085697Y0112723D01*
X0085657Y0112750D01*
X0085619Y0112779D01*
X0085584Y0112812D01*
X0085551Y0112847D01*
X0085522Y0112885D01*
X0085495Y0112925D01*
X0085472Y0112967D01*
X0085452Y0113010D01*
X0085435Y0113055D01*
X0085422Y0113101D01*
X0085413Y0113148D01*
X0085407Y0113196D01*
X0085405Y0113244D01*
X0085405Y0113855D01*
X0091134Y0129168D02*
X0092661Y0129168D01*
X0092709Y0129170D01*
X0092757Y0129176D01*
X0092804Y0129185D01*
X0092850Y0129198D01*
X0092895Y0129215D01*
X0092938Y0129235D01*
X0092980Y0129258D01*
X0093020Y0129285D01*
X0093058Y0129314D01*
X0093093Y0129347D01*
X0093126Y0129382D01*
X0093155Y0129420D01*
X0093182Y0129460D01*
X0093205Y0129502D01*
X0093225Y0129545D01*
X0093242Y0129590D01*
X0093255Y0129636D01*
X0093264Y0129683D01*
X0093270Y0129731D01*
X0093272Y0129779D01*
X0093272Y0130390D01*
X0093272Y0131541D02*
X0093272Y0133068D01*
X0093272Y0131541D02*
X0091745Y0132839D01*
X0090523Y0132381D02*
X0090525Y0132323D01*
X0090531Y0132264D01*
X0090540Y0132207D01*
X0090554Y0132150D01*
X0090571Y0132094D01*
X0090592Y0132039D01*
X0090616Y0131986D01*
X0090644Y0131935D01*
X0090675Y0131886D01*
X0090709Y0131838D01*
X0090747Y0131793D01*
X0090787Y0131751D01*
X0090830Y0131712D01*
X0090876Y0131675D01*
X0090924Y0131641D01*
X0090974Y0131611D01*
X0091025Y0131584D01*
X0091079Y0131561D01*
X0091134Y0131541D01*
X0091744Y0132839D02*
X0091709Y0132874D01*
X0091671Y0132906D01*
X0091631Y0132936D01*
X0091589Y0132963D01*
X0091546Y0132987D01*
X0091501Y0133008D01*
X0091454Y0133026D01*
X0091407Y0133041D01*
X0091358Y0133053D01*
X0091309Y0133061D01*
X0091260Y0133066D01*
X0091210Y0133068D01*
X0091159Y0133066D01*
X0091108Y0133060D01*
X0091057Y0133051D01*
X0091008Y0133037D01*
X0090959Y0133021D01*
X0090912Y0133000D01*
X0090867Y0132976D01*
X0090823Y0132949D01*
X0090782Y0132918D01*
X0090743Y0132885D01*
X0090706Y0132848D01*
X0090673Y0132809D01*
X0090642Y0132768D01*
X0090615Y0132725D01*
X0090591Y0132679D01*
X0090570Y0132632D01*
X0090554Y0132583D01*
X0090540Y0132534D01*
X0090531Y0132483D01*
X0090525Y0132432D01*
X0090523Y0132381D01*
X0090523Y0130390D02*
X0090523Y0129779D01*
X0090525Y0129731D01*
X0090531Y0129683D01*
X0090540Y0129636D01*
X0090553Y0129590D01*
X0090570Y0129545D01*
X0090590Y0129502D01*
X0090613Y0129460D01*
X0090640Y0129420D01*
X0090669Y0129382D01*
X0090702Y0129347D01*
X0090737Y0129314D01*
X0090775Y0129285D01*
X0090815Y0129258D01*
X0090857Y0129235D01*
X0090900Y0129215D01*
X0090945Y0129198D01*
X0090991Y0129185D01*
X0091038Y0129176D01*
X0091086Y0129170D01*
X0091134Y0129168D01*
X0107295Y0131169D02*
X0107295Y0133918D01*
X0108059Y0133918D01*
X0108114Y0133916D01*
X0108168Y0133910D01*
X0108221Y0133901D01*
X0108274Y0133887D01*
X0108326Y0133870D01*
X0108376Y0133849D01*
X0108425Y0133825D01*
X0108472Y0133797D01*
X0108517Y0133766D01*
X0108559Y0133731D01*
X0108599Y0133694D01*
X0108636Y0133654D01*
X0108671Y0133612D01*
X0108702Y0133567D01*
X0108730Y0133520D01*
X0108754Y0133471D01*
X0108775Y0133421D01*
X0108792Y0133369D01*
X0108806Y0133316D01*
X0108815Y0133263D01*
X0108821Y0133209D01*
X0108823Y0133154D01*
X0108821Y0133099D01*
X0108815Y0133045D01*
X0108806Y0132992D01*
X0108792Y0132939D01*
X0108775Y0132887D01*
X0108754Y0132837D01*
X0108730Y0132788D01*
X0108702Y0132741D01*
X0108671Y0132696D01*
X0108636Y0132654D01*
X0108599Y0132614D01*
X0108559Y0132577D01*
X0108517Y0132542D01*
X0108472Y0132511D01*
X0108425Y0132483D01*
X0108376Y0132459D01*
X0108326Y0132438D01*
X0108274Y0132421D01*
X0108221Y0132407D01*
X0108168Y0132398D01*
X0108114Y0132392D01*
X0108059Y0132390D01*
X0108059Y0132391D02*
X0107295Y0132391D01*
X0108212Y0132391D02*
X0108823Y0131169D01*
X0110106Y0131169D02*
X0111405Y0132696D01*
X0110946Y0133918D02*
X0110888Y0133916D01*
X0110829Y0133910D01*
X0110772Y0133901D01*
X0110715Y0133887D01*
X0110659Y0133870D01*
X0110604Y0133849D01*
X0110551Y0133825D01*
X0110500Y0133797D01*
X0110451Y0133766D01*
X0110403Y0133732D01*
X0110358Y0133694D01*
X0110316Y0133654D01*
X0110277Y0133611D01*
X0110240Y0133565D01*
X0110206Y0133517D01*
X0110176Y0133467D01*
X0110149Y0133416D01*
X0110126Y0133362D01*
X0110106Y0133307D01*
X0111405Y0132697D02*
X0111440Y0132732D01*
X0111472Y0132770D01*
X0111502Y0132810D01*
X0111529Y0132852D01*
X0111553Y0132895D01*
X0111574Y0132940D01*
X0111592Y0132987D01*
X0111607Y0133034D01*
X0111619Y0133083D01*
X0111627Y0133132D01*
X0111632Y0133181D01*
X0111634Y0133231D01*
X0111633Y0133231D02*
X0111631Y0133282D01*
X0111625Y0133333D01*
X0111616Y0133384D01*
X0111602Y0133433D01*
X0111586Y0133482D01*
X0111565Y0133529D01*
X0111541Y0133575D01*
X0111514Y0133618D01*
X0111483Y0133659D01*
X0111450Y0133698D01*
X0111413Y0133735D01*
X0111374Y0133768D01*
X0111333Y0133799D01*
X0111290Y0133826D01*
X0111244Y0133850D01*
X0111197Y0133871D01*
X0111148Y0133887D01*
X0111099Y0133901D01*
X0111048Y0133910D01*
X0110997Y0133916D01*
X0110946Y0133918D01*
X0111634Y0131169D02*
X0110106Y0131169D01*
X0110092Y0113202D02*
X0111009Y0110452D01*
X0110780Y0111139D02*
X0109405Y0111139D01*
X0109176Y0110452D02*
X0110092Y0113202D01*
X0112152Y0112591D02*
X0112152Y0111063D01*
X0112154Y0111015D01*
X0112160Y0110967D01*
X0112169Y0110920D01*
X0112182Y0110874D01*
X0112199Y0110829D01*
X0112219Y0110786D01*
X0112242Y0110744D01*
X0112269Y0110704D01*
X0112298Y0110666D01*
X0112331Y0110631D01*
X0112366Y0110598D01*
X0112404Y0110569D01*
X0112444Y0110542D01*
X0112486Y0110519D01*
X0112529Y0110499D01*
X0112574Y0110482D01*
X0112620Y0110469D01*
X0112667Y0110460D01*
X0112715Y0110454D01*
X0112763Y0110452D01*
X0113374Y0110452D01*
X0114525Y0110452D02*
X0116053Y0110452D01*
X0115289Y0110452D02*
X0115289Y0113202D01*
X0114525Y0112591D01*
X0113374Y0113202D02*
X0112763Y0113202D01*
X0112715Y0113200D01*
X0112667Y0113194D01*
X0112620Y0113185D01*
X0112574Y0113172D01*
X0112529Y0113155D01*
X0112486Y0113135D01*
X0112444Y0113112D01*
X0112404Y0113085D01*
X0112366Y0113056D01*
X0112331Y0113023D01*
X0112298Y0112988D01*
X0112269Y0112950D01*
X0112242Y0112910D01*
X0112219Y0112868D01*
X0112199Y0112825D01*
X0112182Y0112780D01*
X0112169Y0112734D01*
X0112160Y0112687D01*
X0112154Y0112639D01*
X0112152Y0112591D01*
X0114709Y0098248D02*
X0114709Y0096720D01*
X0112570Y0097331D01*
X0114098Y0097790D02*
X0115320Y0097790D01*
X0115320Y0095437D02*
X0114098Y0094826D01*
X0114098Y0094673D02*
X0114098Y0093909D01*
X0114098Y0094673D02*
X0114096Y0094728D01*
X0114090Y0094782D01*
X0114081Y0094835D01*
X0114067Y0094888D01*
X0114050Y0094940D01*
X0114029Y0094990D01*
X0114005Y0095039D01*
X0113977Y0095086D01*
X0113946Y0095131D01*
X0113911Y0095173D01*
X0113874Y0095213D01*
X0113834Y0095250D01*
X0113792Y0095285D01*
X0113747Y0095316D01*
X0113700Y0095344D01*
X0113651Y0095368D01*
X0113601Y0095389D01*
X0113549Y0095406D01*
X0113496Y0095420D01*
X0113443Y0095429D01*
X0113389Y0095435D01*
X0113334Y0095437D01*
X0113279Y0095435D01*
X0113225Y0095429D01*
X0113172Y0095420D01*
X0113119Y0095406D01*
X0113067Y0095389D01*
X0113017Y0095368D01*
X0112968Y0095344D01*
X0112921Y0095316D01*
X0112876Y0095285D01*
X0112834Y0095250D01*
X0112794Y0095213D01*
X0112757Y0095173D01*
X0112722Y0095131D01*
X0112691Y0095086D01*
X0112663Y0095039D01*
X0112639Y0094990D01*
X0112618Y0094940D01*
X0112601Y0094888D01*
X0112587Y0094835D01*
X0112578Y0094782D01*
X0112572Y0094728D01*
X0112570Y0094673D01*
X0112570Y0093909D01*
X0115320Y0093909D01*
X0108091Y0092091D02*
X0106563Y0092091D01*
X0106563Y0090869D01*
X0107480Y0090869D01*
X0107528Y0090867D01*
X0107576Y0090861D01*
X0107623Y0090852D01*
X0107669Y0090839D01*
X0107714Y0090822D01*
X0107757Y0090802D01*
X0107799Y0090779D01*
X0107839Y0090752D01*
X0107877Y0090723D01*
X0107912Y0090690D01*
X0107945Y0090655D01*
X0107974Y0090617D01*
X0108001Y0090577D01*
X0108024Y0090535D01*
X0108044Y0090492D01*
X0108061Y0090447D01*
X0108074Y0090401D01*
X0108083Y0090354D01*
X0108089Y0090306D01*
X0108091Y0090258D01*
X0108091Y0089953D01*
X0108089Y0089905D01*
X0108083Y0089857D01*
X0108074Y0089810D01*
X0108061Y0089764D01*
X0108044Y0089719D01*
X0108024Y0089676D01*
X0108001Y0089634D01*
X0107974Y0089594D01*
X0107945Y0089556D01*
X0107912Y0089521D01*
X0107877Y0089488D01*
X0107839Y0089459D01*
X0107799Y0089432D01*
X0107757Y0089409D01*
X0107714Y0089389D01*
X0107669Y0089372D01*
X0107623Y0089359D01*
X0107576Y0089350D01*
X0107528Y0089344D01*
X0107480Y0089342D01*
X0106563Y0089342D01*
X0105280Y0089342D02*
X0104669Y0090564D01*
X0104516Y0090564D02*
X0103752Y0090564D01*
X0104516Y0090564D02*
X0104571Y0090566D01*
X0104625Y0090572D01*
X0104678Y0090581D01*
X0104731Y0090595D01*
X0104783Y0090612D01*
X0104833Y0090633D01*
X0104882Y0090657D01*
X0104929Y0090685D01*
X0104974Y0090716D01*
X0105016Y0090751D01*
X0105056Y0090788D01*
X0105093Y0090828D01*
X0105128Y0090870D01*
X0105159Y0090915D01*
X0105187Y0090962D01*
X0105211Y0091011D01*
X0105232Y0091061D01*
X0105249Y0091113D01*
X0105263Y0091166D01*
X0105272Y0091219D01*
X0105278Y0091273D01*
X0105280Y0091328D01*
X0105278Y0091383D01*
X0105272Y0091437D01*
X0105263Y0091490D01*
X0105249Y0091543D01*
X0105232Y0091595D01*
X0105211Y0091645D01*
X0105187Y0091694D01*
X0105159Y0091741D01*
X0105128Y0091786D01*
X0105093Y0091828D01*
X0105056Y0091868D01*
X0105016Y0091905D01*
X0104974Y0091940D01*
X0104929Y0091971D01*
X0104882Y0091999D01*
X0104833Y0092023D01*
X0104783Y0092044D01*
X0104731Y0092061D01*
X0104678Y0092075D01*
X0104625Y0092084D01*
X0104571Y0092090D01*
X0104516Y0092092D01*
X0104516Y0092091D02*
X0103752Y0092091D01*
X0103752Y0089342D01*
X0107422Y0079638D02*
X0110172Y0079638D01*
X0110172Y0078874D01*
X0110170Y0078819D01*
X0110164Y0078765D01*
X0110155Y0078712D01*
X0110141Y0078659D01*
X0110124Y0078607D01*
X0110103Y0078557D01*
X0110079Y0078508D01*
X0110051Y0078461D01*
X0110020Y0078416D01*
X0109985Y0078374D01*
X0109948Y0078334D01*
X0109908Y0078297D01*
X0109866Y0078262D01*
X0109821Y0078231D01*
X0109774Y0078203D01*
X0109725Y0078179D01*
X0109675Y0078158D01*
X0109623Y0078141D01*
X0109570Y0078127D01*
X0109517Y0078118D01*
X0109463Y0078112D01*
X0109408Y0078110D01*
X0109353Y0078112D01*
X0109299Y0078118D01*
X0109246Y0078127D01*
X0109193Y0078141D01*
X0109141Y0078158D01*
X0109091Y0078179D01*
X0109042Y0078203D01*
X0108995Y0078231D01*
X0108950Y0078262D01*
X0108908Y0078297D01*
X0108868Y0078334D01*
X0108831Y0078374D01*
X0108796Y0078416D01*
X0108765Y0078461D01*
X0108737Y0078508D01*
X0108713Y0078557D01*
X0108692Y0078607D01*
X0108675Y0078659D01*
X0108661Y0078712D01*
X0108652Y0078765D01*
X0108646Y0078819D01*
X0108644Y0078874D01*
X0108644Y0079638D01*
X0108644Y0076834D02*
X0108644Y0076070D01*
X0108644Y0075917D02*
X0107422Y0075306D01*
X0108186Y0074023D02*
X0109408Y0074023D01*
X0109463Y0074021D01*
X0109517Y0074015D01*
X0109570Y0074006D01*
X0109623Y0073992D01*
X0109675Y0073975D01*
X0109725Y0073954D01*
X0109774Y0073930D01*
X0109821Y0073902D01*
X0109866Y0073871D01*
X0109908Y0073836D01*
X0109948Y0073799D01*
X0109985Y0073759D01*
X0110020Y0073717D01*
X0110051Y0073672D01*
X0110079Y0073625D01*
X0110103Y0073576D01*
X0110124Y0073526D01*
X0110141Y0073474D01*
X0110155Y0073421D01*
X0110164Y0073368D01*
X0110170Y0073314D01*
X0110172Y0073259D01*
X0110170Y0073204D01*
X0110164Y0073150D01*
X0110155Y0073097D01*
X0110141Y0073044D01*
X0110124Y0072992D01*
X0110103Y0072942D01*
X0110079Y0072893D01*
X0110051Y0072846D01*
X0110020Y0072801D01*
X0109985Y0072759D01*
X0109948Y0072719D01*
X0109908Y0072682D01*
X0109866Y0072647D01*
X0109821Y0072616D01*
X0109774Y0072588D01*
X0109725Y0072564D01*
X0109675Y0072543D01*
X0109623Y0072526D01*
X0109570Y0072512D01*
X0109517Y0072503D01*
X0109463Y0072497D01*
X0109408Y0072495D01*
X0108186Y0072495D01*
X0108131Y0072497D01*
X0108077Y0072503D01*
X0108024Y0072512D01*
X0107971Y0072526D01*
X0107919Y0072543D01*
X0107869Y0072564D01*
X0107820Y0072588D01*
X0107773Y0072616D01*
X0107728Y0072647D01*
X0107686Y0072682D01*
X0107646Y0072719D01*
X0107609Y0072759D01*
X0107574Y0072801D01*
X0107543Y0072846D01*
X0107515Y0072893D01*
X0107491Y0072942D01*
X0107470Y0072992D01*
X0107453Y0073044D01*
X0107439Y0073097D01*
X0107430Y0073150D01*
X0107424Y0073204D01*
X0107422Y0073259D01*
X0107424Y0073314D01*
X0107430Y0073368D01*
X0107439Y0073421D01*
X0107453Y0073474D01*
X0107470Y0073526D01*
X0107491Y0073576D01*
X0107515Y0073625D01*
X0107543Y0073672D01*
X0107574Y0073717D01*
X0107609Y0073759D01*
X0107646Y0073799D01*
X0107686Y0073836D01*
X0107728Y0073871D01*
X0107773Y0073902D01*
X0107820Y0073930D01*
X0107869Y0073954D01*
X0107919Y0073975D01*
X0107971Y0073992D01*
X0108024Y0074006D01*
X0108077Y0074015D01*
X0108131Y0074021D01*
X0108186Y0074023D01*
X0108033Y0071094D02*
X0109561Y0071094D01*
X0109609Y0071092D01*
X0109657Y0071086D01*
X0109704Y0071077D01*
X0109750Y0071064D01*
X0109795Y0071047D01*
X0109838Y0071027D01*
X0109880Y0071004D01*
X0109920Y0070977D01*
X0109958Y0070948D01*
X0109993Y0070915D01*
X0110026Y0070880D01*
X0110055Y0070842D01*
X0110082Y0070802D01*
X0110105Y0070760D01*
X0110125Y0070717D01*
X0110142Y0070672D01*
X0110155Y0070626D01*
X0110164Y0070579D01*
X0110170Y0070531D01*
X0110172Y0070483D01*
X0110172Y0069566D01*
X0108950Y0069566D02*
X0107422Y0069566D01*
X0107422Y0070483D01*
X0107424Y0070531D01*
X0107430Y0070579D01*
X0107439Y0070626D01*
X0107452Y0070672D01*
X0107469Y0070717D01*
X0107489Y0070760D01*
X0107512Y0070802D01*
X0107539Y0070842D01*
X0107568Y0070880D01*
X0107601Y0070915D01*
X0107636Y0070948D01*
X0107674Y0070977D01*
X0107714Y0071004D01*
X0107756Y0071027D01*
X0107799Y0071047D01*
X0107844Y0071064D01*
X0107890Y0071077D01*
X0107937Y0071086D01*
X0107985Y0071092D01*
X0108033Y0071094D01*
X0108950Y0070024D02*
X0108950Y0069566D01*
X0108644Y0076070D02*
X0108646Y0076015D01*
X0108652Y0075961D01*
X0108661Y0075908D01*
X0108675Y0075855D01*
X0108692Y0075803D01*
X0108713Y0075753D01*
X0108737Y0075704D01*
X0108765Y0075657D01*
X0108796Y0075612D01*
X0108831Y0075570D01*
X0108868Y0075530D01*
X0108908Y0075493D01*
X0108950Y0075458D01*
X0108995Y0075427D01*
X0109042Y0075399D01*
X0109091Y0075375D01*
X0109141Y0075354D01*
X0109193Y0075337D01*
X0109246Y0075323D01*
X0109299Y0075314D01*
X0109353Y0075308D01*
X0109408Y0075306D01*
X0109463Y0075308D01*
X0109517Y0075314D01*
X0109570Y0075323D01*
X0109623Y0075337D01*
X0109675Y0075354D01*
X0109725Y0075375D01*
X0109774Y0075399D01*
X0109821Y0075427D01*
X0109866Y0075458D01*
X0109908Y0075493D01*
X0109948Y0075530D01*
X0109985Y0075570D01*
X0110020Y0075612D01*
X0110051Y0075657D01*
X0110079Y0075704D01*
X0110103Y0075753D01*
X0110124Y0075803D01*
X0110141Y0075855D01*
X0110155Y0075908D01*
X0110164Y0075961D01*
X0110170Y0076015D01*
X0110172Y0076070D01*
X0110172Y0076834D01*
X0107422Y0076834D01*
X0064409Y0123656D02*
X0062882Y0123656D01*
X0062834Y0123658D01*
X0062786Y0123664D01*
X0062739Y0123673D01*
X0062693Y0123686D01*
X0062648Y0123703D01*
X0062605Y0123723D01*
X0062563Y0123746D01*
X0062523Y0123773D01*
X0062485Y0123802D01*
X0062450Y0123835D01*
X0062417Y0123870D01*
X0062388Y0123908D01*
X0062361Y0123948D01*
X0062338Y0123990D01*
X0062318Y0124033D01*
X0062301Y0124078D01*
X0062288Y0124124D01*
X0062279Y0124171D01*
X0062273Y0124219D01*
X0062271Y0124267D01*
X0062271Y0124878D01*
X0062882Y0126029D02*
X0062271Y0126793D01*
X0065020Y0126793D01*
X0065020Y0127556D02*
X0065020Y0126029D01*
X0065020Y0124878D02*
X0065020Y0124267D01*
X0065018Y0124219D01*
X0065012Y0124171D01*
X0065003Y0124124D01*
X0064990Y0124078D01*
X0064973Y0124033D01*
X0064953Y0123990D01*
X0064930Y0123948D01*
X0064903Y0123908D01*
X0064874Y0123870D01*
X0064841Y0123835D01*
X0064806Y0123802D01*
X0064768Y0123773D01*
X0064728Y0123746D01*
X0064686Y0123723D01*
X0064643Y0123703D01*
X0064598Y0123686D01*
X0064552Y0123673D01*
X0064505Y0123664D01*
X0064457Y0123658D01*
X0064409Y0123656D01*
D14*
X0066795Y0116945D02*
X0077331Y0116945D01*
X0080331Y0111945D02*
X0080331Y0110921D01*
X0077331Y0105921D02*
X0066795Y0105921D01*
X0063795Y0110921D02*
X0063795Y0111945D01*
X0071669Y0130724D02*
X0071669Y0133874D01*
X0074031Y0133874D01*
X0080331Y0133874D02*
X0082693Y0133874D01*
X0082693Y0130724D01*
X0081661Y0074031D02*
X0071126Y0074031D01*
X0068126Y0069031D02*
X0068126Y0068008D01*
X0071126Y0063008D02*
X0081661Y0063008D01*
X0084661Y0068008D02*
X0084661Y0069031D01*
D15*
X0073225Y0068520D02*
X0073227Y0068632D01*
X0073233Y0068745D01*
X0073243Y0068857D01*
X0073257Y0068968D01*
X0073275Y0069080D01*
X0073297Y0069190D01*
X0073322Y0069299D01*
X0073352Y0069408D01*
X0073385Y0069515D01*
X0073423Y0069621D01*
X0073464Y0069726D01*
X0073508Y0069829D01*
X0073556Y0069931D01*
X0073608Y0070031D01*
X0073664Y0070129D01*
X0073723Y0070225D01*
X0073785Y0070318D01*
X0073850Y0070410D01*
X0073919Y0070499D01*
X0073991Y0070586D01*
X0074066Y0070670D01*
X0074143Y0070751D01*
X0074224Y0070829D01*
X0074307Y0070905D01*
X0074393Y0070977D01*
X0074482Y0071047D01*
X0074572Y0071113D01*
X0074666Y0071176D01*
X0074761Y0071236D01*
X0074858Y0071292D01*
X0074958Y0071345D01*
X0075059Y0071394D01*
X0075162Y0071440D01*
X0075266Y0071482D01*
X0075372Y0071520D01*
X0075479Y0071554D01*
X0075587Y0071585D01*
X0075697Y0071611D01*
X0075807Y0071634D01*
X0075918Y0071653D01*
X0076029Y0071668D01*
X0076141Y0071679D01*
X0076253Y0071686D01*
X0076366Y0071689D01*
X0076478Y0071688D01*
X0076591Y0071683D01*
X0076703Y0071674D01*
X0076815Y0071661D01*
X0076926Y0071644D01*
X0077036Y0071623D01*
X0077146Y0071598D01*
X0077255Y0071570D01*
X0077363Y0071537D01*
X0077469Y0071501D01*
X0077574Y0071461D01*
X0077678Y0071417D01*
X0077780Y0071370D01*
X0077880Y0071319D01*
X0077978Y0071264D01*
X0078075Y0071206D01*
X0078169Y0071145D01*
X0078261Y0071080D01*
X0078351Y0071013D01*
X0078438Y0070942D01*
X0078523Y0070867D01*
X0078605Y0070790D01*
X0078684Y0070711D01*
X0078760Y0070628D01*
X0078834Y0070543D01*
X0078904Y0070455D01*
X0078971Y0070364D01*
X0079035Y0070272D01*
X0079095Y0070177D01*
X0079152Y0070080D01*
X0079206Y0069981D01*
X0079256Y0069880D01*
X0079303Y0069778D01*
X0079345Y0069674D01*
X0079385Y0069569D01*
X0079420Y0069462D01*
X0079451Y0069354D01*
X0079479Y0069245D01*
X0079503Y0069135D01*
X0079523Y0069024D01*
X0079539Y0068913D01*
X0079551Y0068801D01*
X0079559Y0068689D01*
X0079563Y0068576D01*
X0079563Y0068464D01*
X0079559Y0068351D01*
X0079551Y0068239D01*
X0079539Y0068127D01*
X0079523Y0068016D01*
X0079503Y0067905D01*
X0079479Y0067795D01*
X0079451Y0067686D01*
X0079420Y0067578D01*
X0079385Y0067471D01*
X0079345Y0067366D01*
X0079303Y0067262D01*
X0079256Y0067160D01*
X0079206Y0067059D01*
X0079152Y0066960D01*
X0079095Y0066863D01*
X0079035Y0066768D01*
X0078971Y0066676D01*
X0078904Y0066585D01*
X0078834Y0066497D01*
X0078760Y0066412D01*
X0078684Y0066329D01*
X0078605Y0066250D01*
X0078523Y0066173D01*
X0078438Y0066098D01*
X0078351Y0066027D01*
X0078261Y0065960D01*
X0078169Y0065895D01*
X0078075Y0065834D01*
X0077979Y0065776D01*
X0077880Y0065721D01*
X0077780Y0065670D01*
X0077678Y0065623D01*
X0077574Y0065579D01*
X0077469Y0065539D01*
X0077363Y0065503D01*
X0077255Y0065470D01*
X0077146Y0065442D01*
X0077036Y0065417D01*
X0076926Y0065396D01*
X0076815Y0065379D01*
X0076703Y0065366D01*
X0076591Y0065357D01*
X0076478Y0065352D01*
X0076366Y0065351D01*
X0076253Y0065354D01*
X0076141Y0065361D01*
X0076029Y0065372D01*
X0075918Y0065387D01*
X0075807Y0065406D01*
X0075697Y0065429D01*
X0075587Y0065455D01*
X0075479Y0065486D01*
X0075372Y0065520D01*
X0075266Y0065558D01*
X0075162Y0065600D01*
X0075059Y0065646D01*
X0074958Y0065695D01*
X0074858Y0065748D01*
X0074761Y0065804D01*
X0074666Y0065864D01*
X0074572Y0065927D01*
X0074482Y0065993D01*
X0074393Y0066063D01*
X0074307Y0066135D01*
X0074224Y0066211D01*
X0074143Y0066289D01*
X0074066Y0066370D01*
X0073991Y0066454D01*
X0073919Y0066541D01*
X0073850Y0066630D01*
X0073785Y0066722D01*
X0073723Y0066815D01*
X0073664Y0066911D01*
X0073608Y0067009D01*
X0073556Y0067109D01*
X0073508Y0067211D01*
X0073464Y0067314D01*
X0073423Y0067419D01*
X0073385Y0067525D01*
X0073352Y0067632D01*
X0073322Y0067741D01*
X0073297Y0067850D01*
X0073275Y0067960D01*
X0073257Y0068072D01*
X0073243Y0068183D01*
X0073233Y0068295D01*
X0073227Y0068408D01*
X0073225Y0068520D01*
X0068894Y0111433D02*
X0068896Y0111545D01*
X0068902Y0111658D01*
X0068912Y0111770D01*
X0068926Y0111881D01*
X0068944Y0111993D01*
X0068966Y0112103D01*
X0068991Y0112212D01*
X0069021Y0112321D01*
X0069054Y0112428D01*
X0069092Y0112534D01*
X0069133Y0112639D01*
X0069177Y0112742D01*
X0069225Y0112844D01*
X0069277Y0112944D01*
X0069333Y0113042D01*
X0069392Y0113138D01*
X0069454Y0113231D01*
X0069519Y0113323D01*
X0069588Y0113412D01*
X0069660Y0113499D01*
X0069735Y0113583D01*
X0069812Y0113664D01*
X0069893Y0113742D01*
X0069976Y0113818D01*
X0070062Y0113890D01*
X0070151Y0113960D01*
X0070241Y0114026D01*
X0070335Y0114089D01*
X0070430Y0114149D01*
X0070527Y0114205D01*
X0070627Y0114258D01*
X0070728Y0114307D01*
X0070831Y0114353D01*
X0070935Y0114395D01*
X0071041Y0114433D01*
X0071148Y0114467D01*
X0071256Y0114498D01*
X0071366Y0114524D01*
X0071476Y0114547D01*
X0071587Y0114566D01*
X0071698Y0114581D01*
X0071810Y0114592D01*
X0071922Y0114599D01*
X0072035Y0114602D01*
X0072147Y0114601D01*
X0072260Y0114596D01*
X0072372Y0114587D01*
X0072484Y0114574D01*
X0072595Y0114557D01*
X0072705Y0114536D01*
X0072815Y0114511D01*
X0072924Y0114483D01*
X0073032Y0114450D01*
X0073138Y0114414D01*
X0073243Y0114374D01*
X0073347Y0114330D01*
X0073449Y0114283D01*
X0073549Y0114232D01*
X0073647Y0114177D01*
X0073744Y0114119D01*
X0073838Y0114058D01*
X0073930Y0113993D01*
X0074020Y0113926D01*
X0074107Y0113855D01*
X0074192Y0113780D01*
X0074274Y0113703D01*
X0074353Y0113624D01*
X0074429Y0113541D01*
X0074503Y0113456D01*
X0074573Y0113368D01*
X0074640Y0113277D01*
X0074704Y0113185D01*
X0074764Y0113090D01*
X0074821Y0112993D01*
X0074875Y0112894D01*
X0074925Y0112793D01*
X0074972Y0112691D01*
X0075014Y0112587D01*
X0075054Y0112482D01*
X0075089Y0112375D01*
X0075120Y0112267D01*
X0075148Y0112158D01*
X0075172Y0112048D01*
X0075192Y0111937D01*
X0075208Y0111826D01*
X0075220Y0111714D01*
X0075228Y0111602D01*
X0075232Y0111489D01*
X0075232Y0111377D01*
X0075228Y0111264D01*
X0075220Y0111152D01*
X0075208Y0111040D01*
X0075192Y0110929D01*
X0075172Y0110818D01*
X0075148Y0110708D01*
X0075120Y0110599D01*
X0075089Y0110491D01*
X0075054Y0110384D01*
X0075014Y0110279D01*
X0074972Y0110175D01*
X0074925Y0110073D01*
X0074875Y0109972D01*
X0074821Y0109873D01*
X0074764Y0109776D01*
X0074704Y0109681D01*
X0074640Y0109589D01*
X0074573Y0109498D01*
X0074503Y0109410D01*
X0074429Y0109325D01*
X0074353Y0109242D01*
X0074274Y0109163D01*
X0074192Y0109086D01*
X0074107Y0109011D01*
X0074020Y0108940D01*
X0073930Y0108873D01*
X0073838Y0108808D01*
X0073744Y0108747D01*
X0073648Y0108689D01*
X0073549Y0108634D01*
X0073449Y0108583D01*
X0073347Y0108536D01*
X0073243Y0108492D01*
X0073138Y0108452D01*
X0073032Y0108416D01*
X0072924Y0108383D01*
X0072815Y0108355D01*
X0072705Y0108330D01*
X0072595Y0108309D01*
X0072484Y0108292D01*
X0072372Y0108279D01*
X0072260Y0108270D01*
X0072147Y0108265D01*
X0072035Y0108264D01*
X0071922Y0108267D01*
X0071810Y0108274D01*
X0071698Y0108285D01*
X0071587Y0108300D01*
X0071476Y0108319D01*
X0071366Y0108342D01*
X0071256Y0108368D01*
X0071148Y0108399D01*
X0071041Y0108433D01*
X0070935Y0108471D01*
X0070831Y0108513D01*
X0070728Y0108559D01*
X0070627Y0108608D01*
X0070527Y0108661D01*
X0070430Y0108717D01*
X0070335Y0108777D01*
X0070241Y0108840D01*
X0070151Y0108906D01*
X0070062Y0108976D01*
X0069976Y0109048D01*
X0069893Y0109124D01*
X0069812Y0109202D01*
X0069735Y0109283D01*
X0069660Y0109367D01*
X0069588Y0109454D01*
X0069519Y0109543D01*
X0069454Y0109635D01*
X0069392Y0109728D01*
X0069333Y0109824D01*
X0069277Y0109922D01*
X0069225Y0110022D01*
X0069177Y0110124D01*
X0069133Y0110227D01*
X0069092Y0110332D01*
X0069054Y0110438D01*
X0069021Y0110545D01*
X0068991Y0110654D01*
X0068966Y0110763D01*
X0068944Y0110873D01*
X0068926Y0110985D01*
X0068912Y0111096D01*
X0068902Y0111208D01*
X0068896Y0111321D01*
X0068894Y0111433D01*
X0116041Y0114513D02*
X0116041Y0118263D01*
X0115810Y0119794D02*
X0115810Y0123544D01*
D16*
X0075213Y0101197D02*
X0061236Y0101197D01*
X0061236Y0083087D01*
X0075213Y0083087D01*
D17*
X0099819Y0105921D02*
X0099821Y0105995D01*
X0099827Y0106069D01*
X0099837Y0106142D01*
X0099851Y0106215D01*
X0099868Y0106287D01*
X0099890Y0106357D01*
X0099915Y0106427D01*
X0099944Y0106495D01*
X0099977Y0106561D01*
X0100013Y0106626D01*
X0100053Y0106688D01*
X0100095Y0106749D01*
X0100141Y0106807D01*
X0100190Y0106862D01*
X0100242Y0106915D01*
X0100297Y0106965D01*
X0100354Y0107011D01*
X0100414Y0107055D01*
X0100476Y0107095D01*
X0100540Y0107132D01*
X0100606Y0107166D01*
X0100674Y0107196D01*
X0100743Y0107222D01*
X0100814Y0107245D01*
X0100885Y0107263D01*
X0100958Y0107278D01*
X0101031Y0107289D01*
X0101105Y0107296D01*
X0101179Y0107299D01*
X0101252Y0107298D01*
X0101326Y0107293D01*
X0101400Y0107284D01*
X0101473Y0107271D01*
X0101545Y0107254D01*
X0101616Y0107234D01*
X0101686Y0107209D01*
X0101754Y0107181D01*
X0101821Y0107150D01*
X0101886Y0107114D01*
X0101949Y0107076D01*
X0102010Y0107034D01*
X0102069Y0106988D01*
X0102125Y0106940D01*
X0102178Y0106889D01*
X0102228Y0106835D01*
X0102276Y0106778D01*
X0102320Y0106719D01*
X0102362Y0106657D01*
X0102400Y0106594D01*
X0102434Y0106528D01*
X0102465Y0106461D01*
X0102492Y0106392D01*
X0102515Y0106322D01*
X0102535Y0106251D01*
X0102551Y0106178D01*
X0102563Y0106105D01*
X0102571Y0106032D01*
X0102575Y0105958D01*
X0102575Y0105884D01*
X0102571Y0105810D01*
X0102563Y0105737D01*
X0102551Y0105664D01*
X0102535Y0105591D01*
X0102515Y0105520D01*
X0102492Y0105450D01*
X0102465Y0105381D01*
X0102434Y0105314D01*
X0102400Y0105248D01*
X0102362Y0105185D01*
X0102320Y0105123D01*
X0102276Y0105064D01*
X0102228Y0105007D01*
X0102178Y0104953D01*
X0102125Y0104902D01*
X0102069Y0104854D01*
X0102010Y0104808D01*
X0101949Y0104766D01*
X0101886Y0104728D01*
X0101821Y0104692D01*
X0101754Y0104661D01*
X0101686Y0104633D01*
X0101616Y0104608D01*
X0101545Y0104588D01*
X0101473Y0104571D01*
X0101400Y0104558D01*
X0101326Y0104549D01*
X0101252Y0104544D01*
X0101179Y0104543D01*
X0101105Y0104546D01*
X0101031Y0104553D01*
X0100958Y0104564D01*
X0100885Y0104579D01*
X0100814Y0104597D01*
X0100743Y0104620D01*
X0100674Y0104646D01*
X0100606Y0104676D01*
X0100540Y0104710D01*
X0100476Y0104747D01*
X0100414Y0104787D01*
X0100354Y0104831D01*
X0100297Y0104877D01*
X0100242Y0104927D01*
X0100190Y0104980D01*
X0100141Y0105035D01*
X0100095Y0105093D01*
X0100053Y0105154D01*
X0100013Y0105216D01*
X0099977Y0105281D01*
X0099944Y0105347D01*
X0099915Y0105415D01*
X0099890Y0105485D01*
X0099868Y0105555D01*
X0099851Y0105627D01*
X0099837Y0105700D01*
X0099827Y0105773D01*
X0099821Y0105847D01*
X0099819Y0105921D01*
D18*
X0095291Y0101984D02*
X0095291Y0100016D01*
X0095291Y0100016D01*
X0095291Y0100016D01*
X0107102Y0100016D02*
X0107102Y0101984D01*
X0107102Y0100016D02*
X0107102Y0100016D01*
X0107102Y0109858D02*
X0107102Y0111827D01*
X0107102Y0111827D01*
X0095291Y0111827D02*
X0095291Y0109858D01*
X0095291Y0111827D02*
X0095291Y0111827D01*
D19*
X0096768Y0097654D02*
X0096770Y0097698D01*
X0096776Y0097742D01*
X0096786Y0097785D01*
X0096799Y0097827D01*
X0096817Y0097867D01*
X0096838Y0097906D01*
X0096862Y0097943D01*
X0096889Y0097978D01*
X0096920Y0098010D01*
X0096953Y0098039D01*
X0096989Y0098065D01*
X0097027Y0098087D01*
X0097067Y0098106D01*
X0097108Y0098122D01*
X0097151Y0098134D01*
X0097194Y0098142D01*
X0097238Y0098146D01*
X0097282Y0098146D01*
X0097326Y0098142D01*
X0097369Y0098134D01*
X0097412Y0098122D01*
X0097453Y0098106D01*
X0097493Y0098087D01*
X0097531Y0098065D01*
X0097567Y0098039D01*
X0097600Y0098010D01*
X0097631Y0097978D01*
X0097658Y0097943D01*
X0097682Y0097906D01*
X0097703Y0097867D01*
X0097721Y0097827D01*
X0097734Y0097785D01*
X0097744Y0097742D01*
X0097750Y0097698D01*
X0097752Y0097654D01*
X0097750Y0097610D01*
X0097744Y0097566D01*
X0097734Y0097523D01*
X0097721Y0097481D01*
X0097703Y0097441D01*
X0097682Y0097402D01*
X0097658Y0097365D01*
X0097631Y0097330D01*
X0097600Y0097298D01*
X0097567Y0097269D01*
X0097531Y0097243D01*
X0097493Y0097221D01*
X0097453Y0097202D01*
X0097412Y0097186D01*
X0097369Y0097174D01*
X0097326Y0097166D01*
X0097282Y0097162D01*
X0097238Y0097162D01*
X0097194Y0097166D01*
X0097151Y0097174D01*
X0097108Y0097186D01*
X0097067Y0097202D01*
X0097027Y0097221D01*
X0096989Y0097243D01*
X0096953Y0097269D01*
X0096920Y0097298D01*
X0096889Y0097330D01*
X0096862Y0097365D01*
X0096838Y0097402D01*
X0096817Y0097441D01*
X0096799Y0097481D01*
X0096786Y0097523D01*
X0096776Y0097566D01*
X0096770Y0097610D01*
X0096768Y0097654D01*
M02*
