G75*
%MOIN*%
%OFA0B0*%
%FSLAX25Y25*%
%IPPOS*%
%LPD*%
%AMOC8*
5,1,8,0,0,1.08239X$1,22.5*
%
%ADD10C,0.00000*%
%ADD11C,0.04000*%
%ADD12C,0.01181*%
%ADD13R,0.02362X0.02362*%
%ADD14C,0.07400*%
%ADD15R,0.03937X0.03543*%
%ADD16R,0.04134X0.03543*%
%ADD17R,0.03150X0.01181*%
%ADD18R,0.10236X0.02362*%
%ADD19R,0.02756X0.06299*%
%ADD20R,0.06299X0.02756*%
%ADD21R,0.02362X0.02362*%
%ADD22R,0.03346X0.00787*%
%ADD23R,0.02559X0.06004*%
%ADD24C,0.03150*%
%ADD25C,0.00787*%
%ADD26C,0.01575*%
%ADD27C,0.01969*%
D10*
X0080331Y0048835D02*
X0080331Y0149228D01*
X0213402Y0149228D01*
X0213402Y0048835D01*
X0080331Y0048835D01*
D11*
X0137673Y0063638D03*
X0142673Y0063638D03*
X0142673Y0068638D03*
X0137673Y0068638D03*
X0137673Y0073638D03*
X0142673Y0073638D03*
X0142673Y0078638D03*
X0137673Y0078638D03*
X0137673Y0083638D03*
X0142673Y0083638D03*
D12*
X0141445Y0086582D02*
X0138902Y0086582D01*
X0139481Y0086343D02*
X0138308Y0086828D01*
X0137039Y0086828D01*
X0135866Y0086343D01*
X0135261Y0085738D01*
X0135261Y0088378D01*
X0135357Y0088212D01*
X0135653Y0087916D01*
X0136016Y0087707D01*
X0136421Y0087598D01*
X0138303Y0087598D01*
X0138303Y0090665D01*
X0138894Y0090665D01*
X0138894Y0087598D01*
X0140776Y0087598D01*
X0141181Y0087707D01*
X0141544Y0087916D01*
X0141840Y0088212D01*
X0141980Y0088455D01*
X0142436Y0087998D01*
X0147359Y0087998D01*
X0148057Y0088696D01*
X0148057Y0092920D01*
X0148431Y0092920D01*
X0148431Y0092830D01*
X0148726Y0092535D01*
X0148431Y0092241D01*
X0148431Y0088499D01*
X0148726Y0088205D01*
X0148431Y0087910D01*
X0148431Y0084168D01*
X0148726Y0083874D01*
X0148431Y0083580D01*
X0148431Y0079838D01*
X0148726Y0079543D01*
X0148431Y0079249D01*
X0148431Y0075507D01*
X0149129Y0074809D01*
X0155709Y0074809D01*
X0155709Y0072555D01*
X0158579Y0072555D01*
X0158579Y0077197D01*
X0157112Y0077197D01*
X0157112Y0079249D01*
X0156818Y0079543D01*
X0157112Y0079838D01*
X0157112Y0083580D01*
X0156818Y0083874D01*
X0157005Y0084061D01*
X0157258Y0084061D01*
X0157733Y0083865D01*
X0158834Y0083865D01*
X0159850Y0084286D01*
X0160628Y0085063D01*
X0161049Y0086080D01*
X0161049Y0087180D01*
X0160628Y0088196D01*
X0159850Y0088974D01*
X0158879Y0089376D01*
X0159227Y0089376D01*
X0160244Y0089797D01*
X0161022Y0090575D01*
X0161443Y0091592D01*
X0161443Y0092692D01*
X0161022Y0093708D01*
X0160244Y0094486D01*
X0159227Y0094907D01*
X0158127Y0094907D01*
X0157112Y0094487D01*
X0157112Y0096572D01*
X0156818Y0096866D01*
X0157112Y0097160D01*
X0157112Y0100903D01*
X0156818Y0101197D01*
X0157112Y0101491D01*
X0157112Y0105233D01*
X0156818Y0105528D01*
X0157112Y0105822D01*
X0157112Y0106338D01*
X0157733Y0106080D01*
X0158834Y0106080D01*
X0159850Y0106501D01*
X0160413Y0107065D01*
X0193442Y0107065D01*
X0194485Y0108108D01*
X0207643Y0121266D01*
X0208186Y0121266D01*
X0208197Y0121278D01*
X0208291Y0121184D01*
X0208654Y0120975D01*
X0209058Y0120866D01*
X0210547Y0120866D01*
X0210547Y0125508D01*
X0210744Y0125508D01*
X0210744Y0120866D01*
X0211630Y0120866D01*
X0211630Y0077197D01*
X0210744Y0077197D01*
X0210744Y0072555D01*
X0210547Y0072555D01*
X0210547Y0077197D01*
X0209058Y0077197D01*
X0208654Y0077088D01*
X0208291Y0076879D01*
X0208197Y0076785D01*
X0208186Y0076797D01*
X0208096Y0076797D01*
X0208096Y0077131D01*
X0182446Y0102781D01*
X0164153Y0102781D01*
X0163590Y0103344D01*
X0162574Y0103765D01*
X0161474Y0103765D01*
X0160457Y0103344D01*
X0159679Y0102566D01*
X0159258Y0101550D01*
X0159258Y0100450D01*
X0159679Y0099434D01*
X0160081Y0099031D01*
X0159679Y0098629D01*
X0159258Y0097613D01*
X0159258Y0096513D01*
X0159679Y0095497D01*
X0160457Y0094719D01*
X0161474Y0094298D01*
X0162574Y0094298D01*
X0163590Y0094719D01*
X0164153Y0095282D01*
X0179002Y0095282D01*
X0197487Y0076797D01*
X0195782Y0076797D01*
X0195488Y0076503D01*
X0195194Y0076797D01*
X0191452Y0076797D01*
X0191157Y0076503D01*
X0190863Y0076797D01*
X0190773Y0076797D01*
X0190773Y0078595D01*
X0190943Y0078764D01*
X0191364Y0079781D01*
X0191364Y0080881D01*
X0190943Y0081897D01*
X0190165Y0082675D01*
X0189148Y0083096D01*
X0188048Y0083096D01*
X0187032Y0082675D01*
X0186254Y0081897D01*
X0185833Y0080881D01*
X0185833Y0080870D01*
X0185211Y0081128D01*
X0184111Y0081128D01*
X0183095Y0080707D01*
X0182317Y0079929D01*
X0181896Y0078912D01*
X0181896Y0077812D01*
X0182317Y0076796D01*
X0182553Y0076560D01*
X0182496Y0076503D01*
X0182202Y0076797D01*
X0178460Y0076797D01*
X0178165Y0076503D01*
X0177871Y0076797D01*
X0174129Y0076797D01*
X0173835Y0076503D01*
X0173540Y0076797D01*
X0169798Y0076797D01*
X0169504Y0076503D01*
X0169210Y0076797D01*
X0165467Y0076797D01*
X0165173Y0076503D01*
X0164879Y0076797D01*
X0161137Y0076797D01*
X0161125Y0076785D01*
X0161032Y0076879D01*
X0160669Y0077088D01*
X0160265Y0077197D01*
X0158776Y0077197D01*
X0158776Y0072555D01*
X0158579Y0072555D01*
X0158579Y0072358D01*
X0155709Y0072358D01*
X0155709Y0069098D01*
X0155817Y0068693D01*
X0156026Y0068330D01*
X0156323Y0068034D01*
X0156685Y0067825D01*
X0157090Y0067717D01*
X0157717Y0067717D01*
X0149106Y0059106D01*
X0147839Y0059631D01*
X0145893Y0059631D01*
X0144096Y0058886D01*
X0142720Y0057510D01*
X0141976Y0055713D01*
X0141976Y0053767D01*
X0142720Y0051970D01*
X0144084Y0050606D01*
X0139649Y0050606D01*
X0141012Y0051970D01*
X0141757Y0053767D01*
X0141757Y0055713D01*
X0141012Y0057510D01*
X0139636Y0058886D01*
X0137839Y0059631D01*
X0135893Y0059631D01*
X0135261Y0059369D01*
X0135261Y0060972D01*
X0135384Y0060849D01*
X0135972Y0060456D01*
X0136626Y0060185D01*
X0137320Y0060047D01*
X0137673Y0060047D01*
X0137673Y0063638D01*
X0137673Y0063638D01*
X0137673Y0060047D01*
X0138027Y0060047D01*
X0138721Y0060185D01*
X0139374Y0060456D01*
X0139962Y0060849D01*
X0140456Y0061343D01*
X0140866Y0060933D01*
X0142039Y0060447D01*
X0143308Y0060447D01*
X0144481Y0060933D01*
X0145378Y0061830D01*
X0145864Y0063003D01*
X0145864Y0064272D01*
X0145378Y0065445D01*
X0144685Y0066138D01*
X0145378Y0066830D01*
X0145864Y0068003D01*
X0145864Y0069272D01*
X0145378Y0070445D01*
X0144685Y0071138D01*
X0145378Y0071830D01*
X0145864Y0073003D01*
X0145864Y0074272D01*
X0145378Y0075445D01*
X0144685Y0076138D01*
X0145378Y0076830D01*
X0145864Y0078003D01*
X0145864Y0079272D01*
X0145378Y0080445D01*
X0144685Y0081138D01*
X0145378Y0081830D01*
X0145864Y0083003D01*
X0145864Y0084272D01*
X0145378Y0085445D01*
X0144481Y0086343D01*
X0143308Y0086828D01*
X0142039Y0086828D01*
X0140866Y0086343D01*
X0140173Y0085650D01*
X0139481Y0086343D01*
X0138894Y0087762D02*
X0138303Y0087762D01*
X0138303Y0088942D02*
X0138894Y0088942D01*
X0138894Y0090121D02*
X0138303Y0090121D01*
X0135921Y0087762D02*
X0135261Y0087762D01*
X0135261Y0086582D02*
X0136445Y0086582D01*
X0133480Y0088205D02*
X0133480Y0058283D01*
X0136866Y0054740D01*
X0141757Y0054733D02*
X0141976Y0054733D01*
X0142058Y0055912D02*
X0141674Y0055912D01*
X0141185Y0057092D02*
X0142547Y0057092D01*
X0143481Y0058272D02*
X0140251Y0058272D01*
X0138272Y0059451D02*
X0145460Y0059451D01*
X0143751Y0060631D02*
X0150632Y0060631D01*
X0151811Y0061810D02*
X0145358Y0061810D01*
X0145858Y0062990D02*
X0152991Y0062990D01*
X0154170Y0064170D02*
X0145864Y0064170D01*
X0145418Y0065349D02*
X0155350Y0065349D01*
X0156530Y0066529D02*
X0145076Y0066529D01*
X0145742Y0067708D02*
X0157709Y0067708D01*
X0155765Y0068888D02*
X0145864Y0068888D01*
X0145534Y0070068D02*
X0155709Y0070068D01*
X0155709Y0071247D02*
X0144795Y0071247D01*
X0145625Y0072427D02*
X0158579Y0072427D01*
X0158579Y0073607D02*
X0158776Y0073607D01*
X0158776Y0074786D02*
X0158579Y0074786D01*
X0158579Y0075966D02*
X0158776Y0075966D01*
X0158776Y0077145D02*
X0158579Y0077145D01*
X0160457Y0077145D02*
X0182172Y0077145D01*
X0181896Y0078325D02*
X0157112Y0078325D01*
X0156856Y0079505D02*
X0182141Y0079505D01*
X0183073Y0080684D02*
X0157112Y0080684D01*
X0157112Y0081864D02*
X0186240Y0081864D01*
X0187921Y0083043D02*
X0157112Y0083043D01*
X0159699Y0084223D02*
X0190061Y0084223D01*
X0189276Y0083043D02*
X0191241Y0083043D01*
X0190957Y0081864D02*
X0192420Y0081864D01*
X0191364Y0080684D02*
X0193600Y0080684D01*
X0194780Y0079505D02*
X0191249Y0079505D01*
X0190773Y0078325D02*
X0195959Y0078325D01*
X0197139Y0077145D02*
X0190773Y0077145D01*
X0188992Y0079937D02*
X0188992Y0072457D01*
X0184661Y0072457D02*
X0184661Y0078362D01*
X0188598Y0080331D02*
X0188992Y0079937D01*
X0188882Y0085403D02*
X0160768Y0085403D01*
X0161049Y0086582D02*
X0187702Y0086582D01*
X0186522Y0087762D02*
X0160808Y0087762D01*
X0159883Y0088942D02*
X0185343Y0088942D01*
X0184163Y0090121D02*
X0160567Y0090121D01*
X0161322Y0091301D02*
X0182984Y0091301D01*
X0181804Y0092480D02*
X0161443Y0092480D01*
X0161041Y0093660D02*
X0180624Y0093660D01*
X0179445Y0094840D02*
X0163711Y0094840D01*
X0162024Y0097063D02*
X0179740Y0097063D01*
X0201984Y0074819D01*
X0201984Y0072457D01*
X0197654Y0072457D02*
X0197654Y0064110D01*
X0206866Y0054740D01*
X0211185Y0057092D02*
X0211630Y0057092D01*
X0211012Y0057510D02*
X0211630Y0056019D01*
X0211630Y0067717D01*
X0210744Y0067717D01*
X0210744Y0072358D01*
X0210547Y0072358D01*
X0210547Y0067717D01*
X0209058Y0067717D01*
X0208654Y0067825D01*
X0208291Y0068034D01*
X0208197Y0068128D01*
X0208186Y0068117D01*
X0204444Y0068117D01*
X0204150Y0068411D01*
X0203855Y0068117D01*
X0200113Y0068117D01*
X0199819Y0068411D01*
X0199525Y0068117D01*
X0199435Y0068117D01*
X0199435Y0064839D01*
X0204943Y0059237D01*
X0205893Y0059631D01*
X0207839Y0059631D01*
X0209636Y0058886D01*
X0211012Y0057510D01*
X0211630Y0058272D02*
X0210251Y0058272D01*
X0211630Y0059451D02*
X0208272Y0059451D01*
X0205460Y0059451D02*
X0204732Y0059451D01*
X0203572Y0060631D02*
X0211630Y0060631D01*
X0211630Y0061810D02*
X0202412Y0061810D01*
X0201253Y0062990D02*
X0211630Y0062990D01*
X0211630Y0064170D02*
X0200093Y0064170D01*
X0199435Y0065349D02*
X0211630Y0065349D01*
X0211630Y0066529D02*
X0199435Y0066529D01*
X0199435Y0067708D02*
X0211630Y0067708D01*
X0210744Y0068888D02*
X0210547Y0068888D01*
X0210547Y0070068D02*
X0210744Y0070068D01*
X0210744Y0071247D02*
X0210547Y0071247D01*
X0210547Y0073607D02*
X0210744Y0073607D01*
X0210744Y0074786D02*
X0210547Y0074786D01*
X0210547Y0075966D02*
X0210744Y0075966D01*
X0210744Y0077145D02*
X0210547Y0077145D01*
X0211630Y0078325D02*
X0206903Y0078325D01*
X0208082Y0077145D02*
X0208866Y0077145D01*
X0206315Y0076394D02*
X0181709Y0101000D01*
X0162024Y0101000D01*
X0159410Y0101917D02*
X0157112Y0101917D01*
X0157112Y0100738D02*
X0159258Y0100738D01*
X0159628Y0099558D02*
X0157112Y0099558D01*
X0157112Y0098378D02*
X0159575Y0098378D01*
X0159258Y0097199D02*
X0157112Y0097199D01*
X0157112Y0096019D02*
X0159463Y0096019D01*
X0159390Y0094840D02*
X0160336Y0094840D01*
X0157964Y0094840D02*
X0157112Y0094840D01*
X0158677Y0092142D02*
X0156906Y0090370D01*
X0152772Y0090370D01*
X0148431Y0090121D02*
X0148057Y0090121D01*
X0148057Y0088942D02*
X0148431Y0088942D01*
X0148431Y0087762D02*
X0141276Y0087762D01*
X0143902Y0086582D02*
X0148431Y0086582D01*
X0148431Y0085403D02*
X0145396Y0085403D01*
X0145864Y0084223D02*
X0148431Y0084223D01*
X0148431Y0083043D02*
X0145864Y0083043D01*
X0145392Y0081864D02*
X0148431Y0081864D01*
X0148431Y0080684D02*
X0145139Y0080684D01*
X0145768Y0079505D02*
X0148687Y0079505D01*
X0148431Y0078325D02*
X0145864Y0078325D01*
X0145508Y0077145D02*
X0148431Y0077145D01*
X0148431Y0075966D02*
X0144857Y0075966D01*
X0145651Y0074786D02*
X0155709Y0074786D01*
X0155709Y0073607D02*
X0145864Y0073607D01*
X0137673Y0073638D02*
X0137673Y0073638D01*
X0137673Y0078638D01*
X0137673Y0078638D01*
X0137673Y0075047D01*
X0137673Y0073638D01*
X0137673Y0074786D02*
X0137673Y0074786D01*
X0137673Y0075966D02*
X0137673Y0075966D01*
X0137673Y0077145D02*
X0137673Y0077145D01*
X0137673Y0078325D02*
X0137673Y0078325D01*
X0133480Y0088205D02*
X0133480Y0092142D01*
X0136039Y0094701D01*
X0152772Y0094701D01*
X0148671Y0092480D02*
X0148057Y0092480D01*
X0148057Y0091301D02*
X0148431Y0091301D01*
X0152772Y0099031D02*
X0137851Y0099031D01*
X0127024Y0088204D01*
X0126866Y0054740D01*
X0121669Y0059386D02*
X0121669Y0085368D01*
X0139663Y0103362D01*
X0152772Y0103362D01*
X0152772Y0107693D02*
X0145488Y0107693D01*
X0144898Y0107102D01*
X0138303Y0106807D02*
X0135039Y0106807D01*
X0135039Y0105121D01*
X0135148Y0104717D01*
X0135357Y0104354D01*
X0135653Y0104058D01*
X0136016Y0103849D01*
X0136421Y0103740D01*
X0137522Y0103740D01*
X0126981Y0093199D01*
X0126770Y0093708D01*
X0125992Y0094486D01*
X0124975Y0094907D01*
X0123875Y0094907D01*
X0122859Y0094486D01*
X0122081Y0093708D01*
X0121660Y0092692D01*
X0121660Y0091895D01*
X0114505Y0084740D01*
X0113461Y0083697D01*
X0113461Y0063352D01*
X0112624Y0062514D01*
X0112624Y0063164D01*
X0112203Y0064181D01*
X0111425Y0064959D01*
X0110408Y0065380D01*
X0109308Y0065380D01*
X0108292Y0064959D01*
X0107729Y0064395D01*
X0086974Y0064395D01*
X0085447Y0065922D01*
X0085447Y0067526D01*
X0085782Y0067526D01*
X0086825Y0068569D01*
X0086825Y0072801D01*
X0085782Y0073844D01*
X0085678Y0073844D01*
X0085678Y0074056D01*
X0085816Y0074056D01*
X0086859Y0075099D01*
X0086859Y0079331D01*
X0086246Y0079944D01*
X0086246Y0082335D01*
X0086612Y0082701D01*
X0087033Y0083718D01*
X0087033Y0084818D01*
X0086612Y0085834D01*
X0085834Y0086612D01*
X0084818Y0087033D01*
X0083718Y0087033D01*
X0082701Y0086612D01*
X0082102Y0086013D01*
X0082102Y0089180D01*
X0092635Y0089180D01*
X0093332Y0089877D01*
X0093332Y0093225D01*
X0092635Y0093923D01*
X0082102Y0093923D01*
X0082102Y0104140D01*
X0092635Y0104140D01*
X0093332Y0104838D01*
X0093332Y0108186D01*
X0093149Y0108369D01*
X0093153Y0108368D01*
X0094592Y0108368D01*
X0094592Y0112911D01*
X0091772Y0112911D01*
X0089691Y0112911D01*
X0089691Y0113010D01*
X0089592Y0113010D01*
X0089592Y0112911D01*
X0086772Y0112911D01*
X0084691Y0112911D01*
X0084691Y0113010D01*
X0084592Y0113010D01*
X0084592Y0117553D01*
X0083153Y0117553D01*
X0082748Y0117445D01*
X0082386Y0117235D01*
X0082102Y0116952D01*
X0082102Y0130323D01*
X0082386Y0130040D01*
X0082748Y0129831D01*
X0083153Y0129722D01*
X0084592Y0129722D01*
X0084592Y0134266D01*
X0084691Y0134266D01*
X0084691Y0129722D01*
X0086131Y0129722D01*
X0086535Y0129831D01*
X0086898Y0130040D01*
X0087194Y0130336D01*
X0087363Y0130629D01*
X0087869Y0130122D01*
X0091414Y0130122D01*
X0092112Y0130820D01*
X0092112Y0137810D01*
X0091414Y0138507D01*
X0089069Y0138507D01*
X0089639Y0138798D01*
X0090313Y0139287D01*
X0090902Y0139876D01*
X0091391Y0140550D01*
X0091769Y0141292D01*
X0091866Y0141591D01*
X0091963Y0141292D01*
X0092341Y0140550D01*
X0092831Y0139876D01*
X0093420Y0139287D01*
X0094093Y0138798D01*
X0094663Y0138507D01*
X0092869Y0138507D01*
X0092172Y0137810D01*
X0092172Y0130820D01*
X0092861Y0130131D01*
X0092861Y0129088D01*
X0093904Y0128044D01*
X0097080Y0124869D01*
X0098123Y0123825D01*
X0103746Y0123825D01*
X0103746Y0118287D01*
X0103577Y0118118D01*
X0103156Y0117101D01*
X0103156Y0116583D01*
X0102762Y0116189D01*
X0102762Y0113805D01*
X0102112Y0113805D01*
X0102112Y0116456D01*
X0101414Y0117153D01*
X0097869Y0117153D01*
X0097363Y0116647D01*
X0097194Y0116939D01*
X0096898Y0117235D01*
X0096535Y0117445D01*
X0096131Y0117553D01*
X0094691Y0117553D01*
X0094691Y0113010D01*
X0094592Y0113010D01*
X0094592Y0112911D01*
X0094691Y0112911D01*
X0094691Y0108368D01*
X0096131Y0108368D01*
X0096535Y0108477D01*
X0096898Y0108686D01*
X0097194Y0108982D01*
X0097363Y0109274D01*
X0097869Y0108768D01*
X0101414Y0108768D01*
X0102112Y0109466D01*
X0102112Y0109849D01*
X0102369Y0109849D01*
X0102369Y0109562D01*
X0102577Y0109354D01*
X0102286Y0109063D01*
X0102077Y0108701D01*
X0101969Y0108296D01*
X0101969Y0108102D01*
X0100803Y0108102D01*
X0099413Y0108102D01*
X0099008Y0107994D01*
X0098645Y0107785D01*
X0098349Y0107488D01*
X0098140Y0107126D01*
X0098031Y0106721D01*
X0098031Y0105331D01*
X0100803Y0105331D01*
X0100803Y0108102D01*
X0100803Y0105331D01*
X0100803Y0105331D01*
X0100803Y0105331D01*
X0098031Y0105331D01*
X0098031Y0104750D01*
X0094011Y0104750D01*
X0093313Y0104052D01*
X0093313Y0094011D01*
X0094011Y0093313D01*
X0098031Y0093313D01*
X0098031Y0092732D01*
X0098031Y0091342D01*
X0098140Y0090937D01*
X0098349Y0090575D01*
X0098645Y0090278D01*
X0099008Y0090069D01*
X0099413Y0089961D01*
X0100803Y0089961D01*
X0100803Y0092732D01*
X0100803Y0092732D01*
X0098031Y0092732D01*
X0100803Y0092732D01*
X0100803Y0092732D01*
X0100803Y0089961D01*
X0102194Y0089961D01*
X0102598Y0090069D01*
X0102961Y0090278D01*
X0103257Y0090575D01*
X0103466Y0090937D01*
X0103575Y0091342D01*
X0103575Y0092732D01*
X0100803Y0092732D01*
X0100803Y0092732D01*
X0103575Y0092732D01*
X0103575Y0094123D01*
X0103466Y0094527D01*
X0103257Y0094890D01*
X0102967Y0095180D01*
X0103068Y0095282D01*
X0103595Y0095282D01*
X0104158Y0094719D01*
X0105174Y0094298D01*
X0106274Y0094298D01*
X0107291Y0094719D01*
X0108069Y0095497D01*
X0108490Y0096513D01*
X0108490Y0097613D01*
X0108069Y0098629D01*
X0107667Y0099031D01*
X0108069Y0099434D01*
X0108490Y0100450D01*
X0108490Y0101550D01*
X0108069Y0102566D01*
X0107291Y0103344D01*
X0106274Y0103765D01*
X0105174Y0103765D01*
X0104158Y0103344D01*
X0103595Y0102781D01*
X0103068Y0102781D01*
X0102967Y0102883D01*
X0103257Y0103173D01*
X0103466Y0103536D01*
X0103575Y0103940D01*
X0103575Y0104134D01*
X0104740Y0104134D01*
X0104740Y0106905D01*
X0104740Y0106905D01*
X0104740Y0104134D01*
X0106131Y0104134D01*
X0106535Y0104242D01*
X0106898Y0104452D01*
X0107194Y0104748D01*
X0107403Y0105110D01*
X0107512Y0105515D01*
X0107512Y0106905D01*
X0104740Y0106905D01*
X0104740Y0106906D01*
X0107512Y0106906D01*
X0107512Y0107914D01*
X0108668Y0106758D01*
X0108668Y0105231D01*
X0109365Y0104534D01*
X0112714Y0104534D01*
X0113304Y0105124D01*
X0116535Y0105124D01*
X0116535Y0104347D01*
X0119307Y0104347D01*
X0119307Y0104346D01*
X0119307Y0104346D01*
X0119307Y0101575D01*
X0117917Y0101575D01*
X0117512Y0101683D01*
X0117149Y0101893D01*
X0116853Y0102189D01*
X0116644Y0102551D01*
X0116535Y0102956D01*
X0116535Y0104346D01*
X0119307Y0104346D01*
X0119307Y0101575D01*
X0120698Y0101575D01*
X0121102Y0101683D01*
X0121276Y0101783D01*
X0121449Y0101683D01*
X0121854Y0101575D01*
X0122128Y0101575D01*
X0103846Y0083293D01*
X0099918Y0083293D01*
X0099328Y0083883D01*
X0095979Y0083883D01*
X0095282Y0083186D01*
X0095282Y0079838D01*
X0095773Y0079346D01*
X0095389Y0078962D01*
X0093765Y0078962D01*
X0093765Y0079331D01*
X0092721Y0080374D01*
X0088490Y0080374D01*
X0087447Y0079331D01*
X0087447Y0075099D01*
X0088490Y0074056D01*
X0092721Y0074056D01*
X0093765Y0075099D01*
X0093765Y0075400D01*
X0095389Y0075400D01*
X0095979Y0074809D01*
X0099328Y0074809D01*
X0099809Y0075291D01*
X0099809Y0072950D01*
X0099425Y0072566D01*
X0098934Y0073057D01*
X0095586Y0073057D01*
X0094995Y0072466D01*
X0093731Y0072466D01*
X0093731Y0072801D01*
X0092688Y0073844D01*
X0088456Y0073844D01*
X0087413Y0072801D01*
X0087413Y0068569D01*
X0088456Y0067526D01*
X0092688Y0067526D01*
X0093731Y0068569D01*
X0093731Y0068904D01*
X0094995Y0068904D01*
X0095586Y0068313D01*
X0098934Y0068313D01*
X0099425Y0068805D01*
X0099916Y0068313D01*
X0103265Y0068313D01*
X0103962Y0069011D01*
X0103962Y0072359D01*
X0103372Y0072950D01*
X0103372Y0075262D01*
X0135507Y0107398D01*
X0138303Y0107398D01*
X0138303Y0106807D01*
X0135039Y0106636D02*
X0134745Y0106636D01*
X0135039Y0105456D02*
X0133566Y0105456D01*
X0132386Y0104276D02*
X0135435Y0104276D01*
X0136879Y0103097D02*
X0131206Y0103097D01*
X0130027Y0101917D02*
X0135699Y0101917D01*
X0134520Y0100738D02*
X0128847Y0100738D01*
X0127667Y0099558D02*
X0133340Y0099558D01*
X0132160Y0098378D02*
X0126488Y0098378D01*
X0125308Y0097199D02*
X0130981Y0097199D01*
X0129801Y0096019D02*
X0124129Y0096019D01*
X0123712Y0094840D02*
X0122949Y0094840D01*
X0122061Y0093660D02*
X0121769Y0093660D01*
X0121660Y0092480D02*
X0120590Y0092480D01*
X0121065Y0091301D02*
X0119410Y0091301D01*
X0119886Y0090121D02*
X0118231Y0090121D01*
X0118706Y0088942D02*
X0117051Y0088942D01*
X0117527Y0087762D02*
X0115871Y0087762D01*
X0116347Y0086582D02*
X0114692Y0086582D01*
X0115167Y0085403D02*
X0113512Y0085403D01*
X0113988Y0084223D02*
X0112332Y0084223D01*
X0113461Y0083043D02*
X0111153Y0083043D01*
X0109973Y0081864D02*
X0113461Y0081864D01*
X0113461Y0080684D02*
X0108794Y0080684D01*
X0107614Y0079505D02*
X0113461Y0079505D01*
X0113461Y0078325D02*
X0106434Y0078325D01*
X0105255Y0077145D02*
X0113461Y0077145D01*
X0113461Y0075966D02*
X0104075Y0075966D01*
X0103372Y0074786D02*
X0113461Y0074786D01*
X0113461Y0073607D02*
X0103372Y0073607D01*
X0103895Y0072427D02*
X0113461Y0072427D01*
X0113461Y0071247D02*
X0103962Y0071247D01*
X0103962Y0070068D02*
X0113461Y0070068D01*
X0113461Y0068888D02*
X0103839Y0068888D01*
X0101591Y0070685D02*
X0101591Y0076000D01*
X0137614Y0112024D01*
X0152772Y0112024D01*
X0158283Y0112595D02*
X0191335Y0112595D01*
X0201984Y0123244D01*
X0201984Y0125606D01*
X0197654Y0125606D02*
X0197654Y0122850D01*
X0194504Y0119701D01*
X0191148Y0116345D01*
X0158283Y0116345D01*
X0158283Y0120094D02*
X0190961Y0120094D01*
X0193323Y0122457D01*
X0193323Y0125606D01*
X0188992Y0125606D02*
X0188992Y0135291D01*
X0196866Y0143323D01*
X0194949Y0138823D02*
X0195893Y0138432D01*
X0197839Y0138432D01*
X0199636Y0139177D01*
X0201012Y0140553D01*
X0201689Y0142188D01*
X0201706Y0142084D01*
X0201963Y0141292D01*
X0202341Y0140550D01*
X0202831Y0139876D01*
X0203420Y0139287D01*
X0204093Y0138798D01*
X0204835Y0138420D01*
X0205627Y0138163D01*
X0206450Y0138032D01*
X0206457Y0138032D01*
X0206457Y0142913D01*
X0207276Y0142913D01*
X0207276Y0138032D01*
X0207283Y0138032D01*
X0208105Y0138163D01*
X0208897Y0138420D01*
X0209639Y0138798D01*
X0210313Y0139287D01*
X0210902Y0139876D01*
X0211391Y0140550D01*
X0211630Y0141019D01*
X0211630Y0130346D01*
X0210744Y0130346D01*
X0210744Y0125705D01*
X0210547Y0125705D01*
X0210547Y0130346D01*
X0209058Y0130346D01*
X0208654Y0130238D01*
X0208291Y0130029D01*
X0208197Y0129935D01*
X0208186Y0129946D01*
X0204444Y0129946D01*
X0204150Y0129652D01*
X0203855Y0129946D01*
X0200113Y0129946D01*
X0199819Y0129652D01*
X0199525Y0129946D01*
X0195782Y0129946D01*
X0195488Y0129652D01*
X0195194Y0129946D01*
X0191452Y0129946D01*
X0191157Y0129652D01*
X0190863Y0129946D01*
X0190773Y0129946D01*
X0190773Y0134564D01*
X0194949Y0138823D01*
X0194618Y0138485D02*
X0195765Y0138485D01*
X0197967Y0138485D02*
X0204707Y0138485D01*
X0206457Y0138485D02*
X0207276Y0138485D01*
X0207276Y0139665D02*
X0206457Y0139665D01*
X0206457Y0140845D02*
X0207276Y0140845D01*
X0207276Y0142024D02*
X0206457Y0142024D01*
X0211541Y0140845D02*
X0211630Y0140845D01*
X0211630Y0139665D02*
X0210690Y0139665D01*
X0211630Y0138485D02*
X0209025Y0138485D01*
X0211630Y0137306D02*
X0193461Y0137306D01*
X0192305Y0136126D02*
X0211630Y0136126D01*
X0211630Y0134946D02*
X0191148Y0134946D01*
X0190773Y0133767D02*
X0211630Y0133767D01*
X0211630Y0132587D02*
X0190773Y0132587D01*
X0190773Y0131408D02*
X0211630Y0131408D01*
X0210744Y0130228D02*
X0210547Y0130228D01*
X0210547Y0129048D02*
X0210744Y0129048D01*
X0210744Y0127869D02*
X0210547Y0127869D01*
X0210547Y0126689D02*
X0210744Y0126689D01*
X0210744Y0124330D02*
X0210547Y0124330D01*
X0210547Y0123150D02*
X0210744Y0123150D01*
X0210744Y0121971D02*
X0210547Y0121971D01*
X0211630Y0120791D02*
X0207168Y0120791D01*
X0205989Y0119611D02*
X0211630Y0119611D01*
X0211630Y0118432D02*
X0204809Y0118432D01*
X0203629Y0117252D02*
X0211630Y0117252D01*
X0211630Y0116073D02*
X0202450Y0116073D01*
X0201270Y0114893D02*
X0211630Y0114893D01*
X0211630Y0113713D02*
X0200091Y0113713D01*
X0198911Y0112534D02*
X0211630Y0112534D01*
X0211630Y0111354D02*
X0197731Y0111354D01*
X0196552Y0110175D02*
X0211630Y0110175D01*
X0211630Y0108995D02*
X0195372Y0108995D01*
X0194192Y0107815D02*
X0211630Y0107815D01*
X0211630Y0106636D02*
X0159984Y0106636D01*
X0156889Y0105456D02*
X0211630Y0105456D01*
X0211630Y0104276D02*
X0157112Y0104276D01*
X0157112Y0103097D02*
X0160210Y0103097D01*
X0163838Y0103097D02*
X0211630Y0103097D01*
X0211630Y0101917D02*
X0183310Y0101917D01*
X0184490Y0100738D02*
X0211630Y0100738D01*
X0211630Y0099558D02*
X0185669Y0099558D01*
X0186849Y0098378D02*
X0211630Y0098378D01*
X0211630Y0097199D02*
X0188029Y0097199D01*
X0189208Y0096019D02*
X0211630Y0096019D01*
X0211630Y0094840D02*
X0190388Y0094840D01*
X0191568Y0093660D02*
X0211630Y0093660D01*
X0211630Y0092480D02*
X0192747Y0092480D01*
X0193927Y0091301D02*
X0211630Y0091301D01*
X0211630Y0090121D02*
X0195106Y0090121D01*
X0196286Y0088942D02*
X0211630Y0088942D01*
X0211630Y0087762D02*
X0197466Y0087762D01*
X0198645Y0086582D02*
X0211630Y0086582D01*
X0211630Y0085403D02*
X0199825Y0085403D01*
X0201004Y0084223D02*
X0211630Y0084223D01*
X0211630Y0083043D02*
X0202184Y0083043D01*
X0203364Y0081864D02*
X0211630Y0081864D01*
X0211630Y0080684D02*
X0204543Y0080684D01*
X0205723Y0079505D02*
X0211630Y0079505D01*
X0206315Y0076394D02*
X0206315Y0072457D01*
X0193323Y0072457D02*
X0193323Y0058441D01*
X0196866Y0054740D01*
X0186866Y0054740D02*
X0180331Y0061433D01*
X0180331Y0072457D01*
X0176000Y0072457D02*
X0176000Y0055764D01*
X0176866Y0054740D01*
X0171669Y0059386D02*
X0166866Y0054740D01*
X0171669Y0059386D02*
X0171669Y0072457D01*
X0167339Y0072457D02*
X0167339Y0065055D01*
X0156866Y0054740D01*
X0149452Y0059451D02*
X0148272Y0059451D01*
X0141595Y0060631D02*
X0139636Y0060631D01*
X0137673Y0060631D02*
X0137673Y0060631D01*
X0137673Y0061810D02*
X0137673Y0061810D01*
X0137673Y0062990D02*
X0137673Y0062990D01*
X0135711Y0060631D02*
X0135261Y0060631D01*
X0135261Y0059451D02*
X0135460Y0059451D01*
X0141668Y0053553D02*
X0142064Y0053553D01*
X0142553Y0052373D02*
X0141179Y0052373D01*
X0140236Y0051194D02*
X0143496Y0051194D01*
X0146866Y0054740D02*
X0147260Y0054740D01*
X0163008Y0070488D01*
X0163008Y0072457D01*
X0128622Y0094840D02*
X0125138Y0094840D01*
X0126790Y0093660D02*
X0127442Y0093660D01*
X0124425Y0092142D02*
X0115243Y0082959D01*
X0115243Y0062614D01*
X0107369Y0054740D01*
X0106866Y0054740D01*
X0101976Y0054733D02*
X0101757Y0054733D01*
X0101757Y0053767D02*
X0101757Y0055713D01*
X0101012Y0057510D01*
X0099636Y0058886D01*
X0097839Y0059631D01*
X0095893Y0059631D01*
X0094096Y0058886D01*
X0092720Y0057510D01*
X0092043Y0055875D01*
X0092026Y0055979D01*
X0091769Y0056771D01*
X0091391Y0057513D01*
X0090902Y0058187D01*
X0090313Y0058776D01*
X0089639Y0059265D01*
X0088897Y0059643D01*
X0088105Y0059900D01*
X0087283Y0060031D01*
X0087276Y0060031D01*
X0087276Y0055150D01*
X0086457Y0055150D01*
X0086457Y0060031D01*
X0086450Y0060031D01*
X0085627Y0059900D01*
X0084835Y0059643D01*
X0084093Y0059265D01*
X0083420Y0058776D01*
X0082831Y0058187D01*
X0082341Y0057513D01*
X0082102Y0057044D01*
X0082102Y0064229D01*
X0082929Y0063403D01*
X0084455Y0061876D01*
X0085498Y0060833D01*
X0107729Y0060833D01*
X0108292Y0060270D01*
X0109308Y0059849D01*
X0109958Y0059849D01*
X0109183Y0059074D01*
X0107839Y0059631D01*
X0105893Y0059631D01*
X0104096Y0058886D01*
X0102720Y0057510D01*
X0101976Y0055713D01*
X0101976Y0053767D01*
X0102720Y0051970D01*
X0104084Y0050606D01*
X0099649Y0050606D01*
X0101012Y0051970D01*
X0101757Y0053767D01*
X0101668Y0053553D02*
X0102064Y0053553D01*
X0102553Y0052373D02*
X0101179Y0052373D01*
X0100236Y0051194D02*
X0103496Y0051194D01*
X0102058Y0055912D02*
X0101674Y0055912D01*
X0101185Y0057092D02*
X0102547Y0057092D01*
X0103481Y0058272D02*
X0100251Y0058272D01*
X0098272Y0059451D02*
X0105460Y0059451D01*
X0107931Y0060631D02*
X0082102Y0060631D01*
X0082102Y0061810D02*
X0084521Y0061810D01*
X0084455Y0061876D02*
X0084455Y0061876D01*
X0083342Y0062990D02*
X0082102Y0062990D01*
X0082929Y0063403D02*
X0082929Y0063403D01*
X0082162Y0064170D02*
X0082102Y0064170D01*
X0083666Y0065184D02*
X0086236Y0062614D01*
X0109858Y0062614D01*
X0112624Y0062990D02*
X0113100Y0062990D01*
X0113461Y0064170D02*
X0112207Y0064170D01*
X0113461Y0065349D02*
X0110481Y0065349D01*
X0109235Y0065349D02*
X0086020Y0065349D01*
X0085447Y0066529D02*
X0113461Y0066529D01*
X0113461Y0067708D02*
X0092870Y0067708D01*
X0093731Y0068888D02*
X0095011Y0068888D01*
X0097260Y0070685D02*
X0090572Y0070685D01*
X0089194Y0069307D02*
X0089194Y0072063D01*
X0091950Y0072063D01*
X0091950Y0069307D01*
X0089194Y0069307D01*
X0089194Y0070429D02*
X0091950Y0070429D01*
X0091950Y0071551D02*
X0089194Y0071551D01*
X0087413Y0071247D02*
X0086825Y0071247D01*
X0086825Y0070068D02*
X0087413Y0070068D01*
X0087413Y0068888D02*
X0086825Y0068888D01*
X0085965Y0067708D02*
X0088274Y0067708D01*
X0083666Y0065184D02*
X0083666Y0070685D01*
X0082288Y0069307D02*
X0082288Y0072063D01*
X0085044Y0072063D01*
X0085044Y0069307D01*
X0082288Y0069307D01*
X0082288Y0070429D02*
X0085044Y0070429D01*
X0085044Y0071551D02*
X0082288Y0071551D01*
X0086020Y0073607D02*
X0088219Y0073607D01*
X0087760Y0074786D02*
X0086546Y0074786D01*
X0086859Y0075966D02*
X0087447Y0075966D01*
X0087447Y0077145D02*
X0086859Y0077145D01*
X0086859Y0078325D02*
X0087447Y0078325D01*
X0087621Y0079505D02*
X0086685Y0079505D01*
X0086246Y0080684D02*
X0095282Y0080684D01*
X0095282Y0081864D02*
X0086246Y0081864D01*
X0086754Y0083043D02*
X0095282Y0083043D01*
X0097654Y0081512D02*
X0104583Y0081512D01*
X0139426Y0116354D01*
X0152772Y0116354D01*
X0156109Y0123254D02*
X0149197Y0123254D01*
X0149244Y0123428D01*
X0149244Y0124819D01*
X0149244Y0126187D01*
X0156109Y0126187D01*
X0156109Y0123254D01*
X0156109Y0124330D02*
X0149244Y0124330D01*
X0149244Y0124819D02*
X0146473Y0124819D01*
X0149244Y0124819D01*
X0149244Y0125510D02*
X0156109Y0125510D01*
X0158677Y0125606D02*
X0158677Y0127969D01*
X0142363Y0127969D01*
X0139104Y0131227D01*
X0126901Y0143323D01*
X0126866Y0143323D01*
X0123370Y0146743D02*
X0120363Y0146743D01*
X0121012Y0146093D02*
X0119649Y0147457D01*
X0124084Y0147457D01*
X0122720Y0146093D01*
X0121976Y0144296D01*
X0121976Y0142350D01*
X0122720Y0140553D01*
X0124096Y0139177D01*
X0125893Y0138432D01*
X0127839Y0138432D01*
X0128873Y0138861D01*
X0137848Y0129965D01*
X0140582Y0127231D01*
X0141625Y0126187D01*
X0143701Y0126187D01*
X0143701Y0124819D01*
X0146472Y0124819D01*
X0146472Y0124819D01*
X0143701Y0124819D01*
X0143701Y0123428D01*
X0143809Y0123024D01*
X0144019Y0122661D01*
X0144214Y0122466D01*
X0136532Y0122466D01*
X0136336Y0122663D01*
X0134381Y0122663D01*
X0126113Y0130931D01*
X0124312Y0130931D01*
X0119907Y0130931D01*
X0119907Y0132093D01*
X0120292Y0132093D01*
X0120624Y0132424D01*
X0120692Y0132307D01*
X0120988Y0132011D01*
X0121351Y0131801D01*
X0121755Y0131693D01*
X0123736Y0131693D01*
X0123736Y0134760D01*
X0124327Y0134760D01*
X0124327Y0135350D01*
X0127689Y0135350D01*
X0127689Y0137036D01*
X0127581Y0137441D01*
X0127371Y0137803D01*
X0127075Y0138100D01*
X0126712Y0138309D01*
X0126308Y0138417D01*
X0124327Y0138417D01*
X0124327Y0135350D01*
X0123736Y0135350D01*
X0123736Y0138417D01*
X0121755Y0138417D01*
X0121351Y0138309D01*
X0120988Y0138100D01*
X0120692Y0137803D01*
X0120624Y0137686D01*
X0120292Y0138017D01*
X0119041Y0138017D01*
X0119041Y0138930D01*
X0119636Y0139177D01*
X0121012Y0140553D01*
X0121757Y0142350D01*
X0121757Y0144296D01*
X0121012Y0146093D01*
X0121232Y0145563D02*
X0122501Y0145563D01*
X0122012Y0144383D02*
X0121720Y0144383D01*
X0121757Y0143204D02*
X0121976Y0143204D01*
X0122111Y0142024D02*
X0121622Y0142024D01*
X0121133Y0140845D02*
X0122599Y0140845D01*
X0123608Y0139665D02*
X0120124Y0139665D01*
X0119041Y0138485D02*
X0125765Y0138485D01*
X0124327Y0137306D02*
X0123736Y0137306D01*
X0123736Y0136126D02*
X0124327Y0136126D01*
X0124327Y0134946D02*
X0132822Y0134946D01*
X0134012Y0133767D02*
X0127689Y0133767D01*
X0127689Y0133074D02*
X0127689Y0134760D01*
X0124327Y0134760D01*
X0124327Y0131693D01*
X0126308Y0131693D01*
X0126712Y0131801D01*
X0127075Y0132011D01*
X0127371Y0132307D01*
X0127581Y0132670D01*
X0127689Y0133074D01*
X0127533Y0132587D02*
X0135202Y0132587D01*
X0136392Y0131408D02*
X0119907Y0131408D01*
X0123736Y0132587D02*
X0124327Y0132587D01*
X0124327Y0133767D02*
X0123736Y0133767D01*
X0127689Y0136126D02*
X0131632Y0136126D01*
X0130442Y0137306D02*
X0127617Y0137306D01*
X0127967Y0138485D02*
X0129252Y0138485D01*
X0136866Y0143323D02*
X0148835Y0131512D01*
X0160252Y0131512D01*
X0163008Y0128756D01*
X0163008Y0125606D01*
X0167339Y0125606D02*
X0167339Y0129150D01*
X0161654Y0134834D01*
X0158130Y0134834D01*
X0155512Y0134834D01*
X0146866Y0143323D01*
X0156866Y0143323D02*
X0161906Y0138283D01*
X0161579Y0138283D01*
X0161193Y0137897D01*
X0161906Y0138283D02*
X0171669Y0128520D01*
X0171669Y0125606D01*
X0176000Y0125606D02*
X0176000Y0134346D01*
X0166866Y0143323D01*
X0176866Y0143323D02*
X0180331Y0140016D01*
X0180331Y0125606D01*
X0184661Y0125606D02*
X0184661Y0140961D01*
X0186866Y0143323D01*
X0200124Y0139665D02*
X0203042Y0139665D01*
X0202191Y0140845D02*
X0201133Y0140845D01*
X0201622Y0142024D02*
X0201725Y0142024D01*
X0208636Y0130228D02*
X0190773Y0130228D01*
X0206315Y0125606D02*
X0206315Y0122457D01*
X0192704Y0108846D01*
X0158283Y0108846D01*
X0143775Y0123150D02*
X0133894Y0123150D01*
X0132714Y0124330D02*
X0143701Y0124330D01*
X0143701Y0125510D02*
X0131535Y0125510D01*
X0130355Y0126689D02*
X0141123Y0126689D01*
X0139944Y0127869D02*
X0129175Y0127869D01*
X0127996Y0129048D02*
X0138764Y0129048D01*
X0137582Y0130228D02*
X0126816Y0130228D01*
X0124312Y0126581D02*
X0128033Y0122860D01*
X0127418Y0122860D01*
X0126402Y0122439D01*
X0125624Y0121661D01*
X0125203Y0120645D01*
X0125203Y0120498D01*
X0122785Y0120498D01*
X0121482Y0120498D01*
X0121482Y0120782D01*
X0121876Y0121176D01*
X0121876Y0124525D01*
X0121178Y0125222D01*
X0117830Y0125222D01*
X0117621Y0125014D01*
X0117331Y0125304D01*
X0116968Y0125514D01*
X0116564Y0125622D01*
X0115173Y0125622D01*
X0113783Y0125622D01*
X0113378Y0125514D01*
X0113016Y0125304D01*
X0112719Y0125008D01*
X0112510Y0124645D01*
X0112402Y0124241D01*
X0112402Y0122866D01*
X0111039Y0122866D01*
X0109649Y0122866D01*
X0109244Y0122758D01*
X0108882Y0122548D01*
X0108586Y0122252D01*
X0108376Y0121890D01*
X0108268Y0121485D01*
X0108268Y0120095D01*
X0111039Y0120095D01*
X0111039Y0122866D01*
X0111039Y0120095D01*
X0111039Y0120095D01*
X0111039Y0120094D01*
X0108268Y0120094D01*
X0108268Y0118704D01*
X0108367Y0118332D01*
X0108096Y0118332D01*
X0108096Y0122737D01*
X0111940Y0126581D01*
X0124312Y0126581D01*
X0125383Y0125510D02*
X0116975Y0125510D01*
X0115173Y0125510D02*
X0115173Y0125510D01*
X0115173Y0125622D02*
X0115173Y0122851D01*
X0115173Y0122851D01*
X0115173Y0125622D01*
X0115173Y0124330D02*
X0115173Y0124330D01*
X0115173Y0123150D02*
X0115173Y0123150D01*
X0112402Y0123150D02*
X0108509Y0123150D01*
X0108423Y0121971D02*
X0108096Y0121971D01*
X0108096Y0120791D02*
X0108268Y0120791D01*
X0108268Y0119611D02*
X0108096Y0119611D01*
X0108096Y0118432D02*
X0108341Y0118432D01*
X0110252Y0116551D02*
X0105921Y0116551D01*
X0103218Y0117252D02*
X0096869Y0117252D01*
X0094691Y0117252D02*
X0094592Y0117252D01*
X0094592Y0117553D02*
X0093153Y0117553D01*
X0092748Y0117445D01*
X0092386Y0117235D01*
X0092142Y0116991D01*
X0091898Y0117235D01*
X0091535Y0117445D01*
X0091131Y0117553D01*
X0089691Y0117553D01*
X0089691Y0113010D01*
X0094592Y0113010D01*
X0094592Y0117553D01*
X0094592Y0116073D02*
X0094691Y0116073D01*
X0094691Y0114893D02*
X0094592Y0114893D01*
X0094592Y0113713D02*
X0094691Y0113713D01*
X0094691Y0112534D02*
X0094592Y0112534D01*
X0094592Y0111354D02*
X0094691Y0111354D01*
X0094691Y0110175D02*
X0094592Y0110175D01*
X0094592Y0108995D02*
X0094691Y0108995D01*
X0093332Y0107815D02*
X0098699Y0107815D01*
X0098031Y0106636D02*
X0093332Y0106636D01*
X0093332Y0105456D02*
X0098031Y0105456D01*
X0100803Y0105456D02*
X0100803Y0105456D01*
X0100803Y0106636D02*
X0100803Y0106636D01*
X0100803Y0107815D02*
X0100803Y0107815D01*
X0101641Y0108995D02*
X0102247Y0108995D01*
X0104740Y0111236D02*
X0106709Y0111236D01*
X0111039Y0106906D01*
X0117535Y0106906D01*
X0119307Y0108677D01*
X0123244Y0108677D01*
X0123244Y0104347D02*
X0123244Y0104346D01*
X0119307Y0104346D01*
X0119307Y0104347D01*
X0122079Y0104347D01*
X0123244Y0104347D01*
X0119307Y0104276D02*
X0119307Y0104276D01*
X0119307Y0103097D02*
X0119307Y0103097D01*
X0119307Y0101917D02*
X0119307Y0101917D01*
X0117125Y0101917D02*
X0108338Y0101917D01*
X0108490Y0100738D02*
X0121290Y0100738D01*
X0120111Y0099558D02*
X0108120Y0099558D01*
X0108173Y0098378D02*
X0118931Y0098378D01*
X0117752Y0097199D02*
X0108490Y0097199D01*
X0108285Y0096019D02*
X0116572Y0096019D01*
X0115392Y0094840D02*
X0107412Y0094840D01*
X0105724Y0097063D02*
X0100803Y0097063D01*
X0096079Y0097063D01*
X0093313Y0097199D02*
X0082102Y0097199D01*
X0082102Y0098378D02*
X0093313Y0098378D01*
X0093313Y0099558D02*
X0082102Y0099558D01*
X0082102Y0100738D02*
X0093313Y0100738D01*
X0093313Y0101917D02*
X0082102Y0101917D01*
X0082102Y0103097D02*
X0093313Y0103097D01*
X0093538Y0104276D02*
X0092771Y0104276D01*
X0096079Y0101000D02*
X0100803Y0101000D01*
X0105724Y0101000D01*
X0103911Y0103097D02*
X0103181Y0103097D01*
X0104740Y0104276D02*
X0104740Y0104276D01*
X0104740Y0105456D02*
X0104740Y0105456D01*
X0104740Y0106636D02*
X0104740Y0106636D01*
X0107512Y0106636D02*
X0108668Y0106636D01*
X0108668Y0105456D02*
X0107496Y0105456D01*
X0106594Y0104276D02*
X0116535Y0104276D01*
X0116535Y0103097D02*
X0107538Y0103097D01*
X0107512Y0107815D02*
X0107611Y0107815D01*
X0111039Y0111236D02*
X0112417Y0109858D01*
X0115764Y0109858D01*
X0111039Y0115764D02*
X0110252Y0116551D01*
X0111039Y0120791D02*
X0111039Y0120791D01*
X0111039Y0121971D02*
X0111039Y0121971D01*
X0109689Y0124330D02*
X0112425Y0124330D01*
X0113371Y0125510D02*
X0110869Y0125510D01*
X0105052Y0127236D02*
X0103422Y0125606D01*
X0098861Y0125606D01*
X0094642Y0129825D01*
X0094642Y0134315D01*
X0097112Y0133767D02*
X0097172Y0133767D01*
X0097172Y0134946D02*
X0097112Y0134946D01*
X0097112Y0136126D02*
X0097172Y0136126D01*
X0097172Y0137306D02*
X0097112Y0137306D01*
X0097112Y0137810D02*
X0096457Y0138465D01*
X0096457Y0142913D01*
X0097276Y0142913D01*
X0097276Y0138032D01*
X0097283Y0138032D01*
X0097415Y0138053D01*
X0097172Y0137810D01*
X0097172Y0130820D01*
X0097473Y0130518D01*
X0097278Y0130322D01*
X0097098Y0129888D01*
X0096639Y0130347D01*
X0097112Y0130820D01*
X0097112Y0137810D01*
X0097276Y0138485D02*
X0096457Y0138485D01*
X0096457Y0139665D02*
X0097276Y0139665D01*
X0097276Y0140845D02*
X0096457Y0140845D01*
X0096457Y0142024D02*
X0097276Y0142024D01*
X0096457Y0142913D02*
X0092157Y0142913D01*
X0087276Y0142913D01*
X0087276Y0143732D01*
X0096457Y0143732D01*
X0096457Y0142913D01*
X0096457Y0143204D02*
X0087276Y0143204D01*
X0091541Y0140845D02*
X0092191Y0140845D01*
X0093042Y0139665D02*
X0090690Y0139665D01*
X0091437Y0138485D02*
X0092847Y0138485D01*
X0092172Y0137306D02*
X0092112Y0137306D01*
X0092112Y0136126D02*
X0092172Y0136126D01*
X0092172Y0134946D02*
X0092112Y0134946D01*
X0092112Y0133767D02*
X0092172Y0133767D01*
X0092172Y0132587D02*
X0092112Y0132587D01*
X0092112Y0131408D02*
X0092172Y0131408D01*
X0092764Y0130228D02*
X0091520Y0130228D01*
X0092900Y0129048D02*
X0082102Y0129048D01*
X0082102Y0127869D02*
X0094080Y0127869D01*
X0095259Y0126689D02*
X0082102Y0126689D01*
X0082102Y0125510D02*
X0096439Y0125510D01*
X0097618Y0124330D02*
X0082102Y0124330D01*
X0082102Y0123150D02*
X0103746Y0123150D01*
X0103746Y0121971D02*
X0082102Y0121971D01*
X0082102Y0120791D02*
X0103746Y0120791D01*
X0103746Y0119611D02*
X0082102Y0119611D01*
X0082102Y0118432D02*
X0103746Y0118432D01*
X0102762Y0116073D02*
X0102112Y0116073D01*
X0102112Y0114893D02*
X0102762Y0114893D01*
X0097642Y0108995D02*
X0097201Y0108995D01*
X0089592Y0113010D02*
X0089592Y0117553D01*
X0088153Y0117553D01*
X0087748Y0117445D01*
X0087386Y0117235D01*
X0087142Y0116991D01*
X0086898Y0117235D01*
X0086535Y0117445D01*
X0086131Y0117553D01*
X0084691Y0117553D01*
X0084691Y0113010D01*
X0089592Y0113010D01*
X0089592Y0113713D02*
X0089691Y0113713D01*
X0089691Y0114893D02*
X0089592Y0114893D01*
X0089592Y0116073D02*
X0089691Y0116073D01*
X0089691Y0117252D02*
X0089592Y0117252D01*
X0087415Y0117252D02*
X0086869Y0117252D01*
X0084691Y0117252D02*
X0084592Y0117252D01*
X0084592Y0116073D02*
X0084691Y0116073D01*
X0084691Y0114893D02*
X0084592Y0114893D01*
X0084592Y0113713D02*
X0084691Y0113713D01*
X0082415Y0117252D02*
X0082102Y0117252D01*
X0091869Y0117252D02*
X0092415Y0117252D01*
X0099622Y0128756D02*
X0099642Y0128776D01*
X0099642Y0134315D01*
X0097172Y0132587D02*
X0097112Y0132587D01*
X0097112Y0131408D02*
X0097172Y0131408D01*
X0097239Y0130228D02*
X0096758Y0130228D01*
X0087764Y0130228D02*
X0087086Y0130228D01*
X0084691Y0130228D02*
X0084592Y0130228D01*
X0084592Y0131408D02*
X0084691Y0131408D01*
X0084691Y0132587D02*
X0084592Y0132587D01*
X0084592Y0133767D02*
X0084691Y0133767D01*
X0082198Y0130228D02*
X0082102Y0130228D01*
X0115961Y0118913D02*
X0115961Y0117348D01*
X0115961Y0117348D01*
X0115961Y0118913D01*
X0115961Y0118913D01*
X0115961Y0118432D02*
X0115961Y0118432D01*
X0119701Y0118126D02*
X0119701Y0122654D01*
X0119504Y0122850D01*
X0121876Y0123150D02*
X0127743Y0123150D01*
X0126563Y0124330D02*
X0121876Y0124330D01*
X0121876Y0121971D02*
X0125934Y0121971D01*
X0125264Y0120791D02*
X0121491Y0120791D01*
X0131840Y0112679D02*
X0134661Y0115501D01*
X0134661Y0115961D01*
X0146473Y0124819D02*
X0146473Y0124819D01*
X0104037Y0094840D02*
X0103286Y0094840D01*
X0103575Y0093660D02*
X0114213Y0093660D01*
X0113033Y0092480D02*
X0103575Y0092480D01*
X0103564Y0091301D02*
X0111854Y0091301D01*
X0110674Y0090121D02*
X0102688Y0090121D01*
X0100803Y0090121D02*
X0100803Y0090121D01*
X0100803Y0091301D02*
X0100803Y0091301D01*
X0100803Y0092480D02*
X0100803Y0092480D01*
X0098031Y0092480D02*
X0093332Y0092480D01*
X0093332Y0091301D02*
X0098042Y0091301D01*
X0098918Y0090121D02*
X0093332Y0090121D01*
X0093664Y0093660D02*
X0092898Y0093660D01*
X0093313Y0094840D02*
X0082102Y0094840D01*
X0082102Y0096019D02*
X0093313Y0096019D01*
X0082102Y0088942D02*
X0109494Y0088942D01*
X0108315Y0087762D02*
X0082102Y0087762D01*
X0082102Y0086582D02*
X0082672Y0086582D01*
X0085864Y0086582D02*
X0107135Y0086582D01*
X0105956Y0085403D02*
X0086791Y0085403D01*
X0087033Y0084223D02*
X0104776Y0084223D01*
X0097654Y0077181D02*
X0090639Y0077181D01*
X0090606Y0077215D01*
X0089228Y0075837D02*
X0089228Y0078593D01*
X0091984Y0078593D01*
X0091984Y0075837D01*
X0089228Y0075837D01*
X0089228Y0076959D02*
X0091984Y0076959D01*
X0091984Y0078081D02*
X0089228Y0078081D01*
X0093591Y0079505D02*
X0095615Y0079505D01*
X0093452Y0074786D02*
X0099809Y0074786D01*
X0099809Y0073607D02*
X0092925Y0073607D01*
X0097260Y0070685D02*
X0097260Y0070685D01*
X0087413Y0072427D02*
X0086825Y0072427D01*
X0082322Y0075837D02*
X0082322Y0078593D01*
X0085078Y0078593D01*
X0085078Y0075837D01*
X0082322Y0075837D01*
X0082322Y0076959D02*
X0085078Y0076959D01*
X0085078Y0078081D02*
X0082322Y0078081D01*
X0082102Y0059451D02*
X0084459Y0059451D01*
X0082916Y0058272D02*
X0082102Y0058272D01*
X0082102Y0057092D02*
X0082127Y0057092D01*
X0086457Y0057092D02*
X0087276Y0057092D01*
X0087276Y0058272D02*
X0086457Y0058272D01*
X0086457Y0059451D02*
X0087276Y0059451D01*
X0089274Y0059451D02*
X0095460Y0059451D01*
X0093481Y0058272D02*
X0090817Y0058272D01*
X0091606Y0057092D02*
X0092547Y0057092D01*
X0092058Y0055912D02*
X0092037Y0055912D01*
X0087276Y0055912D02*
X0086457Y0055912D01*
X0108272Y0059451D02*
X0109561Y0059451D01*
X0116866Y0054740D02*
X0121669Y0059386D01*
D13*
X0101591Y0070685D03*
X0097260Y0070685D03*
X0097654Y0077181D03*
X0097654Y0081512D03*
X0100803Y0092732D03*
X0100803Y0097063D03*
X0100803Y0101000D03*
X0100803Y0105331D03*
X0104740Y0106906D03*
X0104740Y0111236D03*
X0111039Y0111236D03*
X0111039Y0106906D03*
X0119307Y0108677D03*
X0123244Y0108677D03*
X0123244Y0104346D03*
X0119307Y0104346D03*
X0111039Y0115764D03*
X0111039Y0120094D03*
X0115173Y0122850D03*
X0119504Y0122850D03*
X0134661Y0120291D03*
X0134661Y0115961D03*
X0146472Y0120488D03*
X0146472Y0124819D03*
D14*
X0146866Y0143323D03*
X0136866Y0143323D03*
X0126866Y0143323D03*
X0116866Y0143323D03*
X0106866Y0143323D03*
X0096866Y0143323D03*
X0086866Y0143323D03*
X0156866Y0143323D03*
X0166866Y0143323D03*
X0176866Y0143323D03*
X0186866Y0143323D03*
X0196866Y0143323D03*
X0206866Y0143323D03*
X0206866Y0054740D03*
X0196866Y0054740D03*
X0186866Y0054740D03*
X0176866Y0054740D03*
X0166866Y0054740D03*
X0156866Y0054740D03*
X0146866Y0054740D03*
X0136866Y0054740D03*
X0126866Y0054740D03*
X0116866Y0054740D03*
X0106866Y0054740D03*
X0096866Y0054740D03*
X0086866Y0054740D03*
D15*
X0138598Y0090961D03*
X0144898Y0090961D03*
X0144898Y0107102D03*
X0138598Y0107102D03*
D16*
X0124031Y0135055D03*
X0117732Y0135055D03*
D17*
X0096079Y0102969D03*
X0096079Y0101000D03*
X0096079Y0099031D03*
X0096079Y0097063D03*
X0096079Y0095094D03*
D18*
X0087024Y0091551D03*
X0087024Y0106512D03*
D19*
X0158677Y0125606D03*
X0163008Y0125606D03*
X0167339Y0125606D03*
X0171669Y0125606D03*
X0176000Y0125606D03*
X0180331Y0125606D03*
X0184661Y0125606D03*
X0188992Y0125606D03*
X0193323Y0125606D03*
X0197654Y0125606D03*
X0201984Y0125606D03*
X0206315Y0125606D03*
X0210646Y0125606D03*
X0210646Y0072457D03*
X0206315Y0072457D03*
X0201984Y0072457D03*
X0197654Y0072457D03*
X0193323Y0072457D03*
X0188992Y0072457D03*
X0184661Y0072457D03*
X0180331Y0072457D03*
X0176000Y0072457D03*
X0171669Y0072457D03*
X0167339Y0072457D03*
X0163008Y0072457D03*
X0158677Y0072457D03*
D20*
X0152772Y0077378D03*
X0152772Y0081709D03*
X0152772Y0086039D03*
X0152772Y0090370D03*
X0152772Y0094701D03*
X0152772Y0099031D03*
X0152772Y0103362D03*
X0152772Y0107693D03*
X0152772Y0112024D03*
X0152772Y0116354D03*
X0152772Y0120685D03*
D21*
G36*
X0156460Y0134834D02*
X0158130Y0136504D01*
X0159800Y0134834D01*
X0158130Y0133164D01*
X0156460Y0134834D01*
G37*
G36*
X0159523Y0137897D02*
X0161193Y0139567D01*
X0162863Y0137897D01*
X0161193Y0136227D01*
X0159523Y0137897D01*
G37*
D22*
X0123441Y0118913D03*
X0123441Y0117339D03*
X0123441Y0115764D03*
X0123441Y0114189D03*
X0123441Y0112614D03*
X0115961Y0112614D03*
X0115961Y0114189D03*
X0115961Y0115764D03*
X0115961Y0117339D03*
X0115961Y0118913D03*
D23*
X0099642Y0112961D03*
X0094642Y0112961D03*
X0089642Y0112961D03*
X0084642Y0112961D03*
X0084642Y0134315D03*
X0089642Y0134315D03*
X0094642Y0134315D03*
X0099642Y0134315D03*
D24*
X0099622Y0128756D03*
X0105052Y0127236D03*
X0111827Y0124819D03*
X0102378Y0120882D03*
X0105921Y0116551D03*
X0115764Y0109858D03*
X0114976Y0103953D03*
X0108283Y0103953D03*
X0105724Y0101000D03*
X0105724Y0097063D03*
X0113008Y0094110D03*
X0124425Y0092142D03*
X0133874Y0103953D03*
X0131840Y0112679D03*
X0128362Y0116345D03*
X0127969Y0120094D03*
X0123638Y0124031D03*
X0133087Y0129937D03*
X0129543Y0135449D03*
X0121669Y0139780D03*
X0141748Y0124425D03*
X0152772Y0124819D03*
X0158283Y0120094D03*
X0158283Y0116345D03*
X0158283Y0112595D03*
X0158283Y0108846D03*
X0158677Y0104346D03*
X0162024Y0101000D03*
X0162024Y0097063D03*
X0164976Y0093717D03*
X0158677Y0092142D03*
X0158283Y0086630D03*
X0162614Y0087024D03*
X0174425Y0087024D03*
X0177181Y0094110D03*
X0184661Y0087024D03*
X0194898Y0092929D03*
X0200803Y0087417D03*
X0210252Y0087811D03*
X0210252Y0078756D03*
X0200803Y0066551D03*
X0210252Y0066157D03*
X0210646Y0060252D03*
X0194110Y0078362D03*
X0188598Y0080331D03*
X0184661Y0078362D03*
X0154346Y0073638D03*
X0146866Y0075606D03*
X0152772Y0064976D03*
X0142142Y0059071D03*
X0111827Y0074819D03*
X0104740Y0074425D03*
X0111827Y0081512D03*
X0102772Y0084661D03*
X0097654Y0088992D03*
X0094110Y0081118D03*
X0087811Y0081512D03*
X0084268Y0084268D03*
X0087811Y0087811D03*
X0094504Y0074031D03*
X0091354Y0066157D03*
X0083087Y0060646D03*
X0102772Y0066157D03*
X0109858Y0062614D03*
X0172457Y0105134D03*
X0185055Y0104346D03*
X0194504Y0105528D03*
X0199622Y0110646D03*
X0210252Y0110252D03*
X0210252Y0119307D03*
X0210252Y0131906D03*
X0210252Y0137811D03*
X0201591Y0138992D03*
X0201591Y0131118D03*
X0192535Y0132299D03*
X0091748Y0139386D03*
X0091354Y0128756D03*
X0083480Y0127575D03*
X0083480Y0119307D03*
X0092142Y0118913D03*
D25*
X0111039Y0115764D02*
X0115961Y0115764D01*
X0115961Y0117339D02*
X0117858Y0117339D01*
X0118628Y0116569D01*
X0118628Y0114958D01*
X0117858Y0114189D01*
X0115961Y0114189D01*
X0115961Y0112614D02*
X0115961Y0110055D01*
X0115764Y0109858D01*
X0123244Y0108677D02*
X0123244Y0112417D01*
X0123441Y0112614D01*
X0123441Y0114189D02*
X0126394Y0114189D01*
X0127903Y0112679D01*
X0131840Y0112679D01*
X0128362Y0116345D02*
X0127781Y0115764D01*
X0123441Y0115764D01*
X0123441Y0117339D02*
X0120488Y0117339D01*
X0119701Y0118126D01*
X0123441Y0118913D02*
X0126787Y0118913D01*
X0127969Y0120094D01*
X0115961Y0118913D02*
X0115173Y0119701D01*
X0115173Y0122850D01*
D26*
X0105921Y0116551D02*
X0104740Y0115370D01*
X0104740Y0111827D01*
X0100776Y0111827D01*
X0099642Y0112961D01*
X0104740Y0111827D02*
X0104740Y0111236D01*
X0084268Y0084268D02*
X0084268Y0077782D01*
X0083700Y0077215D01*
X0083700Y0070719D01*
X0083666Y0070685D01*
X0152772Y0086039D02*
X0157693Y0086039D01*
X0158283Y0086630D01*
X0146472Y0120488D02*
X0146669Y0120685D01*
D27*
X0146276Y0120291D01*
X0146472Y0120488D01*
X0146276Y0120291D02*
X0134661Y0120291D01*
X0133677Y0120291D01*
X0125213Y0128756D01*
X0117732Y0128756D01*
X0117732Y0135055D01*
X0116866Y0135921D01*
X0116866Y0143323D01*
X0106866Y0143323D01*
X0111039Y0128756D02*
X0117732Y0128756D01*
X0111039Y0128756D02*
X0106906Y0124622D01*
X0105921Y0123638D01*
X0105921Y0116551D01*
X0146669Y0120685D02*
X0152772Y0120685D01*
M02*
