%
M48
M72
T01C0.0157
T02C0.0200
T03C0.0400
%
T01
X6340Y6025
X7639Y6931
X7403Y7757
X6340Y7915
X6340Y7246
X6340Y8820
X7206Y9214
X6340Y9608
X6340Y10317
X7206Y11143
X7561Y10277
X8426Y11143
X8702Y10828
X8387Y11773
X9057Y12088
X9569Y12639
X8230Y13781
X7718Y13033
X7167Y13820
X6340Y13702
X6340Y12915
X6340Y12128
X8624Y9608
X10002Y9529
X10868Y10002
X11498Y9214
X12797Y9647
X12797Y10198
X13230Y10474
X12797Y10671
X12797Y11143
X13191Y12206
X13269Y12679
X13781Y12737
X15080Y11891
X16419Y12443
X18230Y12561
X19805Y12561
X20986Y12561
X20986Y11773
X20986Y10986
X20986Y10198
X20986Y9569
X20986Y8781
X20986Y7994
X20986Y7206
X19805Y7206
X18230Y7206
X18230Y8781
X16655Y8781
X14844Y9057
X14805Y10513
X16655Y10986
X18230Y10868
X19805Y10789
X19805Y9411
X13742Y7364
X12876Y7128
X12836Y7876
X12836Y8348
X12876Y9057
X11104Y10749
X9765Y11498
X9923Y8734
X8939Y8466
X8624Y7757
T02
X9633Y7864
X10133Y7864
X10133Y8364
X9633Y8364
X9633Y7364
X10133Y7364
X10133Y6864
X9633Y6864
X9633Y6364
X10133Y6364
T03
X6694Y5474
X7694Y5474
X8694Y5474
X9694Y5474
X10694Y5474
X11694Y5474
X12694Y5474
X13694Y5474
X14694Y5474
X15694Y5474
X16694Y5474
X17694Y5474
X18694Y5474
X19694Y5474
X20694Y5474
X20694Y14332
X19694Y14332
X18694Y14332
X17694Y14332
X16694Y14332
X15694Y14332
X14694Y14332
X13694Y14332
X12694Y14332
X11694Y14332
X10694Y14332
X9694Y14332
X8694Y14332
X7694Y14332
X6694Y14332
M30
