G75*
%MOIN*%
%OFA0B0*%
%FSLAX25Y25*%
%IPPOS*%
%LPD*%
%AMOC8*
5,1,8,0,0,1.08239X$1,22.5*
%
%ADD10C,0.00000*%
%ADD11C,0.04000*%
%ADD12C,0.07400*%
%ADD13R,0.12598X0.16535*%
%ADD14C,0.01181*%
%ADD15C,0.03150*%
%ADD16C,0.01575*%
%ADD17C,0.01969*%
D10*
X0080331Y0048835D02*
X0080331Y0149228D01*
X0213402Y0149228D01*
X0213402Y0048835D01*
X0080331Y0048835D01*
D11*
X0137673Y0063638D03*
X0142673Y0063638D03*
X0142673Y0068638D03*
X0137673Y0068638D03*
X0137673Y0073638D03*
X0142673Y0073638D03*
X0142673Y0078638D03*
X0137673Y0078638D03*
X0137673Y0083638D03*
X0142673Y0083638D03*
D12*
X0146866Y0054740D03*
X0136866Y0054740D03*
X0126866Y0054740D03*
X0116866Y0054740D03*
X0106866Y0054740D03*
X0096866Y0054740D03*
X0086866Y0054740D03*
X0156866Y0054740D03*
X0166866Y0054740D03*
X0176866Y0054740D03*
X0186866Y0054740D03*
X0196866Y0054740D03*
X0206866Y0054740D03*
X0206866Y0143323D03*
X0196866Y0143323D03*
X0186866Y0143323D03*
X0176866Y0143323D03*
X0166866Y0143323D03*
X0156866Y0143323D03*
X0146866Y0143323D03*
X0136866Y0143323D03*
X0126866Y0143323D03*
X0116866Y0143323D03*
X0106866Y0143323D03*
X0096866Y0143323D03*
X0086866Y0143323D03*
D13*
X0089583Y0099031D03*
X0204937Y0099031D03*
D14*
X0204346Y0099558D02*
X0164420Y0099558D01*
X0164368Y0099434D02*
X0164789Y0100450D01*
X0164789Y0101550D01*
X0164368Y0102566D01*
X0163590Y0103344D01*
X0162574Y0103765D01*
X0161474Y0103765D01*
X0160457Y0103344D01*
X0159894Y0102781D01*
X0107854Y0102781D01*
X0107291Y0103344D01*
X0106274Y0103765D01*
X0105174Y0103765D01*
X0104158Y0103344D01*
X0103380Y0102566D01*
X0102959Y0101550D01*
X0102959Y0100450D01*
X0103380Y0099434D01*
X0103782Y0099031D01*
X0103380Y0098629D01*
X0102959Y0097613D01*
X0102959Y0096513D01*
X0103380Y0095497D01*
X0104158Y0094719D01*
X0105174Y0094298D01*
X0106274Y0094298D01*
X0107291Y0094719D01*
X0107854Y0095282D01*
X0159894Y0095282D01*
X0160457Y0094719D01*
X0161474Y0094298D01*
X0162574Y0094298D01*
X0163590Y0094719D01*
X0164368Y0095497D01*
X0164789Y0096513D01*
X0164789Y0097613D01*
X0164368Y0098629D01*
X0163966Y0099031D01*
X0164368Y0099434D01*
X0164472Y0098378D02*
X0197047Y0098378D01*
X0197047Y0098441D02*
X0197047Y0090554D01*
X0197156Y0090150D01*
X0197365Y0089787D01*
X0197661Y0089491D01*
X0198024Y0089282D01*
X0198428Y0089173D01*
X0204346Y0089173D01*
X0204346Y0098441D01*
X0197047Y0098441D01*
X0197047Y0099622D02*
X0204346Y0099622D01*
X0204346Y0098441D01*
X0205528Y0098441D01*
X0205528Y0089173D01*
X0211446Y0089173D01*
X0211630Y0089223D01*
X0211630Y0056019D01*
X0211012Y0057510D01*
X0209636Y0058886D01*
X0207839Y0059631D01*
X0205893Y0059631D01*
X0204096Y0058886D01*
X0202720Y0057510D01*
X0201976Y0055713D01*
X0201976Y0053767D01*
X0202720Y0051970D01*
X0204084Y0050606D01*
X0199649Y0050606D01*
X0201012Y0051970D01*
X0201757Y0053767D01*
X0201757Y0055713D01*
X0201012Y0057510D01*
X0199636Y0058886D01*
X0197839Y0059631D01*
X0195893Y0059631D01*
X0194096Y0058886D01*
X0192720Y0057510D01*
X0191976Y0055713D01*
X0191976Y0053767D01*
X0192720Y0051970D01*
X0194084Y0050606D01*
X0189649Y0050606D01*
X0191012Y0051970D01*
X0191757Y0053767D01*
X0191757Y0055713D01*
X0191012Y0057510D01*
X0189636Y0058886D01*
X0187839Y0059631D01*
X0185893Y0059631D01*
X0184096Y0058886D01*
X0182720Y0057510D01*
X0181976Y0055713D01*
X0181976Y0053767D01*
X0182720Y0051970D01*
X0184084Y0050606D01*
X0179649Y0050606D01*
X0181012Y0051970D01*
X0181757Y0053767D01*
X0181757Y0055713D01*
X0181012Y0057510D01*
X0179636Y0058886D01*
X0177839Y0059631D01*
X0175893Y0059631D01*
X0174096Y0058886D01*
X0172720Y0057510D01*
X0171976Y0055713D01*
X0171976Y0053767D01*
X0172720Y0051970D01*
X0174084Y0050606D01*
X0169649Y0050606D01*
X0171012Y0051970D01*
X0171757Y0053767D01*
X0171757Y0055713D01*
X0171012Y0057510D01*
X0169636Y0058886D01*
X0167839Y0059631D01*
X0165893Y0059631D01*
X0164096Y0058886D01*
X0162720Y0057510D01*
X0161976Y0055713D01*
X0161976Y0053767D01*
X0162720Y0051970D01*
X0164084Y0050606D01*
X0159649Y0050606D01*
X0161012Y0051970D01*
X0161757Y0053767D01*
X0161757Y0055713D01*
X0161012Y0057510D01*
X0159636Y0058886D01*
X0157839Y0059631D01*
X0155893Y0059631D01*
X0154096Y0058886D01*
X0152720Y0057510D01*
X0151976Y0055713D01*
X0151976Y0053767D01*
X0152720Y0051970D01*
X0154084Y0050606D01*
X0149649Y0050606D01*
X0151012Y0051970D01*
X0151757Y0053767D01*
X0151757Y0055713D01*
X0151012Y0057510D01*
X0149636Y0058886D01*
X0147839Y0059631D01*
X0145893Y0059631D01*
X0144096Y0058886D01*
X0142720Y0057510D01*
X0141976Y0055713D01*
X0141976Y0053767D01*
X0142720Y0051970D01*
X0144084Y0050606D01*
X0139649Y0050606D01*
X0141012Y0051970D01*
X0141757Y0053767D01*
X0141757Y0055713D01*
X0141012Y0057510D01*
X0139636Y0058886D01*
X0137839Y0059631D01*
X0135893Y0059631D01*
X0134096Y0058886D01*
X0132720Y0057510D01*
X0131976Y0055713D01*
X0131976Y0053767D01*
X0132720Y0051970D01*
X0134084Y0050606D01*
X0129649Y0050606D01*
X0131012Y0051970D01*
X0131757Y0053767D01*
X0131757Y0055713D01*
X0131012Y0057510D01*
X0129636Y0058886D01*
X0127839Y0059631D01*
X0125893Y0059631D01*
X0124096Y0058886D01*
X0122720Y0057510D01*
X0121976Y0055713D01*
X0121976Y0053767D01*
X0122720Y0051970D01*
X0124084Y0050606D01*
X0119649Y0050606D01*
X0121012Y0051970D01*
X0121757Y0053767D01*
X0121757Y0055713D01*
X0121012Y0057510D01*
X0119636Y0058886D01*
X0117839Y0059631D01*
X0115893Y0059631D01*
X0114096Y0058886D01*
X0112720Y0057510D01*
X0111976Y0055713D01*
X0111976Y0053767D01*
X0112720Y0051970D01*
X0114084Y0050606D01*
X0109649Y0050606D01*
X0111012Y0051970D01*
X0111757Y0053767D01*
X0111757Y0055713D01*
X0111012Y0057510D01*
X0109636Y0058886D01*
X0107839Y0059631D01*
X0105893Y0059631D01*
X0104096Y0058886D01*
X0102720Y0057510D01*
X0101976Y0055713D01*
X0101976Y0053767D01*
X0102720Y0051970D01*
X0104084Y0050606D01*
X0099649Y0050606D01*
X0101012Y0051970D01*
X0101757Y0053767D01*
X0101757Y0055713D01*
X0101433Y0056495D01*
X0107093Y0062127D01*
X0107093Y0062064D01*
X0107514Y0061048D01*
X0108292Y0060270D01*
X0109308Y0059849D01*
X0110408Y0059849D01*
X0111425Y0060270D01*
X0111988Y0060833D01*
X0117387Y0060833D01*
X0118431Y0061876D01*
X0118431Y0061876D01*
X0134208Y0077654D01*
X0134221Y0077590D01*
X0134491Y0076937D01*
X0134884Y0076349D01*
X0135095Y0076138D01*
X0134884Y0075927D01*
X0134491Y0075339D01*
X0134221Y0074685D01*
X0134083Y0073991D01*
X0134083Y0073638D01*
X0137673Y0073638D01*
X0137673Y0078638D01*
X0137673Y0078638D01*
X0137673Y0075047D01*
X0137673Y0073638D01*
X0137673Y0073638D01*
X0137673Y0073638D01*
X0134083Y0073638D01*
X0134083Y0073284D01*
X0134221Y0072590D01*
X0134491Y0071937D01*
X0134884Y0071349D01*
X0135378Y0070855D01*
X0134968Y0070445D01*
X0134483Y0069272D01*
X0134483Y0068003D01*
X0134968Y0066830D01*
X0135378Y0066421D01*
X0134884Y0065927D01*
X0134491Y0065339D01*
X0134221Y0064685D01*
X0134083Y0063991D01*
X0134083Y0063638D01*
X0137673Y0063638D01*
X0137673Y0063638D01*
X0134083Y0063638D01*
X0134083Y0063284D01*
X0134221Y0062590D01*
X0134491Y0061937D01*
X0134884Y0061349D01*
X0135384Y0060849D01*
X0135972Y0060456D01*
X0136626Y0060185D01*
X0137320Y0060047D01*
X0137673Y0060047D01*
X0137673Y0063638D01*
X0137673Y0063638D01*
X0137673Y0060047D01*
X0138027Y0060047D01*
X0138721Y0060185D01*
X0139374Y0060456D01*
X0139962Y0060849D01*
X0140456Y0061343D01*
X0140866Y0060933D01*
X0142039Y0060447D01*
X0143308Y0060447D01*
X0144481Y0060933D01*
X0145378Y0061830D01*
X0145864Y0063003D01*
X0145864Y0064272D01*
X0145378Y0065445D01*
X0144685Y0066138D01*
X0145378Y0066830D01*
X0145864Y0068003D01*
X0145864Y0069272D01*
X0145378Y0070445D01*
X0144685Y0071138D01*
X0145378Y0071830D01*
X0145864Y0073003D01*
X0145864Y0074272D01*
X0145378Y0075445D01*
X0144685Y0076138D01*
X0145378Y0076830D01*
X0145389Y0076857D01*
X0182292Y0076857D01*
X0182317Y0076796D01*
X0183095Y0076018D01*
X0184111Y0075597D01*
X0185211Y0075597D01*
X0186228Y0076018D01*
X0187006Y0076796D01*
X0187427Y0077812D01*
X0187427Y0077823D01*
X0188048Y0077565D01*
X0189148Y0077565D01*
X0190165Y0077986D01*
X0190943Y0078764D01*
X0191364Y0079781D01*
X0191364Y0080881D01*
X0190943Y0081897D01*
X0190165Y0082675D01*
X0189148Y0083096D01*
X0188352Y0083096D01*
X0186029Y0085419D01*
X0160775Y0085419D01*
X0161049Y0086080D01*
X0161049Y0087180D01*
X0160628Y0088196D01*
X0159850Y0088974D01*
X0158879Y0089376D01*
X0159227Y0089376D01*
X0160244Y0089797D01*
X0161022Y0090575D01*
X0161443Y0091592D01*
X0161443Y0092692D01*
X0161022Y0093708D01*
X0160244Y0094486D01*
X0159227Y0094907D01*
X0158127Y0094907D01*
X0157111Y0094486D01*
X0156547Y0093923D01*
X0126555Y0093923D01*
X0125992Y0094486D01*
X0124975Y0094907D01*
X0123875Y0094907D01*
X0122859Y0094486D01*
X0122081Y0093708D01*
X0121660Y0092692D01*
X0121660Y0091592D01*
X0122081Y0090575D01*
X0122859Y0089797D01*
X0123875Y0089376D01*
X0124975Y0089376D01*
X0125992Y0089797D01*
X0126555Y0090361D01*
X0156547Y0090361D01*
X0157111Y0089797D01*
X0158082Y0089395D01*
X0157733Y0089395D01*
X0156787Y0089003D01*
X0128486Y0089003D01*
X0127513Y0088030D01*
X0098642Y0059298D01*
X0097839Y0059631D01*
X0095893Y0059631D01*
X0094096Y0058886D01*
X0092720Y0057510D01*
X0092043Y0055875D01*
X0092026Y0055979D01*
X0091769Y0056771D01*
X0091391Y0057513D01*
X0090902Y0058187D01*
X0090313Y0058776D01*
X0089639Y0059265D01*
X0088897Y0059643D01*
X0088105Y0059900D01*
X0087283Y0060031D01*
X0087276Y0060031D01*
X0087276Y0055150D01*
X0086457Y0055150D01*
X0086457Y0060031D01*
X0086450Y0060031D01*
X0085627Y0059900D01*
X0084835Y0059643D01*
X0084093Y0059265D01*
X0083420Y0058776D01*
X0082831Y0058187D01*
X0082341Y0057513D01*
X0082102Y0057044D01*
X0082102Y0082522D01*
X0082701Y0081923D01*
X0083718Y0081502D01*
X0084818Y0081502D01*
X0085834Y0081923D01*
X0086612Y0082701D01*
X0087033Y0083718D01*
X0087033Y0084818D01*
X0086612Y0085834D01*
X0086246Y0086201D01*
X0086246Y0089573D01*
X0096375Y0089573D01*
X0097072Y0090271D01*
X0097072Y0104627D01*
X0106232Y0113786D01*
X0106471Y0113786D01*
X0107488Y0114207D01*
X0108266Y0114985D01*
X0108687Y0116001D01*
X0108687Y0117101D01*
X0108636Y0117223D01*
X0113927Y0111932D01*
X0113419Y0111425D01*
X0112998Y0110408D01*
X0112998Y0109308D01*
X0113419Y0108292D01*
X0114197Y0107514D01*
X0115214Y0107093D01*
X0116010Y0107093D01*
X0116039Y0107065D01*
X0156154Y0107065D01*
X0156717Y0106501D01*
X0157733Y0106080D01*
X0158834Y0106080D01*
X0159850Y0106501D01*
X0160628Y0107279D01*
X0161049Y0108296D01*
X0161049Y0109396D01*
X0160628Y0110412D01*
X0160319Y0110720D01*
X0160628Y0111029D01*
X0161049Y0112045D01*
X0161049Y0113145D01*
X0160628Y0114162D01*
X0160319Y0114470D01*
X0160628Y0114778D01*
X0161049Y0115795D01*
X0161049Y0116895D01*
X0160628Y0117911D01*
X0160319Y0118220D01*
X0160628Y0118528D01*
X0161049Y0119544D01*
X0161049Y0120645D01*
X0160628Y0121661D01*
X0159850Y0122439D01*
X0158834Y0122860D01*
X0157733Y0122860D01*
X0156717Y0122439D01*
X0156154Y0121876D01*
X0130098Y0121876D01*
X0129535Y0122439D01*
X0128519Y0122860D01*
X0127418Y0122860D01*
X0126402Y0122439D01*
X0125624Y0121661D01*
X0125203Y0120645D01*
X0125203Y0119544D01*
X0125624Y0118528D01*
X0126129Y0118023D01*
X0126018Y0117911D01*
X0125597Y0116895D01*
X0125597Y0115795D01*
X0126018Y0114778D01*
X0126336Y0114460D01*
X0120347Y0114460D01*
X0107818Y0126990D01*
X0107818Y0127787D01*
X0107397Y0128803D01*
X0106619Y0129581D01*
X0105602Y0130002D01*
X0104502Y0130002D01*
X0103486Y0129581D01*
X0102708Y0128803D01*
X0102528Y0128369D01*
X0102387Y0128509D01*
X0102387Y0129306D01*
X0101966Y0130322D01*
X0101188Y0131100D01*
X0100172Y0131521D01*
X0099072Y0131521D01*
X0098056Y0131100D01*
X0097278Y0130322D01*
X0096857Y0129306D01*
X0096857Y0128206D01*
X0097278Y0127189D01*
X0098056Y0126412D01*
X0099072Y0125991D01*
X0099869Y0125991D01*
X0106593Y0119266D01*
X0106471Y0119317D01*
X0105371Y0119317D01*
X0104355Y0118896D01*
X0103577Y0118118D01*
X0103156Y0117101D01*
X0103156Y0116861D01*
X0094784Y0108490D01*
X0082790Y0108490D01*
X0082102Y0107802D01*
X0082102Y0141019D01*
X0082341Y0140550D01*
X0082831Y0139876D01*
X0083420Y0139287D01*
X0084093Y0138798D01*
X0084835Y0138420D01*
X0085627Y0138163D01*
X0086450Y0138032D01*
X0086457Y0138032D01*
X0086457Y0142913D01*
X0087276Y0142913D01*
X0087276Y0143732D01*
X0096457Y0143732D01*
X0096457Y0142913D01*
X0097276Y0142913D01*
X0097276Y0138032D01*
X0097283Y0138032D01*
X0098105Y0138163D01*
X0098897Y0138420D01*
X0099639Y0138798D01*
X0100313Y0139287D01*
X0100902Y0139876D01*
X0101391Y0140550D01*
X0101769Y0141292D01*
X0102026Y0142084D01*
X0102043Y0142188D01*
X0102720Y0140553D01*
X0104096Y0139177D01*
X0105893Y0138432D01*
X0107839Y0138432D01*
X0109636Y0139177D01*
X0111012Y0140553D01*
X0111757Y0142350D01*
X0111757Y0144296D01*
X0111012Y0146093D01*
X0109649Y0147457D01*
X0114084Y0147457D01*
X0112720Y0146093D01*
X0111976Y0144296D01*
X0111976Y0142350D01*
X0112720Y0140553D01*
X0114096Y0139177D01*
X0115893Y0138432D01*
X0117839Y0138432D01*
X0119636Y0139177D01*
X0121012Y0140553D01*
X0121757Y0142350D01*
X0121757Y0144296D01*
X0121012Y0146093D01*
X0119649Y0147457D01*
X0124084Y0147457D01*
X0122720Y0146093D01*
X0121976Y0144296D01*
X0121976Y0142350D01*
X0122720Y0140553D01*
X0124096Y0139177D01*
X0125893Y0138432D01*
X0127839Y0138432D01*
X0129636Y0139177D01*
X0131012Y0140553D01*
X0131757Y0142350D01*
X0131757Y0144296D01*
X0131012Y0146093D01*
X0129649Y0147457D01*
X0134084Y0147457D01*
X0132720Y0146093D01*
X0131976Y0144296D01*
X0131976Y0142350D01*
X0132720Y0140553D01*
X0134096Y0139177D01*
X0135893Y0138432D01*
X0137839Y0138432D01*
X0139636Y0139177D01*
X0141012Y0140553D01*
X0141757Y0142350D01*
X0141757Y0144296D01*
X0141012Y0146093D01*
X0139649Y0147457D01*
X0144084Y0147457D01*
X0142720Y0146093D01*
X0141976Y0144296D01*
X0141976Y0142350D01*
X0142720Y0140553D01*
X0144096Y0139177D01*
X0145893Y0138432D01*
X0147839Y0138432D01*
X0149636Y0139177D01*
X0151012Y0140553D01*
X0151757Y0142350D01*
X0151757Y0144296D01*
X0151012Y0146093D01*
X0149649Y0147457D01*
X0154084Y0147457D01*
X0152720Y0146093D01*
X0151976Y0144296D01*
X0151976Y0142350D01*
X0152720Y0140553D01*
X0154096Y0139177D01*
X0155893Y0138432D01*
X0157839Y0138432D01*
X0159636Y0139177D01*
X0161012Y0140553D01*
X0161757Y0142350D01*
X0161757Y0144296D01*
X0161012Y0146093D01*
X0159649Y0147457D01*
X0164084Y0147457D01*
X0162720Y0146093D01*
X0161976Y0144296D01*
X0161976Y0142350D01*
X0162720Y0140553D01*
X0164096Y0139177D01*
X0165893Y0138432D01*
X0167839Y0138432D01*
X0169636Y0139177D01*
X0171012Y0140553D01*
X0171757Y0142350D01*
X0171757Y0144296D01*
X0171012Y0146093D01*
X0169649Y0147457D01*
X0174084Y0147457D01*
X0172720Y0146093D01*
X0171976Y0144296D01*
X0171976Y0142350D01*
X0172720Y0140553D01*
X0174096Y0139177D01*
X0175893Y0138432D01*
X0177839Y0138432D01*
X0179636Y0139177D01*
X0181012Y0140553D01*
X0181757Y0142350D01*
X0181757Y0144296D01*
X0181012Y0146093D01*
X0179649Y0147457D01*
X0184084Y0147457D01*
X0182720Y0146093D01*
X0181976Y0144296D01*
X0181976Y0142350D01*
X0182720Y0140553D01*
X0184096Y0139177D01*
X0185893Y0138432D01*
X0187839Y0138432D01*
X0189636Y0139177D01*
X0191012Y0140553D01*
X0191757Y0142350D01*
X0191757Y0144296D01*
X0191012Y0146093D01*
X0189649Y0147457D01*
X0194084Y0147457D01*
X0192720Y0146093D01*
X0191976Y0144296D01*
X0191976Y0142350D01*
X0192720Y0140553D01*
X0194096Y0139177D01*
X0195893Y0138432D01*
X0197839Y0138432D01*
X0199636Y0139177D01*
X0201012Y0140553D01*
X0201689Y0142188D01*
X0201706Y0142084D01*
X0201963Y0141292D01*
X0202341Y0140550D01*
X0202831Y0139876D01*
X0203420Y0139287D01*
X0204093Y0138798D01*
X0204835Y0138420D01*
X0205627Y0138163D01*
X0206450Y0138032D01*
X0206457Y0138032D01*
X0206457Y0142913D01*
X0207276Y0142913D01*
X0207276Y0138032D01*
X0207283Y0138032D01*
X0208105Y0138163D01*
X0208897Y0138420D01*
X0209639Y0138798D01*
X0210313Y0139287D01*
X0210902Y0139876D01*
X0211391Y0140550D01*
X0211630Y0141019D01*
X0211630Y0108840D01*
X0211446Y0108890D01*
X0205528Y0108890D01*
X0205528Y0099622D01*
X0204346Y0099622D01*
X0204346Y0108890D01*
X0198428Y0108890D01*
X0198024Y0108781D01*
X0197661Y0108572D01*
X0197365Y0108276D01*
X0197156Y0107913D01*
X0197047Y0107509D01*
X0197047Y0099622D01*
X0197047Y0100738D02*
X0164789Y0100738D01*
X0164637Y0101917D02*
X0197047Y0101917D01*
X0197047Y0103097D02*
X0163838Y0103097D01*
X0162024Y0101000D02*
X0105724Y0101000D01*
X0103111Y0101917D02*
X0097072Y0101917D01*
X0097072Y0100738D02*
X0102959Y0100738D01*
X0103328Y0099558D02*
X0097072Y0099558D01*
X0097072Y0098378D02*
X0103276Y0098378D01*
X0102959Y0097199D02*
X0097072Y0097199D01*
X0097072Y0096019D02*
X0103164Y0096019D01*
X0104037Y0094840D02*
X0097072Y0094840D01*
X0097072Y0093660D02*
X0122061Y0093660D01*
X0121660Y0092480D02*
X0097072Y0092480D01*
X0097072Y0091301D02*
X0121780Y0091301D01*
X0122535Y0090121D02*
X0096923Y0090121D01*
X0086246Y0088942D02*
X0128424Y0088942D01*
X0127243Y0087762D02*
X0086246Y0087762D01*
X0086246Y0086582D02*
X0126058Y0086582D01*
X0124872Y0085403D02*
X0086791Y0085403D01*
X0087033Y0084223D02*
X0123687Y0084223D01*
X0122502Y0083043D02*
X0086754Y0083043D01*
X0085690Y0081864D02*
X0121317Y0081864D01*
X0120131Y0080684D02*
X0082102Y0080684D01*
X0082102Y0079505D02*
X0118946Y0079505D01*
X0117761Y0078325D02*
X0082102Y0078325D01*
X0082102Y0077145D02*
X0116575Y0077145D01*
X0115390Y0075966D02*
X0082102Y0075966D01*
X0082102Y0074786D02*
X0114205Y0074786D01*
X0113019Y0073607D02*
X0082102Y0073607D01*
X0082102Y0072427D02*
X0111834Y0072427D01*
X0110649Y0071247D02*
X0082102Y0071247D01*
X0082102Y0070068D02*
X0109464Y0070068D01*
X0108278Y0068888D02*
X0082102Y0068888D01*
X0082102Y0067708D02*
X0107093Y0067708D01*
X0105908Y0066529D02*
X0082102Y0066529D01*
X0082102Y0065349D02*
X0104722Y0065349D01*
X0103537Y0064170D02*
X0082102Y0064170D01*
X0082102Y0062990D02*
X0102352Y0062990D01*
X0101166Y0061810D02*
X0082102Y0061810D01*
X0082102Y0060631D02*
X0099981Y0060631D01*
X0098796Y0059451D02*
X0098272Y0059451D01*
X0095460Y0059451D02*
X0089274Y0059451D01*
X0090817Y0058272D02*
X0093481Y0058272D01*
X0092547Y0057092D02*
X0091606Y0057092D01*
X0092037Y0055912D02*
X0092058Y0055912D01*
X0087276Y0055912D02*
X0086457Y0055912D01*
X0086457Y0057092D02*
X0087276Y0057092D01*
X0087276Y0058272D02*
X0086457Y0058272D01*
X0086457Y0059451D02*
X0087276Y0059451D01*
X0084459Y0059451D02*
X0082102Y0059451D01*
X0082102Y0058272D02*
X0082916Y0058272D01*
X0082127Y0057092D02*
X0082102Y0057092D01*
X0100236Y0051194D02*
X0103496Y0051194D01*
X0102553Y0052373D02*
X0101179Y0052373D01*
X0101668Y0053553D02*
X0102064Y0053553D01*
X0101976Y0054733D02*
X0101757Y0054733D01*
X0101674Y0055912D02*
X0102058Y0055912D01*
X0102033Y0057092D02*
X0102547Y0057092D01*
X0103219Y0058272D02*
X0103481Y0058272D01*
X0104404Y0059451D02*
X0105460Y0059451D01*
X0105589Y0060631D02*
X0107931Y0060631D01*
X0108272Y0059451D02*
X0115460Y0059451D01*
X0113481Y0058272D02*
X0110251Y0058272D01*
X0111185Y0057092D02*
X0112547Y0057092D01*
X0112058Y0055912D02*
X0111674Y0055912D01*
X0111757Y0054733D02*
X0111976Y0054733D01*
X0112064Y0053553D02*
X0111668Y0053553D01*
X0111179Y0052373D02*
X0112553Y0052373D01*
X0113496Y0051194D02*
X0110236Y0051194D01*
X0120236Y0051194D02*
X0123496Y0051194D01*
X0122553Y0052373D02*
X0121179Y0052373D01*
X0121668Y0053553D02*
X0122064Y0053553D01*
X0121976Y0054733D02*
X0121757Y0054733D01*
X0121674Y0055912D02*
X0122058Y0055912D01*
X0122547Y0057092D02*
X0121185Y0057092D01*
X0120251Y0058272D02*
X0123481Y0058272D01*
X0125460Y0059451D02*
X0118272Y0059451D01*
X0118365Y0061810D02*
X0134576Y0061810D01*
X0134141Y0062990D02*
X0119544Y0062990D01*
X0120724Y0064170D02*
X0134118Y0064170D01*
X0134498Y0065349D02*
X0121904Y0065349D01*
X0123083Y0066529D02*
X0135270Y0066529D01*
X0134605Y0067708D02*
X0124263Y0067708D01*
X0125442Y0068888D02*
X0134483Y0068888D01*
X0134812Y0070068D02*
X0126622Y0070068D01*
X0127802Y0071247D02*
X0134986Y0071247D01*
X0134288Y0072427D02*
X0128981Y0072427D01*
X0130161Y0073607D02*
X0134083Y0073607D01*
X0134263Y0074786D02*
X0131340Y0074786D01*
X0132520Y0075966D02*
X0134923Y0075966D01*
X0134405Y0077145D02*
X0133700Y0077145D01*
X0137673Y0077145D02*
X0137673Y0077145D01*
X0137673Y0075966D02*
X0137673Y0075966D01*
X0137673Y0074786D02*
X0137673Y0074786D01*
X0137673Y0078325D02*
X0137673Y0078325D01*
X0142673Y0078638D02*
X0184386Y0078638D01*
X0184661Y0078362D01*
X0187151Y0077145D02*
X0211630Y0077145D01*
X0211630Y0075966D02*
X0186102Y0075966D01*
X0183221Y0075966D02*
X0144857Y0075966D01*
X0145651Y0074786D02*
X0211630Y0074786D01*
X0211630Y0073607D02*
X0145864Y0073607D01*
X0145625Y0072427D02*
X0211630Y0072427D01*
X0211630Y0071247D02*
X0144795Y0071247D01*
X0145534Y0070068D02*
X0211630Y0070068D01*
X0211630Y0068888D02*
X0145864Y0068888D01*
X0145742Y0067708D02*
X0211630Y0067708D01*
X0211630Y0066529D02*
X0145076Y0066529D01*
X0145418Y0065349D02*
X0211630Y0065349D01*
X0211630Y0064170D02*
X0145864Y0064170D01*
X0145858Y0062990D02*
X0211630Y0062990D01*
X0211630Y0061810D02*
X0145358Y0061810D01*
X0143751Y0060631D02*
X0211630Y0060631D01*
X0211630Y0059451D02*
X0208272Y0059451D01*
X0210251Y0058272D02*
X0211630Y0058272D01*
X0211630Y0057092D02*
X0211185Y0057092D01*
X0205460Y0059451D02*
X0198272Y0059451D01*
X0200251Y0058272D02*
X0203481Y0058272D01*
X0202547Y0057092D02*
X0201185Y0057092D01*
X0201674Y0055912D02*
X0202058Y0055912D01*
X0201976Y0054733D02*
X0201757Y0054733D01*
X0201668Y0053553D02*
X0202064Y0053553D01*
X0202553Y0052373D02*
X0201179Y0052373D01*
X0200236Y0051194D02*
X0203496Y0051194D01*
X0193496Y0051194D02*
X0190236Y0051194D01*
X0191179Y0052373D02*
X0192553Y0052373D01*
X0192064Y0053553D02*
X0191668Y0053553D01*
X0191757Y0054733D02*
X0191976Y0054733D01*
X0192058Y0055912D02*
X0191674Y0055912D01*
X0191185Y0057092D02*
X0192547Y0057092D01*
X0193481Y0058272D02*
X0190251Y0058272D01*
X0188272Y0059451D02*
X0195460Y0059451D01*
X0185460Y0059451D02*
X0178272Y0059451D01*
X0180251Y0058272D02*
X0183481Y0058272D01*
X0182547Y0057092D02*
X0181185Y0057092D01*
X0181674Y0055912D02*
X0182058Y0055912D01*
X0181976Y0054733D02*
X0181757Y0054733D01*
X0181668Y0053553D02*
X0182064Y0053553D01*
X0182553Y0052373D02*
X0181179Y0052373D01*
X0180236Y0051194D02*
X0183496Y0051194D01*
X0173496Y0051194D02*
X0170236Y0051194D01*
X0171179Y0052373D02*
X0172553Y0052373D01*
X0172064Y0053553D02*
X0171668Y0053553D01*
X0171757Y0054733D02*
X0171976Y0054733D01*
X0172058Y0055912D02*
X0171674Y0055912D01*
X0171185Y0057092D02*
X0172547Y0057092D01*
X0173481Y0058272D02*
X0170251Y0058272D01*
X0168272Y0059451D02*
X0175460Y0059451D01*
X0165460Y0059451D02*
X0158272Y0059451D01*
X0160251Y0058272D02*
X0163481Y0058272D01*
X0162547Y0057092D02*
X0161185Y0057092D01*
X0161674Y0055912D02*
X0162058Y0055912D01*
X0161976Y0054733D02*
X0161757Y0054733D01*
X0161668Y0053553D02*
X0162064Y0053553D01*
X0162553Y0052373D02*
X0161179Y0052373D01*
X0160236Y0051194D02*
X0163496Y0051194D01*
X0153496Y0051194D02*
X0150236Y0051194D01*
X0151179Y0052373D02*
X0152553Y0052373D01*
X0152064Y0053553D02*
X0151668Y0053553D01*
X0151757Y0054733D02*
X0151976Y0054733D01*
X0152058Y0055912D02*
X0151674Y0055912D01*
X0151185Y0057092D02*
X0152547Y0057092D01*
X0153481Y0058272D02*
X0150251Y0058272D01*
X0148272Y0059451D02*
X0155460Y0059451D01*
X0145460Y0059451D02*
X0138272Y0059451D01*
X0137673Y0060631D02*
X0137673Y0060631D01*
X0137673Y0061810D02*
X0137673Y0061810D01*
X0137673Y0062990D02*
X0137673Y0062990D01*
X0135711Y0060631D02*
X0111786Y0060631D01*
X0109858Y0062614D02*
X0116650Y0062614D01*
X0137673Y0083638D01*
X0142673Y0083638D02*
X0185291Y0083638D01*
X0188598Y0080331D01*
X0190503Y0078325D02*
X0211630Y0078325D01*
X0211630Y0079505D02*
X0191249Y0079505D01*
X0191364Y0080684D02*
X0211630Y0080684D01*
X0211630Y0081864D02*
X0190957Y0081864D01*
X0189276Y0083043D02*
X0211630Y0083043D01*
X0211630Y0084223D02*
X0187225Y0084223D01*
X0186045Y0085403D02*
X0211630Y0085403D01*
X0211630Y0086582D02*
X0161049Y0086582D01*
X0160808Y0087762D02*
X0211630Y0087762D01*
X0211630Y0088942D02*
X0159883Y0088942D01*
X0160567Y0090121D02*
X0197172Y0090121D01*
X0197047Y0091301D02*
X0161322Y0091301D01*
X0161443Y0092480D02*
X0197047Y0092480D01*
X0197047Y0093660D02*
X0161041Y0093660D01*
X0160336Y0094840D02*
X0159390Y0094840D01*
X0157964Y0094840D02*
X0125138Y0094840D01*
X0123712Y0094840D02*
X0107412Y0094840D01*
X0105724Y0097063D02*
X0162024Y0097063D01*
X0164584Y0096019D02*
X0197047Y0096019D01*
X0197047Y0094840D02*
X0163711Y0094840D01*
X0164789Y0097199D02*
X0197047Y0097199D01*
X0204346Y0097199D02*
X0205528Y0097199D01*
X0205528Y0098378D02*
X0204346Y0098378D01*
X0204346Y0096019D02*
X0205528Y0096019D01*
X0205528Y0094840D02*
X0204346Y0094840D01*
X0204346Y0093660D02*
X0205528Y0093660D01*
X0205528Y0092480D02*
X0204346Y0092480D01*
X0204346Y0091301D02*
X0205528Y0091301D01*
X0205528Y0090121D02*
X0204346Y0090121D01*
X0204346Y0100738D02*
X0205528Y0100738D01*
X0205528Y0101917D02*
X0204346Y0101917D01*
X0204346Y0103097D02*
X0205528Y0103097D01*
X0205528Y0104276D02*
X0204346Y0104276D01*
X0204346Y0105456D02*
X0205528Y0105456D01*
X0205528Y0106636D02*
X0204346Y0106636D01*
X0204346Y0107815D02*
X0205528Y0107815D01*
X0211630Y0108995D02*
X0161049Y0108995D01*
X0160850Y0107815D02*
X0197129Y0107815D01*
X0197047Y0106636D02*
X0159984Y0106636D01*
X0158283Y0108846D02*
X0116776Y0108846D01*
X0115764Y0109858D01*
X0115764Y0112614D01*
X0099622Y0128756D01*
X0097778Y0126689D02*
X0082102Y0126689D01*
X0082102Y0125510D02*
X0100350Y0125510D01*
X0101529Y0124330D02*
X0082102Y0124330D01*
X0082102Y0123150D02*
X0102709Y0123150D01*
X0103888Y0121971D02*
X0082102Y0121971D01*
X0082102Y0120791D02*
X0105068Y0120791D01*
X0106248Y0119611D02*
X0082102Y0119611D01*
X0082102Y0118432D02*
X0103891Y0118432D01*
X0103218Y0117252D02*
X0082102Y0117252D01*
X0082102Y0116073D02*
X0102367Y0116073D01*
X0101187Y0114893D02*
X0082102Y0114893D01*
X0082102Y0113713D02*
X0100008Y0113713D01*
X0098828Y0112534D02*
X0082102Y0112534D01*
X0082102Y0111354D02*
X0097649Y0111354D01*
X0096469Y0110175D02*
X0082102Y0110175D01*
X0082102Y0108995D02*
X0095289Y0108995D01*
X0097902Y0105456D02*
X0197047Y0105456D01*
X0197047Y0104276D02*
X0097072Y0104276D01*
X0097072Y0103097D02*
X0103910Y0103097D01*
X0107538Y0103097D02*
X0160210Y0103097D01*
X0156583Y0106636D02*
X0099081Y0106636D01*
X0100261Y0107815D02*
X0113896Y0107815D01*
X0113128Y0108995D02*
X0101441Y0108995D01*
X0102620Y0110175D02*
X0112998Y0110175D01*
X0113390Y0111354D02*
X0103800Y0111354D01*
X0104979Y0112534D02*
X0113325Y0112534D01*
X0112146Y0113713D02*
X0106159Y0113713D01*
X0108174Y0114893D02*
X0110966Y0114893D01*
X0109786Y0116073D02*
X0108687Y0116073D01*
X0115196Y0119611D02*
X0125203Y0119611D01*
X0125264Y0120791D02*
X0114017Y0120791D01*
X0112837Y0121971D02*
X0125934Y0121971D01*
X0127969Y0120094D02*
X0135449Y0120094D01*
X0158283Y0120094D01*
X0156249Y0121971D02*
X0130003Y0121971D01*
X0125720Y0118432D02*
X0116376Y0118432D01*
X0117555Y0117252D02*
X0125745Y0117252D01*
X0125597Y0116073D02*
X0118735Y0116073D01*
X0119915Y0114893D02*
X0125970Y0114893D01*
X0128362Y0116345D02*
X0158283Y0116345D01*
X0160901Y0117252D02*
X0211630Y0117252D01*
X0211630Y0116073D02*
X0161049Y0116073D01*
X0160675Y0114893D02*
X0211630Y0114893D01*
X0211630Y0113713D02*
X0160814Y0113713D01*
X0161049Y0112534D02*
X0211630Y0112534D01*
X0211630Y0111354D02*
X0160763Y0111354D01*
X0160726Y0110175D02*
X0211630Y0110175D01*
X0211630Y0118432D02*
X0160532Y0118432D01*
X0161049Y0119611D02*
X0211630Y0119611D01*
X0211630Y0120791D02*
X0160988Y0120791D01*
X0160318Y0121971D02*
X0211630Y0121971D01*
X0211630Y0123150D02*
X0111657Y0123150D01*
X0110478Y0124330D02*
X0211630Y0124330D01*
X0211630Y0125510D02*
X0109298Y0125510D01*
X0108118Y0126689D02*
X0211630Y0126689D01*
X0211630Y0127869D02*
X0107784Y0127869D01*
X0107151Y0129048D02*
X0211630Y0129048D01*
X0211630Y0130228D02*
X0102005Y0130228D01*
X0102387Y0129048D02*
X0102953Y0129048D01*
X0105052Y0127236D02*
X0119609Y0112679D01*
X0131840Y0112679D01*
X0131924Y0112595D01*
X0139386Y0112595D01*
X0158283Y0112595D01*
X0158677Y0092142D02*
X0124425Y0092142D01*
X0126315Y0090121D02*
X0156787Y0090121D01*
X0141595Y0060631D02*
X0139636Y0060631D01*
X0140251Y0058272D02*
X0143481Y0058272D01*
X0142547Y0057092D02*
X0141185Y0057092D01*
X0141674Y0055912D02*
X0142058Y0055912D01*
X0141976Y0054733D02*
X0141757Y0054733D01*
X0141668Y0053553D02*
X0142064Y0053553D01*
X0142553Y0052373D02*
X0141179Y0052373D01*
X0140236Y0051194D02*
X0143496Y0051194D01*
X0133496Y0051194D02*
X0130236Y0051194D01*
X0131179Y0052373D02*
X0132553Y0052373D01*
X0132064Y0053553D02*
X0131668Y0053553D01*
X0131757Y0054733D02*
X0131976Y0054733D01*
X0132058Y0055912D02*
X0131674Y0055912D01*
X0131185Y0057092D02*
X0132547Y0057092D01*
X0133481Y0058272D02*
X0130251Y0058272D01*
X0128272Y0059451D02*
X0135460Y0059451D01*
X0107198Y0061810D02*
X0106774Y0061810D01*
X0082845Y0081864D02*
X0082102Y0081864D01*
X0082102Y0107815D02*
X0082116Y0107815D01*
X0082102Y0127869D02*
X0096996Y0127869D01*
X0096857Y0129048D02*
X0082102Y0129048D01*
X0082102Y0130228D02*
X0097239Y0130228D01*
X0098798Y0131408D02*
X0082102Y0131408D01*
X0082102Y0132587D02*
X0211630Y0132587D01*
X0211630Y0131408D02*
X0100446Y0131408D01*
X0096457Y0138032D02*
X0096457Y0142913D01*
X0091576Y0142913D01*
X0087276Y0142913D01*
X0087276Y0138032D01*
X0087283Y0138032D01*
X0088105Y0138163D01*
X0088897Y0138420D01*
X0089639Y0138798D01*
X0090313Y0139287D01*
X0090902Y0139876D01*
X0091391Y0140550D01*
X0091769Y0141292D01*
X0091866Y0141591D01*
X0091963Y0141292D01*
X0092341Y0140550D01*
X0092831Y0139876D01*
X0093420Y0139287D01*
X0094093Y0138798D01*
X0094835Y0138420D01*
X0095627Y0138163D01*
X0096450Y0138032D01*
X0096457Y0138032D01*
X0096457Y0138485D02*
X0097276Y0138485D01*
X0097276Y0139665D02*
X0096457Y0139665D01*
X0096457Y0140845D02*
X0097276Y0140845D01*
X0097276Y0142024D02*
X0096457Y0142024D01*
X0096457Y0143204D02*
X0087276Y0143204D01*
X0087276Y0142024D02*
X0086457Y0142024D01*
X0086457Y0140845D02*
X0087276Y0140845D01*
X0087276Y0139665D02*
X0086457Y0139665D01*
X0086457Y0138485D02*
X0087276Y0138485D01*
X0089025Y0138485D02*
X0094707Y0138485D01*
X0093042Y0139665D02*
X0090690Y0139665D01*
X0091541Y0140845D02*
X0092191Y0140845D01*
X0099025Y0138485D02*
X0105765Y0138485D01*
X0107967Y0138485D02*
X0115765Y0138485D01*
X0117967Y0138485D02*
X0125765Y0138485D01*
X0127967Y0138485D02*
X0135765Y0138485D01*
X0137967Y0138485D02*
X0145765Y0138485D01*
X0147967Y0138485D02*
X0155765Y0138485D01*
X0157967Y0138485D02*
X0165765Y0138485D01*
X0167967Y0138485D02*
X0175765Y0138485D01*
X0177967Y0138485D02*
X0185765Y0138485D01*
X0187967Y0138485D02*
X0195765Y0138485D01*
X0197967Y0138485D02*
X0204707Y0138485D01*
X0206457Y0138485D02*
X0207276Y0138485D01*
X0207276Y0139665D02*
X0206457Y0139665D01*
X0206457Y0140845D02*
X0207276Y0140845D01*
X0207276Y0142024D02*
X0206457Y0142024D01*
X0211541Y0140845D02*
X0211630Y0140845D01*
X0211630Y0139665D02*
X0210690Y0139665D01*
X0211630Y0138485D02*
X0209025Y0138485D01*
X0211630Y0137306D02*
X0082102Y0137306D01*
X0082102Y0138485D02*
X0084707Y0138485D01*
X0083042Y0139665D02*
X0082102Y0139665D01*
X0082102Y0140845D02*
X0082191Y0140845D01*
X0082102Y0136126D02*
X0211630Y0136126D01*
X0211630Y0134946D02*
X0082102Y0134946D01*
X0082102Y0133767D02*
X0211630Y0133767D01*
X0203042Y0139665D02*
X0200124Y0139665D01*
X0201133Y0140845D02*
X0202191Y0140845D01*
X0201725Y0142024D02*
X0201622Y0142024D01*
X0193608Y0139665D02*
X0190124Y0139665D01*
X0191133Y0140845D02*
X0192599Y0140845D01*
X0192111Y0142024D02*
X0191622Y0142024D01*
X0191757Y0143204D02*
X0191976Y0143204D01*
X0192012Y0144383D02*
X0191720Y0144383D01*
X0191232Y0145563D02*
X0192501Y0145563D01*
X0193370Y0146743D02*
X0190363Y0146743D01*
X0183370Y0146743D02*
X0180363Y0146743D01*
X0181232Y0145563D02*
X0182501Y0145563D01*
X0182012Y0144383D02*
X0181720Y0144383D01*
X0181757Y0143204D02*
X0181976Y0143204D01*
X0182111Y0142024D02*
X0181622Y0142024D01*
X0181133Y0140845D02*
X0182599Y0140845D01*
X0183608Y0139665D02*
X0180124Y0139665D01*
X0173608Y0139665D02*
X0170124Y0139665D01*
X0171133Y0140845D02*
X0172599Y0140845D01*
X0172111Y0142024D02*
X0171622Y0142024D01*
X0171757Y0143204D02*
X0171976Y0143204D01*
X0172012Y0144383D02*
X0171720Y0144383D01*
X0171232Y0145563D02*
X0172501Y0145563D01*
X0173370Y0146743D02*
X0170363Y0146743D01*
X0163370Y0146743D02*
X0160363Y0146743D01*
X0161232Y0145563D02*
X0162501Y0145563D01*
X0162012Y0144383D02*
X0161720Y0144383D01*
X0161757Y0143204D02*
X0161976Y0143204D01*
X0162111Y0142024D02*
X0161622Y0142024D01*
X0161133Y0140845D02*
X0162599Y0140845D01*
X0163608Y0139665D02*
X0160124Y0139665D01*
X0153608Y0139665D02*
X0150124Y0139665D01*
X0151133Y0140845D02*
X0152599Y0140845D01*
X0152111Y0142024D02*
X0151622Y0142024D01*
X0151757Y0143204D02*
X0151976Y0143204D01*
X0152012Y0144383D02*
X0151720Y0144383D01*
X0151232Y0145563D02*
X0152501Y0145563D01*
X0153370Y0146743D02*
X0150363Y0146743D01*
X0143370Y0146743D02*
X0140363Y0146743D01*
X0141232Y0145563D02*
X0142501Y0145563D01*
X0142012Y0144383D02*
X0141720Y0144383D01*
X0141757Y0143204D02*
X0141976Y0143204D01*
X0142111Y0142024D02*
X0141622Y0142024D01*
X0141133Y0140845D02*
X0142599Y0140845D01*
X0143608Y0139665D02*
X0140124Y0139665D01*
X0133608Y0139665D02*
X0130124Y0139665D01*
X0131133Y0140845D02*
X0132599Y0140845D01*
X0132111Y0142024D02*
X0131622Y0142024D01*
X0131757Y0143204D02*
X0131976Y0143204D01*
X0132012Y0144383D02*
X0131720Y0144383D01*
X0131232Y0145563D02*
X0132501Y0145563D01*
X0133370Y0146743D02*
X0130363Y0146743D01*
X0123370Y0146743D02*
X0120363Y0146743D01*
X0121232Y0145563D02*
X0122501Y0145563D01*
X0122012Y0144383D02*
X0121720Y0144383D01*
X0121757Y0143204D02*
X0121976Y0143204D01*
X0122111Y0142024D02*
X0121622Y0142024D01*
X0121133Y0140845D02*
X0122599Y0140845D01*
X0123608Y0139665D02*
X0120124Y0139665D01*
X0113608Y0139665D02*
X0110124Y0139665D01*
X0111133Y0140845D02*
X0112599Y0140845D01*
X0112111Y0142024D02*
X0111622Y0142024D01*
X0111757Y0143204D02*
X0111976Y0143204D01*
X0112012Y0144383D02*
X0111720Y0144383D01*
X0111232Y0145563D02*
X0112501Y0145563D01*
X0113370Y0146743D02*
X0110363Y0146743D01*
X0102111Y0142024D02*
X0102007Y0142024D01*
X0101541Y0140845D02*
X0102599Y0140845D01*
X0103608Y0139665D02*
X0100690Y0139665D01*
D15*
X0091748Y0139386D03*
X0091354Y0128756D03*
X0083480Y0127575D03*
X0083480Y0119307D03*
X0092142Y0118913D03*
X0102378Y0120882D03*
X0105921Y0116551D03*
X0111827Y0124819D03*
X0105052Y0127236D03*
X0099622Y0128756D03*
X0123638Y0124031D03*
X0127969Y0120094D03*
X0128362Y0116345D03*
X0131840Y0112679D03*
X0133874Y0103953D03*
X0124425Y0092142D03*
X0113008Y0094110D03*
X0105724Y0097063D03*
X0105724Y0101000D03*
X0108283Y0103953D03*
X0114976Y0103953D03*
X0115764Y0109858D03*
X0141748Y0124425D03*
X0133087Y0129937D03*
X0129543Y0135449D03*
X0121669Y0139780D03*
X0152772Y0124819D03*
X0158283Y0120094D03*
X0158283Y0116345D03*
X0158283Y0112595D03*
X0158283Y0108846D03*
X0158677Y0104346D03*
X0162024Y0101000D03*
X0162024Y0097063D03*
X0164976Y0093717D03*
X0158677Y0092142D03*
X0158283Y0086630D03*
X0162614Y0087024D03*
X0174425Y0087024D03*
X0177181Y0094110D03*
X0184661Y0087024D03*
X0194898Y0092929D03*
X0200803Y0087417D03*
X0210252Y0087811D03*
X0210252Y0078756D03*
X0200803Y0066551D03*
X0210252Y0066157D03*
X0210646Y0060252D03*
X0194110Y0078362D03*
X0188598Y0080331D03*
X0184661Y0078362D03*
X0154346Y0073638D03*
X0146866Y0075606D03*
X0152772Y0064976D03*
X0142142Y0059071D03*
X0111827Y0074819D03*
X0104740Y0074425D03*
X0111827Y0081512D03*
X0102772Y0084661D03*
X0097654Y0088992D03*
X0094110Y0081118D03*
X0087811Y0081512D03*
X0084268Y0084268D03*
X0087811Y0087811D03*
X0094504Y0074031D03*
X0091354Y0066157D03*
X0083087Y0060646D03*
X0102772Y0066157D03*
X0109858Y0062614D03*
X0172457Y0105134D03*
X0185055Y0104346D03*
X0194504Y0105528D03*
X0199622Y0110646D03*
X0210252Y0110252D03*
X0210252Y0119307D03*
X0210252Y0131906D03*
X0210252Y0137811D03*
X0201591Y0138992D03*
X0201591Y0131118D03*
X0192535Y0132299D03*
D16*
X0157888Y0087025D02*
X0129305Y0087025D01*
X0128910Y0086630D01*
X0128910Y0086630D01*
X0096866Y0054740D01*
X0084268Y0084268D02*
X0084268Y0093717D01*
X0089583Y0099031D01*
X0157888Y0087025D02*
X0158283Y0086630D01*
D17*
X0105921Y0116551D02*
X0089583Y0100213D01*
X0089583Y0099031D01*
M02*
