G75*
%MOIN*%
%OFA0B0*%
%FSLAX25Y25*%
%IPPOS*%
%LPD*%
%AMOC8*
5,1,8,0,0,1.08239X$1,22.5*
%
%ADD10C,0.00000*%
%ADD11C,0.01200*%
%ADD12C,0.00787*%
%ADD13C,0.00500*%
D10*
X0080331Y0048835D02*
X0080331Y0149228D01*
X0213402Y0149228D01*
X0213402Y0048835D01*
X0080331Y0048835D01*
D11*
X0097460Y0065398D02*
X0097460Y0074598D01*
X0102060Y0069998D02*
X0092860Y0069998D01*
X0187860Y0069998D02*
X0197060Y0069998D01*
D12*
X0204346Y0085252D02*
X0186630Y0085252D01*
X0161236Y0059661D02*
X0161039Y0059661D01*
X0133283Y0059661D01*
X0107868Y0085252D02*
X0090173Y0085252D01*
X0090173Y0112811D02*
X0107868Y0112811D01*
X0133283Y0138402D02*
X0133480Y0138402D01*
X0160646Y0138402D01*
X0161236Y0138402D01*
X0186687Y0112811D02*
X0204346Y0112811D01*
X0188992Y0099032D02*
X0188977Y0100047D01*
X0188937Y0101062D01*
X0188873Y0102075D01*
X0188784Y0103086D01*
X0188670Y0104095D01*
X0188532Y0105101D01*
X0188369Y0106103D01*
X0188182Y0107101D01*
X0187971Y0108094D01*
X0187736Y0109082D01*
X0187476Y0110064D01*
X0187193Y0111039D01*
X0186886Y0112007D01*
X0186555Y0112967D01*
X0186201Y0113918D01*
X0185825Y0114861D01*
X0185425Y0115794D01*
X0185002Y0116718D01*
X0184558Y0117631D01*
X0184091Y0118532D01*
X0183602Y0119422D01*
X0183092Y0120300D01*
X0182560Y0121165D01*
X0182008Y0122017D01*
X0181435Y0122855D01*
X0180842Y0123679D01*
X0180229Y0124488D01*
X0179596Y0125283D01*
X0178944Y0126061D01*
X0178273Y0126823D01*
X0177584Y0127569D01*
X0176877Y0128298D01*
X0176153Y0129009D01*
X0175411Y0129702D01*
X0174653Y0130378D01*
X0173878Y0131034D01*
X0173088Y0131671D01*
X0172282Y0132289D01*
X0171462Y0132887D01*
X0170627Y0133465D01*
X0169778Y0134023D01*
X0168916Y0134559D01*
X0168041Y0135075D01*
X0167154Y0135569D01*
X0166256Y0136041D01*
X0165345Y0136491D01*
X0164425Y0136919D01*
X0163494Y0137324D01*
X0162553Y0137706D01*
X0161603Y0138066D01*
X0160645Y0138402D01*
X0188992Y0099032D02*
X0188979Y0098022D01*
X0188942Y0097013D01*
X0188881Y0096005D01*
X0188795Y0095000D01*
X0188685Y0093996D01*
X0188551Y0092995D01*
X0188392Y0091998D01*
X0188210Y0091005D01*
X0188003Y0090017D01*
X0187773Y0089034D01*
X0187519Y0088057D01*
X0187241Y0087086D01*
X0186940Y0086123D01*
X0186616Y0085167D01*
X0186268Y0084219D01*
X0185898Y0083280D01*
X0185505Y0082349D01*
X0185090Y0081429D01*
X0184653Y0080519D01*
X0184194Y0079620D01*
X0183713Y0078732D01*
X0183211Y0077857D01*
X0182687Y0076993D01*
X0182144Y0076143D01*
X0181579Y0075306D01*
X0180995Y0074482D01*
X0180390Y0073674D01*
X0179767Y0072880D01*
X0179124Y0072101D01*
X0178463Y0071338D01*
X0177783Y0070591D01*
X0177086Y0069862D01*
X0176371Y0069149D01*
X0175639Y0068453D01*
X0174891Y0067776D01*
X0174126Y0067117D01*
X0173345Y0066476D01*
X0172550Y0065855D01*
X0171739Y0065253D01*
X0170914Y0064671D01*
X0170076Y0064109D01*
X0169224Y0063567D01*
X0168359Y0063046D01*
X0167482Y0062546D01*
X0166593Y0062068D01*
X0165692Y0061611D01*
X0164781Y0061177D01*
X0163860Y0060764D01*
X0162929Y0060374D01*
X0161988Y0060006D01*
X0161039Y0059662D01*
X0133086Y0059661D02*
X0132128Y0060022D01*
X0131178Y0060405D01*
X0130239Y0060812D01*
X0129309Y0061242D01*
X0128391Y0061695D01*
X0127484Y0062170D01*
X0126588Y0062666D01*
X0125705Y0063185D01*
X0124835Y0063725D01*
X0123979Y0064287D01*
X0123137Y0064869D01*
X0122309Y0065472D01*
X0121496Y0066094D01*
X0120699Y0066737D01*
X0119917Y0067399D01*
X0119152Y0068080D01*
X0118404Y0068779D01*
X0117674Y0069496D01*
X0116961Y0070231D01*
X0116266Y0070984D01*
X0115590Y0071753D01*
X0114934Y0072538D01*
X0114296Y0073340D01*
X0113678Y0074157D01*
X0113081Y0074988D01*
X0112504Y0075834D01*
X0111948Y0076694D01*
X0111413Y0077567D01*
X0110900Y0078453D01*
X0110409Y0079352D01*
X0109940Y0080262D01*
X0109493Y0081183D01*
X0109069Y0082115D01*
X0108668Y0083058D01*
X0108290Y0084009D01*
X0107936Y0084970D01*
X0107605Y0085939D01*
X0107298Y0086916D01*
X0107015Y0087900D01*
X0106756Y0088891D01*
X0106522Y0089888D01*
X0106312Y0090890D01*
X0106127Y0091897D01*
X0105966Y0092908D01*
X0105831Y0093923D01*
X0105720Y0094941D01*
X0105634Y0095962D01*
X0105573Y0096984D01*
X0105538Y0098007D01*
X0105527Y0099031D01*
X0105528Y0099031D02*
X0105541Y0100041D01*
X0105578Y0101050D01*
X0105639Y0102058D01*
X0105725Y0103063D01*
X0105835Y0104067D01*
X0105969Y0105068D01*
X0106128Y0106065D01*
X0106310Y0107058D01*
X0106517Y0108046D01*
X0106747Y0109029D01*
X0107001Y0110006D01*
X0107279Y0110977D01*
X0107580Y0111940D01*
X0107904Y0112896D01*
X0108252Y0113844D01*
X0108622Y0114783D01*
X0109015Y0115714D01*
X0109430Y0116634D01*
X0109867Y0117544D01*
X0110326Y0118443D01*
X0110807Y0119331D01*
X0111309Y0120206D01*
X0111833Y0121070D01*
X0112376Y0121920D01*
X0112941Y0122757D01*
X0113525Y0123581D01*
X0114130Y0124389D01*
X0114753Y0125183D01*
X0115396Y0125962D01*
X0116057Y0126725D01*
X0116737Y0127472D01*
X0117434Y0128201D01*
X0118149Y0128914D01*
X0118881Y0129610D01*
X0119629Y0130287D01*
X0120394Y0130946D01*
X0121175Y0131587D01*
X0121970Y0132208D01*
X0122781Y0132810D01*
X0123606Y0133392D01*
X0124444Y0133954D01*
X0125296Y0134496D01*
X0126161Y0135017D01*
X0127038Y0135517D01*
X0127927Y0135995D01*
X0128828Y0136452D01*
X0129739Y0136886D01*
X0130660Y0137299D01*
X0131591Y0137689D01*
X0132532Y0138057D01*
X0133481Y0138401D01*
D13*
X0186634Y0120844D02*
X0188325Y0120844D01*
X0187480Y0120844D02*
X0187480Y0123888D01*
X0188325Y0123212D01*
X0190497Y0123888D02*
X0190446Y0123886D01*
X0190396Y0123880D01*
X0190347Y0123871D01*
X0190298Y0123858D01*
X0190250Y0123841D01*
X0190204Y0123821D01*
X0190159Y0123797D01*
X0190116Y0123771D01*
X0190076Y0123741D01*
X0190037Y0123708D01*
X0190001Y0123672D01*
X0189968Y0123633D01*
X0189938Y0123593D01*
X0189912Y0123550D01*
X0189888Y0123505D01*
X0189868Y0123459D01*
X0189851Y0123411D01*
X0189838Y0123362D01*
X0189829Y0123313D01*
X0189823Y0123263D01*
X0189821Y0123212D01*
X0189823Y0123161D01*
X0189829Y0123111D01*
X0189838Y0123062D01*
X0189851Y0123013D01*
X0189868Y0122965D01*
X0189888Y0122919D01*
X0189912Y0122874D01*
X0189938Y0122831D01*
X0189968Y0122791D01*
X0190001Y0122752D01*
X0190037Y0122716D01*
X0190076Y0122683D01*
X0190116Y0122653D01*
X0190159Y0122627D01*
X0190204Y0122603D01*
X0190250Y0122583D01*
X0190298Y0122566D01*
X0190347Y0122553D01*
X0190396Y0122544D01*
X0190446Y0122538D01*
X0190497Y0122536D01*
X0190497Y0122535D02*
X0191342Y0122535D01*
X0190497Y0122535D02*
X0190441Y0122533D01*
X0190384Y0122527D01*
X0190329Y0122518D01*
X0190274Y0122505D01*
X0190220Y0122488D01*
X0190167Y0122468D01*
X0190116Y0122444D01*
X0190066Y0122417D01*
X0190019Y0122387D01*
X0189973Y0122353D01*
X0189930Y0122317D01*
X0189890Y0122277D01*
X0189852Y0122236D01*
X0189817Y0122191D01*
X0189785Y0122145D01*
X0189756Y0122096D01*
X0189731Y0122046D01*
X0189708Y0121994D01*
X0189690Y0121940D01*
X0189675Y0121886D01*
X0189664Y0121831D01*
X0189656Y0121775D01*
X0189652Y0121718D01*
X0189652Y0121662D01*
X0189656Y0121605D01*
X0189664Y0121549D01*
X0189675Y0121494D01*
X0189690Y0121440D01*
X0189708Y0121386D01*
X0189731Y0121334D01*
X0189756Y0121284D01*
X0189785Y0121235D01*
X0189817Y0121189D01*
X0189852Y0121144D01*
X0189890Y0121103D01*
X0189930Y0121063D01*
X0189973Y0121027D01*
X0190019Y0120993D01*
X0190066Y0120963D01*
X0190116Y0120936D01*
X0190167Y0120912D01*
X0190220Y0120892D01*
X0190274Y0120875D01*
X0190329Y0120862D01*
X0190384Y0120853D01*
X0190441Y0120847D01*
X0190497Y0120845D01*
X0190497Y0120844D02*
X0191342Y0120844D01*
X0191342Y0123888D01*
X0190497Y0123888D01*
M02*
