G75*
%MOIN*%
%OFA0B0*%
%FSLAX25Y25*%
%IPPOS*%
%LPD*%
%AMOC8*
5,1,8,0,0,1.08239X$1,22.5*
%
%ADD10C,0.00000*%
%ADD11R,0.03937X0.07874*%
%ADD12R,0.07874X0.03937*%
%ADD13R,0.03150X0.03543*%
%ADD14R,0.04331X0.03937*%
%ADD15C,0.01181*%
%ADD16R,0.03937X0.04331*%
%ADD17R,0.03543X0.03937*%
%ADD18R,0.03150X0.01181*%
%ADD19R,0.10236X0.02362*%
%ADD20R,0.03543X0.03346*%
%ADD21R,0.01181X0.02362*%
%ADD22R,0.02362X0.01181*%
%ADD23R,0.03346X0.03543*%
D10*
X0060646Y0048835D02*
X0060646Y0149228D01*
X0213402Y0149228D01*
X0213402Y0048835D01*
X0060646Y0048835D01*
D11*
X0129406Y0064583D03*
X0134406Y0064583D03*
X0139406Y0064583D03*
X0144406Y0064583D03*
X0149406Y0064583D03*
X0154406Y0064583D03*
X0159406Y0064583D03*
X0164406Y0064583D03*
X0169406Y0064583D03*
X0174406Y0064583D03*
X0179406Y0064583D03*
X0184406Y0064583D03*
X0189406Y0064583D03*
X0194406Y0064583D03*
X0204406Y0064583D03*
X0209406Y0064583D03*
X0208146Y0133480D03*
X0203146Y0133480D03*
X0193146Y0133480D03*
X0188146Y0133480D03*
X0183146Y0133480D03*
X0178146Y0133480D03*
X0173146Y0133480D03*
X0168146Y0133480D03*
X0163146Y0133480D03*
X0158146Y0133480D03*
X0153146Y0133480D03*
X0148146Y0133480D03*
X0143146Y0133480D03*
X0138146Y0133480D03*
X0133146Y0133480D03*
X0128146Y0133480D03*
D12*
X0121276Y0126531D03*
X0121276Y0121531D03*
X0121276Y0116531D03*
X0121276Y0111531D03*
X0121276Y0106531D03*
X0121276Y0101531D03*
X0121276Y0096531D03*
X0121276Y0091531D03*
X0121276Y0086531D03*
X0121276Y0081531D03*
X0121276Y0076531D03*
X0121276Y0071531D03*
D13*
X0080921Y0127181D03*
X0073441Y0127181D03*
X0077181Y0135449D03*
D14*
X0073835Y0121669D03*
X0080528Y0121669D03*
X0106118Y0127181D03*
X0112811Y0127181D03*
D15*
X0111635Y0123047D02*
X0111635Y0120291D01*
X0111635Y0123047D02*
X0114391Y0123047D01*
X0114391Y0120291D01*
X0111635Y0120291D01*
X0111635Y0121471D02*
X0114391Y0121471D01*
X0114391Y0122651D02*
X0111635Y0122651D01*
X0104729Y0123047D02*
X0104729Y0120291D01*
X0104729Y0123047D02*
X0107485Y0123047D01*
X0107485Y0120291D01*
X0104729Y0120291D01*
X0104729Y0121471D02*
X0107485Y0121471D01*
X0107485Y0122651D02*
X0104729Y0122651D01*
X0104960Y0117766D02*
X0104960Y0115010D01*
X0104960Y0117766D02*
X0107716Y0117766D01*
X0107716Y0115010D01*
X0104960Y0115010D01*
X0104960Y0116190D02*
X0107716Y0116190D01*
X0107716Y0117370D02*
X0104960Y0117370D01*
X0111865Y0117766D02*
X0111865Y0115010D01*
X0111865Y0117766D02*
X0114621Y0117766D01*
X0114621Y0115010D01*
X0111865Y0115010D01*
X0111865Y0116190D02*
X0114621Y0116190D01*
X0114621Y0117370D02*
X0111865Y0117370D01*
D16*
X0100016Y0120291D03*
X0100016Y0126984D03*
X0087024Y0126591D03*
X0087024Y0133283D03*
X0067732Y0128559D03*
X0067732Y0121866D03*
X0090961Y0114780D03*
X0090961Y0108087D03*
D17*
X0080134Y0108283D03*
X0080134Y0114583D03*
X0063992Y0114583D03*
X0063992Y0108283D03*
X0068323Y0071669D03*
X0068323Y0065370D03*
X0084465Y0065370D03*
X0084465Y0071669D03*
D18*
X0076394Y0088205D03*
X0076394Y0090173D03*
X0076394Y0092142D03*
X0076394Y0094110D03*
X0076394Y0096079D03*
D19*
X0067339Y0099622D03*
X0067339Y0084661D03*
D20*
X0081118Y0083559D03*
X0081118Y0088126D03*
X0081118Y0093402D03*
X0081118Y0097969D03*
X0114189Y0100488D03*
X0114189Y0105055D03*
D21*
X0105134Y0101197D03*
X0103165Y0101197D03*
X0101197Y0101197D03*
X0099228Y0101197D03*
X0097260Y0101197D03*
X0097260Y0110646D03*
X0099228Y0110646D03*
X0101197Y0110646D03*
X0103165Y0110646D03*
X0105134Y0110646D03*
D22*
X0105921Y0107890D03*
X0105921Y0105921D03*
X0105921Y0103953D03*
X0096472Y0103953D03*
X0096472Y0105921D03*
X0096472Y0107890D03*
D23*
X0091079Y0101984D03*
X0086512Y0101984D03*
X0090843Y0096079D03*
X0095409Y0096079D03*
X0103638Y0095685D03*
X0108205Y0095685D03*
M02*
