G75*
%MOIN*%
%OFA0B0*%
%FSLAX25Y25*%
%IPPOS*%
%LPD*%
%AMOC8*
5,1,8,0,0,1.08239X$1,22.5*
%
%ADD10C,0.00000*%
%ADD11C,0.01000*%
%ADD12C,0.00600*%
%ADD13C,0.00500*%
%ADD14C,0.00800*%
%ADD15C,0.00394*%
%ADD16C,0.00591*%
%ADD17C,0.00400*%
%ADD18C,0.00787*%
%ADD19C,0.00984*%
D10*
X0080331Y0048835D02*
X0080331Y0149228D01*
X0213402Y0149228D01*
X0213402Y0048835D01*
X0080331Y0048835D01*
D11*
X0122769Y0083880D02*
X0122769Y0086080D01*
X0122869Y0085980D02*
X0123869Y0084980D01*
X0122869Y0083980D01*
X0123869Y0084980D02*
X0117401Y0084980D01*
X0115882Y0086280D02*
X0115882Y0092749D01*
X0114882Y0091749D01*
X0114782Y0091649D02*
X0116982Y0091649D01*
X0116882Y0091749D02*
X0115882Y0092749D01*
X0136154Y0087035D02*
X0139154Y0087035D01*
D12*
X0120806Y0082880D02*
X0118540Y0079480D01*
X0120806Y0079480D02*
X0118540Y0082880D01*
X0112125Y0087198D02*
X0112125Y0088993D01*
X0110991Y0090598D01*
X0112125Y0088993D02*
X0113258Y0090598D01*
D13*
X0107002Y0090920D02*
X0107002Y0090244D01*
X0107000Y0090193D01*
X0106994Y0090143D01*
X0106985Y0090094D01*
X0106972Y0090045D01*
X0106955Y0089997D01*
X0106935Y0089951D01*
X0106911Y0089906D01*
X0106885Y0089863D01*
X0106855Y0089823D01*
X0106822Y0089784D01*
X0106786Y0089748D01*
X0106747Y0089715D01*
X0106707Y0089685D01*
X0106664Y0089659D01*
X0106619Y0089635D01*
X0106573Y0089615D01*
X0106525Y0089598D01*
X0106476Y0089585D01*
X0106427Y0089576D01*
X0106377Y0089570D01*
X0106326Y0089568D01*
X0104635Y0089568D01*
X0104584Y0089570D01*
X0104534Y0089576D01*
X0104485Y0089585D01*
X0104436Y0089598D01*
X0104388Y0089615D01*
X0104342Y0089635D01*
X0104297Y0089659D01*
X0104254Y0089685D01*
X0104214Y0089715D01*
X0104175Y0089748D01*
X0104139Y0089784D01*
X0104106Y0089823D01*
X0104076Y0089863D01*
X0104050Y0089906D01*
X0104026Y0089951D01*
X0104006Y0089997D01*
X0103989Y0090045D01*
X0103976Y0090094D01*
X0103967Y0090143D01*
X0103961Y0090193D01*
X0103959Y0090244D01*
X0103959Y0090920D01*
X0103959Y0092238D02*
X0103959Y0093252D01*
X0103961Y0093303D01*
X0103967Y0093353D01*
X0103976Y0093402D01*
X0103989Y0093451D01*
X0104006Y0093499D01*
X0104026Y0093545D01*
X0104050Y0093590D01*
X0104076Y0093633D01*
X0104106Y0093673D01*
X0104139Y0093712D01*
X0104175Y0093748D01*
X0104214Y0093781D01*
X0104254Y0093811D01*
X0104297Y0093837D01*
X0104342Y0093861D01*
X0104388Y0093881D01*
X0104436Y0093898D01*
X0104485Y0093911D01*
X0104534Y0093920D01*
X0104584Y0093926D01*
X0104635Y0093928D01*
X0104686Y0093926D01*
X0104736Y0093920D01*
X0104785Y0093911D01*
X0104834Y0093898D01*
X0104882Y0093881D01*
X0104928Y0093861D01*
X0104973Y0093837D01*
X0105016Y0093811D01*
X0105056Y0093781D01*
X0105095Y0093748D01*
X0105131Y0093712D01*
X0105164Y0093673D01*
X0105194Y0093633D01*
X0105220Y0093590D01*
X0105244Y0093545D01*
X0105264Y0093499D01*
X0105281Y0093451D01*
X0105294Y0093402D01*
X0105303Y0093353D01*
X0105309Y0093303D01*
X0105311Y0093252D01*
X0105311Y0092576D01*
X0105312Y0093083D02*
X0105314Y0093139D01*
X0105320Y0093196D01*
X0105329Y0093251D01*
X0105342Y0093306D01*
X0105359Y0093360D01*
X0105379Y0093413D01*
X0105403Y0093464D01*
X0105430Y0093514D01*
X0105460Y0093561D01*
X0105494Y0093607D01*
X0105530Y0093650D01*
X0105570Y0093690D01*
X0105611Y0093728D01*
X0105656Y0093763D01*
X0105702Y0093795D01*
X0105751Y0093824D01*
X0105801Y0093849D01*
X0105853Y0093872D01*
X0105907Y0093890D01*
X0105961Y0093905D01*
X0106016Y0093916D01*
X0106072Y0093924D01*
X0106129Y0093928D01*
X0106185Y0093928D01*
X0106242Y0093924D01*
X0106298Y0093916D01*
X0106353Y0093905D01*
X0106407Y0093890D01*
X0106461Y0093872D01*
X0106513Y0093849D01*
X0106563Y0093824D01*
X0106612Y0093795D01*
X0106658Y0093763D01*
X0106703Y0093728D01*
X0106744Y0093690D01*
X0106784Y0093650D01*
X0106820Y0093607D01*
X0106854Y0093561D01*
X0106884Y0093514D01*
X0106911Y0093464D01*
X0106935Y0093413D01*
X0106955Y0093360D01*
X0106972Y0093306D01*
X0106985Y0093251D01*
X0106994Y0093196D01*
X0107000Y0093139D01*
X0107002Y0093083D01*
X0107002Y0092238D01*
X0109060Y0097048D02*
X0110751Y0097048D01*
X0110802Y0097050D01*
X0110852Y0097056D01*
X0110901Y0097065D01*
X0110950Y0097078D01*
X0110998Y0097095D01*
X0111044Y0097115D01*
X0111089Y0097139D01*
X0111132Y0097165D01*
X0111172Y0097195D01*
X0111211Y0097228D01*
X0111247Y0097264D01*
X0111280Y0097303D01*
X0111310Y0097343D01*
X0111336Y0097386D01*
X0111360Y0097431D01*
X0111380Y0097477D01*
X0111397Y0097525D01*
X0111410Y0097574D01*
X0111419Y0097623D01*
X0111425Y0097673D01*
X0111427Y0097724D01*
X0111427Y0098400D01*
X0110751Y0099718D02*
X0108384Y0100394D01*
X0110075Y0100902D02*
X0111427Y0100902D01*
X0110751Y0101409D02*
X0110751Y0099718D01*
X0108384Y0097724D02*
X0108386Y0097673D01*
X0108392Y0097623D01*
X0108401Y0097574D01*
X0108414Y0097525D01*
X0108431Y0097477D01*
X0108451Y0097431D01*
X0108475Y0097386D01*
X0108501Y0097343D01*
X0108531Y0097303D01*
X0108564Y0097264D01*
X0108600Y0097228D01*
X0108639Y0097195D01*
X0108679Y0097165D01*
X0108722Y0097139D01*
X0108767Y0097115D01*
X0108813Y0097095D01*
X0108861Y0097078D01*
X0108910Y0097065D01*
X0108959Y0097056D01*
X0109009Y0097050D01*
X0109060Y0097048D01*
X0108384Y0097724D02*
X0108384Y0098400D01*
X0113108Y0098042D02*
X0113108Y0097196D01*
X0116152Y0097196D01*
X0114799Y0097196D02*
X0114799Y0098042D01*
X0114799Y0098211D02*
X0116152Y0098887D01*
X0117620Y0098597D02*
X0117620Y0097921D01*
X0117622Y0097870D01*
X0117628Y0097820D01*
X0117637Y0097771D01*
X0117650Y0097722D01*
X0117667Y0097674D01*
X0117687Y0097628D01*
X0117711Y0097583D01*
X0117737Y0097540D01*
X0117767Y0097500D01*
X0117800Y0097461D01*
X0117836Y0097425D01*
X0117875Y0097392D01*
X0117915Y0097362D01*
X0117958Y0097336D01*
X0118003Y0097312D01*
X0118049Y0097292D01*
X0118097Y0097275D01*
X0118146Y0097262D01*
X0118195Y0097253D01*
X0118245Y0097247D01*
X0118296Y0097245D01*
X0119987Y0097245D01*
X0120038Y0097247D01*
X0120088Y0097253D01*
X0120137Y0097262D01*
X0120186Y0097275D01*
X0120234Y0097292D01*
X0120280Y0097312D01*
X0120325Y0097336D01*
X0120368Y0097362D01*
X0120408Y0097392D01*
X0120447Y0097425D01*
X0120483Y0097461D01*
X0120516Y0097500D01*
X0120546Y0097540D01*
X0120572Y0097583D01*
X0120596Y0097628D01*
X0120616Y0097674D01*
X0120633Y0097722D01*
X0120646Y0097771D01*
X0120655Y0097820D01*
X0120661Y0097870D01*
X0120663Y0097921D01*
X0120663Y0098597D01*
X0119818Y0099915D02*
X0119874Y0099917D01*
X0119931Y0099923D01*
X0119986Y0099932D01*
X0120041Y0099945D01*
X0120095Y0099962D01*
X0120148Y0099982D01*
X0120199Y0100006D01*
X0120249Y0100033D01*
X0120296Y0100063D01*
X0120342Y0100097D01*
X0120385Y0100133D01*
X0120425Y0100173D01*
X0120463Y0100214D01*
X0120498Y0100259D01*
X0120530Y0100305D01*
X0120559Y0100354D01*
X0120584Y0100404D01*
X0120607Y0100456D01*
X0120625Y0100510D01*
X0120640Y0100564D01*
X0120651Y0100619D01*
X0120659Y0100675D01*
X0120663Y0100732D01*
X0120663Y0100788D01*
X0120659Y0100845D01*
X0120651Y0100901D01*
X0120640Y0100956D01*
X0120625Y0101010D01*
X0120607Y0101064D01*
X0120584Y0101116D01*
X0120559Y0101166D01*
X0120530Y0101215D01*
X0120498Y0101261D01*
X0120463Y0101306D01*
X0120425Y0101347D01*
X0120385Y0101387D01*
X0120342Y0101423D01*
X0120296Y0101457D01*
X0120249Y0101487D01*
X0120199Y0101514D01*
X0120148Y0101538D01*
X0120095Y0101558D01*
X0120041Y0101575D01*
X0119986Y0101588D01*
X0119931Y0101597D01*
X0119874Y0101603D01*
X0119818Y0101605D01*
X0119762Y0101603D01*
X0119705Y0101597D01*
X0119650Y0101588D01*
X0119595Y0101575D01*
X0119541Y0101558D01*
X0119488Y0101538D01*
X0119437Y0101514D01*
X0119387Y0101487D01*
X0119340Y0101457D01*
X0119294Y0101423D01*
X0119251Y0101387D01*
X0119211Y0101347D01*
X0119173Y0101306D01*
X0119138Y0101261D01*
X0119106Y0101215D01*
X0119077Y0101166D01*
X0119052Y0101116D01*
X0119029Y0101064D01*
X0119011Y0101010D01*
X0118996Y0100956D01*
X0118985Y0100901D01*
X0118977Y0100845D01*
X0118973Y0100788D01*
X0118973Y0100732D01*
X0118977Y0100675D01*
X0118985Y0100619D01*
X0118996Y0100564D01*
X0119011Y0100510D01*
X0119029Y0100456D01*
X0119052Y0100404D01*
X0119077Y0100354D01*
X0119106Y0100305D01*
X0119138Y0100259D01*
X0119173Y0100214D01*
X0119211Y0100173D01*
X0119251Y0100133D01*
X0119294Y0100097D01*
X0119340Y0100063D01*
X0119387Y0100033D01*
X0119437Y0100006D01*
X0119488Y0099982D01*
X0119541Y0099962D01*
X0119595Y0099945D01*
X0119650Y0099932D01*
X0119705Y0099923D01*
X0119762Y0099917D01*
X0119818Y0099915D01*
X0118296Y0100084D02*
X0118347Y0100086D01*
X0118397Y0100092D01*
X0118446Y0100101D01*
X0118495Y0100114D01*
X0118543Y0100131D01*
X0118589Y0100151D01*
X0118634Y0100175D01*
X0118677Y0100201D01*
X0118717Y0100231D01*
X0118756Y0100264D01*
X0118792Y0100300D01*
X0118825Y0100339D01*
X0118855Y0100379D01*
X0118881Y0100422D01*
X0118905Y0100467D01*
X0118925Y0100513D01*
X0118942Y0100561D01*
X0118955Y0100610D01*
X0118964Y0100659D01*
X0118970Y0100709D01*
X0118972Y0100760D01*
X0118970Y0100811D01*
X0118964Y0100861D01*
X0118955Y0100910D01*
X0118942Y0100959D01*
X0118925Y0101007D01*
X0118905Y0101053D01*
X0118881Y0101098D01*
X0118855Y0101141D01*
X0118825Y0101181D01*
X0118792Y0101220D01*
X0118756Y0101256D01*
X0118717Y0101289D01*
X0118677Y0101319D01*
X0118634Y0101345D01*
X0118589Y0101369D01*
X0118543Y0101389D01*
X0118495Y0101406D01*
X0118446Y0101419D01*
X0118397Y0101428D01*
X0118347Y0101434D01*
X0118296Y0101436D01*
X0118245Y0101434D01*
X0118195Y0101428D01*
X0118146Y0101419D01*
X0118097Y0101406D01*
X0118049Y0101389D01*
X0118003Y0101369D01*
X0117958Y0101345D01*
X0117915Y0101319D01*
X0117875Y0101289D01*
X0117836Y0101256D01*
X0117800Y0101220D01*
X0117767Y0101181D01*
X0117737Y0101141D01*
X0117711Y0101098D01*
X0117687Y0101053D01*
X0117667Y0101007D01*
X0117650Y0100959D01*
X0117637Y0100910D01*
X0117628Y0100861D01*
X0117622Y0100811D01*
X0117620Y0100760D01*
X0117622Y0100709D01*
X0117628Y0100659D01*
X0117637Y0100610D01*
X0117650Y0100561D01*
X0117667Y0100513D01*
X0117687Y0100467D01*
X0117711Y0100422D01*
X0117737Y0100379D01*
X0117767Y0100339D01*
X0117800Y0100300D01*
X0117836Y0100264D01*
X0117875Y0100231D01*
X0117915Y0100201D01*
X0117958Y0100175D01*
X0118003Y0100151D01*
X0118049Y0100131D01*
X0118097Y0100114D01*
X0118146Y0100101D01*
X0118195Y0100092D01*
X0118245Y0100086D01*
X0118296Y0100084D01*
X0116152Y0101540D02*
X0114799Y0101540D01*
X0115475Y0102048D02*
X0115475Y0100357D01*
X0113108Y0101033D01*
X0113109Y0098042D02*
X0113111Y0098098D01*
X0113117Y0098155D01*
X0113126Y0098210D01*
X0113139Y0098265D01*
X0113156Y0098319D01*
X0113176Y0098372D01*
X0113200Y0098423D01*
X0113227Y0098473D01*
X0113257Y0098520D01*
X0113291Y0098566D01*
X0113327Y0098609D01*
X0113367Y0098649D01*
X0113408Y0098687D01*
X0113453Y0098722D01*
X0113499Y0098754D01*
X0113548Y0098783D01*
X0113598Y0098808D01*
X0113650Y0098831D01*
X0113704Y0098849D01*
X0113758Y0098864D01*
X0113813Y0098875D01*
X0113869Y0098883D01*
X0113926Y0098887D01*
X0113982Y0098887D01*
X0114039Y0098883D01*
X0114095Y0098875D01*
X0114150Y0098864D01*
X0114204Y0098849D01*
X0114258Y0098831D01*
X0114310Y0098808D01*
X0114360Y0098783D01*
X0114409Y0098754D01*
X0114455Y0098722D01*
X0114500Y0098687D01*
X0114541Y0098649D01*
X0114581Y0098609D01*
X0114617Y0098566D01*
X0114651Y0098520D01*
X0114681Y0098473D01*
X0114708Y0098423D01*
X0114732Y0098372D01*
X0114752Y0098319D01*
X0114769Y0098265D01*
X0114782Y0098210D01*
X0114791Y0098155D01*
X0114797Y0098098D01*
X0114799Y0098042D01*
X0126100Y0104614D02*
X0126100Y0105290D01*
X0126101Y0104614D02*
X0126103Y0104563D01*
X0126109Y0104513D01*
X0126118Y0104464D01*
X0126131Y0104415D01*
X0126148Y0104367D01*
X0126168Y0104321D01*
X0126192Y0104276D01*
X0126218Y0104233D01*
X0126248Y0104193D01*
X0126281Y0104154D01*
X0126317Y0104118D01*
X0126356Y0104085D01*
X0126396Y0104055D01*
X0126439Y0104029D01*
X0126484Y0104005D01*
X0126530Y0103985D01*
X0126578Y0103968D01*
X0126627Y0103955D01*
X0126676Y0103946D01*
X0126726Y0103940D01*
X0126777Y0103938D01*
X0128467Y0103938D01*
X0128518Y0103940D01*
X0128568Y0103946D01*
X0128617Y0103955D01*
X0128666Y0103968D01*
X0128714Y0103985D01*
X0128760Y0104005D01*
X0128805Y0104029D01*
X0128848Y0104055D01*
X0128888Y0104085D01*
X0128927Y0104118D01*
X0128963Y0104154D01*
X0128996Y0104193D01*
X0129026Y0104233D01*
X0129052Y0104276D01*
X0129076Y0104321D01*
X0129096Y0104367D01*
X0129113Y0104415D01*
X0129126Y0104464D01*
X0129135Y0104513D01*
X0129141Y0104563D01*
X0129143Y0104614D01*
X0129144Y0104614D02*
X0129144Y0105290D01*
X0128298Y0106608D02*
X0127453Y0106608D01*
X0127453Y0107622D01*
X0127453Y0106607D02*
X0127380Y0106609D01*
X0127307Y0106615D01*
X0127234Y0106625D01*
X0127162Y0106639D01*
X0127091Y0106656D01*
X0127021Y0106678D01*
X0126952Y0106703D01*
X0126885Y0106732D01*
X0126819Y0106765D01*
X0126755Y0106801D01*
X0126694Y0106840D01*
X0126634Y0106883D01*
X0126577Y0106929D01*
X0126523Y0106978D01*
X0126471Y0107030D01*
X0126422Y0107084D01*
X0126376Y0107141D01*
X0126333Y0107201D01*
X0126294Y0107262D01*
X0126258Y0107326D01*
X0126225Y0107392D01*
X0126196Y0107459D01*
X0126171Y0107528D01*
X0126149Y0107598D01*
X0126132Y0107669D01*
X0126118Y0107741D01*
X0126108Y0107814D01*
X0126102Y0107887D01*
X0126100Y0107960D01*
X0127453Y0107622D02*
X0127455Y0107673D01*
X0127461Y0107723D01*
X0127470Y0107772D01*
X0127483Y0107821D01*
X0127500Y0107869D01*
X0127520Y0107915D01*
X0127544Y0107960D01*
X0127570Y0108003D01*
X0127600Y0108043D01*
X0127633Y0108082D01*
X0127669Y0108118D01*
X0127708Y0108151D01*
X0127748Y0108181D01*
X0127791Y0108207D01*
X0127836Y0108231D01*
X0127882Y0108251D01*
X0127930Y0108268D01*
X0127979Y0108281D01*
X0128028Y0108290D01*
X0128078Y0108296D01*
X0128129Y0108298D01*
X0128129Y0108299D02*
X0128298Y0108299D01*
X0128298Y0108298D02*
X0128354Y0108296D01*
X0128411Y0108290D01*
X0128466Y0108281D01*
X0128521Y0108268D01*
X0128575Y0108251D01*
X0128628Y0108231D01*
X0128679Y0108207D01*
X0128729Y0108180D01*
X0128776Y0108150D01*
X0128822Y0108116D01*
X0128865Y0108080D01*
X0128905Y0108040D01*
X0128943Y0107999D01*
X0128978Y0107954D01*
X0129010Y0107908D01*
X0129039Y0107859D01*
X0129064Y0107809D01*
X0129087Y0107757D01*
X0129105Y0107703D01*
X0129120Y0107649D01*
X0129131Y0107594D01*
X0129139Y0107538D01*
X0129143Y0107481D01*
X0129143Y0107425D01*
X0129139Y0107368D01*
X0129131Y0107312D01*
X0129120Y0107257D01*
X0129105Y0107203D01*
X0129087Y0107149D01*
X0129064Y0107097D01*
X0129039Y0107047D01*
X0129010Y0106998D01*
X0128978Y0106952D01*
X0128943Y0106907D01*
X0128905Y0106866D01*
X0128865Y0106826D01*
X0128822Y0106790D01*
X0128776Y0106756D01*
X0128729Y0106726D01*
X0128679Y0106699D01*
X0128628Y0106675D01*
X0128575Y0106655D01*
X0128521Y0106638D01*
X0128466Y0106625D01*
X0128411Y0106616D01*
X0128354Y0106610D01*
X0128298Y0106608D01*
X0134221Y0110305D02*
X0134898Y0110305D01*
X0134559Y0110305D02*
X0134559Y0113348D01*
X0134221Y0113348D02*
X0134898Y0113348D01*
X0136252Y0112672D02*
X0136252Y0110981D01*
X0136253Y0110981D02*
X0136255Y0110930D01*
X0136261Y0110880D01*
X0136270Y0110831D01*
X0136283Y0110782D01*
X0136300Y0110734D01*
X0136320Y0110688D01*
X0136344Y0110643D01*
X0136370Y0110600D01*
X0136400Y0110560D01*
X0136433Y0110521D01*
X0136469Y0110485D01*
X0136508Y0110452D01*
X0136548Y0110422D01*
X0136591Y0110396D01*
X0136636Y0110372D01*
X0136682Y0110352D01*
X0136730Y0110335D01*
X0136779Y0110322D01*
X0136828Y0110313D01*
X0136878Y0110307D01*
X0136929Y0110305D01*
X0137605Y0110305D01*
X0138923Y0110305D02*
X0140613Y0110305D01*
X0139768Y0110305D02*
X0139768Y0113348D01*
X0138923Y0112672D01*
X0137605Y0113348D02*
X0136929Y0113348D01*
X0136878Y0113346D01*
X0136828Y0113340D01*
X0136779Y0113331D01*
X0136730Y0113318D01*
X0136682Y0113301D01*
X0136636Y0113281D01*
X0136591Y0113257D01*
X0136548Y0113231D01*
X0136508Y0113201D01*
X0136469Y0113168D01*
X0136433Y0113132D01*
X0136400Y0113093D01*
X0136370Y0113053D01*
X0136344Y0113010D01*
X0136320Y0112965D01*
X0136300Y0112919D01*
X0136283Y0112871D01*
X0136270Y0112822D01*
X0136261Y0112773D01*
X0136255Y0112723D01*
X0136253Y0112672D01*
X0137423Y0115700D02*
X0137423Y0116546D01*
X0137424Y0116546D02*
X0137426Y0116602D01*
X0137432Y0116659D01*
X0137441Y0116714D01*
X0137454Y0116769D01*
X0137471Y0116823D01*
X0137491Y0116876D01*
X0137515Y0116927D01*
X0137542Y0116977D01*
X0137572Y0117024D01*
X0137606Y0117070D01*
X0137642Y0117113D01*
X0137682Y0117153D01*
X0137723Y0117191D01*
X0137768Y0117226D01*
X0137814Y0117258D01*
X0137863Y0117287D01*
X0137913Y0117312D01*
X0137965Y0117335D01*
X0138019Y0117353D01*
X0138073Y0117368D01*
X0138128Y0117379D01*
X0138184Y0117387D01*
X0138241Y0117391D01*
X0138297Y0117391D01*
X0138354Y0117387D01*
X0138410Y0117379D01*
X0138465Y0117368D01*
X0138519Y0117353D01*
X0138573Y0117335D01*
X0138625Y0117312D01*
X0138675Y0117287D01*
X0138724Y0117258D01*
X0138770Y0117226D01*
X0138815Y0117191D01*
X0138856Y0117153D01*
X0138896Y0117113D01*
X0138932Y0117070D01*
X0138966Y0117024D01*
X0138996Y0116977D01*
X0139023Y0116927D01*
X0139047Y0116876D01*
X0139067Y0116823D01*
X0139084Y0116769D01*
X0139097Y0116714D01*
X0139106Y0116659D01*
X0139112Y0116602D01*
X0139114Y0116546D01*
X0139114Y0115700D01*
X0139114Y0116715D02*
X0140467Y0117391D01*
X0140467Y0118861D02*
X0140467Y0119875D01*
X0140466Y0119875D02*
X0140464Y0119926D01*
X0140458Y0119976D01*
X0140449Y0120025D01*
X0140436Y0120074D01*
X0140419Y0120122D01*
X0140399Y0120168D01*
X0140375Y0120213D01*
X0140349Y0120256D01*
X0140319Y0120296D01*
X0140286Y0120335D01*
X0140250Y0120371D01*
X0140211Y0120404D01*
X0140171Y0120434D01*
X0140128Y0120460D01*
X0140083Y0120484D01*
X0140037Y0120504D01*
X0139989Y0120521D01*
X0139940Y0120534D01*
X0139891Y0120543D01*
X0139841Y0120549D01*
X0139790Y0120551D01*
X0139790Y0120552D02*
X0139452Y0120552D01*
X0139452Y0120551D02*
X0139401Y0120549D01*
X0139351Y0120543D01*
X0139302Y0120534D01*
X0139253Y0120521D01*
X0139205Y0120504D01*
X0139159Y0120484D01*
X0139114Y0120460D01*
X0139071Y0120434D01*
X0139031Y0120404D01*
X0138992Y0120371D01*
X0138956Y0120335D01*
X0138923Y0120296D01*
X0138893Y0120256D01*
X0138867Y0120213D01*
X0138843Y0120168D01*
X0138823Y0120122D01*
X0138806Y0120074D01*
X0138793Y0120025D01*
X0138784Y0119976D01*
X0138778Y0119926D01*
X0138776Y0119875D01*
X0138776Y0118861D01*
X0137423Y0118861D01*
X0137423Y0120552D01*
X0144722Y0116902D02*
X0147766Y0116902D01*
X0147766Y0116057D02*
X0147766Y0117747D01*
X0145399Y0116057D02*
X0144722Y0116902D01*
X0144722Y0114739D02*
X0144722Y0114063D01*
X0144723Y0114063D02*
X0144725Y0114012D01*
X0144731Y0113962D01*
X0144740Y0113913D01*
X0144753Y0113864D01*
X0144770Y0113816D01*
X0144790Y0113770D01*
X0144814Y0113725D01*
X0144840Y0113682D01*
X0144870Y0113642D01*
X0144903Y0113603D01*
X0144939Y0113567D01*
X0144978Y0113534D01*
X0145018Y0113504D01*
X0145061Y0113478D01*
X0145106Y0113454D01*
X0145152Y0113434D01*
X0145200Y0113417D01*
X0145249Y0113404D01*
X0145298Y0113395D01*
X0145348Y0113389D01*
X0145399Y0113387D01*
X0145399Y0113386D02*
X0147089Y0113386D01*
X0147089Y0113387D02*
X0147140Y0113389D01*
X0147190Y0113395D01*
X0147239Y0113404D01*
X0147288Y0113417D01*
X0147336Y0113434D01*
X0147382Y0113454D01*
X0147427Y0113478D01*
X0147470Y0113504D01*
X0147510Y0113534D01*
X0147549Y0113567D01*
X0147585Y0113603D01*
X0147618Y0113642D01*
X0147648Y0113682D01*
X0147674Y0113725D01*
X0147698Y0113770D01*
X0147718Y0113816D01*
X0147735Y0113864D01*
X0147748Y0113913D01*
X0147757Y0113962D01*
X0147763Y0114012D01*
X0147765Y0114063D01*
X0147766Y0114063D02*
X0147766Y0114739D01*
X0140467Y0115700D02*
X0137423Y0115700D01*
X0130750Y0122509D02*
X0130750Y0124200D01*
X0129397Y0124200D01*
X0129397Y0123185D01*
X0129395Y0123134D01*
X0129389Y0123084D01*
X0129380Y0123035D01*
X0129367Y0122986D01*
X0129350Y0122938D01*
X0129330Y0122892D01*
X0129306Y0122847D01*
X0129280Y0122804D01*
X0129250Y0122764D01*
X0129217Y0122725D01*
X0129181Y0122689D01*
X0129142Y0122656D01*
X0129102Y0122626D01*
X0129059Y0122600D01*
X0129014Y0122576D01*
X0128968Y0122556D01*
X0128920Y0122539D01*
X0128871Y0122526D01*
X0128822Y0122517D01*
X0128772Y0122511D01*
X0128721Y0122509D01*
X0128383Y0122509D01*
X0128332Y0122511D01*
X0128282Y0122517D01*
X0128233Y0122526D01*
X0128184Y0122539D01*
X0128136Y0122556D01*
X0128090Y0122576D01*
X0128045Y0122600D01*
X0128002Y0122626D01*
X0127962Y0122656D01*
X0127923Y0122689D01*
X0127887Y0122725D01*
X0127854Y0122764D01*
X0127824Y0122804D01*
X0127798Y0122847D01*
X0127774Y0122892D01*
X0127754Y0122938D01*
X0127737Y0122986D01*
X0127724Y0123035D01*
X0127715Y0123084D01*
X0127709Y0123134D01*
X0127707Y0123185D01*
X0127707Y0124200D01*
X0128129Y0127135D02*
X0128215Y0127175D01*
X0128302Y0127212D01*
X0128391Y0127245D01*
X0128481Y0127275D01*
X0128572Y0127302D01*
X0128664Y0127325D01*
X0128757Y0127344D01*
X0128850Y0127360D01*
X0128944Y0127373D01*
X0129039Y0127382D01*
X0129133Y0127387D01*
X0129228Y0127389D01*
X0129228Y0125698D02*
X0129323Y0125700D01*
X0129417Y0125705D01*
X0129512Y0125714D01*
X0129606Y0125727D01*
X0129699Y0125743D01*
X0129792Y0125762D01*
X0129884Y0125785D01*
X0129975Y0125812D01*
X0130065Y0125842D01*
X0130154Y0125875D01*
X0130241Y0125912D01*
X0130327Y0125952D01*
X0130074Y0125867D02*
X0128383Y0127220D01*
X0127706Y0126543D02*
X0127708Y0126495D01*
X0127714Y0126446D01*
X0127723Y0126399D01*
X0127736Y0126352D01*
X0127752Y0126306D01*
X0127773Y0126262D01*
X0127796Y0126220D01*
X0127823Y0126179D01*
X0127852Y0126141D01*
X0127885Y0126105D01*
X0127920Y0126072D01*
X0127958Y0126041D01*
X0127998Y0126014D01*
X0128040Y0125989D01*
X0128084Y0125968D01*
X0128129Y0125951D01*
X0127706Y0126543D02*
X0127708Y0126591D01*
X0127714Y0126640D01*
X0127723Y0126687D01*
X0127736Y0126734D01*
X0127752Y0126780D01*
X0127773Y0126824D01*
X0127796Y0126866D01*
X0127823Y0126907D01*
X0127852Y0126945D01*
X0127885Y0126981D01*
X0127920Y0127014D01*
X0127958Y0127045D01*
X0127998Y0127072D01*
X0128040Y0127097D01*
X0128084Y0127118D01*
X0128129Y0127135D01*
X0128129Y0125952D02*
X0128215Y0125912D01*
X0128302Y0125875D01*
X0128391Y0125842D01*
X0128481Y0125812D01*
X0128572Y0125785D01*
X0128664Y0125762D01*
X0128757Y0125743D01*
X0128850Y0125727D01*
X0128944Y0125714D01*
X0129039Y0125705D01*
X0129133Y0125700D01*
X0129228Y0125698D01*
X0129228Y0127389D02*
X0129323Y0127387D01*
X0129417Y0127382D01*
X0129512Y0127373D01*
X0129606Y0127360D01*
X0129699Y0127344D01*
X0129792Y0127325D01*
X0129884Y0127302D01*
X0129975Y0127275D01*
X0130065Y0127245D01*
X0130154Y0127212D01*
X0130241Y0127175D01*
X0130327Y0127135D01*
X0130750Y0126543D02*
X0130748Y0126495D01*
X0130742Y0126446D01*
X0130733Y0126399D01*
X0130720Y0126352D01*
X0130704Y0126306D01*
X0130683Y0126262D01*
X0130660Y0126220D01*
X0130633Y0126179D01*
X0130604Y0126141D01*
X0130571Y0126105D01*
X0130536Y0126072D01*
X0130498Y0126041D01*
X0130458Y0126014D01*
X0130416Y0125989D01*
X0130372Y0125968D01*
X0130327Y0125951D01*
X0130750Y0126543D02*
X0130748Y0126591D01*
X0130742Y0126640D01*
X0130733Y0126687D01*
X0130720Y0126734D01*
X0130704Y0126780D01*
X0130683Y0126824D01*
X0130660Y0126866D01*
X0130633Y0126907D01*
X0130604Y0126945D01*
X0130571Y0126981D01*
X0130536Y0127014D01*
X0130498Y0127045D01*
X0130458Y0127072D01*
X0130416Y0127097D01*
X0130372Y0127118D01*
X0130327Y0127135D01*
X0127876Y0128691D02*
X0127707Y0128691D01*
X0127707Y0128860D01*
X0127876Y0128860D01*
X0127876Y0128691D01*
X0128129Y0131599D02*
X0128215Y0131639D01*
X0128302Y0131676D01*
X0128391Y0131709D01*
X0128481Y0131739D01*
X0128572Y0131766D01*
X0128664Y0131789D01*
X0128757Y0131808D01*
X0128850Y0131824D01*
X0128944Y0131837D01*
X0129039Y0131846D01*
X0129133Y0131851D01*
X0129228Y0131853D01*
X0129228Y0130162D02*
X0129323Y0130164D01*
X0129417Y0130169D01*
X0129512Y0130178D01*
X0129606Y0130191D01*
X0129699Y0130207D01*
X0129792Y0130226D01*
X0129884Y0130249D01*
X0129975Y0130276D01*
X0130065Y0130306D01*
X0130154Y0130339D01*
X0130241Y0130376D01*
X0130327Y0130416D01*
X0130074Y0130332D02*
X0128383Y0131684D01*
X0127706Y0131008D02*
X0127708Y0130960D01*
X0127714Y0130911D01*
X0127723Y0130864D01*
X0127736Y0130817D01*
X0127752Y0130771D01*
X0127773Y0130727D01*
X0127796Y0130685D01*
X0127823Y0130644D01*
X0127852Y0130606D01*
X0127885Y0130570D01*
X0127920Y0130537D01*
X0127958Y0130506D01*
X0127998Y0130479D01*
X0128040Y0130454D01*
X0128084Y0130433D01*
X0128129Y0130416D01*
X0127706Y0131008D02*
X0127708Y0131056D01*
X0127714Y0131105D01*
X0127723Y0131152D01*
X0127736Y0131199D01*
X0127752Y0131245D01*
X0127773Y0131289D01*
X0127796Y0131331D01*
X0127823Y0131372D01*
X0127852Y0131410D01*
X0127885Y0131446D01*
X0127920Y0131479D01*
X0127958Y0131510D01*
X0127998Y0131537D01*
X0128040Y0131562D01*
X0128084Y0131583D01*
X0128129Y0131600D01*
X0128129Y0130416D02*
X0128215Y0130376D01*
X0128302Y0130339D01*
X0128391Y0130306D01*
X0128481Y0130276D01*
X0128572Y0130249D01*
X0128664Y0130226D01*
X0128757Y0130207D01*
X0128850Y0130191D01*
X0128944Y0130178D01*
X0129039Y0130169D01*
X0129133Y0130164D01*
X0129228Y0130162D01*
X0129228Y0131853D02*
X0129323Y0131851D01*
X0129417Y0131846D01*
X0129512Y0131837D01*
X0129606Y0131824D01*
X0129699Y0131808D01*
X0129792Y0131789D01*
X0129884Y0131766D01*
X0129975Y0131739D01*
X0130065Y0131709D01*
X0130154Y0131676D01*
X0130241Y0131639D01*
X0130327Y0131599D01*
X0130750Y0131008D02*
X0130748Y0130960D01*
X0130742Y0130911D01*
X0130733Y0130864D01*
X0130720Y0130817D01*
X0130704Y0130771D01*
X0130683Y0130727D01*
X0130660Y0130685D01*
X0130633Y0130644D01*
X0130604Y0130606D01*
X0130571Y0130570D01*
X0130536Y0130537D01*
X0130498Y0130506D01*
X0130458Y0130479D01*
X0130416Y0130454D01*
X0130372Y0130433D01*
X0130327Y0130416D01*
X0130750Y0131008D02*
X0130748Y0131056D01*
X0130742Y0131105D01*
X0130733Y0131152D01*
X0130720Y0131199D01*
X0130704Y0131245D01*
X0130683Y0131289D01*
X0130660Y0131331D01*
X0130633Y0131372D01*
X0130604Y0131410D01*
X0130571Y0131446D01*
X0130536Y0131479D01*
X0130498Y0131510D01*
X0130458Y0131537D01*
X0130416Y0131562D01*
X0130372Y0131583D01*
X0130327Y0131600D01*
X0135344Y0129709D02*
X0136697Y0129709D01*
X0136021Y0129202D02*
X0136021Y0130893D01*
X0138388Y0130216D01*
X0136866Y0134082D02*
X0136771Y0134080D01*
X0136677Y0134075D01*
X0136582Y0134066D01*
X0136488Y0134053D01*
X0136395Y0134037D01*
X0136302Y0134018D01*
X0136210Y0133995D01*
X0136119Y0133968D01*
X0136029Y0133938D01*
X0135940Y0133905D01*
X0135853Y0133868D01*
X0135767Y0133828D01*
X0136021Y0133913D02*
X0137712Y0132560D01*
X0137965Y0132644D02*
X0138010Y0132661D01*
X0138054Y0132682D01*
X0138096Y0132707D01*
X0138136Y0132734D01*
X0138174Y0132765D01*
X0138209Y0132798D01*
X0138242Y0132834D01*
X0138271Y0132872D01*
X0138298Y0132913D01*
X0138321Y0132955D01*
X0138342Y0132999D01*
X0138358Y0133045D01*
X0138371Y0133092D01*
X0138380Y0133139D01*
X0138386Y0133188D01*
X0138388Y0133236D01*
X0138386Y0133284D01*
X0138380Y0133333D01*
X0138371Y0133380D01*
X0138358Y0133427D01*
X0138342Y0133473D01*
X0138321Y0133517D01*
X0138298Y0133559D01*
X0138271Y0133600D01*
X0138242Y0133638D01*
X0138209Y0133674D01*
X0138174Y0133707D01*
X0138136Y0133738D01*
X0138096Y0133765D01*
X0138054Y0133790D01*
X0138010Y0133811D01*
X0137965Y0133828D01*
X0137965Y0132645D02*
X0137879Y0132605D01*
X0137792Y0132568D01*
X0137703Y0132535D01*
X0137613Y0132505D01*
X0137522Y0132478D01*
X0137430Y0132455D01*
X0137337Y0132436D01*
X0137244Y0132420D01*
X0137150Y0132407D01*
X0137055Y0132398D01*
X0136961Y0132393D01*
X0136866Y0132391D01*
X0136866Y0134082D02*
X0136961Y0134080D01*
X0137055Y0134075D01*
X0137150Y0134066D01*
X0137244Y0134053D01*
X0137337Y0134037D01*
X0137430Y0134018D01*
X0137522Y0133995D01*
X0137613Y0133968D01*
X0137703Y0133938D01*
X0137792Y0133905D01*
X0137879Y0133868D01*
X0137965Y0133828D01*
X0136866Y0132391D02*
X0136771Y0132393D01*
X0136677Y0132398D01*
X0136582Y0132407D01*
X0136488Y0132420D01*
X0136395Y0132436D01*
X0136302Y0132455D01*
X0136210Y0132478D01*
X0136119Y0132505D01*
X0136029Y0132535D01*
X0135940Y0132568D01*
X0135853Y0132605D01*
X0135767Y0132645D01*
X0135767Y0132644D02*
X0135722Y0132661D01*
X0135678Y0132682D01*
X0135636Y0132707D01*
X0135596Y0132734D01*
X0135558Y0132765D01*
X0135523Y0132798D01*
X0135490Y0132834D01*
X0135461Y0132872D01*
X0135434Y0132913D01*
X0135411Y0132955D01*
X0135390Y0132999D01*
X0135374Y0133045D01*
X0135361Y0133092D01*
X0135352Y0133139D01*
X0135346Y0133188D01*
X0135344Y0133236D01*
X0135346Y0133284D01*
X0135352Y0133333D01*
X0135361Y0133380D01*
X0135374Y0133427D01*
X0135390Y0133473D01*
X0135411Y0133517D01*
X0135434Y0133559D01*
X0135461Y0133600D01*
X0135490Y0133638D01*
X0135523Y0133674D01*
X0135558Y0133707D01*
X0135596Y0133738D01*
X0135636Y0133765D01*
X0135678Y0133790D01*
X0135722Y0133811D01*
X0135767Y0133828D01*
X0135514Y0135384D02*
X0135344Y0135384D01*
X0135344Y0135553D01*
X0135514Y0135553D01*
X0135514Y0135384D01*
X0135767Y0138292D02*
X0135853Y0138332D01*
X0135940Y0138369D01*
X0136029Y0138402D01*
X0136119Y0138432D01*
X0136210Y0138459D01*
X0136302Y0138482D01*
X0136395Y0138501D01*
X0136488Y0138517D01*
X0136582Y0138530D01*
X0136677Y0138539D01*
X0136771Y0138544D01*
X0136866Y0138546D01*
X0136866Y0136855D02*
X0136961Y0136857D01*
X0137055Y0136862D01*
X0137150Y0136871D01*
X0137244Y0136884D01*
X0137337Y0136900D01*
X0137430Y0136919D01*
X0137522Y0136942D01*
X0137613Y0136969D01*
X0137703Y0136999D01*
X0137792Y0137032D01*
X0137879Y0137069D01*
X0137965Y0137109D01*
X0137712Y0137024D02*
X0136021Y0138377D01*
X0135344Y0137701D02*
X0135346Y0137653D01*
X0135352Y0137604D01*
X0135361Y0137557D01*
X0135374Y0137510D01*
X0135390Y0137464D01*
X0135411Y0137420D01*
X0135434Y0137378D01*
X0135461Y0137337D01*
X0135490Y0137299D01*
X0135523Y0137263D01*
X0135558Y0137230D01*
X0135596Y0137199D01*
X0135636Y0137172D01*
X0135678Y0137147D01*
X0135722Y0137126D01*
X0135767Y0137109D01*
X0135344Y0137701D02*
X0135346Y0137749D01*
X0135352Y0137798D01*
X0135361Y0137845D01*
X0135374Y0137892D01*
X0135390Y0137938D01*
X0135411Y0137982D01*
X0135434Y0138024D01*
X0135461Y0138065D01*
X0135490Y0138103D01*
X0135523Y0138139D01*
X0135558Y0138172D01*
X0135596Y0138203D01*
X0135636Y0138230D01*
X0135678Y0138255D01*
X0135722Y0138276D01*
X0135767Y0138293D01*
X0135767Y0137109D02*
X0135853Y0137069D01*
X0135940Y0137032D01*
X0136029Y0136999D01*
X0136119Y0136969D01*
X0136210Y0136942D01*
X0136302Y0136919D01*
X0136395Y0136900D01*
X0136488Y0136884D01*
X0136582Y0136871D01*
X0136677Y0136862D01*
X0136771Y0136857D01*
X0136866Y0136855D01*
X0136866Y0138546D02*
X0136961Y0138544D01*
X0137055Y0138539D01*
X0137150Y0138530D01*
X0137244Y0138517D01*
X0137337Y0138501D01*
X0137430Y0138482D01*
X0137522Y0138459D01*
X0137613Y0138432D01*
X0137703Y0138402D01*
X0137792Y0138369D01*
X0137879Y0138332D01*
X0137965Y0138292D01*
X0138388Y0137701D02*
X0138386Y0137653D01*
X0138380Y0137604D01*
X0138371Y0137557D01*
X0138358Y0137510D01*
X0138342Y0137464D01*
X0138321Y0137420D01*
X0138298Y0137378D01*
X0138271Y0137337D01*
X0138242Y0137299D01*
X0138209Y0137263D01*
X0138174Y0137230D01*
X0138136Y0137199D01*
X0138096Y0137172D01*
X0138054Y0137147D01*
X0138010Y0137126D01*
X0137965Y0137109D01*
X0138388Y0137701D02*
X0138386Y0137749D01*
X0138380Y0137798D01*
X0138371Y0137845D01*
X0138358Y0137892D01*
X0138342Y0137938D01*
X0138321Y0137982D01*
X0138298Y0138024D01*
X0138271Y0138065D01*
X0138242Y0138103D01*
X0138209Y0138139D01*
X0138174Y0138172D01*
X0138136Y0138203D01*
X0138096Y0138230D01*
X0138054Y0138255D01*
X0138010Y0138276D01*
X0137965Y0138293D01*
X0145344Y0135553D02*
X0145344Y0135384D01*
X0145514Y0135384D01*
X0145514Y0135553D01*
X0145344Y0135553D01*
X0145344Y0134082D02*
X0145344Y0133236D01*
X0145345Y0133236D02*
X0145347Y0133180D01*
X0145353Y0133123D01*
X0145362Y0133068D01*
X0145375Y0133013D01*
X0145392Y0132959D01*
X0145412Y0132906D01*
X0145436Y0132855D01*
X0145463Y0132805D01*
X0145493Y0132758D01*
X0145527Y0132712D01*
X0145563Y0132669D01*
X0145603Y0132629D01*
X0145644Y0132591D01*
X0145689Y0132556D01*
X0145735Y0132524D01*
X0145784Y0132495D01*
X0145834Y0132470D01*
X0145886Y0132447D01*
X0145940Y0132429D01*
X0145994Y0132414D01*
X0146049Y0132403D01*
X0146105Y0132395D01*
X0146162Y0132391D01*
X0146218Y0132391D01*
X0146275Y0132395D01*
X0146331Y0132403D01*
X0146386Y0132414D01*
X0146440Y0132429D01*
X0146494Y0132447D01*
X0146546Y0132470D01*
X0146596Y0132495D01*
X0146645Y0132524D01*
X0146691Y0132556D01*
X0146736Y0132591D01*
X0146777Y0132629D01*
X0146817Y0132669D01*
X0146853Y0132712D01*
X0146887Y0132758D01*
X0146917Y0132805D01*
X0146944Y0132855D01*
X0146968Y0132906D01*
X0146988Y0132959D01*
X0147005Y0133013D01*
X0147018Y0133068D01*
X0147027Y0133123D01*
X0147033Y0133180D01*
X0147035Y0133236D01*
X0147035Y0133067D02*
X0147035Y0133743D01*
X0147036Y0133067D02*
X0147038Y0133016D01*
X0147044Y0132966D01*
X0147053Y0132917D01*
X0147066Y0132868D01*
X0147083Y0132820D01*
X0147103Y0132774D01*
X0147127Y0132729D01*
X0147153Y0132686D01*
X0147183Y0132646D01*
X0147216Y0132607D01*
X0147252Y0132571D01*
X0147291Y0132538D01*
X0147331Y0132508D01*
X0147374Y0132482D01*
X0147419Y0132458D01*
X0147465Y0132438D01*
X0147513Y0132421D01*
X0147562Y0132408D01*
X0147611Y0132399D01*
X0147661Y0132393D01*
X0147712Y0132391D01*
X0147763Y0132393D01*
X0147813Y0132399D01*
X0147862Y0132408D01*
X0147911Y0132421D01*
X0147959Y0132438D01*
X0148005Y0132458D01*
X0148050Y0132482D01*
X0148093Y0132508D01*
X0148133Y0132538D01*
X0148172Y0132571D01*
X0148208Y0132607D01*
X0148241Y0132646D01*
X0148271Y0132686D01*
X0148297Y0132729D01*
X0148321Y0132774D01*
X0148341Y0132820D01*
X0148358Y0132868D01*
X0148371Y0132917D01*
X0148380Y0132966D01*
X0148386Y0133016D01*
X0148388Y0133067D01*
X0148388Y0134082D01*
X0146866Y0138546D02*
X0146771Y0138544D01*
X0146677Y0138539D01*
X0146582Y0138530D01*
X0146488Y0138517D01*
X0146395Y0138501D01*
X0146302Y0138482D01*
X0146210Y0138459D01*
X0146119Y0138432D01*
X0146029Y0138402D01*
X0145940Y0138369D01*
X0145853Y0138332D01*
X0145767Y0138292D01*
X0146021Y0138377D02*
X0147712Y0137024D01*
X0147965Y0137109D02*
X0148010Y0137126D01*
X0148054Y0137147D01*
X0148096Y0137172D01*
X0148136Y0137199D01*
X0148174Y0137230D01*
X0148209Y0137263D01*
X0148242Y0137299D01*
X0148271Y0137337D01*
X0148298Y0137378D01*
X0148321Y0137420D01*
X0148342Y0137464D01*
X0148358Y0137510D01*
X0148371Y0137557D01*
X0148380Y0137604D01*
X0148386Y0137653D01*
X0148388Y0137701D01*
X0148386Y0137749D01*
X0148380Y0137798D01*
X0148371Y0137845D01*
X0148358Y0137892D01*
X0148342Y0137938D01*
X0148321Y0137982D01*
X0148298Y0138024D01*
X0148271Y0138065D01*
X0148242Y0138103D01*
X0148209Y0138139D01*
X0148174Y0138172D01*
X0148136Y0138203D01*
X0148096Y0138230D01*
X0148054Y0138255D01*
X0148010Y0138276D01*
X0147965Y0138293D01*
X0147965Y0137109D02*
X0147879Y0137069D01*
X0147792Y0137032D01*
X0147703Y0136999D01*
X0147613Y0136969D01*
X0147522Y0136942D01*
X0147430Y0136919D01*
X0147337Y0136900D01*
X0147244Y0136884D01*
X0147150Y0136871D01*
X0147055Y0136862D01*
X0146961Y0136857D01*
X0146866Y0136855D01*
X0146866Y0138546D02*
X0146961Y0138544D01*
X0147055Y0138539D01*
X0147150Y0138530D01*
X0147244Y0138517D01*
X0147337Y0138501D01*
X0147430Y0138482D01*
X0147522Y0138459D01*
X0147613Y0138432D01*
X0147703Y0138402D01*
X0147792Y0138369D01*
X0147879Y0138332D01*
X0147965Y0138292D01*
X0146866Y0136855D02*
X0146771Y0136857D01*
X0146677Y0136862D01*
X0146582Y0136871D01*
X0146488Y0136884D01*
X0146395Y0136900D01*
X0146302Y0136919D01*
X0146210Y0136942D01*
X0146119Y0136969D01*
X0146029Y0136999D01*
X0145940Y0137032D01*
X0145853Y0137069D01*
X0145767Y0137109D01*
X0145722Y0137126D01*
X0145678Y0137147D01*
X0145636Y0137172D01*
X0145596Y0137199D01*
X0145558Y0137230D01*
X0145523Y0137263D01*
X0145490Y0137299D01*
X0145461Y0137337D01*
X0145434Y0137378D01*
X0145411Y0137420D01*
X0145390Y0137464D01*
X0145374Y0137510D01*
X0145361Y0137557D01*
X0145352Y0137604D01*
X0145346Y0137653D01*
X0145344Y0137701D01*
X0145346Y0137749D01*
X0145352Y0137798D01*
X0145361Y0137845D01*
X0145374Y0137892D01*
X0145390Y0137938D01*
X0145411Y0137982D01*
X0145434Y0138024D01*
X0145461Y0138065D01*
X0145490Y0138103D01*
X0145523Y0138139D01*
X0145558Y0138172D01*
X0145596Y0138203D01*
X0145636Y0138230D01*
X0145678Y0138255D01*
X0145722Y0138276D01*
X0145767Y0138293D01*
X0151801Y0135553D02*
X0151801Y0135384D01*
X0151970Y0135384D01*
X0151970Y0135553D01*
X0151801Y0135553D01*
X0151801Y0134082D02*
X0151801Y0133236D01*
X0151802Y0133236D02*
X0151804Y0133180D01*
X0151810Y0133123D01*
X0151819Y0133068D01*
X0151832Y0133013D01*
X0151849Y0132959D01*
X0151869Y0132906D01*
X0151893Y0132855D01*
X0151920Y0132805D01*
X0151950Y0132758D01*
X0151984Y0132712D01*
X0152020Y0132669D01*
X0152060Y0132629D01*
X0152101Y0132591D01*
X0152146Y0132556D01*
X0152192Y0132524D01*
X0152241Y0132495D01*
X0152291Y0132470D01*
X0152343Y0132447D01*
X0152397Y0132429D01*
X0152451Y0132414D01*
X0152506Y0132403D01*
X0152562Y0132395D01*
X0152619Y0132391D01*
X0152675Y0132391D01*
X0152732Y0132395D01*
X0152788Y0132403D01*
X0152843Y0132414D01*
X0152897Y0132429D01*
X0152951Y0132447D01*
X0153003Y0132470D01*
X0153053Y0132495D01*
X0153102Y0132524D01*
X0153148Y0132556D01*
X0153193Y0132591D01*
X0153234Y0132629D01*
X0153274Y0132669D01*
X0153310Y0132712D01*
X0153344Y0132758D01*
X0153374Y0132805D01*
X0153401Y0132855D01*
X0153425Y0132906D01*
X0153445Y0132959D01*
X0153462Y0133013D01*
X0153475Y0133068D01*
X0153484Y0133123D01*
X0153490Y0133180D01*
X0153492Y0133236D01*
X0153492Y0133067D02*
X0153492Y0133743D01*
X0153492Y0133067D02*
X0153494Y0133016D01*
X0153500Y0132966D01*
X0153509Y0132917D01*
X0153522Y0132868D01*
X0153539Y0132820D01*
X0153559Y0132774D01*
X0153583Y0132729D01*
X0153609Y0132686D01*
X0153639Y0132646D01*
X0153672Y0132607D01*
X0153708Y0132571D01*
X0153747Y0132538D01*
X0153787Y0132508D01*
X0153830Y0132482D01*
X0153875Y0132458D01*
X0153921Y0132438D01*
X0153969Y0132421D01*
X0154018Y0132408D01*
X0154067Y0132399D01*
X0154117Y0132393D01*
X0154168Y0132391D01*
X0154219Y0132393D01*
X0154269Y0132399D01*
X0154318Y0132408D01*
X0154367Y0132421D01*
X0154415Y0132438D01*
X0154461Y0132458D01*
X0154506Y0132482D01*
X0154549Y0132508D01*
X0154589Y0132538D01*
X0154628Y0132571D01*
X0154664Y0132607D01*
X0154697Y0132646D01*
X0154727Y0132686D01*
X0154753Y0132729D01*
X0154777Y0132774D01*
X0154797Y0132820D01*
X0154814Y0132868D01*
X0154827Y0132917D01*
X0154836Y0132966D01*
X0154842Y0133016D01*
X0154844Y0133067D01*
X0154844Y0134082D01*
X0153323Y0138546D02*
X0153228Y0138544D01*
X0153134Y0138539D01*
X0153039Y0138530D01*
X0152945Y0138517D01*
X0152852Y0138501D01*
X0152759Y0138482D01*
X0152667Y0138459D01*
X0152576Y0138432D01*
X0152486Y0138402D01*
X0152397Y0138369D01*
X0152310Y0138332D01*
X0152224Y0138292D01*
X0152477Y0138377D02*
X0154168Y0137024D01*
X0154422Y0137109D02*
X0154467Y0137126D01*
X0154511Y0137147D01*
X0154553Y0137172D01*
X0154593Y0137199D01*
X0154631Y0137230D01*
X0154666Y0137263D01*
X0154699Y0137299D01*
X0154728Y0137337D01*
X0154755Y0137378D01*
X0154778Y0137420D01*
X0154799Y0137464D01*
X0154815Y0137510D01*
X0154828Y0137557D01*
X0154837Y0137604D01*
X0154843Y0137653D01*
X0154845Y0137701D01*
X0154843Y0137749D01*
X0154837Y0137798D01*
X0154828Y0137845D01*
X0154815Y0137892D01*
X0154799Y0137938D01*
X0154778Y0137982D01*
X0154755Y0138024D01*
X0154728Y0138065D01*
X0154699Y0138103D01*
X0154666Y0138139D01*
X0154631Y0138172D01*
X0154593Y0138203D01*
X0154553Y0138230D01*
X0154511Y0138255D01*
X0154467Y0138276D01*
X0154422Y0138293D01*
X0154422Y0137109D02*
X0154336Y0137069D01*
X0154249Y0137032D01*
X0154160Y0136999D01*
X0154070Y0136969D01*
X0153979Y0136942D01*
X0153887Y0136919D01*
X0153794Y0136900D01*
X0153701Y0136884D01*
X0153607Y0136871D01*
X0153512Y0136862D01*
X0153418Y0136857D01*
X0153323Y0136855D01*
X0153323Y0138546D02*
X0153418Y0138544D01*
X0153512Y0138539D01*
X0153607Y0138530D01*
X0153701Y0138517D01*
X0153794Y0138501D01*
X0153887Y0138482D01*
X0153979Y0138459D01*
X0154070Y0138432D01*
X0154160Y0138402D01*
X0154249Y0138369D01*
X0154336Y0138332D01*
X0154422Y0138292D01*
X0153323Y0136855D02*
X0153228Y0136857D01*
X0153134Y0136862D01*
X0153039Y0136871D01*
X0152945Y0136884D01*
X0152852Y0136900D01*
X0152759Y0136919D01*
X0152667Y0136942D01*
X0152576Y0136969D01*
X0152486Y0136999D01*
X0152397Y0137032D01*
X0152310Y0137069D01*
X0152224Y0137109D01*
X0152179Y0137126D01*
X0152135Y0137147D01*
X0152093Y0137172D01*
X0152053Y0137199D01*
X0152015Y0137230D01*
X0151980Y0137263D01*
X0151947Y0137299D01*
X0151918Y0137337D01*
X0151891Y0137378D01*
X0151868Y0137420D01*
X0151847Y0137464D01*
X0151831Y0137510D01*
X0151818Y0137557D01*
X0151809Y0137604D01*
X0151803Y0137653D01*
X0151801Y0137701D01*
X0151803Y0137749D01*
X0151809Y0137798D01*
X0151818Y0137845D01*
X0151831Y0137892D01*
X0151847Y0137938D01*
X0151868Y0137982D01*
X0151891Y0138024D01*
X0151918Y0138065D01*
X0151947Y0138103D01*
X0151980Y0138139D01*
X0152015Y0138172D01*
X0152053Y0138203D01*
X0152093Y0138230D01*
X0152135Y0138255D01*
X0152179Y0138276D01*
X0152224Y0138293D01*
X0159537Y0133059D02*
X0160135Y0133657D01*
X0160178Y0133696D01*
X0160222Y0133732D01*
X0160270Y0133766D01*
X0160319Y0133796D01*
X0160370Y0133822D01*
X0160423Y0133845D01*
X0160477Y0133864D01*
X0160533Y0133880D01*
X0160589Y0133892D01*
X0160647Y0133900D01*
X0160704Y0133904D01*
X0160762Y0133904D01*
X0160819Y0133900D01*
X0160877Y0133892D01*
X0160933Y0133880D01*
X0160989Y0133864D01*
X0161043Y0133845D01*
X0161096Y0133822D01*
X0161147Y0133796D01*
X0161196Y0133766D01*
X0161244Y0133732D01*
X0161288Y0133696D01*
X0161331Y0133657D01*
X0161370Y0133614D01*
X0161406Y0133570D01*
X0161440Y0133522D01*
X0161470Y0133473D01*
X0161496Y0133422D01*
X0161519Y0133369D01*
X0161538Y0133315D01*
X0161554Y0133259D01*
X0161566Y0133203D01*
X0161574Y0133145D01*
X0161578Y0133088D01*
X0161578Y0133030D01*
X0161574Y0132973D01*
X0161566Y0132915D01*
X0161554Y0132859D01*
X0161538Y0132803D01*
X0161519Y0132749D01*
X0161496Y0132696D01*
X0161470Y0132645D01*
X0161440Y0132596D01*
X0161406Y0132548D01*
X0161370Y0132504D01*
X0161331Y0132461D01*
X0161330Y0132462D02*
X0160733Y0131864D01*
X0161450Y0132581D02*
X0162885Y0132103D01*
X0161689Y0130907D02*
X0159537Y0133059D01*
X0162728Y0134338D02*
X0163446Y0135055D01*
X0162728Y0134337D02*
X0162680Y0134389D01*
X0162634Y0134443D01*
X0162590Y0134499D01*
X0162550Y0134557D01*
X0162513Y0134618D01*
X0162479Y0134680D01*
X0162449Y0134744D01*
X0162422Y0134809D01*
X0162398Y0134876D01*
X0162378Y0134944D01*
X0162362Y0135013D01*
X0162349Y0135082D01*
X0162339Y0135153D01*
X0162334Y0135223D01*
X0162332Y0135294D01*
X0162334Y0135365D01*
X0162339Y0135435D01*
X0162349Y0135506D01*
X0162362Y0135575D01*
X0162378Y0135644D01*
X0162398Y0135712D01*
X0162422Y0135779D01*
X0162449Y0135844D01*
X0162479Y0135908D01*
X0162513Y0135971D01*
X0162550Y0136031D01*
X0162590Y0136089D01*
X0162634Y0136145D01*
X0162680Y0136199D01*
X0162728Y0136251D01*
X0162728Y0134338D02*
X0163326Y0133740D01*
X0163326Y0133741D02*
X0163368Y0133702D01*
X0163411Y0133666D01*
X0163457Y0133633D01*
X0163506Y0133604D01*
X0163556Y0133578D01*
X0163607Y0133555D01*
X0163660Y0133535D01*
X0163714Y0133519D01*
X0163770Y0133507D01*
X0163825Y0133499D01*
X0163882Y0133494D01*
X0163938Y0133493D01*
X0163994Y0133496D01*
X0164051Y0133503D01*
X0164106Y0133513D01*
X0164161Y0133527D01*
X0164214Y0133544D01*
X0164267Y0133566D01*
X0164318Y0133590D01*
X0164367Y0133618D01*
X0164414Y0133649D01*
X0164459Y0133684D01*
X0164501Y0133721D01*
X0164541Y0133761D01*
X0164578Y0133803D01*
X0164613Y0133848D01*
X0164644Y0133895D01*
X0164672Y0133944D01*
X0164696Y0133995D01*
X0164718Y0134048D01*
X0164735Y0134101D01*
X0164749Y0134156D01*
X0164759Y0134211D01*
X0164766Y0134267D01*
X0164769Y0134324D01*
X0164768Y0134380D01*
X0164763Y0134437D01*
X0164755Y0134492D01*
X0164743Y0134548D01*
X0164727Y0134602D01*
X0164707Y0134655D01*
X0164684Y0134706D01*
X0164658Y0134756D01*
X0164629Y0134805D01*
X0164596Y0134851D01*
X0164560Y0134894D01*
X0164521Y0134936D01*
X0164522Y0134936D02*
X0164402Y0135055D01*
X0164365Y0135089D01*
X0164325Y0135121D01*
X0164284Y0135149D01*
X0164240Y0135175D01*
X0164194Y0135197D01*
X0164147Y0135215D01*
X0164099Y0135230D01*
X0164050Y0135241D01*
X0164000Y0135249D01*
X0163949Y0135253D01*
X0163899Y0135253D01*
X0163848Y0135249D01*
X0163798Y0135241D01*
X0163749Y0135230D01*
X0163701Y0135215D01*
X0163654Y0135197D01*
X0163608Y0135175D01*
X0163564Y0135149D01*
X0163523Y0135121D01*
X0163483Y0135089D01*
X0163446Y0135055D01*
X0166526Y0135384D02*
X0166526Y0135553D01*
X0166695Y0135553D01*
X0166695Y0135384D01*
X0166526Y0135384D01*
X0166526Y0134082D02*
X0166526Y0132391D01*
X0166526Y0134082D02*
X0168216Y0132644D01*
X0169568Y0133152D02*
X0169566Y0133213D01*
X0169560Y0133275D01*
X0169551Y0133335D01*
X0169537Y0133395D01*
X0169520Y0133454D01*
X0169499Y0133512D01*
X0169475Y0133568D01*
X0169447Y0133623D01*
X0169416Y0133676D01*
X0169381Y0133727D01*
X0169343Y0133775D01*
X0169303Y0133821D01*
X0169259Y0133865D01*
X0169213Y0133905D01*
X0169165Y0133943D01*
X0169114Y0133977D01*
X0169061Y0134009D01*
X0169006Y0134036D01*
X0168950Y0134061D01*
X0168892Y0134081D01*
X0168216Y0132645D02*
X0168256Y0132606D01*
X0168298Y0132570D01*
X0168342Y0132537D01*
X0168388Y0132507D01*
X0168436Y0132480D01*
X0168486Y0132457D01*
X0168538Y0132437D01*
X0168590Y0132421D01*
X0168644Y0132408D01*
X0168698Y0132398D01*
X0168753Y0132393D01*
X0168808Y0132391D01*
X0168862Y0132393D01*
X0168916Y0132399D01*
X0168970Y0132408D01*
X0169022Y0132422D01*
X0169074Y0132439D01*
X0169124Y0132460D01*
X0169173Y0132484D01*
X0169219Y0132512D01*
X0169264Y0132543D01*
X0169306Y0132577D01*
X0169346Y0132614D01*
X0169383Y0132654D01*
X0169417Y0132696D01*
X0169448Y0132741D01*
X0169476Y0132787D01*
X0169500Y0132836D01*
X0169521Y0132886D01*
X0169538Y0132938D01*
X0169552Y0132990D01*
X0169561Y0133044D01*
X0169567Y0133098D01*
X0169569Y0133152D01*
X0168724Y0130893D02*
X0168554Y0130893D01*
X0168554Y0130892D02*
X0168503Y0130890D01*
X0168453Y0130884D01*
X0168404Y0130875D01*
X0168355Y0130862D01*
X0168307Y0130845D01*
X0168261Y0130825D01*
X0168216Y0130801D01*
X0168173Y0130775D01*
X0168133Y0130745D01*
X0168094Y0130712D01*
X0168058Y0130676D01*
X0168025Y0130637D01*
X0167995Y0130597D01*
X0167969Y0130554D01*
X0167945Y0130509D01*
X0167925Y0130463D01*
X0167908Y0130415D01*
X0167895Y0130366D01*
X0167886Y0130317D01*
X0167880Y0130267D01*
X0167878Y0130216D01*
X0167878Y0129202D01*
X0168724Y0129202D01*
X0168780Y0129204D01*
X0168837Y0129210D01*
X0168892Y0129219D01*
X0168947Y0129232D01*
X0169001Y0129249D01*
X0169054Y0129269D01*
X0169105Y0129293D01*
X0169155Y0129320D01*
X0169202Y0129350D01*
X0169248Y0129384D01*
X0169291Y0129420D01*
X0169331Y0129460D01*
X0169369Y0129501D01*
X0169404Y0129546D01*
X0169436Y0129592D01*
X0169465Y0129641D01*
X0169490Y0129691D01*
X0169513Y0129743D01*
X0169531Y0129797D01*
X0169546Y0129851D01*
X0169557Y0129906D01*
X0169565Y0129962D01*
X0169569Y0130019D01*
X0169569Y0130075D01*
X0169565Y0130132D01*
X0169557Y0130188D01*
X0169546Y0130243D01*
X0169531Y0130297D01*
X0169513Y0130351D01*
X0169490Y0130403D01*
X0169465Y0130453D01*
X0169436Y0130502D01*
X0169404Y0130548D01*
X0169369Y0130593D01*
X0169331Y0130634D01*
X0169291Y0130674D01*
X0169248Y0130710D01*
X0169202Y0130744D01*
X0169155Y0130774D01*
X0169105Y0130801D01*
X0169054Y0130825D01*
X0169001Y0130845D01*
X0168947Y0130862D01*
X0168892Y0130875D01*
X0168837Y0130884D01*
X0168780Y0130890D01*
X0168724Y0130892D01*
X0167878Y0129201D02*
X0167807Y0129203D01*
X0167737Y0129208D01*
X0167666Y0129218D01*
X0167597Y0129231D01*
X0167528Y0129247D01*
X0167460Y0129267D01*
X0167393Y0129291D01*
X0167328Y0129318D01*
X0167264Y0129348D01*
X0167202Y0129382D01*
X0167141Y0129419D01*
X0167083Y0129459D01*
X0167027Y0129503D01*
X0166973Y0129549D01*
X0166921Y0129597D01*
X0166873Y0129649D01*
X0166827Y0129703D01*
X0166783Y0129759D01*
X0166743Y0129817D01*
X0166706Y0129878D01*
X0166672Y0129940D01*
X0166642Y0130004D01*
X0166615Y0130069D01*
X0166591Y0130136D01*
X0166571Y0130204D01*
X0166555Y0130273D01*
X0166542Y0130342D01*
X0166532Y0130413D01*
X0166527Y0130483D01*
X0166525Y0130554D01*
X0166948Y0138292D02*
X0167034Y0138332D01*
X0167121Y0138369D01*
X0167210Y0138402D01*
X0167300Y0138432D01*
X0167391Y0138459D01*
X0167483Y0138482D01*
X0167576Y0138501D01*
X0167669Y0138517D01*
X0167763Y0138530D01*
X0167858Y0138539D01*
X0167952Y0138544D01*
X0168047Y0138546D01*
X0168047Y0136855D02*
X0168142Y0136857D01*
X0168236Y0136862D01*
X0168331Y0136871D01*
X0168425Y0136884D01*
X0168518Y0136900D01*
X0168611Y0136919D01*
X0168703Y0136942D01*
X0168794Y0136969D01*
X0168884Y0136999D01*
X0168973Y0137032D01*
X0169060Y0137069D01*
X0169146Y0137109D01*
X0168893Y0137024D02*
X0167202Y0138377D01*
X0166525Y0137701D02*
X0166527Y0137653D01*
X0166533Y0137604D01*
X0166542Y0137557D01*
X0166555Y0137510D01*
X0166571Y0137464D01*
X0166592Y0137420D01*
X0166615Y0137378D01*
X0166642Y0137337D01*
X0166671Y0137299D01*
X0166704Y0137263D01*
X0166739Y0137230D01*
X0166777Y0137199D01*
X0166817Y0137172D01*
X0166859Y0137147D01*
X0166903Y0137126D01*
X0166948Y0137109D01*
X0166525Y0137701D02*
X0166527Y0137749D01*
X0166533Y0137798D01*
X0166542Y0137845D01*
X0166555Y0137892D01*
X0166571Y0137938D01*
X0166592Y0137982D01*
X0166615Y0138024D01*
X0166642Y0138065D01*
X0166671Y0138103D01*
X0166704Y0138139D01*
X0166739Y0138172D01*
X0166777Y0138203D01*
X0166817Y0138230D01*
X0166859Y0138255D01*
X0166903Y0138276D01*
X0166948Y0138293D01*
X0166948Y0137109D02*
X0167034Y0137069D01*
X0167121Y0137032D01*
X0167210Y0136999D01*
X0167300Y0136969D01*
X0167391Y0136942D01*
X0167483Y0136919D01*
X0167576Y0136900D01*
X0167669Y0136884D01*
X0167763Y0136871D01*
X0167858Y0136862D01*
X0167952Y0136857D01*
X0168047Y0136855D01*
X0168047Y0138546D02*
X0168142Y0138544D01*
X0168236Y0138539D01*
X0168331Y0138530D01*
X0168425Y0138517D01*
X0168518Y0138501D01*
X0168611Y0138482D01*
X0168703Y0138459D01*
X0168794Y0138432D01*
X0168884Y0138402D01*
X0168973Y0138369D01*
X0169060Y0138332D01*
X0169146Y0138292D01*
X0169569Y0137701D02*
X0169567Y0137653D01*
X0169561Y0137604D01*
X0169552Y0137557D01*
X0169539Y0137510D01*
X0169523Y0137464D01*
X0169502Y0137420D01*
X0169479Y0137378D01*
X0169452Y0137337D01*
X0169423Y0137299D01*
X0169390Y0137263D01*
X0169355Y0137230D01*
X0169317Y0137199D01*
X0169277Y0137172D01*
X0169235Y0137147D01*
X0169191Y0137126D01*
X0169146Y0137109D01*
X0169569Y0137701D02*
X0169567Y0137749D01*
X0169561Y0137798D01*
X0169552Y0137845D01*
X0169539Y0137892D01*
X0169523Y0137938D01*
X0169502Y0137982D01*
X0169479Y0138024D01*
X0169452Y0138065D01*
X0169423Y0138103D01*
X0169390Y0138139D01*
X0169355Y0138172D01*
X0169317Y0138203D01*
X0169277Y0138230D01*
X0169235Y0138255D01*
X0169191Y0138276D01*
X0169146Y0138293D01*
X0175344Y0135553D02*
X0175344Y0135384D01*
X0175514Y0135384D01*
X0175514Y0135553D01*
X0175344Y0135553D01*
X0175344Y0134082D02*
X0175344Y0132391D01*
X0175344Y0134082D02*
X0177035Y0132644D01*
X0178387Y0133152D02*
X0178385Y0133213D01*
X0178379Y0133275D01*
X0178370Y0133335D01*
X0178356Y0133395D01*
X0178339Y0133454D01*
X0178318Y0133512D01*
X0178294Y0133568D01*
X0178266Y0133623D01*
X0178235Y0133676D01*
X0178200Y0133727D01*
X0178162Y0133775D01*
X0178122Y0133821D01*
X0178078Y0133865D01*
X0178032Y0133905D01*
X0177984Y0133943D01*
X0177933Y0133977D01*
X0177880Y0134009D01*
X0177825Y0134036D01*
X0177769Y0134061D01*
X0177711Y0134081D01*
X0177035Y0132645D02*
X0177075Y0132606D01*
X0177117Y0132570D01*
X0177161Y0132537D01*
X0177207Y0132507D01*
X0177255Y0132480D01*
X0177305Y0132457D01*
X0177357Y0132437D01*
X0177409Y0132421D01*
X0177463Y0132408D01*
X0177517Y0132398D01*
X0177572Y0132393D01*
X0177627Y0132391D01*
X0177681Y0132393D01*
X0177735Y0132399D01*
X0177789Y0132408D01*
X0177841Y0132422D01*
X0177893Y0132439D01*
X0177943Y0132460D01*
X0177992Y0132484D01*
X0178038Y0132512D01*
X0178083Y0132543D01*
X0178125Y0132577D01*
X0178165Y0132614D01*
X0178202Y0132654D01*
X0178236Y0132696D01*
X0178267Y0132741D01*
X0178295Y0132787D01*
X0178319Y0132836D01*
X0178340Y0132886D01*
X0178357Y0132938D01*
X0178371Y0132990D01*
X0178380Y0133044D01*
X0178386Y0133098D01*
X0178388Y0133152D01*
X0176866Y0138546D02*
X0176771Y0138544D01*
X0176677Y0138539D01*
X0176582Y0138530D01*
X0176488Y0138517D01*
X0176395Y0138501D01*
X0176302Y0138482D01*
X0176210Y0138459D01*
X0176119Y0138432D01*
X0176029Y0138402D01*
X0175940Y0138369D01*
X0175853Y0138332D01*
X0175767Y0138292D01*
X0176021Y0138377D02*
X0177712Y0137024D01*
X0177965Y0137109D02*
X0178010Y0137126D01*
X0178054Y0137147D01*
X0178096Y0137172D01*
X0178136Y0137199D01*
X0178174Y0137230D01*
X0178209Y0137263D01*
X0178242Y0137299D01*
X0178271Y0137337D01*
X0178298Y0137378D01*
X0178321Y0137420D01*
X0178342Y0137464D01*
X0178358Y0137510D01*
X0178371Y0137557D01*
X0178380Y0137604D01*
X0178386Y0137653D01*
X0178388Y0137701D01*
X0178386Y0137749D01*
X0178380Y0137798D01*
X0178371Y0137845D01*
X0178358Y0137892D01*
X0178342Y0137938D01*
X0178321Y0137982D01*
X0178298Y0138024D01*
X0178271Y0138065D01*
X0178242Y0138103D01*
X0178209Y0138139D01*
X0178174Y0138172D01*
X0178136Y0138203D01*
X0178096Y0138230D01*
X0178054Y0138255D01*
X0178010Y0138276D01*
X0177965Y0138293D01*
X0177965Y0137109D02*
X0177879Y0137069D01*
X0177792Y0137032D01*
X0177703Y0136999D01*
X0177613Y0136969D01*
X0177522Y0136942D01*
X0177430Y0136919D01*
X0177337Y0136900D01*
X0177244Y0136884D01*
X0177150Y0136871D01*
X0177055Y0136862D01*
X0176961Y0136857D01*
X0176866Y0136855D01*
X0176866Y0138546D02*
X0176961Y0138544D01*
X0177055Y0138539D01*
X0177150Y0138530D01*
X0177244Y0138517D01*
X0177337Y0138501D01*
X0177430Y0138482D01*
X0177522Y0138459D01*
X0177613Y0138432D01*
X0177703Y0138402D01*
X0177792Y0138369D01*
X0177879Y0138332D01*
X0177965Y0138292D01*
X0176866Y0136855D02*
X0176771Y0136857D01*
X0176677Y0136862D01*
X0176582Y0136871D01*
X0176488Y0136884D01*
X0176395Y0136900D01*
X0176302Y0136919D01*
X0176210Y0136942D01*
X0176119Y0136969D01*
X0176029Y0136999D01*
X0175940Y0137032D01*
X0175853Y0137069D01*
X0175767Y0137109D01*
X0175722Y0137126D01*
X0175678Y0137147D01*
X0175636Y0137172D01*
X0175596Y0137199D01*
X0175558Y0137230D01*
X0175523Y0137263D01*
X0175490Y0137299D01*
X0175461Y0137337D01*
X0175434Y0137378D01*
X0175411Y0137420D01*
X0175390Y0137464D01*
X0175374Y0137510D01*
X0175361Y0137557D01*
X0175352Y0137604D01*
X0175346Y0137653D01*
X0175344Y0137701D01*
X0175346Y0137749D01*
X0175352Y0137798D01*
X0175361Y0137845D01*
X0175374Y0137892D01*
X0175390Y0137938D01*
X0175411Y0137982D01*
X0175434Y0138024D01*
X0175461Y0138065D01*
X0175490Y0138103D01*
X0175523Y0138139D01*
X0175558Y0138172D01*
X0175596Y0138203D01*
X0175636Y0138230D01*
X0175678Y0138255D01*
X0175722Y0138276D01*
X0175767Y0138293D01*
X0185344Y0135553D02*
X0185344Y0135384D01*
X0185514Y0135384D01*
X0185514Y0135553D01*
X0185344Y0135553D01*
X0185767Y0138292D02*
X0185853Y0138332D01*
X0185940Y0138369D01*
X0186029Y0138402D01*
X0186119Y0138432D01*
X0186210Y0138459D01*
X0186302Y0138482D01*
X0186395Y0138501D01*
X0186488Y0138517D01*
X0186582Y0138530D01*
X0186677Y0138539D01*
X0186771Y0138544D01*
X0186866Y0138546D01*
X0186866Y0136855D02*
X0186961Y0136857D01*
X0187055Y0136862D01*
X0187150Y0136871D01*
X0187244Y0136884D01*
X0187337Y0136900D01*
X0187430Y0136919D01*
X0187522Y0136942D01*
X0187613Y0136969D01*
X0187703Y0136999D01*
X0187792Y0137032D01*
X0187879Y0137069D01*
X0187965Y0137109D01*
X0187712Y0137024D02*
X0186021Y0138377D01*
X0185344Y0137701D02*
X0185346Y0137653D01*
X0185352Y0137604D01*
X0185361Y0137557D01*
X0185374Y0137510D01*
X0185390Y0137464D01*
X0185411Y0137420D01*
X0185434Y0137378D01*
X0185461Y0137337D01*
X0185490Y0137299D01*
X0185523Y0137263D01*
X0185558Y0137230D01*
X0185596Y0137199D01*
X0185636Y0137172D01*
X0185678Y0137147D01*
X0185722Y0137126D01*
X0185767Y0137109D01*
X0185344Y0137701D02*
X0185346Y0137749D01*
X0185352Y0137798D01*
X0185361Y0137845D01*
X0185374Y0137892D01*
X0185390Y0137938D01*
X0185411Y0137982D01*
X0185434Y0138024D01*
X0185461Y0138065D01*
X0185490Y0138103D01*
X0185523Y0138139D01*
X0185558Y0138172D01*
X0185596Y0138203D01*
X0185636Y0138230D01*
X0185678Y0138255D01*
X0185722Y0138276D01*
X0185767Y0138293D01*
X0185767Y0137109D02*
X0185853Y0137069D01*
X0185940Y0137032D01*
X0186029Y0136999D01*
X0186119Y0136969D01*
X0186210Y0136942D01*
X0186302Y0136919D01*
X0186395Y0136900D01*
X0186488Y0136884D01*
X0186582Y0136871D01*
X0186677Y0136862D01*
X0186771Y0136857D01*
X0186866Y0136855D01*
X0186866Y0138546D02*
X0186961Y0138544D01*
X0187055Y0138539D01*
X0187150Y0138530D01*
X0187244Y0138517D01*
X0187337Y0138501D01*
X0187430Y0138482D01*
X0187522Y0138459D01*
X0187613Y0138432D01*
X0187703Y0138402D01*
X0187792Y0138369D01*
X0187879Y0138332D01*
X0187965Y0138292D01*
X0188388Y0137701D02*
X0188386Y0137653D01*
X0188380Y0137604D01*
X0188371Y0137557D01*
X0188358Y0137510D01*
X0188342Y0137464D01*
X0188321Y0137420D01*
X0188298Y0137378D01*
X0188271Y0137337D01*
X0188242Y0137299D01*
X0188209Y0137263D01*
X0188174Y0137230D01*
X0188136Y0137199D01*
X0188096Y0137172D01*
X0188054Y0137147D01*
X0188010Y0137126D01*
X0187965Y0137109D01*
X0188388Y0137701D02*
X0188386Y0137749D01*
X0188380Y0137798D01*
X0188371Y0137845D01*
X0188358Y0137892D01*
X0188342Y0137938D01*
X0188321Y0137982D01*
X0188298Y0138024D01*
X0188271Y0138065D01*
X0188242Y0138103D01*
X0188209Y0138139D01*
X0188174Y0138172D01*
X0188136Y0138203D01*
X0188096Y0138230D01*
X0188054Y0138255D01*
X0188010Y0138276D01*
X0187965Y0138293D01*
X0186866Y0132391D02*
X0186771Y0132393D01*
X0186677Y0132398D01*
X0186582Y0132407D01*
X0186488Y0132420D01*
X0186395Y0132436D01*
X0186302Y0132455D01*
X0186210Y0132478D01*
X0186119Y0132505D01*
X0186029Y0132535D01*
X0185940Y0132568D01*
X0185853Y0132605D01*
X0185767Y0132645D01*
X0185767Y0132644D02*
X0185722Y0132661D01*
X0185678Y0132682D01*
X0185636Y0132707D01*
X0185596Y0132734D01*
X0185558Y0132765D01*
X0185523Y0132798D01*
X0185490Y0132834D01*
X0185461Y0132872D01*
X0185434Y0132913D01*
X0185411Y0132955D01*
X0185390Y0132999D01*
X0185374Y0133045D01*
X0185361Y0133092D01*
X0185352Y0133139D01*
X0185346Y0133188D01*
X0185344Y0133236D01*
X0185346Y0133284D01*
X0185352Y0133333D01*
X0185361Y0133380D01*
X0185374Y0133427D01*
X0185390Y0133473D01*
X0185411Y0133517D01*
X0185434Y0133559D01*
X0185461Y0133600D01*
X0185490Y0133638D01*
X0185523Y0133674D01*
X0185558Y0133707D01*
X0185596Y0133738D01*
X0185636Y0133765D01*
X0185678Y0133790D01*
X0185722Y0133811D01*
X0185767Y0133828D01*
X0186021Y0133913D02*
X0187712Y0132560D01*
X0187965Y0132644D02*
X0188010Y0132661D01*
X0188054Y0132682D01*
X0188096Y0132707D01*
X0188136Y0132734D01*
X0188174Y0132765D01*
X0188209Y0132798D01*
X0188242Y0132834D01*
X0188271Y0132872D01*
X0188298Y0132913D01*
X0188321Y0132955D01*
X0188342Y0132999D01*
X0188358Y0133045D01*
X0188371Y0133092D01*
X0188380Y0133139D01*
X0188386Y0133188D01*
X0188388Y0133236D01*
X0188386Y0133284D01*
X0188380Y0133333D01*
X0188371Y0133380D01*
X0188358Y0133427D01*
X0188342Y0133473D01*
X0188321Y0133517D01*
X0188298Y0133559D01*
X0188271Y0133600D01*
X0188242Y0133638D01*
X0188209Y0133674D01*
X0188174Y0133707D01*
X0188136Y0133738D01*
X0188096Y0133765D01*
X0188054Y0133790D01*
X0188010Y0133811D01*
X0187965Y0133828D01*
X0187965Y0132645D02*
X0187879Y0132605D01*
X0187792Y0132568D01*
X0187703Y0132535D01*
X0187613Y0132505D01*
X0187522Y0132478D01*
X0187430Y0132455D01*
X0187337Y0132436D01*
X0187244Y0132420D01*
X0187150Y0132407D01*
X0187055Y0132398D01*
X0186961Y0132393D01*
X0186866Y0132391D01*
X0186866Y0134082D02*
X0186961Y0134080D01*
X0187055Y0134075D01*
X0187150Y0134066D01*
X0187244Y0134053D01*
X0187337Y0134037D01*
X0187430Y0134018D01*
X0187522Y0133995D01*
X0187613Y0133968D01*
X0187703Y0133938D01*
X0187792Y0133905D01*
X0187879Y0133868D01*
X0187965Y0133828D01*
X0186866Y0134082D02*
X0186771Y0134080D01*
X0186677Y0134075D01*
X0186582Y0134066D01*
X0186488Y0134053D01*
X0186395Y0134037D01*
X0186302Y0134018D01*
X0186210Y0133995D01*
X0186119Y0133968D01*
X0186029Y0133938D01*
X0185940Y0133905D01*
X0185853Y0133868D01*
X0185767Y0133828D01*
X0185344Y0130893D02*
X0185344Y0129202D01*
X0185344Y0130893D02*
X0187035Y0129455D01*
X0188387Y0129963D02*
X0188385Y0130024D01*
X0188379Y0130086D01*
X0188370Y0130146D01*
X0188356Y0130206D01*
X0188339Y0130265D01*
X0188318Y0130323D01*
X0188294Y0130379D01*
X0188266Y0130434D01*
X0188235Y0130487D01*
X0188200Y0130538D01*
X0188162Y0130586D01*
X0188122Y0130632D01*
X0188078Y0130676D01*
X0188032Y0130716D01*
X0187984Y0130754D01*
X0187933Y0130788D01*
X0187880Y0130820D01*
X0187825Y0130847D01*
X0187769Y0130872D01*
X0187711Y0130892D01*
X0187035Y0129456D02*
X0187075Y0129417D01*
X0187117Y0129381D01*
X0187161Y0129348D01*
X0187207Y0129318D01*
X0187255Y0129291D01*
X0187305Y0129268D01*
X0187357Y0129248D01*
X0187409Y0129232D01*
X0187463Y0129219D01*
X0187517Y0129209D01*
X0187572Y0129204D01*
X0187627Y0129202D01*
X0187681Y0129204D01*
X0187735Y0129210D01*
X0187789Y0129219D01*
X0187841Y0129233D01*
X0187893Y0129250D01*
X0187943Y0129271D01*
X0187992Y0129295D01*
X0188038Y0129323D01*
X0188083Y0129354D01*
X0188125Y0129388D01*
X0188165Y0129425D01*
X0188202Y0129465D01*
X0188236Y0129507D01*
X0188267Y0129552D01*
X0188295Y0129598D01*
X0188319Y0129647D01*
X0188340Y0129697D01*
X0188357Y0129749D01*
X0188371Y0129801D01*
X0188380Y0129855D01*
X0188386Y0129909D01*
X0188388Y0129963D01*
X0195344Y0130047D02*
X0195344Y0130893D01*
X0195345Y0130047D02*
X0195347Y0129991D01*
X0195353Y0129934D01*
X0195362Y0129879D01*
X0195375Y0129824D01*
X0195392Y0129770D01*
X0195412Y0129717D01*
X0195436Y0129666D01*
X0195463Y0129616D01*
X0195493Y0129569D01*
X0195527Y0129523D01*
X0195563Y0129480D01*
X0195603Y0129440D01*
X0195644Y0129402D01*
X0195689Y0129367D01*
X0195735Y0129335D01*
X0195784Y0129306D01*
X0195834Y0129281D01*
X0195886Y0129258D01*
X0195940Y0129240D01*
X0195994Y0129225D01*
X0196049Y0129214D01*
X0196105Y0129206D01*
X0196162Y0129202D01*
X0196218Y0129202D01*
X0196275Y0129206D01*
X0196331Y0129214D01*
X0196386Y0129225D01*
X0196440Y0129240D01*
X0196494Y0129258D01*
X0196546Y0129281D01*
X0196596Y0129306D01*
X0196645Y0129335D01*
X0196691Y0129367D01*
X0196736Y0129402D01*
X0196777Y0129440D01*
X0196817Y0129480D01*
X0196853Y0129523D01*
X0196887Y0129569D01*
X0196917Y0129616D01*
X0196944Y0129666D01*
X0196968Y0129717D01*
X0196988Y0129770D01*
X0197005Y0129824D01*
X0197018Y0129879D01*
X0197027Y0129934D01*
X0197033Y0129991D01*
X0197035Y0130047D01*
X0197035Y0129878D02*
X0197035Y0130554D01*
X0197036Y0129878D02*
X0197038Y0129827D01*
X0197044Y0129777D01*
X0197053Y0129728D01*
X0197066Y0129679D01*
X0197083Y0129631D01*
X0197103Y0129585D01*
X0197127Y0129540D01*
X0197153Y0129497D01*
X0197183Y0129457D01*
X0197216Y0129418D01*
X0197252Y0129382D01*
X0197291Y0129349D01*
X0197331Y0129319D01*
X0197374Y0129293D01*
X0197419Y0129269D01*
X0197465Y0129249D01*
X0197513Y0129232D01*
X0197562Y0129219D01*
X0197611Y0129210D01*
X0197661Y0129204D01*
X0197712Y0129202D01*
X0197763Y0129204D01*
X0197813Y0129210D01*
X0197862Y0129219D01*
X0197911Y0129232D01*
X0197959Y0129249D01*
X0198005Y0129269D01*
X0198050Y0129293D01*
X0198093Y0129319D01*
X0198133Y0129349D01*
X0198172Y0129382D01*
X0198208Y0129418D01*
X0198241Y0129457D01*
X0198271Y0129497D01*
X0198297Y0129540D01*
X0198321Y0129585D01*
X0198341Y0129631D01*
X0198358Y0129679D01*
X0198371Y0129728D01*
X0198380Y0129777D01*
X0198386Y0129827D01*
X0198388Y0129878D01*
X0198388Y0130893D01*
X0196866Y0134082D02*
X0196771Y0134080D01*
X0196677Y0134075D01*
X0196582Y0134066D01*
X0196488Y0134053D01*
X0196395Y0134037D01*
X0196302Y0134018D01*
X0196210Y0133995D01*
X0196119Y0133968D01*
X0196029Y0133938D01*
X0195940Y0133905D01*
X0195853Y0133868D01*
X0195767Y0133828D01*
X0196021Y0133913D02*
X0197712Y0132560D01*
X0197965Y0132644D02*
X0198010Y0132661D01*
X0198054Y0132682D01*
X0198096Y0132707D01*
X0198136Y0132734D01*
X0198174Y0132765D01*
X0198209Y0132798D01*
X0198242Y0132834D01*
X0198271Y0132872D01*
X0198298Y0132913D01*
X0198321Y0132955D01*
X0198342Y0132999D01*
X0198358Y0133045D01*
X0198371Y0133092D01*
X0198380Y0133139D01*
X0198386Y0133188D01*
X0198388Y0133236D01*
X0198386Y0133284D01*
X0198380Y0133333D01*
X0198371Y0133380D01*
X0198358Y0133427D01*
X0198342Y0133473D01*
X0198321Y0133517D01*
X0198298Y0133559D01*
X0198271Y0133600D01*
X0198242Y0133638D01*
X0198209Y0133674D01*
X0198174Y0133707D01*
X0198136Y0133738D01*
X0198096Y0133765D01*
X0198054Y0133790D01*
X0198010Y0133811D01*
X0197965Y0133828D01*
X0197965Y0132645D02*
X0197879Y0132605D01*
X0197792Y0132568D01*
X0197703Y0132535D01*
X0197613Y0132505D01*
X0197522Y0132478D01*
X0197430Y0132455D01*
X0197337Y0132436D01*
X0197244Y0132420D01*
X0197150Y0132407D01*
X0197055Y0132398D01*
X0196961Y0132393D01*
X0196866Y0132391D01*
X0196866Y0134082D02*
X0196961Y0134080D01*
X0197055Y0134075D01*
X0197150Y0134066D01*
X0197244Y0134053D01*
X0197337Y0134037D01*
X0197430Y0134018D01*
X0197522Y0133995D01*
X0197613Y0133968D01*
X0197703Y0133938D01*
X0197792Y0133905D01*
X0197879Y0133868D01*
X0197965Y0133828D01*
X0196866Y0132391D02*
X0196771Y0132393D01*
X0196677Y0132398D01*
X0196582Y0132407D01*
X0196488Y0132420D01*
X0196395Y0132436D01*
X0196302Y0132455D01*
X0196210Y0132478D01*
X0196119Y0132505D01*
X0196029Y0132535D01*
X0195940Y0132568D01*
X0195853Y0132605D01*
X0195767Y0132645D01*
X0195767Y0132644D02*
X0195722Y0132661D01*
X0195678Y0132682D01*
X0195636Y0132707D01*
X0195596Y0132734D01*
X0195558Y0132765D01*
X0195523Y0132798D01*
X0195490Y0132834D01*
X0195461Y0132872D01*
X0195434Y0132913D01*
X0195411Y0132955D01*
X0195390Y0132999D01*
X0195374Y0133045D01*
X0195361Y0133092D01*
X0195352Y0133139D01*
X0195346Y0133188D01*
X0195344Y0133236D01*
X0195346Y0133284D01*
X0195352Y0133333D01*
X0195361Y0133380D01*
X0195374Y0133427D01*
X0195390Y0133473D01*
X0195411Y0133517D01*
X0195434Y0133559D01*
X0195461Y0133600D01*
X0195490Y0133638D01*
X0195523Y0133674D01*
X0195558Y0133707D01*
X0195596Y0133738D01*
X0195636Y0133765D01*
X0195678Y0133790D01*
X0195722Y0133811D01*
X0195767Y0133828D01*
X0195514Y0135384D02*
X0195344Y0135384D01*
X0195344Y0135553D01*
X0195514Y0135553D01*
X0195514Y0135384D01*
X0195767Y0138292D02*
X0195853Y0138332D01*
X0195940Y0138369D01*
X0196029Y0138402D01*
X0196119Y0138432D01*
X0196210Y0138459D01*
X0196302Y0138482D01*
X0196395Y0138501D01*
X0196488Y0138517D01*
X0196582Y0138530D01*
X0196677Y0138539D01*
X0196771Y0138544D01*
X0196866Y0138546D01*
X0196866Y0136855D02*
X0196961Y0136857D01*
X0197055Y0136862D01*
X0197150Y0136871D01*
X0197244Y0136884D01*
X0197337Y0136900D01*
X0197430Y0136919D01*
X0197522Y0136942D01*
X0197613Y0136969D01*
X0197703Y0136999D01*
X0197792Y0137032D01*
X0197879Y0137069D01*
X0197965Y0137109D01*
X0197712Y0137024D02*
X0196021Y0138377D01*
X0195344Y0137701D02*
X0195346Y0137653D01*
X0195352Y0137604D01*
X0195361Y0137557D01*
X0195374Y0137510D01*
X0195390Y0137464D01*
X0195411Y0137420D01*
X0195434Y0137378D01*
X0195461Y0137337D01*
X0195490Y0137299D01*
X0195523Y0137263D01*
X0195558Y0137230D01*
X0195596Y0137199D01*
X0195636Y0137172D01*
X0195678Y0137147D01*
X0195722Y0137126D01*
X0195767Y0137109D01*
X0195344Y0137701D02*
X0195346Y0137749D01*
X0195352Y0137798D01*
X0195361Y0137845D01*
X0195374Y0137892D01*
X0195390Y0137938D01*
X0195411Y0137982D01*
X0195434Y0138024D01*
X0195461Y0138065D01*
X0195490Y0138103D01*
X0195523Y0138139D01*
X0195558Y0138172D01*
X0195596Y0138203D01*
X0195636Y0138230D01*
X0195678Y0138255D01*
X0195722Y0138276D01*
X0195767Y0138293D01*
X0195767Y0137109D02*
X0195853Y0137069D01*
X0195940Y0137032D01*
X0196029Y0136999D01*
X0196119Y0136969D01*
X0196210Y0136942D01*
X0196302Y0136919D01*
X0196395Y0136900D01*
X0196488Y0136884D01*
X0196582Y0136871D01*
X0196677Y0136862D01*
X0196771Y0136857D01*
X0196866Y0136855D01*
X0196866Y0138546D02*
X0196961Y0138544D01*
X0197055Y0138539D01*
X0197150Y0138530D01*
X0197244Y0138517D01*
X0197337Y0138501D01*
X0197430Y0138482D01*
X0197522Y0138459D01*
X0197613Y0138432D01*
X0197703Y0138402D01*
X0197792Y0138369D01*
X0197879Y0138332D01*
X0197965Y0138292D01*
X0198388Y0137701D02*
X0198386Y0137653D01*
X0198380Y0137604D01*
X0198371Y0137557D01*
X0198358Y0137510D01*
X0198342Y0137464D01*
X0198321Y0137420D01*
X0198298Y0137378D01*
X0198271Y0137337D01*
X0198242Y0137299D01*
X0198209Y0137263D01*
X0198174Y0137230D01*
X0198136Y0137199D01*
X0198096Y0137172D01*
X0198054Y0137147D01*
X0198010Y0137126D01*
X0197965Y0137109D01*
X0198388Y0137701D02*
X0198386Y0137749D01*
X0198380Y0137798D01*
X0198371Y0137845D01*
X0198358Y0137892D01*
X0198342Y0137938D01*
X0198321Y0137982D01*
X0198298Y0138024D01*
X0198271Y0138065D01*
X0198242Y0138103D01*
X0198209Y0138139D01*
X0198174Y0138172D01*
X0198136Y0138203D01*
X0198096Y0138230D01*
X0198054Y0138255D01*
X0198010Y0138276D01*
X0197965Y0138293D01*
X0205344Y0137445D02*
X0205344Y0136430D01*
X0207035Y0136430D01*
X0207035Y0136937D01*
X0207712Y0138121D02*
X0207763Y0138119D01*
X0207813Y0138113D01*
X0207862Y0138104D01*
X0207911Y0138091D01*
X0207959Y0138074D01*
X0208005Y0138054D01*
X0208050Y0138030D01*
X0208093Y0138004D01*
X0208133Y0137974D01*
X0208172Y0137941D01*
X0208208Y0137905D01*
X0208241Y0137866D01*
X0208271Y0137826D01*
X0208297Y0137783D01*
X0208321Y0137738D01*
X0208341Y0137692D01*
X0208358Y0137644D01*
X0208371Y0137595D01*
X0208380Y0137546D01*
X0208386Y0137496D01*
X0208388Y0137445D01*
X0208388Y0136430D01*
X0208388Y0134719D02*
X0205344Y0134719D01*
X0205344Y0133029D02*
X0208388Y0133029D01*
X0208388Y0134719D02*
X0205344Y0133029D01*
X0205344Y0131318D02*
X0205344Y0130472D01*
X0205344Y0131318D02*
X0208388Y0131318D01*
X0208388Y0130472D01*
X0208387Y0130472D02*
X0208385Y0130417D01*
X0208380Y0130362D01*
X0208371Y0130307D01*
X0208358Y0130253D01*
X0208342Y0130200D01*
X0208323Y0130149D01*
X0208300Y0130098D01*
X0208274Y0130049D01*
X0208245Y0130003D01*
X0208212Y0129958D01*
X0208177Y0129915D01*
X0208140Y0129874D01*
X0208099Y0129837D01*
X0208056Y0129802D01*
X0208011Y0129769D01*
X0207964Y0129740D01*
X0207916Y0129714D01*
X0207865Y0129691D01*
X0207814Y0129672D01*
X0207761Y0129656D01*
X0207707Y0129643D01*
X0207652Y0129634D01*
X0207597Y0129629D01*
X0207542Y0129627D01*
X0206190Y0129627D01*
X0206135Y0129629D01*
X0206080Y0129634D01*
X0206025Y0129643D01*
X0205971Y0129656D01*
X0205918Y0129672D01*
X0205867Y0129691D01*
X0205816Y0129714D01*
X0205768Y0129740D01*
X0205721Y0129769D01*
X0205676Y0129802D01*
X0205633Y0129837D01*
X0205592Y0129874D01*
X0205555Y0129915D01*
X0205520Y0129958D01*
X0205487Y0130003D01*
X0205458Y0130050D01*
X0205432Y0130098D01*
X0205409Y0130149D01*
X0205390Y0130200D01*
X0205374Y0130253D01*
X0205361Y0130307D01*
X0205352Y0130362D01*
X0205347Y0130417D01*
X0205345Y0130472D01*
X0205345Y0137445D02*
X0205347Y0137496D01*
X0205353Y0137546D01*
X0205362Y0137595D01*
X0205375Y0137644D01*
X0205392Y0137692D01*
X0205412Y0137738D01*
X0205436Y0137783D01*
X0205462Y0137826D01*
X0205492Y0137866D01*
X0205525Y0137905D01*
X0205561Y0137941D01*
X0205600Y0137974D01*
X0205640Y0138004D01*
X0205683Y0138030D01*
X0205728Y0138054D01*
X0205774Y0138074D01*
X0205822Y0138091D01*
X0205871Y0138104D01*
X0205920Y0138113D01*
X0205970Y0138119D01*
X0206021Y0138121D01*
X0207712Y0138121D01*
X0177712Y0130723D02*
X0177661Y0130721D01*
X0177611Y0130715D01*
X0177562Y0130706D01*
X0177513Y0130693D01*
X0177465Y0130676D01*
X0177419Y0130656D01*
X0177374Y0130632D01*
X0177331Y0130606D01*
X0177291Y0130576D01*
X0177252Y0130543D01*
X0177216Y0130507D01*
X0177183Y0130468D01*
X0177153Y0130428D01*
X0177127Y0130385D01*
X0177103Y0130340D01*
X0177083Y0130294D01*
X0177066Y0130246D01*
X0177053Y0130197D01*
X0177044Y0130148D01*
X0177038Y0130098D01*
X0177036Y0130047D01*
X0177038Y0129996D01*
X0177044Y0129946D01*
X0177053Y0129897D01*
X0177066Y0129848D01*
X0177083Y0129800D01*
X0177103Y0129754D01*
X0177127Y0129709D01*
X0177153Y0129666D01*
X0177183Y0129626D01*
X0177216Y0129587D01*
X0177252Y0129551D01*
X0177291Y0129518D01*
X0177331Y0129488D01*
X0177374Y0129462D01*
X0177419Y0129438D01*
X0177465Y0129418D01*
X0177513Y0129401D01*
X0177562Y0129388D01*
X0177611Y0129379D01*
X0177661Y0129373D01*
X0177712Y0129371D01*
X0177763Y0129373D01*
X0177813Y0129379D01*
X0177862Y0129388D01*
X0177911Y0129401D01*
X0177959Y0129418D01*
X0178005Y0129438D01*
X0178050Y0129462D01*
X0178093Y0129488D01*
X0178133Y0129518D01*
X0178172Y0129551D01*
X0178208Y0129587D01*
X0178241Y0129626D01*
X0178271Y0129666D01*
X0178297Y0129709D01*
X0178321Y0129754D01*
X0178341Y0129800D01*
X0178358Y0129848D01*
X0178371Y0129897D01*
X0178380Y0129946D01*
X0178386Y0129996D01*
X0178388Y0130047D01*
X0178386Y0130098D01*
X0178380Y0130148D01*
X0178371Y0130197D01*
X0178358Y0130246D01*
X0178341Y0130294D01*
X0178321Y0130340D01*
X0178297Y0130385D01*
X0178271Y0130428D01*
X0178241Y0130468D01*
X0178208Y0130507D01*
X0178172Y0130543D01*
X0178133Y0130576D01*
X0178093Y0130606D01*
X0178050Y0130632D01*
X0178005Y0130656D01*
X0177959Y0130676D01*
X0177911Y0130693D01*
X0177862Y0130706D01*
X0177813Y0130715D01*
X0177763Y0130721D01*
X0177712Y0130723D01*
X0176190Y0130892D02*
X0176134Y0130890D01*
X0176077Y0130884D01*
X0176022Y0130875D01*
X0175967Y0130862D01*
X0175913Y0130845D01*
X0175860Y0130825D01*
X0175809Y0130801D01*
X0175759Y0130774D01*
X0175712Y0130744D01*
X0175666Y0130710D01*
X0175623Y0130674D01*
X0175583Y0130634D01*
X0175545Y0130593D01*
X0175510Y0130548D01*
X0175478Y0130502D01*
X0175449Y0130453D01*
X0175424Y0130403D01*
X0175401Y0130351D01*
X0175383Y0130297D01*
X0175368Y0130243D01*
X0175357Y0130188D01*
X0175349Y0130132D01*
X0175345Y0130075D01*
X0175345Y0130019D01*
X0175349Y0129962D01*
X0175357Y0129906D01*
X0175368Y0129851D01*
X0175383Y0129797D01*
X0175401Y0129743D01*
X0175424Y0129691D01*
X0175449Y0129641D01*
X0175478Y0129592D01*
X0175510Y0129546D01*
X0175545Y0129501D01*
X0175583Y0129460D01*
X0175623Y0129420D01*
X0175666Y0129384D01*
X0175712Y0129350D01*
X0175759Y0129320D01*
X0175809Y0129293D01*
X0175860Y0129269D01*
X0175913Y0129249D01*
X0175967Y0129232D01*
X0176022Y0129219D01*
X0176077Y0129210D01*
X0176134Y0129204D01*
X0176190Y0129202D01*
X0176246Y0129204D01*
X0176303Y0129210D01*
X0176358Y0129219D01*
X0176413Y0129232D01*
X0176467Y0129249D01*
X0176520Y0129269D01*
X0176571Y0129293D01*
X0176621Y0129320D01*
X0176668Y0129350D01*
X0176714Y0129384D01*
X0176757Y0129420D01*
X0176797Y0129460D01*
X0176835Y0129501D01*
X0176870Y0129546D01*
X0176902Y0129592D01*
X0176931Y0129641D01*
X0176956Y0129691D01*
X0176979Y0129743D01*
X0176997Y0129797D01*
X0177012Y0129851D01*
X0177023Y0129906D01*
X0177031Y0129962D01*
X0177035Y0130019D01*
X0177035Y0130075D01*
X0177031Y0130132D01*
X0177023Y0130188D01*
X0177012Y0130243D01*
X0176997Y0130297D01*
X0176979Y0130351D01*
X0176956Y0130403D01*
X0176931Y0130453D01*
X0176902Y0130502D01*
X0176870Y0130548D01*
X0176835Y0130593D01*
X0176797Y0130634D01*
X0176757Y0130674D01*
X0176714Y0130710D01*
X0176668Y0130744D01*
X0176621Y0130774D01*
X0176571Y0130801D01*
X0176520Y0130825D01*
X0176467Y0130845D01*
X0176413Y0130862D01*
X0176358Y0130875D01*
X0176303Y0130884D01*
X0176246Y0130890D01*
X0176190Y0130892D01*
X0154845Y0130047D02*
X0154843Y0129999D01*
X0154837Y0129950D01*
X0154828Y0129903D01*
X0154815Y0129856D01*
X0154799Y0129810D01*
X0154778Y0129766D01*
X0154755Y0129724D01*
X0154728Y0129683D01*
X0154699Y0129645D01*
X0154666Y0129609D01*
X0154631Y0129576D01*
X0154593Y0129545D01*
X0154553Y0129518D01*
X0154511Y0129493D01*
X0154467Y0129472D01*
X0154422Y0129455D01*
X0154168Y0129371D02*
X0152477Y0130724D01*
X0151801Y0130047D02*
X0151803Y0129999D01*
X0151809Y0129950D01*
X0151818Y0129903D01*
X0151831Y0129856D01*
X0151847Y0129810D01*
X0151868Y0129766D01*
X0151891Y0129724D01*
X0151918Y0129683D01*
X0151947Y0129645D01*
X0151980Y0129609D01*
X0152015Y0129576D01*
X0152053Y0129545D01*
X0152093Y0129518D01*
X0152135Y0129493D01*
X0152179Y0129472D01*
X0152224Y0129455D01*
X0151801Y0130047D02*
X0151803Y0130095D01*
X0151809Y0130144D01*
X0151818Y0130191D01*
X0151831Y0130238D01*
X0151847Y0130284D01*
X0151868Y0130328D01*
X0151891Y0130370D01*
X0151918Y0130411D01*
X0151947Y0130449D01*
X0151980Y0130485D01*
X0152015Y0130518D01*
X0152053Y0130549D01*
X0152093Y0130576D01*
X0152135Y0130601D01*
X0152179Y0130622D01*
X0152224Y0130639D01*
X0153323Y0129202D02*
X0153418Y0129204D01*
X0153512Y0129209D01*
X0153607Y0129218D01*
X0153701Y0129231D01*
X0153794Y0129247D01*
X0153887Y0129266D01*
X0153979Y0129289D01*
X0154070Y0129316D01*
X0154160Y0129346D01*
X0154249Y0129379D01*
X0154336Y0129416D01*
X0154422Y0129456D01*
X0154845Y0130047D02*
X0154843Y0130095D01*
X0154837Y0130144D01*
X0154828Y0130191D01*
X0154815Y0130238D01*
X0154799Y0130284D01*
X0154778Y0130328D01*
X0154755Y0130370D01*
X0154728Y0130411D01*
X0154699Y0130449D01*
X0154666Y0130485D01*
X0154631Y0130518D01*
X0154593Y0130549D01*
X0154553Y0130576D01*
X0154511Y0130601D01*
X0154467Y0130622D01*
X0154422Y0130639D01*
X0153323Y0129202D02*
X0153228Y0129204D01*
X0153134Y0129209D01*
X0153039Y0129218D01*
X0152945Y0129231D01*
X0152852Y0129247D01*
X0152759Y0129266D01*
X0152667Y0129289D01*
X0152576Y0129316D01*
X0152486Y0129346D01*
X0152397Y0129379D01*
X0152310Y0129416D01*
X0152224Y0129456D01*
X0153323Y0130893D02*
X0153418Y0130891D01*
X0153512Y0130886D01*
X0153607Y0130877D01*
X0153701Y0130864D01*
X0153794Y0130848D01*
X0153887Y0130829D01*
X0153979Y0130806D01*
X0154070Y0130779D01*
X0154160Y0130749D01*
X0154249Y0130716D01*
X0154336Y0130679D01*
X0154422Y0130639D01*
X0153323Y0130893D02*
X0153228Y0130891D01*
X0153134Y0130886D01*
X0153039Y0130877D01*
X0152945Y0130864D01*
X0152852Y0130848D01*
X0152759Y0130829D01*
X0152667Y0130806D01*
X0152576Y0130779D01*
X0152486Y0130749D01*
X0152397Y0130716D01*
X0152310Y0130679D01*
X0152224Y0130639D01*
X0148388Y0130047D02*
X0145344Y0130047D01*
X0145344Y0129202D02*
X0145344Y0130893D01*
X0147712Y0130893D02*
X0148388Y0130047D01*
X0125031Y0128463D02*
X0123340Y0128463D01*
X0124777Y0130153D01*
X0124270Y0131505D02*
X0124209Y0131503D01*
X0124147Y0131497D01*
X0124087Y0131488D01*
X0124027Y0131474D01*
X0123968Y0131457D01*
X0123910Y0131436D01*
X0123854Y0131412D01*
X0123799Y0131384D01*
X0123746Y0131353D01*
X0123695Y0131318D01*
X0123647Y0131280D01*
X0123601Y0131240D01*
X0123557Y0131196D01*
X0123517Y0131150D01*
X0123479Y0131102D01*
X0123445Y0131051D01*
X0123413Y0130998D01*
X0123386Y0130943D01*
X0123361Y0130887D01*
X0123341Y0130829D01*
X0124777Y0130153D02*
X0124816Y0130193D01*
X0124852Y0130235D01*
X0124885Y0130279D01*
X0124915Y0130325D01*
X0124942Y0130373D01*
X0124965Y0130423D01*
X0124985Y0130475D01*
X0125001Y0130527D01*
X0125014Y0130581D01*
X0125024Y0130635D01*
X0125029Y0130690D01*
X0125031Y0130745D01*
X0125029Y0130799D01*
X0125023Y0130853D01*
X0125014Y0130907D01*
X0125000Y0130959D01*
X0124983Y0131011D01*
X0124962Y0131061D01*
X0124938Y0131110D01*
X0124910Y0131156D01*
X0124879Y0131201D01*
X0124845Y0131243D01*
X0124808Y0131283D01*
X0124768Y0131320D01*
X0124726Y0131354D01*
X0124681Y0131385D01*
X0124635Y0131413D01*
X0124586Y0131437D01*
X0124536Y0131458D01*
X0124484Y0131475D01*
X0124432Y0131489D01*
X0124378Y0131498D01*
X0124324Y0131504D01*
X0124270Y0131506D01*
X0122022Y0131506D02*
X0121346Y0131506D01*
X0121295Y0131504D01*
X0121245Y0131498D01*
X0121196Y0131489D01*
X0121147Y0131476D01*
X0121099Y0131459D01*
X0121053Y0131439D01*
X0121008Y0131415D01*
X0120965Y0131389D01*
X0120925Y0131359D01*
X0120886Y0131326D01*
X0120850Y0131290D01*
X0120817Y0131251D01*
X0120787Y0131211D01*
X0120761Y0131168D01*
X0120737Y0131123D01*
X0120717Y0131077D01*
X0120700Y0131029D01*
X0120687Y0130980D01*
X0120678Y0130931D01*
X0120672Y0130881D01*
X0120670Y0130830D01*
X0120670Y0129139D01*
X0120672Y0129088D01*
X0120678Y0129038D01*
X0120687Y0128989D01*
X0120700Y0128940D01*
X0120717Y0128892D01*
X0120737Y0128846D01*
X0120761Y0128801D01*
X0120787Y0128758D01*
X0120817Y0128718D01*
X0120850Y0128679D01*
X0120886Y0128643D01*
X0120925Y0128610D01*
X0120965Y0128580D01*
X0121008Y0128554D01*
X0121053Y0128530D01*
X0121099Y0128510D01*
X0121147Y0128493D01*
X0121196Y0128480D01*
X0121245Y0128471D01*
X0121295Y0128465D01*
X0121346Y0128463D01*
X0122022Y0128463D01*
X0119519Y0128474D02*
X0117828Y0128474D01*
X0117828Y0127122D01*
X0118843Y0127122D01*
X0118894Y0127120D01*
X0118944Y0127114D01*
X0118993Y0127105D01*
X0119042Y0127092D01*
X0119090Y0127075D01*
X0119136Y0127055D01*
X0119181Y0127031D01*
X0119224Y0127005D01*
X0119264Y0126975D01*
X0119303Y0126942D01*
X0119339Y0126906D01*
X0119372Y0126867D01*
X0119402Y0126827D01*
X0119428Y0126784D01*
X0119452Y0126739D01*
X0119472Y0126693D01*
X0119489Y0126645D01*
X0119502Y0126596D01*
X0119511Y0126547D01*
X0119517Y0126497D01*
X0119519Y0126446D01*
X0119519Y0126107D01*
X0119517Y0126056D01*
X0119511Y0126006D01*
X0119502Y0125957D01*
X0119489Y0125908D01*
X0119472Y0125860D01*
X0119452Y0125814D01*
X0119428Y0125769D01*
X0119402Y0125726D01*
X0119372Y0125686D01*
X0119339Y0125647D01*
X0119303Y0125611D01*
X0119264Y0125578D01*
X0119224Y0125548D01*
X0119181Y0125522D01*
X0119136Y0125498D01*
X0119090Y0125478D01*
X0119042Y0125461D01*
X0118993Y0125448D01*
X0118944Y0125439D01*
X0118894Y0125433D01*
X0118843Y0125431D01*
X0117828Y0125431D01*
X0116511Y0125431D02*
X0115834Y0125431D01*
X0115783Y0125433D01*
X0115733Y0125439D01*
X0115684Y0125448D01*
X0115635Y0125461D01*
X0115587Y0125478D01*
X0115541Y0125498D01*
X0115496Y0125522D01*
X0115453Y0125548D01*
X0115413Y0125578D01*
X0115374Y0125611D01*
X0115338Y0125647D01*
X0115305Y0125686D01*
X0115275Y0125726D01*
X0115249Y0125769D01*
X0115225Y0125814D01*
X0115205Y0125860D01*
X0115188Y0125908D01*
X0115175Y0125957D01*
X0115166Y0126006D01*
X0115160Y0126056D01*
X0115158Y0126107D01*
X0115158Y0127798D01*
X0115160Y0127849D01*
X0115166Y0127899D01*
X0115175Y0127948D01*
X0115188Y0127997D01*
X0115205Y0128045D01*
X0115225Y0128091D01*
X0115249Y0128136D01*
X0115275Y0128179D01*
X0115305Y0128219D01*
X0115338Y0128258D01*
X0115374Y0128294D01*
X0115413Y0128327D01*
X0115453Y0128357D01*
X0115496Y0128383D01*
X0115541Y0128407D01*
X0115587Y0128427D01*
X0115635Y0128444D01*
X0115684Y0128457D01*
X0115733Y0128466D01*
X0115783Y0128472D01*
X0115834Y0128474D01*
X0116511Y0128474D01*
X0111873Y0132352D02*
X0110521Y0132352D01*
X0110466Y0132354D01*
X0110411Y0132359D01*
X0110356Y0132368D01*
X0110302Y0132381D01*
X0110249Y0132397D01*
X0110198Y0132416D01*
X0110147Y0132439D01*
X0110099Y0132465D01*
X0110052Y0132494D01*
X0110007Y0132527D01*
X0109964Y0132562D01*
X0109923Y0132599D01*
X0109886Y0132640D01*
X0109851Y0132683D01*
X0109818Y0132728D01*
X0109789Y0132775D01*
X0109763Y0132823D01*
X0109740Y0132874D01*
X0109721Y0132925D01*
X0109705Y0132978D01*
X0109692Y0133032D01*
X0109683Y0133087D01*
X0109678Y0133142D01*
X0109676Y0133197D01*
X0109675Y0133197D02*
X0109675Y0134042D01*
X0112719Y0134042D01*
X0112719Y0133197D01*
X0112718Y0133197D02*
X0112716Y0133142D01*
X0112711Y0133087D01*
X0112702Y0133032D01*
X0112689Y0132978D01*
X0112673Y0132925D01*
X0112654Y0132874D01*
X0112631Y0132823D01*
X0112605Y0132774D01*
X0112576Y0132728D01*
X0112543Y0132683D01*
X0112508Y0132640D01*
X0112471Y0132599D01*
X0112430Y0132562D01*
X0112387Y0132527D01*
X0112342Y0132494D01*
X0112295Y0132465D01*
X0112247Y0132439D01*
X0112196Y0132416D01*
X0112145Y0132397D01*
X0112092Y0132381D01*
X0112038Y0132368D01*
X0111983Y0132359D01*
X0111928Y0132354D01*
X0111873Y0132352D01*
X0111873Y0135753D02*
X0110521Y0135753D01*
X0110521Y0135754D02*
X0110466Y0135756D01*
X0110411Y0135761D01*
X0110356Y0135770D01*
X0110302Y0135783D01*
X0110249Y0135799D01*
X0110198Y0135818D01*
X0110147Y0135841D01*
X0110099Y0135867D01*
X0110052Y0135896D01*
X0110007Y0135929D01*
X0109964Y0135964D01*
X0109923Y0136001D01*
X0109886Y0136042D01*
X0109851Y0136085D01*
X0109818Y0136130D01*
X0109789Y0136177D01*
X0109763Y0136225D01*
X0109740Y0136276D01*
X0109721Y0136327D01*
X0109705Y0136380D01*
X0109692Y0136434D01*
X0109683Y0136489D01*
X0109678Y0136544D01*
X0109676Y0136599D01*
X0109675Y0136599D02*
X0109675Y0137444D01*
X0112719Y0137444D01*
X0112719Y0136599D01*
X0112718Y0136599D02*
X0112716Y0136544D01*
X0112711Y0136489D01*
X0112702Y0136434D01*
X0112689Y0136380D01*
X0112673Y0136327D01*
X0112654Y0136276D01*
X0112631Y0136225D01*
X0112605Y0136176D01*
X0112576Y0136130D01*
X0112543Y0136085D01*
X0112508Y0136042D01*
X0112471Y0136001D01*
X0112430Y0135964D01*
X0112387Y0135929D01*
X0112342Y0135896D01*
X0112295Y0135867D01*
X0112247Y0135841D01*
X0112196Y0135818D01*
X0112145Y0135799D01*
X0112092Y0135783D01*
X0112038Y0135770D01*
X0111983Y0135761D01*
X0111928Y0135756D01*
X0111873Y0135754D01*
X0112719Y0138879D02*
X0109675Y0139894D01*
X0112719Y0140908D01*
X0106656Y0135437D02*
X0106656Y0134592D01*
X0106655Y0135437D02*
X0106653Y0135493D01*
X0106647Y0135550D01*
X0106638Y0135605D01*
X0106625Y0135660D01*
X0106608Y0135714D01*
X0106588Y0135767D01*
X0106564Y0135818D01*
X0106537Y0135868D01*
X0106507Y0135915D01*
X0106473Y0135961D01*
X0106437Y0136004D01*
X0106397Y0136044D01*
X0106356Y0136082D01*
X0106311Y0136117D01*
X0106265Y0136149D01*
X0106216Y0136178D01*
X0106166Y0136203D01*
X0106114Y0136226D01*
X0106060Y0136244D01*
X0106006Y0136259D01*
X0105951Y0136270D01*
X0105895Y0136278D01*
X0105838Y0136282D01*
X0105782Y0136282D01*
X0105725Y0136278D01*
X0105669Y0136270D01*
X0105614Y0136259D01*
X0105560Y0136244D01*
X0105506Y0136226D01*
X0105454Y0136203D01*
X0105404Y0136178D01*
X0105355Y0136149D01*
X0105309Y0136117D01*
X0105264Y0136082D01*
X0105223Y0136044D01*
X0105183Y0136004D01*
X0105147Y0135961D01*
X0105113Y0135915D01*
X0105083Y0135868D01*
X0105056Y0135818D01*
X0105032Y0135767D01*
X0105012Y0135714D01*
X0104995Y0135660D01*
X0104982Y0135605D01*
X0104973Y0135550D01*
X0104967Y0135493D01*
X0104965Y0135437D01*
X0104965Y0135606D02*
X0104965Y0134930D01*
X0104964Y0135606D02*
X0104962Y0135657D01*
X0104956Y0135707D01*
X0104947Y0135756D01*
X0104934Y0135805D01*
X0104917Y0135853D01*
X0104897Y0135899D01*
X0104873Y0135944D01*
X0104847Y0135987D01*
X0104817Y0136027D01*
X0104784Y0136066D01*
X0104748Y0136102D01*
X0104709Y0136135D01*
X0104669Y0136165D01*
X0104626Y0136191D01*
X0104581Y0136215D01*
X0104535Y0136235D01*
X0104487Y0136252D01*
X0104438Y0136265D01*
X0104389Y0136274D01*
X0104339Y0136280D01*
X0104288Y0136282D01*
X0104237Y0136280D01*
X0104187Y0136274D01*
X0104138Y0136265D01*
X0104089Y0136252D01*
X0104041Y0136235D01*
X0103995Y0136215D01*
X0103950Y0136191D01*
X0103907Y0136165D01*
X0103867Y0136135D01*
X0103828Y0136102D01*
X0103792Y0136066D01*
X0103759Y0136027D01*
X0103729Y0135987D01*
X0103703Y0135944D01*
X0103679Y0135899D01*
X0103659Y0135853D01*
X0103642Y0135805D01*
X0103629Y0135756D01*
X0103620Y0135707D01*
X0103614Y0135657D01*
X0103612Y0135606D01*
X0103612Y0134592D01*
X0103612Y0133274D02*
X0103612Y0132598D01*
X0103614Y0132547D01*
X0103620Y0132497D01*
X0103629Y0132448D01*
X0103642Y0132399D01*
X0103659Y0132351D01*
X0103679Y0132305D01*
X0103703Y0132260D01*
X0103729Y0132217D01*
X0103759Y0132177D01*
X0103792Y0132138D01*
X0103828Y0132102D01*
X0103867Y0132069D01*
X0103907Y0132039D01*
X0103950Y0132013D01*
X0103995Y0131989D01*
X0104041Y0131969D01*
X0104089Y0131952D01*
X0104138Y0131939D01*
X0104187Y0131930D01*
X0104237Y0131924D01*
X0104288Y0131922D01*
X0105979Y0131922D01*
X0106030Y0131924D01*
X0106080Y0131930D01*
X0106129Y0131939D01*
X0106178Y0131952D01*
X0106226Y0131969D01*
X0106272Y0131989D01*
X0106317Y0132013D01*
X0106360Y0132039D01*
X0106400Y0132069D01*
X0106439Y0132102D01*
X0106475Y0132138D01*
X0106508Y0132177D01*
X0106538Y0132217D01*
X0106564Y0132260D01*
X0106588Y0132305D01*
X0106608Y0132351D01*
X0106625Y0132399D01*
X0106638Y0132448D01*
X0106647Y0132497D01*
X0106653Y0132547D01*
X0106655Y0132598D01*
X0106656Y0132598D02*
X0106656Y0133274D01*
X0106656Y0130567D02*
X0106656Y0129891D01*
X0106656Y0130229D02*
X0103612Y0130229D01*
X0103612Y0129891D02*
X0103612Y0130567D01*
X0107108Y0127590D02*
X0110152Y0126745D01*
X0110152Y0124582D02*
X0110152Y0123905D01*
X0110151Y0123905D02*
X0110149Y0123854D01*
X0110143Y0123804D01*
X0110134Y0123755D01*
X0110121Y0123706D01*
X0110104Y0123658D01*
X0110084Y0123612D01*
X0110060Y0123567D01*
X0110034Y0123524D01*
X0110004Y0123484D01*
X0109971Y0123445D01*
X0109935Y0123409D01*
X0109896Y0123376D01*
X0109856Y0123346D01*
X0109813Y0123320D01*
X0109768Y0123296D01*
X0109722Y0123276D01*
X0109674Y0123259D01*
X0109625Y0123246D01*
X0109576Y0123237D01*
X0109526Y0123231D01*
X0109475Y0123229D01*
X0107785Y0123229D01*
X0107734Y0123231D01*
X0107684Y0123237D01*
X0107635Y0123246D01*
X0107586Y0123259D01*
X0107538Y0123276D01*
X0107492Y0123296D01*
X0107447Y0123320D01*
X0107404Y0123346D01*
X0107364Y0123376D01*
X0107325Y0123409D01*
X0107289Y0123445D01*
X0107256Y0123484D01*
X0107226Y0123524D01*
X0107200Y0123567D01*
X0107176Y0123612D01*
X0107156Y0123658D01*
X0107139Y0123706D01*
X0107126Y0123755D01*
X0107117Y0123804D01*
X0107111Y0123854D01*
X0107109Y0123905D01*
X0107108Y0123905D02*
X0107108Y0124582D01*
X0107108Y0125899D02*
X0107108Y0127590D01*
X0107108Y0125899D02*
X0107446Y0125899D01*
X0105138Y0123456D02*
X0104292Y0123456D01*
X0104236Y0123454D01*
X0104179Y0123448D01*
X0104124Y0123439D01*
X0104069Y0123426D01*
X0104015Y0123409D01*
X0103962Y0123389D01*
X0103911Y0123365D01*
X0103861Y0123338D01*
X0103814Y0123308D01*
X0103768Y0123274D01*
X0103725Y0123238D01*
X0103685Y0123198D01*
X0103647Y0123157D01*
X0103612Y0123112D01*
X0103580Y0123066D01*
X0103551Y0123017D01*
X0103526Y0122967D01*
X0103503Y0122915D01*
X0103485Y0122861D01*
X0103470Y0122807D01*
X0103459Y0122752D01*
X0103451Y0122696D01*
X0103447Y0122639D01*
X0103447Y0122583D01*
X0103451Y0122526D01*
X0103459Y0122470D01*
X0103470Y0122415D01*
X0103485Y0122361D01*
X0103503Y0122307D01*
X0103526Y0122255D01*
X0103551Y0122205D01*
X0103580Y0122156D01*
X0103612Y0122110D01*
X0103647Y0122065D01*
X0103685Y0122024D01*
X0103725Y0121984D01*
X0103768Y0121948D01*
X0103814Y0121914D01*
X0103861Y0121884D01*
X0103911Y0121857D01*
X0103962Y0121833D01*
X0104015Y0121813D01*
X0104069Y0121796D01*
X0104124Y0121783D01*
X0104179Y0121774D01*
X0104236Y0121768D01*
X0104292Y0121766D01*
X0104292Y0121765D02*
X0104461Y0121765D01*
X0104461Y0121766D02*
X0104512Y0121768D01*
X0104562Y0121774D01*
X0104611Y0121783D01*
X0104660Y0121796D01*
X0104708Y0121813D01*
X0104754Y0121833D01*
X0104799Y0121857D01*
X0104842Y0121883D01*
X0104882Y0121913D01*
X0104921Y0121946D01*
X0104957Y0121982D01*
X0104990Y0122021D01*
X0105020Y0122061D01*
X0105046Y0122104D01*
X0105070Y0122149D01*
X0105090Y0122195D01*
X0105107Y0122243D01*
X0105120Y0122292D01*
X0105129Y0122341D01*
X0105135Y0122391D01*
X0105137Y0122442D01*
X0105138Y0122442D02*
X0105138Y0123456D01*
X0105138Y0123457D02*
X0105209Y0123455D01*
X0105279Y0123450D01*
X0105350Y0123440D01*
X0105419Y0123427D01*
X0105488Y0123411D01*
X0105556Y0123391D01*
X0105623Y0123367D01*
X0105688Y0123340D01*
X0105752Y0123310D01*
X0105815Y0123276D01*
X0105875Y0123239D01*
X0105933Y0123199D01*
X0105989Y0123155D01*
X0106043Y0123109D01*
X0106095Y0123061D01*
X0106143Y0123009D01*
X0106189Y0122955D01*
X0106233Y0122899D01*
X0106273Y0122841D01*
X0106310Y0122780D01*
X0106344Y0122718D01*
X0106374Y0122654D01*
X0106401Y0122589D01*
X0106425Y0122522D01*
X0106445Y0122454D01*
X0106461Y0122385D01*
X0106474Y0122316D01*
X0106484Y0122245D01*
X0106489Y0122175D01*
X0106491Y0122104D01*
X0106490Y0120448D02*
X0106490Y0119771D01*
X0106488Y0119720D01*
X0106482Y0119670D01*
X0106473Y0119621D01*
X0106460Y0119572D01*
X0106443Y0119524D01*
X0106423Y0119478D01*
X0106399Y0119433D01*
X0106373Y0119390D01*
X0106343Y0119350D01*
X0106310Y0119311D01*
X0106274Y0119275D01*
X0106235Y0119242D01*
X0106195Y0119212D01*
X0106152Y0119186D01*
X0106107Y0119162D01*
X0106061Y0119142D01*
X0106013Y0119125D01*
X0105964Y0119112D01*
X0105915Y0119103D01*
X0105865Y0119097D01*
X0105814Y0119095D01*
X0104123Y0119095D01*
X0104072Y0119097D01*
X0104022Y0119103D01*
X0103973Y0119112D01*
X0103924Y0119125D01*
X0103876Y0119142D01*
X0103830Y0119162D01*
X0103785Y0119186D01*
X0103742Y0119212D01*
X0103702Y0119242D01*
X0103663Y0119275D01*
X0103627Y0119311D01*
X0103594Y0119350D01*
X0103564Y0119390D01*
X0103538Y0119433D01*
X0103514Y0119478D01*
X0103494Y0119524D01*
X0103477Y0119572D01*
X0103464Y0119621D01*
X0103455Y0119670D01*
X0103449Y0119720D01*
X0103447Y0119771D01*
X0103447Y0120448D01*
X0132308Y0100718D02*
X0134506Y0100718D01*
X0134506Y0099027D02*
X0132308Y0099027D01*
X0132252Y0099029D01*
X0132195Y0099035D01*
X0132140Y0099044D01*
X0132085Y0099057D01*
X0132031Y0099074D01*
X0131978Y0099094D01*
X0131927Y0099118D01*
X0131877Y0099145D01*
X0131830Y0099175D01*
X0131784Y0099209D01*
X0131741Y0099245D01*
X0131701Y0099285D01*
X0131663Y0099326D01*
X0131628Y0099371D01*
X0131596Y0099417D01*
X0131567Y0099466D01*
X0131542Y0099516D01*
X0131519Y0099568D01*
X0131501Y0099622D01*
X0131486Y0099676D01*
X0131475Y0099731D01*
X0131467Y0099787D01*
X0131463Y0099844D01*
X0131463Y0099900D01*
X0131467Y0099957D01*
X0131475Y0100013D01*
X0131486Y0100068D01*
X0131501Y0100122D01*
X0131519Y0100176D01*
X0131542Y0100228D01*
X0131567Y0100278D01*
X0131596Y0100327D01*
X0131628Y0100373D01*
X0131663Y0100418D01*
X0131701Y0100459D01*
X0131741Y0100499D01*
X0131784Y0100535D01*
X0131830Y0100569D01*
X0131877Y0100599D01*
X0131927Y0100626D01*
X0131978Y0100650D01*
X0132031Y0100670D01*
X0132085Y0100687D01*
X0132140Y0100700D01*
X0132195Y0100709D01*
X0132252Y0100715D01*
X0132308Y0100717D01*
X0133238Y0097106D02*
X0132731Y0096176D01*
X0131462Y0096514D02*
X0131464Y0096589D01*
X0131470Y0096664D01*
X0131480Y0096739D01*
X0131494Y0096813D01*
X0131511Y0096886D01*
X0131533Y0096958D01*
X0131558Y0097029D01*
X0131587Y0097098D01*
X0131619Y0097166D01*
X0131655Y0097232D01*
X0131695Y0097296D01*
X0131738Y0097358D01*
X0131784Y0097417D01*
X0131833Y0097474D01*
X0131885Y0097529D01*
X0132731Y0096176D02*
X0132703Y0096133D01*
X0132673Y0096093D01*
X0132639Y0096054D01*
X0132603Y0096018D01*
X0132564Y0095985D01*
X0132523Y0095955D01*
X0132480Y0095929D01*
X0132435Y0095905D01*
X0132388Y0095885D01*
X0132340Y0095868D01*
X0132291Y0095855D01*
X0132241Y0095846D01*
X0132190Y0095840D01*
X0132139Y0095838D01*
X0132088Y0095840D01*
X0132038Y0095846D01*
X0131989Y0095855D01*
X0131940Y0095868D01*
X0131892Y0095885D01*
X0131846Y0095905D01*
X0131801Y0095929D01*
X0131758Y0095955D01*
X0131718Y0095985D01*
X0131679Y0096018D01*
X0131643Y0096054D01*
X0131610Y0096093D01*
X0131580Y0096133D01*
X0131554Y0096176D01*
X0131530Y0096221D01*
X0131510Y0096267D01*
X0131493Y0096315D01*
X0131480Y0096364D01*
X0131471Y0096413D01*
X0131465Y0096463D01*
X0131463Y0096514D01*
X0134252Y0096007D02*
X0134292Y0096063D01*
X0134328Y0096120D01*
X0134361Y0096179D01*
X0134391Y0096241D01*
X0134418Y0096303D01*
X0134441Y0096367D01*
X0134461Y0096432D01*
X0134477Y0096498D01*
X0134490Y0096565D01*
X0134499Y0096632D01*
X0134504Y0096700D01*
X0134506Y0096768D01*
X0134504Y0096819D01*
X0134498Y0096869D01*
X0134489Y0096918D01*
X0134476Y0096967D01*
X0134459Y0097015D01*
X0134439Y0097061D01*
X0134415Y0097106D01*
X0134389Y0097149D01*
X0134359Y0097189D01*
X0134326Y0097228D01*
X0134290Y0097264D01*
X0134251Y0097297D01*
X0134211Y0097327D01*
X0134168Y0097353D01*
X0134123Y0097377D01*
X0134077Y0097397D01*
X0134029Y0097414D01*
X0133980Y0097427D01*
X0133931Y0097436D01*
X0133881Y0097442D01*
X0133830Y0097444D01*
X0133779Y0097442D01*
X0133728Y0097436D01*
X0133678Y0097427D01*
X0133629Y0097414D01*
X0133581Y0097397D01*
X0133534Y0097377D01*
X0133489Y0097353D01*
X0133446Y0097327D01*
X0133405Y0097297D01*
X0133366Y0097264D01*
X0133330Y0097228D01*
X0133296Y0097189D01*
X0133266Y0097149D01*
X0133238Y0097106D01*
X0132815Y0094311D02*
X0132815Y0093466D01*
X0132815Y0093297D02*
X0131463Y0092621D01*
X0131463Y0094311D02*
X0134506Y0094311D01*
X0134506Y0093466D01*
X0134504Y0093410D01*
X0134498Y0093353D01*
X0134489Y0093298D01*
X0134476Y0093243D01*
X0134459Y0093189D01*
X0134439Y0093136D01*
X0134415Y0093085D01*
X0134388Y0093035D01*
X0134358Y0092988D01*
X0134324Y0092942D01*
X0134288Y0092899D01*
X0134248Y0092859D01*
X0134207Y0092821D01*
X0134162Y0092786D01*
X0134116Y0092754D01*
X0134067Y0092725D01*
X0134017Y0092700D01*
X0133965Y0092677D01*
X0133911Y0092659D01*
X0133857Y0092644D01*
X0133802Y0092633D01*
X0133746Y0092625D01*
X0133689Y0092621D01*
X0133633Y0092621D01*
X0133576Y0092625D01*
X0133520Y0092633D01*
X0133465Y0092644D01*
X0133411Y0092659D01*
X0133357Y0092677D01*
X0133305Y0092700D01*
X0133255Y0092725D01*
X0133206Y0092754D01*
X0133160Y0092786D01*
X0133115Y0092821D01*
X0133074Y0092859D01*
X0133034Y0092899D01*
X0132998Y0092942D01*
X0132964Y0092988D01*
X0132934Y0093035D01*
X0132907Y0093085D01*
X0132883Y0093136D01*
X0132863Y0093189D01*
X0132846Y0093243D01*
X0132833Y0093298D01*
X0132824Y0093353D01*
X0132818Y0093410D01*
X0132816Y0093466D01*
X0138579Y0099031D02*
X0138581Y0099143D01*
X0138587Y0099256D01*
X0138597Y0099368D01*
X0138611Y0099479D01*
X0138629Y0099591D01*
X0138651Y0099701D01*
X0138676Y0099810D01*
X0138706Y0099919D01*
X0138739Y0100026D01*
X0138777Y0100132D01*
X0138818Y0100237D01*
X0138862Y0100340D01*
X0138910Y0100442D01*
X0138962Y0100542D01*
X0139018Y0100640D01*
X0139077Y0100736D01*
X0139139Y0100829D01*
X0139204Y0100921D01*
X0139273Y0101010D01*
X0139345Y0101097D01*
X0139420Y0101181D01*
X0139497Y0101262D01*
X0139578Y0101340D01*
X0139661Y0101416D01*
X0139747Y0101488D01*
X0139836Y0101558D01*
X0139926Y0101624D01*
X0140020Y0101687D01*
X0140115Y0101747D01*
X0140212Y0101803D01*
X0140312Y0101856D01*
X0140413Y0101905D01*
X0140516Y0101951D01*
X0140620Y0101993D01*
X0140726Y0102031D01*
X0140833Y0102065D01*
X0140941Y0102096D01*
X0141051Y0102122D01*
X0141161Y0102145D01*
X0141272Y0102164D01*
X0141383Y0102179D01*
X0141495Y0102190D01*
X0141607Y0102197D01*
X0141720Y0102200D01*
X0141832Y0102199D01*
X0141945Y0102194D01*
X0142057Y0102185D01*
X0142169Y0102172D01*
X0142280Y0102155D01*
X0142390Y0102134D01*
X0142500Y0102109D01*
X0142609Y0102081D01*
X0142717Y0102048D01*
X0142823Y0102012D01*
X0142928Y0101972D01*
X0143032Y0101928D01*
X0143134Y0101881D01*
X0143234Y0101830D01*
X0143332Y0101775D01*
X0143429Y0101717D01*
X0143523Y0101656D01*
X0143615Y0101591D01*
X0143705Y0101524D01*
X0143792Y0101453D01*
X0143877Y0101378D01*
X0143959Y0101301D01*
X0144038Y0101222D01*
X0144114Y0101139D01*
X0144188Y0101054D01*
X0144258Y0100966D01*
X0144325Y0100875D01*
X0144389Y0100783D01*
X0144449Y0100688D01*
X0144506Y0100591D01*
X0144560Y0100492D01*
X0144610Y0100391D01*
X0144657Y0100289D01*
X0144699Y0100185D01*
X0144739Y0100080D01*
X0144774Y0099973D01*
X0144805Y0099865D01*
X0144833Y0099756D01*
X0144857Y0099646D01*
X0144877Y0099535D01*
X0144893Y0099424D01*
X0144905Y0099312D01*
X0144913Y0099200D01*
X0144917Y0099087D01*
X0144917Y0098975D01*
X0144913Y0098862D01*
X0144905Y0098750D01*
X0144893Y0098638D01*
X0144877Y0098527D01*
X0144857Y0098416D01*
X0144833Y0098306D01*
X0144805Y0098197D01*
X0144774Y0098089D01*
X0144739Y0097982D01*
X0144699Y0097877D01*
X0144657Y0097773D01*
X0144610Y0097671D01*
X0144560Y0097570D01*
X0144506Y0097471D01*
X0144449Y0097374D01*
X0144389Y0097279D01*
X0144325Y0097187D01*
X0144258Y0097096D01*
X0144188Y0097008D01*
X0144114Y0096923D01*
X0144038Y0096840D01*
X0143959Y0096761D01*
X0143877Y0096684D01*
X0143792Y0096609D01*
X0143705Y0096538D01*
X0143615Y0096471D01*
X0143523Y0096406D01*
X0143429Y0096345D01*
X0143333Y0096287D01*
X0143234Y0096232D01*
X0143134Y0096181D01*
X0143032Y0096134D01*
X0142928Y0096090D01*
X0142823Y0096050D01*
X0142717Y0096014D01*
X0142609Y0095981D01*
X0142500Y0095953D01*
X0142390Y0095928D01*
X0142280Y0095907D01*
X0142169Y0095890D01*
X0142057Y0095877D01*
X0141945Y0095868D01*
X0141832Y0095863D01*
X0141720Y0095862D01*
X0141607Y0095865D01*
X0141495Y0095872D01*
X0141383Y0095883D01*
X0141272Y0095898D01*
X0141161Y0095917D01*
X0141051Y0095940D01*
X0140941Y0095966D01*
X0140833Y0095997D01*
X0140726Y0096031D01*
X0140620Y0096069D01*
X0140516Y0096111D01*
X0140413Y0096157D01*
X0140312Y0096206D01*
X0140212Y0096259D01*
X0140115Y0096315D01*
X0140020Y0096375D01*
X0139926Y0096438D01*
X0139836Y0096504D01*
X0139747Y0096574D01*
X0139661Y0096646D01*
X0139578Y0096722D01*
X0139497Y0096800D01*
X0139420Y0096881D01*
X0139345Y0096965D01*
X0139273Y0097052D01*
X0139204Y0097141D01*
X0139139Y0097233D01*
X0139077Y0097326D01*
X0139018Y0097422D01*
X0138962Y0097520D01*
X0138910Y0097620D01*
X0138862Y0097722D01*
X0138818Y0097825D01*
X0138777Y0097930D01*
X0138739Y0098036D01*
X0138706Y0098143D01*
X0138676Y0098252D01*
X0138651Y0098361D01*
X0138629Y0098471D01*
X0138611Y0098583D01*
X0138597Y0098694D01*
X0138587Y0098806D01*
X0138581Y0098919D01*
X0138579Y0099031D01*
X0132169Y0083525D02*
X0129126Y0083525D01*
X0130478Y0083525D02*
X0130478Y0082679D01*
X0130479Y0082679D02*
X0130481Y0082623D01*
X0130487Y0082566D01*
X0130496Y0082511D01*
X0130509Y0082456D01*
X0130526Y0082402D01*
X0130546Y0082349D01*
X0130570Y0082298D01*
X0130597Y0082248D01*
X0130627Y0082201D01*
X0130661Y0082155D01*
X0130697Y0082112D01*
X0130737Y0082072D01*
X0130778Y0082034D01*
X0130823Y0081999D01*
X0130869Y0081967D01*
X0130918Y0081938D01*
X0130968Y0081913D01*
X0131020Y0081890D01*
X0131074Y0081872D01*
X0131128Y0081857D01*
X0131183Y0081846D01*
X0131239Y0081838D01*
X0131296Y0081834D01*
X0131352Y0081834D01*
X0131409Y0081838D01*
X0131465Y0081846D01*
X0131520Y0081857D01*
X0131574Y0081872D01*
X0131628Y0081890D01*
X0131680Y0081913D01*
X0131730Y0081938D01*
X0131779Y0081967D01*
X0131825Y0081999D01*
X0131870Y0082034D01*
X0131911Y0082072D01*
X0131951Y0082112D01*
X0131987Y0082155D01*
X0132021Y0082201D01*
X0132051Y0082248D01*
X0132078Y0082298D01*
X0132102Y0082349D01*
X0132122Y0082402D01*
X0132139Y0082456D01*
X0132152Y0082511D01*
X0132161Y0082566D01*
X0132167Y0082623D01*
X0132169Y0082679D01*
X0132169Y0083525D01*
X0132169Y0080373D02*
X0129126Y0080373D01*
X0130478Y0080373D02*
X0130478Y0079527D01*
X0130478Y0079358D02*
X0129126Y0078682D01*
X0129971Y0077212D02*
X0131324Y0077212D01*
X0131380Y0077210D01*
X0131437Y0077204D01*
X0131492Y0077195D01*
X0131547Y0077182D01*
X0131601Y0077165D01*
X0131654Y0077145D01*
X0131705Y0077121D01*
X0131755Y0077094D01*
X0131802Y0077064D01*
X0131848Y0077030D01*
X0131891Y0076994D01*
X0131931Y0076954D01*
X0131969Y0076913D01*
X0132004Y0076868D01*
X0132036Y0076822D01*
X0132065Y0076773D01*
X0132090Y0076723D01*
X0132113Y0076671D01*
X0132131Y0076617D01*
X0132146Y0076563D01*
X0132157Y0076508D01*
X0132165Y0076452D01*
X0132169Y0076395D01*
X0132169Y0076339D01*
X0132165Y0076282D01*
X0132157Y0076226D01*
X0132146Y0076171D01*
X0132131Y0076117D01*
X0132113Y0076063D01*
X0132090Y0076011D01*
X0132065Y0075961D01*
X0132036Y0075912D01*
X0132004Y0075866D01*
X0131969Y0075821D01*
X0131931Y0075780D01*
X0131891Y0075740D01*
X0131848Y0075704D01*
X0131802Y0075670D01*
X0131755Y0075640D01*
X0131705Y0075613D01*
X0131654Y0075589D01*
X0131601Y0075569D01*
X0131547Y0075552D01*
X0131492Y0075539D01*
X0131437Y0075530D01*
X0131380Y0075524D01*
X0131324Y0075522D01*
X0131324Y0075521D02*
X0129971Y0075521D01*
X0129971Y0075522D02*
X0129915Y0075524D01*
X0129858Y0075530D01*
X0129803Y0075539D01*
X0129748Y0075552D01*
X0129694Y0075569D01*
X0129641Y0075589D01*
X0129590Y0075613D01*
X0129540Y0075640D01*
X0129493Y0075670D01*
X0129447Y0075704D01*
X0129404Y0075740D01*
X0129364Y0075780D01*
X0129326Y0075821D01*
X0129291Y0075866D01*
X0129259Y0075912D01*
X0129230Y0075961D01*
X0129205Y0076011D01*
X0129182Y0076063D01*
X0129164Y0076117D01*
X0129149Y0076171D01*
X0129138Y0076226D01*
X0129130Y0076282D01*
X0129126Y0076339D01*
X0129126Y0076395D01*
X0129130Y0076452D01*
X0129138Y0076508D01*
X0129149Y0076563D01*
X0129164Y0076617D01*
X0129182Y0076671D01*
X0129205Y0076723D01*
X0129230Y0076773D01*
X0129259Y0076822D01*
X0129291Y0076868D01*
X0129326Y0076913D01*
X0129364Y0076954D01*
X0129404Y0076994D01*
X0129447Y0077030D01*
X0129493Y0077064D01*
X0129540Y0077094D01*
X0129590Y0077121D01*
X0129641Y0077145D01*
X0129694Y0077165D01*
X0129748Y0077182D01*
X0129803Y0077195D01*
X0129858Y0077204D01*
X0129915Y0077210D01*
X0129971Y0077212D01*
X0129802Y0073917D02*
X0131493Y0073917D01*
X0131544Y0073915D01*
X0131594Y0073909D01*
X0131643Y0073900D01*
X0131692Y0073887D01*
X0131740Y0073870D01*
X0131786Y0073850D01*
X0131831Y0073826D01*
X0131874Y0073800D01*
X0131914Y0073770D01*
X0131953Y0073737D01*
X0131989Y0073701D01*
X0132022Y0073662D01*
X0132052Y0073622D01*
X0132078Y0073579D01*
X0132102Y0073534D01*
X0132122Y0073488D01*
X0132139Y0073440D01*
X0132152Y0073391D01*
X0132161Y0073342D01*
X0132167Y0073292D01*
X0132169Y0073241D01*
X0132169Y0072226D01*
X0130816Y0072226D02*
X0129126Y0072226D01*
X0129126Y0073241D01*
X0129128Y0073292D01*
X0129134Y0073342D01*
X0129143Y0073391D01*
X0129156Y0073440D01*
X0129173Y0073488D01*
X0129193Y0073534D01*
X0129217Y0073579D01*
X0129243Y0073622D01*
X0129273Y0073662D01*
X0129306Y0073701D01*
X0129342Y0073737D01*
X0129381Y0073770D01*
X0129421Y0073800D01*
X0129464Y0073826D01*
X0129509Y0073850D01*
X0129555Y0073870D01*
X0129603Y0073887D01*
X0129652Y0073900D01*
X0129701Y0073909D01*
X0129751Y0073915D01*
X0129802Y0073917D01*
X0130816Y0072733D02*
X0130816Y0072226D01*
X0130255Y0067109D02*
X0130341Y0067069D01*
X0130428Y0067032D01*
X0130517Y0066999D01*
X0130607Y0066969D01*
X0130698Y0066942D01*
X0130790Y0066919D01*
X0130883Y0066900D01*
X0130976Y0066884D01*
X0131070Y0066871D01*
X0131165Y0066862D01*
X0131259Y0066857D01*
X0131354Y0066855D01*
X0131354Y0068546D02*
X0131449Y0068544D01*
X0131543Y0068539D01*
X0131638Y0068530D01*
X0131732Y0068517D01*
X0131825Y0068501D01*
X0131918Y0068482D01*
X0132010Y0068459D01*
X0132101Y0068432D01*
X0132191Y0068402D01*
X0132280Y0068369D01*
X0132367Y0068332D01*
X0132453Y0068292D01*
X0132876Y0067701D02*
X0132874Y0067653D01*
X0132868Y0067604D01*
X0132859Y0067557D01*
X0132846Y0067510D01*
X0132830Y0067464D01*
X0132809Y0067420D01*
X0132786Y0067378D01*
X0132759Y0067337D01*
X0132730Y0067299D01*
X0132697Y0067263D01*
X0132662Y0067230D01*
X0132624Y0067199D01*
X0132584Y0067172D01*
X0132542Y0067147D01*
X0132498Y0067126D01*
X0132453Y0067109D01*
X0132200Y0067024D02*
X0130509Y0068377D01*
X0129832Y0067701D02*
X0129834Y0067653D01*
X0129840Y0067604D01*
X0129849Y0067557D01*
X0129862Y0067510D01*
X0129878Y0067464D01*
X0129899Y0067420D01*
X0129922Y0067378D01*
X0129949Y0067337D01*
X0129978Y0067299D01*
X0130011Y0067263D01*
X0130046Y0067230D01*
X0130084Y0067199D01*
X0130124Y0067172D01*
X0130166Y0067147D01*
X0130210Y0067126D01*
X0130255Y0067109D01*
X0129832Y0067701D02*
X0129834Y0067749D01*
X0129840Y0067798D01*
X0129849Y0067845D01*
X0129862Y0067892D01*
X0129878Y0067938D01*
X0129899Y0067982D01*
X0129922Y0068024D01*
X0129949Y0068065D01*
X0129978Y0068103D01*
X0130011Y0068139D01*
X0130046Y0068172D01*
X0130084Y0068203D01*
X0130124Y0068230D01*
X0130166Y0068255D01*
X0130210Y0068276D01*
X0130255Y0068293D01*
X0131354Y0066855D02*
X0131449Y0066857D01*
X0131543Y0066862D01*
X0131638Y0066871D01*
X0131732Y0066884D01*
X0131825Y0066900D01*
X0131918Y0066919D01*
X0132010Y0066942D01*
X0132101Y0066969D01*
X0132191Y0066999D01*
X0132280Y0067032D01*
X0132367Y0067069D01*
X0132453Y0067109D01*
X0132876Y0067701D02*
X0132874Y0067749D01*
X0132868Y0067798D01*
X0132859Y0067845D01*
X0132846Y0067892D01*
X0132830Y0067938D01*
X0132809Y0067982D01*
X0132786Y0068024D01*
X0132759Y0068065D01*
X0132730Y0068103D01*
X0132697Y0068139D01*
X0132662Y0068172D01*
X0132624Y0068203D01*
X0132584Y0068230D01*
X0132542Y0068255D01*
X0132498Y0068276D01*
X0132453Y0068293D01*
X0131354Y0068546D02*
X0131259Y0068544D01*
X0131165Y0068539D01*
X0131070Y0068530D01*
X0130976Y0068517D01*
X0130883Y0068501D01*
X0130790Y0068482D01*
X0130698Y0068459D01*
X0130607Y0068432D01*
X0130517Y0068402D01*
X0130428Y0068369D01*
X0130341Y0068332D01*
X0130255Y0068292D01*
X0130002Y0065553D02*
X0130002Y0065384D01*
X0129833Y0065384D01*
X0129833Y0065553D01*
X0130002Y0065553D01*
X0129833Y0064082D02*
X0129833Y0062391D01*
X0129833Y0063236D02*
X0132876Y0063236D01*
X0132200Y0064082D01*
X0132031Y0060893D02*
X0131862Y0060893D01*
X0131862Y0060892D02*
X0131811Y0060890D01*
X0131761Y0060884D01*
X0131712Y0060875D01*
X0131663Y0060862D01*
X0131615Y0060845D01*
X0131569Y0060825D01*
X0131524Y0060801D01*
X0131481Y0060775D01*
X0131441Y0060745D01*
X0131402Y0060712D01*
X0131366Y0060676D01*
X0131333Y0060637D01*
X0131303Y0060597D01*
X0131277Y0060554D01*
X0131253Y0060509D01*
X0131233Y0060463D01*
X0131216Y0060415D01*
X0131203Y0060366D01*
X0131194Y0060317D01*
X0131188Y0060267D01*
X0131186Y0060216D01*
X0131185Y0060216D02*
X0131185Y0059202D01*
X0132031Y0059202D01*
X0132087Y0059204D01*
X0132144Y0059210D01*
X0132199Y0059219D01*
X0132254Y0059232D01*
X0132308Y0059249D01*
X0132361Y0059269D01*
X0132412Y0059293D01*
X0132462Y0059320D01*
X0132509Y0059350D01*
X0132555Y0059384D01*
X0132598Y0059420D01*
X0132638Y0059460D01*
X0132676Y0059501D01*
X0132711Y0059546D01*
X0132743Y0059592D01*
X0132772Y0059641D01*
X0132797Y0059691D01*
X0132820Y0059743D01*
X0132838Y0059797D01*
X0132853Y0059851D01*
X0132864Y0059906D01*
X0132872Y0059962D01*
X0132876Y0060019D01*
X0132876Y0060075D01*
X0132872Y0060132D01*
X0132864Y0060188D01*
X0132853Y0060243D01*
X0132838Y0060297D01*
X0132820Y0060351D01*
X0132797Y0060403D01*
X0132772Y0060453D01*
X0132743Y0060502D01*
X0132711Y0060548D01*
X0132676Y0060593D01*
X0132638Y0060634D01*
X0132598Y0060674D01*
X0132555Y0060710D01*
X0132509Y0060744D01*
X0132462Y0060774D01*
X0132412Y0060801D01*
X0132361Y0060825D01*
X0132308Y0060845D01*
X0132254Y0060862D01*
X0132199Y0060875D01*
X0132144Y0060884D01*
X0132087Y0060890D01*
X0132031Y0060892D01*
X0131185Y0059201D02*
X0131114Y0059203D01*
X0131044Y0059208D01*
X0130973Y0059218D01*
X0130904Y0059231D01*
X0130835Y0059247D01*
X0130767Y0059267D01*
X0130700Y0059291D01*
X0130635Y0059318D01*
X0130571Y0059348D01*
X0130509Y0059382D01*
X0130448Y0059419D01*
X0130390Y0059459D01*
X0130334Y0059503D01*
X0130280Y0059549D01*
X0130228Y0059597D01*
X0130180Y0059649D01*
X0130134Y0059703D01*
X0130090Y0059759D01*
X0130050Y0059817D01*
X0130013Y0059878D01*
X0129979Y0059940D01*
X0129949Y0060004D01*
X0129922Y0060069D01*
X0129898Y0060136D01*
X0129878Y0060204D01*
X0129862Y0060273D01*
X0129849Y0060342D01*
X0129839Y0060413D01*
X0129834Y0060483D01*
X0129832Y0060554D01*
X0126419Y0060047D02*
X0123376Y0060047D01*
X0123376Y0059202D02*
X0123376Y0060893D01*
X0123376Y0062391D02*
X0123376Y0064082D01*
X0125067Y0062644D01*
X0126419Y0063152D02*
X0126417Y0063213D01*
X0126411Y0063275D01*
X0126402Y0063335D01*
X0126388Y0063395D01*
X0126371Y0063454D01*
X0126350Y0063512D01*
X0126326Y0063568D01*
X0126298Y0063623D01*
X0126267Y0063676D01*
X0126232Y0063727D01*
X0126194Y0063775D01*
X0126154Y0063821D01*
X0126110Y0063865D01*
X0126064Y0063905D01*
X0126016Y0063943D01*
X0125965Y0063977D01*
X0125912Y0064009D01*
X0125857Y0064036D01*
X0125801Y0064061D01*
X0125743Y0064081D01*
X0125066Y0062645D02*
X0125106Y0062606D01*
X0125148Y0062570D01*
X0125192Y0062537D01*
X0125238Y0062507D01*
X0125286Y0062480D01*
X0125336Y0062457D01*
X0125388Y0062437D01*
X0125440Y0062421D01*
X0125494Y0062408D01*
X0125548Y0062398D01*
X0125603Y0062393D01*
X0125658Y0062391D01*
X0125712Y0062393D01*
X0125766Y0062399D01*
X0125820Y0062408D01*
X0125872Y0062422D01*
X0125924Y0062439D01*
X0125974Y0062460D01*
X0126023Y0062484D01*
X0126069Y0062512D01*
X0126114Y0062543D01*
X0126156Y0062577D01*
X0126196Y0062614D01*
X0126233Y0062654D01*
X0126267Y0062696D01*
X0126298Y0062741D01*
X0126326Y0062787D01*
X0126350Y0062836D01*
X0126371Y0062886D01*
X0126388Y0062938D01*
X0126402Y0062990D01*
X0126411Y0063044D01*
X0126417Y0063098D01*
X0126419Y0063152D01*
X0125743Y0060893D02*
X0126419Y0060047D01*
X0118388Y0059878D02*
X0118388Y0060893D01*
X0118388Y0059878D02*
X0118386Y0059827D01*
X0118380Y0059777D01*
X0118371Y0059728D01*
X0118358Y0059679D01*
X0118341Y0059631D01*
X0118321Y0059585D01*
X0118297Y0059540D01*
X0118271Y0059497D01*
X0118241Y0059457D01*
X0118208Y0059418D01*
X0118172Y0059382D01*
X0118133Y0059349D01*
X0118093Y0059319D01*
X0118050Y0059293D01*
X0118005Y0059269D01*
X0117959Y0059249D01*
X0117911Y0059232D01*
X0117862Y0059219D01*
X0117813Y0059210D01*
X0117763Y0059204D01*
X0117712Y0059202D01*
X0117661Y0059204D01*
X0117611Y0059210D01*
X0117562Y0059219D01*
X0117513Y0059232D01*
X0117465Y0059249D01*
X0117419Y0059269D01*
X0117374Y0059293D01*
X0117331Y0059319D01*
X0117291Y0059349D01*
X0117252Y0059382D01*
X0117216Y0059418D01*
X0117183Y0059457D01*
X0117153Y0059497D01*
X0117127Y0059540D01*
X0117103Y0059585D01*
X0117083Y0059631D01*
X0117066Y0059679D01*
X0117053Y0059728D01*
X0117044Y0059777D01*
X0117038Y0059827D01*
X0117036Y0059878D01*
X0117035Y0059878D02*
X0117035Y0060554D01*
X0117035Y0060047D02*
X0117033Y0059991D01*
X0117027Y0059934D01*
X0117018Y0059879D01*
X0117005Y0059824D01*
X0116988Y0059770D01*
X0116968Y0059717D01*
X0116944Y0059666D01*
X0116917Y0059616D01*
X0116887Y0059569D01*
X0116853Y0059523D01*
X0116817Y0059480D01*
X0116777Y0059440D01*
X0116736Y0059402D01*
X0116691Y0059367D01*
X0116645Y0059335D01*
X0116596Y0059306D01*
X0116546Y0059281D01*
X0116494Y0059258D01*
X0116440Y0059240D01*
X0116386Y0059225D01*
X0116331Y0059214D01*
X0116275Y0059206D01*
X0116218Y0059202D01*
X0116162Y0059202D01*
X0116105Y0059206D01*
X0116049Y0059214D01*
X0115994Y0059225D01*
X0115940Y0059240D01*
X0115886Y0059258D01*
X0115834Y0059281D01*
X0115784Y0059306D01*
X0115735Y0059335D01*
X0115689Y0059367D01*
X0115644Y0059402D01*
X0115603Y0059440D01*
X0115563Y0059480D01*
X0115527Y0059523D01*
X0115493Y0059569D01*
X0115463Y0059616D01*
X0115436Y0059666D01*
X0115412Y0059717D01*
X0115392Y0059770D01*
X0115375Y0059824D01*
X0115362Y0059879D01*
X0115353Y0059934D01*
X0115347Y0059991D01*
X0115345Y0060047D01*
X0115344Y0060047D02*
X0115344Y0060893D01*
X0115344Y0062391D02*
X0115344Y0064082D01*
X0117035Y0062644D01*
X0118387Y0063152D02*
X0118385Y0063213D01*
X0118379Y0063275D01*
X0118370Y0063335D01*
X0118356Y0063395D01*
X0118339Y0063454D01*
X0118318Y0063512D01*
X0118294Y0063568D01*
X0118266Y0063623D01*
X0118235Y0063676D01*
X0118200Y0063727D01*
X0118162Y0063775D01*
X0118122Y0063821D01*
X0118078Y0063865D01*
X0118032Y0063905D01*
X0117984Y0063943D01*
X0117933Y0063977D01*
X0117880Y0064009D01*
X0117825Y0064036D01*
X0117769Y0064061D01*
X0117711Y0064081D01*
X0117035Y0062645D02*
X0117075Y0062606D01*
X0117117Y0062570D01*
X0117161Y0062537D01*
X0117207Y0062507D01*
X0117255Y0062480D01*
X0117305Y0062457D01*
X0117357Y0062437D01*
X0117409Y0062421D01*
X0117463Y0062408D01*
X0117517Y0062398D01*
X0117572Y0062393D01*
X0117627Y0062391D01*
X0117681Y0062393D01*
X0117735Y0062399D01*
X0117789Y0062408D01*
X0117841Y0062422D01*
X0117893Y0062439D01*
X0117943Y0062460D01*
X0117992Y0062484D01*
X0118038Y0062512D01*
X0118083Y0062543D01*
X0118125Y0062577D01*
X0118165Y0062614D01*
X0118202Y0062654D01*
X0118236Y0062696D01*
X0118267Y0062741D01*
X0118295Y0062787D01*
X0118319Y0062836D01*
X0118340Y0062886D01*
X0118357Y0062938D01*
X0118371Y0062990D01*
X0118380Y0063044D01*
X0118386Y0063098D01*
X0118388Y0063152D01*
X0116866Y0068546D02*
X0116771Y0068544D01*
X0116677Y0068539D01*
X0116582Y0068530D01*
X0116488Y0068517D01*
X0116395Y0068501D01*
X0116302Y0068482D01*
X0116210Y0068459D01*
X0116119Y0068432D01*
X0116029Y0068402D01*
X0115940Y0068369D01*
X0115853Y0068332D01*
X0115767Y0068292D01*
X0116021Y0068377D02*
X0117712Y0067024D01*
X0117965Y0067109D02*
X0118010Y0067126D01*
X0118054Y0067147D01*
X0118096Y0067172D01*
X0118136Y0067199D01*
X0118174Y0067230D01*
X0118209Y0067263D01*
X0118242Y0067299D01*
X0118271Y0067337D01*
X0118298Y0067378D01*
X0118321Y0067420D01*
X0118342Y0067464D01*
X0118358Y0067510D01*
X0118371Y0067557D01*
X0118380Y0067604D01*
X0118386Y0067653D01*
X0118388Y0067701D01*
X0118386Y0067749D01*
X0118380Y0067798D01*
X0118371Y0067845D01*
X0118358Y0067892D01*
X0118342Y0067938D01*
X0118321Y0067982D01*
X0118298Y0068024D01*
X0118271Y0068065D01*
X0118242Y0068103D01*
X0118209Y0068139D01*
X0118174Y0068172D01*
X0118136Y0068203D01*
X0118096Y0068230D01*
X0118054Y0068255D01*
X0118010Y0068276D01*
X0117965Y0068293D01*
X0117965Y0067109D02*
X0117879Y0067069D01*
X0117792Y0067032D01*
X0117703Y0066999D01*
X0117613Y0066969D01*
X0117522Y0066942D01*
X0117430Y0066919D01*
X0117337Y0066900D01*
X0117244Y0066884D01*
X0117150Y0066871D01*
X0117055Y0066862D01*
X0116961Y0066857D01*
X0116866Y0066855D01*
X0116866Y0068546D02*
X0116961Y0068544D01*
X0117055Y0068539D01*
X0117150Y0068530D01*
X0117244Y0068517D01*
X0117337Y0068501D01*
X0117430Y0068482D01*
X0117522Y0068459D01*
X0117613Y0068432D01*
X0117703Y0068402D01*
X0117792Y0068369D01*
X0117879Y0068332D01*
X0117965Y0068292D01*
X0116866Y0066855D02*
X0116771Y0066857D01*
X0116677Y0066862D01*
X0116582Y0066871D01*
X0116488Y0066884D01*
X0116395Y0066900D01*
X0116302Y0066919D01*
X0116210Y0066942D01*
X0116119Y0066969D01*
X0116029Y0066999D01*
X0115940Y0067032D01*
X0115853Y0067069D01*
X0115767Y0067109D01*
X0115722Y0067126D01*
X0115678Y0067147D01*
X0115636Y0067172D01*
X0115596Y0067199D01*
X0115558Y0067230D01*
X0115523Y0067263D01*
X0115490Y0067299D01*
X0115461Y0067337D01*
X0115434Y0067378D01*
X0115411Y0067420D01*
X0115390Y0067464D01*
X0115374Y0067510D01*
X0115361Y0067557D01*
X0115352Y0067604D01*
X0115346Y0067653D01*
X0115344Y0067701D01*
X0115346Y0067749D01*
X0115352Y0067798D01*
X0115361Y0067845D01*
X0115374Y0067892D01*
X0115390Y0067938D01*
X0115411Y0067982D01*
X0115434Y0068024D01*
X0115461Y0068065D01*
X0115490Y0068103D01*
X0115523Y0068139D01*
X0115558Y0068172D01*
X0115596Y0068203D01*
X0115636Y0068230D01*
X0115678Y0068255D01*
X0115722Y0068276D01*
X0115767Y0068293D01*
X0115514Y0065553D02*
X0115344Y0065553D01*
X0115344Y0065384D01*
X0115514Y0065384D01*
X0115514Y0065553D01*
X0123376Y0065553D02*
X0123376Y0065384D01*
X0123545Y0065384D01*
X0123545Y0065553D01*
X0123376Y0065553D01*
X0123799Y0068292D02*
X0123885Y0068332D01*
X0123972Y0068369D01*
X0124061Y0068402D01*
X0124151Y0068432D01*
X0124242Y0068459D01*
X0124334Y0068482D01*
X0124427Y0068501D01*
X0124520Y0068517D01*
X0124614Y0068530D01*
X0124709Y0068539D01*
X0124803Y0068544D01*
X0124898Y0068546D01*
X0124898Y0066855D02*
X0124993Y0066857D01*
X0125087Y0066862D01*
X0125182Y0066871D01*
X0125276Y0066884D01*
X0125369Y0066900D01*
X0125462Y0066919D01*
X0125554Y0066942D01*
X0125645Y0066969D01*
X0125735Y0066999D01*
X0125824Y0067032D01*
X0125911Y0067069D01*
X0125997Y0067109D01*
X0125743Y0067024D02*
X0124052Y0068377D01*
X0123376Y0067701D02*
X0123378Y0067653D01*
X0123384Y0067604D01*
X0123393Y0067557D01*
X0123406Y0067510D01*
X0123422Y0067464D01*
X0123443Y0067420D01*
X0123466Y0067378D01*
X0123493Y0067337D01*
X0123522Y0067299D01*
X0123555Y0067263D01*
X0123590Y0067230D01*
X0123628Y0067199D01*
X0123668Y0067172D01*
X0123710Y0067147D01*
X0123754Y0067126D01*
X0123799Y0067109D01*
X0123376Y0067701D02*
X0123378Y0067749D01*
X0123384Y0067798D01*
X0123393Y0067845D01*
X0123406Y0067892D01*
X0123422Y0067938D01*
X0123443Y0067982D01*
X0123466Y0068024D01*
X0123493Y0068065D01*
X0123522Y0068103D01*
X0123555Y0068139D01*
X0123590Y0068172D01*
X0123628Y0068203D01*
X0123668Y0068230D01*
X0123710Y0068255D01*
X0123754Y0068276D01*
X0123799Y0068293D01*
X0123799Y0067109D02*
X0123885Y0067069D01*
X0123972Y0067032D01*
X0124061Y0066999D01*
X0124151Y0066969D01*
X0124242Y0066942D01*
X0124334Y0066919D01*
X0124427Y0066900D01*
X0124520Y0066884D01*
X0124614Y0066871D01*
X0124709Y0066862D01*
X0124803Y0066857D01*
X0124898Y0066855D01*
X0124898Y0068546D02*
X0124993Y0068544D01*
X0125087Y0068539D01*
X0125182Y0068530D01*
X0125276Y0068517D01*
X0125369Y0068501D01*
X0125462Y0068482D01*
X0125554Y0068459D01*
X0125645Y0068432D01*
X0125735Y0068402D01*
X0125824Y0068369D01*
X0125911Y0068332D01*
X0125997Y0068292D01*
X0126420Y0067701D02*
X0126418Y0067653D01*
X0126412Y0067604D01*
X0126403Y0067557D01*
X0126390Y0067510D01*
X0126374Y0067464D01*
X0126353Y0067420D01*
X0126330Y0067378D01*
X0126303Y0067337D01*
X0126274Y0067299D01*
X0126241Y0067263D01*
X0126206Y0067230D01*
X0126168Y0067199D01*
X0126128Y0067172D01*
X0126086Y0067147D01*
X0126042Y0067126D01*
X0125997Y0067109D01*
X0126420Y0067701D02*
X0126418Y0067749D01*
X0126412Y0067798D01*
X0126403Y0067845D01*
X0126390Y0067892D01*
X0126374Y0067938D01*
X0126353Y0067982D01*
X0126330Y0068024D01*
X0126303Y0068065D01*
X0126274Y0068103D01*
X0126241Y0068139D01*
X0126206Y0068172D01*
X0126168Y0068203D01*
X0126128Y0068230D01*
X0126086Y0068255D01*
X0126042Y0068276D01*
X0125997Y0068293D01*
X0130479Y0079527D02*
X0130481Y0079471D01*
X0130487Y0079414D01*
X0130496Y0079359D01*
X0130509Y0079304D01*
X0130526Y0079250D01*
X0130546Y0079197D01*
X0130570Y0079146D01*
X0130597Y0079096D01*
X0130627Y0079049D01*
X0130661Y0079003D01*
X0130697Y0078960D01*
X0130737Y0078920D01*
X0130778Y0078882D01*
X0130823Y0078847D01*
X0130869Y0078815D01*
X0130918Y0078786D01*
X0130968Y0078761D01*
X0131020Y0078738D01*
X0131074Y0078720D01*
X0131128Y0078705D01*
X0131183Y0078694D01*
X0131239Y0078686D01*
X0131296Y0078682D01*
X0131352Y0078682D01*
X0131409Y0078686D01*
X0131465Y0078694D01*
X0131520Y0078705D01*
X0131574Y0078720D01*
X0131628Y0078738D01*
X0131680Y0078761D01*
X0131730Y0078786D01*
X0131779Y0078815D01*
X0131825Y0078847D01*
X0131870Y0078882D01*
X0131911Y0078920D01*
X0131951Y0078960D01*
X0131987Y0079003D01*
X0132021Y0079049D01*
X0132051Y0079096D01*
X0132078Y0079146D01*
X0132102Y0079197D01*
X0132122Y0079250D01*
X0132139Y0079304D01*
X0132152Y0079359D01*
X0132161Y0079414D01*
X0132167Y0079471D01*
X0132169Y0079527D01*
X0132169Y0080373D01*
X0148777Y0068377D02*
X0150467Y0067024D01*
X0150721Y0067109D02*
X0150766Y0067126D01*
X0150810Y0067147D01*
X0150852Y0067172D01*
X0150892Y0067199D01*
X0150930Y0067230D01*
X0150965Y0067263D01*
X0150998Y0067299D01*
X0151027Y0067337D01*
X0151054Y0067378D01*
X0151077Y0067420D01*
X0151098Y0067464D01*
X0151114Y0067510D01*
X0151127Y0067557D01*
X0151136Y0067604D01*
X0151142Y0067653D01*
X0151144Y0067701D01*
X0151142Y0067749D01*
X0151136Y0067798D01*
X0151127Y0067845D01*
X0151114Y0067892D01*
X0151098Y0067938D01*
X0151077Y0067982D01*
X0151054Y0068024D01*
X0151027Y0068065D01*
X0150998Y0068103D01*
X0150965Y0068139D01*
X0150930Y0068172D01*
X0150892Y0068203D01*
X0150852Y0068230D01*
X0150810Y0068255D01*
X0150766Y0068276D01*
X0150721Y0068293D01*
X0150721Y0067109D02*
X0150635Y0067069D01*
X0150548Y0067032D01*
X0150459Y0066999D01*
X0150369Y0066969D01*
X0150278Y0066942D01*
X0150186Y0066919D01*
X0150093Y0066900D01*
X0150000Y0066884D01*
X0149906Y0066871D01*
X0149811Y0066862D01*
X0149717Y0066857D01*
X0149622Y0066855D01*
X0149622Y0068546D02*
X0149717Y0068544D01*
X0149811Y0068539D01*
X0149906Y0068530D01*
X0150000Y0068517D01*
X0150093Y0068501D01*
X0150186Y0068482D01*
X0150278Y0068459D01*
X0150369Y0068432D01*
X0150459Y0068402D01*
X0150548Y0068369D01*
X0150635Y0068332D01*
X0150721Y0068292D01*
X0149622Y0066855D02*
X0149527Y0066857D01*
X0149433Y0066862D01*
X0149338Y0066871D01*
X0149244Y0066884D01*
X0149151Y0066900D01*
X0149058Y0066919D01*
X0148966Y0066942D01*
X0148875Y0066969D01*
X0148785Y0066999D01*
X0148696Y0067032D01*
X0148609Y0067069D01*
X0148523Y0067109D01*
X0148478Y0067126D01*
X0148434Y0067147D01*
X0148392Y0067172D01*
X0148352Y0067199D01*
X0148314Y0067230D01*
X0148279Y0067263D01*
X0148246Y0067299D01*
X0148217Y0067337D01*
X0148190Y0067378D01*
X0148167Y0067420D01*
X0148146Y0067464D01*
X0148130Y0067510D01*
X0148117Y0067557D01*
X0148108Y0067604D01*
X0148102Y0067653D01*
X0148100Y0067701D01*
X0148102Y0067749D01*
X0148108Y0067798D01*
X0148117Y0067845D01*
X0148130Y0067892D01*
X0148146Y0067938D01*
X0148167Y0067982D01*
X0148190Y0068024D01*
X0148217Y0068065D01*
X0148246Y0068103D01*
X0148279Y0068139D01*
X0148314Y0068172D01*
X0148352Y0068203D01*
X0148392Y0068230D01*
X0148434Y0068255D01*
X0148478Y0068276D01*
X0148523Y0068293D01*
X0148523Y0068292D02*
X0148609Y0068332D01*
X0148696Y0068369D01*
X0148785Y0068402D01*
X0148875Y0068432D01*
X0148966Y0068459D01*
X0149058Y0068482D01*
X0149151Y0068501D01*
X0149244Y0068517D01*
X0149338Y0068530D01*
X0149433Y0068539D01*
X0149527Y0068544D01*
X0149622Y0068546D01*
X0148269Y0065553D02*
X0148269Y0065384D01*
X0148100Y0065384D01*
X0148100Y0065553D01*
X0148269Y0065553D01*
X0148100Y0064082D02*
X0148100Y0062391D01*
X0148100Y0060893D02*
X0148100Y0059202D01*
X0148100Y0060893D02*
X0149791Y0059455D01*
X0151143Y0059963D02*
X0151141Y0060024D01*
X0151135Y0060086D01*
X0151126Y0060146D01*
X0151112Y0060206D01*
X0151095Y0060265D01*
X0151074Y0060323D01*
X0151050Y0060379D01*
X0151022Y0060434D01*
X0150991Y0060487D01*
X0150956Y0060538D01*
X0150918Y0060586D01*
X0150878Y0060632D01*
X0150834Y0060676D01*
X0150788Y0060716D01*
X0150740Y0060754D01*
X0150689Y0060788D01*
X0150636Y0060820D01*
X0150581Y0060847D01*
X0150525Y0060872D01*
X0150467Y0060892D01*
X0149791Y0059456D02*
X0149831Y0059417D01*
X0149873Y0059381D01*
X0149917Y0059348D01*
X0149963Y0059318D01*
X0150011Y0059291D01*
X0150061Y0059268D01*
X0150113Y0059248D01*
X0150165Y0059232D01*
X0150219Y0059219D01*
X0150273Y0059209D01*
X0150328Y0059204D01*
X0150383Y0059202D01*
X0150437Y0059204D01*
X0150491Y0059210D01*
X0150545Y0059219D01*
X0150597Y0059233D01*
X0150649Y0059250D01*
X0150699Y0059271D01*
X0150748Y0059295D01*
X0150794Y0059323D01*
X0150839Y0059354D01*
X0150881Y0059388D01*
X0150921Y0059425D01*
X0150958Y0059465D01*
X0150992Y0059507D01*
X0151023Y0059552D01*
X0151051Y0059598D01*
X0151075Y0059647D01*
X0151096Y0059697D01*
X0151113Y0059749D01*
X0151127Y0059801D01*
X0151136Y0059855D01*
X0151142Y0059909D01*
X0151144Y0059963D01*
X0149791Y0062644D02*
X0148100Y0064082D01*
X0150467Y0064081D02*
X0150525Y0064061D01*
X0150581Y0064036D01*
X0150636Y0064009D01*
X0150689Y0063977D01*
X0150740Y0063943D01*
X0150788Y0063905D01*
X0150834Y0063865D01*
X0150878Y0063821D01*
X0150918Y0063775D01*
X0150956Y0063727D01*
X0150991Y0063676D01*
X0151022Y0063623D01*
X0151050Y0063568D01*
X0151074Y0063512D01*
X0151095Y0063454D01*
X0151112Y0063395D01*
X0151126Y0063335D01*
X0151135Y0063275D01*
X0151141Y0063213D01*
X0151143Y0063152D01*
X0151144Y0063152D02*
X0151142Y0063098D01*
X0151136Y0063044D01*
X0151127Y0062990D01*
X0151113Y0062938D01*
X0151096Y0062886D01*
X0151075Y0062836D01*
X0151051Y0062787D01*
X0151023Y0062741D01*
X0150992Y0062696D01*
X0150958Y0062654D01*
X0150921Y0062614D01*
X0150881Y0062577D01*
X0150839Y0062543D01*
X0150794Y0062512D01*
X0150748Y0062484D01*
X0150699Y0062460D01*
X0150649Y0062439D01*
X0150597Y0062422D01*
X0150545Y0062408D01*
X0150491Y0062399D01*
X0150437Y0062393D01*
X0150383Y0062391D01*
X0150328Y0062393D01*
X0150273Y0062398D01*
X0150219Y0062408D01*
X0150165Y0062421D01*
X0150113Y0062437D01*
X0150061Y0062457D01*
X0150011Y0062480D01*
X0149963Y0062507D01*
X0149917Y0062537D01*
X0149873Y0062570D01*
X0149831Y0062606D01*
X0149791Y0062645D01*
X0155344Y0065384D02*
X0155344Y0065553D01*
X0155514Y0065553D01*
X0155514Y0065384D01*
X0155344Y0065384D01*
X0155344Y0066855D02*
X0155344Y0068546D01*
X0155344Y0067701D02*
X0158388Y0067701D01*
X0157712Y0068546D01*
X0156866Y0062391D02*
X0156771Y0062393D01*
X0156677Y0062398D01*
X0156582Y0062407D01*
X0156488Y0062420D01*
X0156395Y0062436D01*
X0156302Y0062455D01*
X0156210Y0062478D01*
X0156119Y0062505D01*
X0156029Y0062535D01*
X0155940Y0062568D01*
X0155853Y0062605D01*
X0155767Y0062645D01*
X0155767Y0062644D02*
X0155722Y0062661D01*
X0155678Y0062682D01*
X0155636Y0062707D01*
X0155596Y0062734D01*
X0155558Y0062765D01*
X0155523Y0062798D01*
X0155490Y0062834D01*
X0155461Y0062872D01*
X0155434Y0062913D01*
X0155411Y0062955D01*
X0155390Y0062999D01*
X0155374Y0063045D01*
X0155361Y0063092D01*
X0155352Y0063139D01*
X0155346Y0063188D01*
X0155344Y0063236D01*
X0155346Y0063284D01*
X0155352Y0063333D01*
X0155361Y0063380D01*
X0155374Y0063427D01*
X0155390Y0063473D01*
X0155411Y0063517D01*
X0155434Y0063559D01*
X0155461Y0063600D01*
X0155490Y0063638D01*
X0155523Y0063674D01*
X0155558Y0063707D01*
X0155596Y0063738D01*
X0155636Y0063765D01*
X0155678Y0063790D01*
X0155722Y0063811D01*
X0155767Y0063828D01*
X0156021Y0063913D02*
X0157712Y0062560D01*
X0157965Y0062644D02*
X0158010Y0062661D01*
X0158054Y0062682D01*
X0158096Y0062707D01*
X0158136Y0062734D01*
X0158174Y0062765D01*
X0158209Y0062798D01*
X0158242Y0062834D01*
X0158271Y0062872D01*
X0158298Y0062913D01*
X0158321Y0062955D01*
X0158342Y0062999D01*
X0158358Y0063045D01*
X0158371Y0063092D01*
X0158380Y0063139D01*
X0158386Y0063188D01*
X0158388Y0063236D01*
X0158386Y0063284D01*
X0158380Y0063333D01*
X0158371Y0063380D01*
X0158358Y0063427D01*
X0158342Y0063473D01*
X0158321Y0063517D01*
X0158298Y0063559D01*
X0158271Y0063600D01*
X0158242Y0063638D01*
X0158209Y0063674D01*
X0158174Y0063707D01*
X0158136Y0063738D01*
X0158096Y0063765D01*
X0158054Y0063790D01*
X0158010Y0063811D01*
X0157965Y0063828D01*
X0157965Y0062645D02*
X0157879Y0062605D01*
X0157792Y0062568D01*
X0157703Y0062535D01*
X0157613Y0062505D01*
X0157522Y0062478D01*
X0157430Y0062455D01*
X0157337Y0062436D01*
X0157244Y0062420D01*
X0157150Y0062407D01*
X0157055Y0062398D01*
X0156961Y0062393D01*
X0156866Y0062391D01*
X0155767Y0059456D02*
X0155853Y0059416D01*
X0155940Y0059379D01*
X0156029Y0059346D01*
X0156119Y0059316D01*
X0156210Y0059289D01*
X0156302Y0059266D01*
X0156395Y0059247D01*
X0156488Y0059231D01*
X0156582Y0059218D01*
X0156677Y0059209D01*
X0156771Y0059204D01*
X0156866Y0059202D01*
X0156866Y0060893D02*
X0156961Y0060891D01*
X0157055Y0060886D01*
X0157150Y0060877D01*
X0157244Y0060864D01*
X0157337Y0060848D01*
X0157430Y0060829D01*
X0157522Y0060806D01*
X0157613Y0060779D01*
X0157703Y0060749D01*
X0157792Y0060716D01*
X0157879Y0060679D01*
X0157965Y0060639D01*
X0158388Y0060047D02*
X0158386Y0059999D01*
X0158380Y0059950D01*
X0158371Y0059903D01*
X0158358Y0059856D01*
X0158342Y0059810D01*
X0158321Y0059766D01*
X0158298Y0059724D01*
X0158271Y0059683D01*
X0158242Y0059645D01*
X0158209Y0059609D01*
X0158174Y0059576D01*
X0158136Y0059545D01*
X0158096Y0059518D01*
X0158054Y0059493D01*
X0158010Y0059472D01*
X0157965Y0059455D01*
X0157712Y0059371D02*
X0156021Y0060724D01*
X0155344Y0060047D02*
X0155346Y0059999D01*
X0155352Y0059950D01*
X0155361Y0059903D01*
X0155374Y0059856D01*
X0155390Y0059810D01*
X0155411Y0059766D01*
X0155434Y0059724D01*
X0155461Y0059683D01*
X0155490Y0059645D01*
X0155523Y0059609D01*
X0155558Y0059576D01*
X0155596Y0059545D01*
X0155636Y0059518D01*
X0155678Y0059493D01*
X0155722Y0059472D01*
X0155767Y0059455D01*
X0155344Y0060047D02*
X0155346Y0060095D01*
X0155352Y0060144D01*
X0155361Y0060191D01*
X0155374Y0060238D01*
X0155390Y0060284D01*
X0155411Y0060328D01*
X0155434Y0060370D01*
X0155461Y0060411D01*
X0155490Y0060449D01*
X0155523Y0060485D01*
X0155558Y0060518D01*
X0155596Y0060549D01*
X0155636Y0060576D01*
X0155678Y0060601D01*
X0155722Y0060622D01*
X0155767Y0060639D01*
X0155767Y0063828D02*
X0155853Y0063868D01*
X0155940Y0063905D01*
X0156029Y0063938D01*
X0156119Y0063968D01*
X0156210Y0063995D01*
X0156302Y0064018D01*
X0156395Y0064037D01*
X0156488Y0064053D01*
X0156582Y0064066D01*
X0156677Y0064075D01*
X0156771Y0064080D01*
X0156866Y0064082D01*
X0157965Y0059456D02*
X0157879Y0059416D01*
X0157792Y0059379D01*
X0157703Y0059346D01*
X0157613Y0059316D01*
X0157522Y0059289D01*
X0157430Y0059266D01*
X0157337Y0059247D01*
X0157244Y0059231D01*
X0157150Y0059218D01*
X0157055Y0059209D01*
X0156961Y0059204D01*
X0156866Y0059202D01*
X0156866Y0060893D02*
X0156771Y0060891D01*
X0156677Y0060886D01*
X0156582Y0060877D01*
X0156488Y0060864D01*
X0156395Y0060848D01*
X0156302Y0060829D01*
X0156210Y0060806D01*
X0156119Y0060779D01*
X0156029Y0060749D01*
X0155940Y0060716D01*
X0155853Y0060679D01*
X0155767Y0060639D01*
X0156866Y0064082D02*
X0156961Y0064080D01*
X0157055Y0064075D01*
X0157150Y0064066D01*
X0157244Y0064053D01*
X0157337Y0064037D01*
X0157430Y0064018D01*
X0157522Y0063995D01*
X0157613Y0063968D01*
X0157703Y0063938D01*
X0157792Y0063905D01*
X0157879Y0063868D01*
X0157965Y0063828D01*
X0157965Y0060639D02*
X0158010Y0060622D01*
X0158054Y0060601D01*
X0158096Y0060576D01*
X0158136Y0060549D01*
X0158174Y0060518D01*
X0158209Y0060485D01*
X0158242Y0060449D01*
X0158271Y0060411D01*
X0158298Y0060370D01*
X0158321Y0060328D01*
X0158342Y0060284D01*
X0158358Y0060238D01*
X0158371Y0060191D01*
X0158380Y0060144D01*
X0158386Y0060095D01*
X0158388Y0060047D01*
X0165344Y0060047D02*
X0165344Y0060893D01*
X0165345Y0060047D02*
X0165347Y0059991D01*
X0165353Y0059934D01*
X0165362Y0059879D01*
X0165375Y0059824D01*
X0165392Y0059770D01*
X0165412Y0059717D01*
X0165436Y0059666D01*
X0165463Y0059616D01*
X0165493Y0059569D01*
X0165527Y0059523D01*
X0165563Y0059480D01*
X0165603Y0059440D01*
X0165644Y0059402D01*
X0165689Y0059367D01*
X0165735Y0059335D01*
X0165784Y0059306D01*
X0165834Y0059281D01*
X0165886Y0059258D01*
X0165940Y0059240D01*
X0165994Y0059225D01*
X0166049Y0059214D01*
X0166105Y0059206D01*
X0166162Y0059202D01*
X0166218Y0059202D01*
X0166275Y0059206D01*
X0166331Y0059214D01*
X0166386Y0059225D01*
X0166440Y0059240D01*
X0166494Y0059258D01*
X0166546Y0059281D01*
X0166596Y0059306D01*
X0166645Y0059335D01*
X0166691Y0059367D01*
X0166736Y0059402D01*
X0166777Y0059440D01*
X0166817Y0059480D01*
X0166853Y0059523D01*
X0166887Y0059569D01*
X0166917Y0059616D01*
X0166944Y0059666D01*
X0166968Y0059717D01*
X0166988Y0059770D01*
X0167005Y0059824D01*
X0167018Y0059879D01*
X0167027Y0059934D01*
X0167033Y0059991D01*
X0167035Y0060047D01*
X0167035Y0059878D02*
X0167035Y0060554D01*
X0167036Y0059878D02*
X0167038Y0059827D01*
X0167044Y0059777D01*
X0167053Y0059728D01*
X0167066Y0059679D01*
X0167083Y0059631D01*
X0167103Y0059585D01*
X0167127Y0059540D01*
X0167153Y0059497D01*
X0167183Y0059457D01*
X0167216Y0059418D01*
X0167252Y0059382D01*
X0167291Y0059349D01*
X0167331Y0059319D01*
X0167374Y0059293D01*
X0167419Y0059269D01*
X0167465Y0059249D01*
X0167513Y0059232D01*
X0167562Y0059219D01*
X0167611Y0059210D01*
X0167661Y0059204D01*
X0167712Y0059202D01*
X0167763Y0059204D01*
X0167813Y0059210D01*
X0167862Y0059219D01*
X0167911Y0059232D01*
X0167959Y0059249D01*
X0168005Y0059269D01*
X0168050Y0059293D01*
X0168093Y0059319D01*
X0168133Y0059349D01*
X0168172Y0059382D01*
X0168208Y0059418D01*
X0168241Y0059457D01*
X0168271Y0059497D01*
X0168297Y0059540D01*
X0168321Y0059585D01*
X0168341Y0059631D01*
X0168358Y0059679D01*
X0168371Y0059728D01*
X0168380Y0059777D01*
X0168386Y0059827D01*
X0168388Y0059878D01*
X0168388Y0060893D01*
X0166866Y0064082D02*
X0166771Y0064080D01*
X0166677Y0064075D01*
X0166582Y0064066D01*
X0166488Y0064053D01*
X0166395Y0064037D01*
X0166302Y0064018D01*
X0166210Y0063995D01*
X0166119Y0063968D01*
X0166029Y0063938D01*
X0165940Y0063905D01*
X0165853Y0063868D01*
X0165767Y0063828D01*
X0166021Y0063913D02*
X0167712Y0062560D01*
X0167965Y0062644D02*
X0168010Y0062661D01*
X0168054Y0062682D01*
X0168096Y0062707D01*
X0168136Y0062734D01*
X0168174Y0062765D01*
X0168209Y0062798D01*
X0168242Y0062834D01*
X0168271Y0062872D01*
X0168298Y0062913D01*
X0168321Y0062955D01*
X0168342Y0062999D01*
X0168358Y0063045D01*
X0168371Y0063092D01*
X0168380Y0063139D01*
X0168386Y0063188D01*
X0168388Y0063236D01*
X0168386Y0063284D01*
X0168380Y0063333D01*
X0168371Y0063380D01*
X0168358Y0063427D01*
X0168342Y0063473D01*
X0168321Y0063517D01*
X0168298Y0063559D01*
X0168271Y0063600D01*
X0168242Y0063638D01*
X0168209Y0063674D01*
X0168174Y0063707D01*
X0168136Y0063738D01*
X0168096Y0063765D01*
X0168054Y0063790D01*
X0168010Y0063811D01*
X0167965Y0063828D01*
X0167965Y0062645D02*
X0167879Y0062605D01*
X0167792Y0062568D01*
X0167703Y0062535D01*
X0167613Y0062505D01*
X0167522Y0062478D01*
X0167430Y0062455D01*
X0167337Y0062436D01*
X0167244Y0062420D01*
X0167150Y0062407D01*
X0167055Y0062398D01*
X0166961Y0062393D01*
X0166866Y0062391D01*
X0166866Y0064082D02*
X0166961Y0064080D01*
X0167055Y0064075D01*
X0167150Y0064066D01*
X0167244Y0064053D01*
X0167337Y0064037D01*
X0167430Y0064018D01*
X0167522Y0063995D01*
X0167613Y0063968D01*
X0167703Y0063938D01*
X0167792Y0063905D01*
X0167879Y0063868D01*
X0167965Y0063828D01*
X0166866Y0062391D02*
X0166771Y0062393D01*
X0166677Y0062398D01*
X0166582Y0062407D01*
X0166488Y0062420D01*
X0166395Y0062436D01*
X0166302Y0062455D01*
X0166210Y0062478D01*
X0166119Y0062505D01*
X0166029Y0062535D01*
X0165940Y0062568D01*
X0165853Y0062605D01*
X0165767Y0062645D01*
X0165767Y0062644D02*
X0165722Y0062661D01*
X0165678Y0062682D01*
X0165636Y0062707D01*
X0165596Y0062734D01*
X0165558Y0062765D01*
X0165523Y0062798D01*
X0165490Y0062834D01*
X0165461Y0062872D01*
X0165434Y0062913D01*
X0165411Y0062955D01*
X0165390Y0062999D01*
X0165374Y0063045D01*
X0165361Y0063092D01*
X0165352Y0063139D01*
X0165346Y0063188D01*
X0165344Y0063236D01*
X0165346Y0063284D01*
X0165352Y0063333D01*
X0165361Y0063380D01*
X0165374Y0063427D01*
X0165390Y0063473D01*
X0165411Y0063517D01*
X0165434Y0063559D01*
X0165461Y0063600D01*
X0165490Y0063638D01*
X0165523Y0063674D01*
X0165558Y0063707D01*
X0165596Y0063738D01*
X0165636Y0063765D01*
X0165678Y0063790D01*
X0165722Y0063811D01*
X0165767Y0063828D01*
X0165514Y0065384D02*
X0165344Y0065384D01*
X0165344Y0065553D01*
X0165514Y0065553D01*
X0165514Y0065384D01*
X0165344Y0066855D02*
X0165344Y0068546D01*
X0165344Y0067701D02*
X0168388Y0067701D01*
X0167712Y0068546D01*
X0175344Y0068546D02*
X0175344Y0066855D01*
X0175344Y0067701D02*
X0178388Y0067701D01*
X0177712Y0068546D01*
X0175514Y0065553D02*
X0175514Y0065384D01*
X0175344Y0065384D01*
X0175344Y0065553D01*
X0175514Y0065553D01*
X0175767Y0062645D02*
X0175853Y0062605D01*
X0175940Y0062568D01*
X0176029Y0062535D01*
X0176119Y0062505D01*
X0176210Y0062478D01*
X0176302Y0062455D01*
X0176395Y0062436D01*
X0176488Y0062420D01*
X0176582Y0062407D01*
X0176677Y0062398D01*
X0176771Y0062393D01*
X0176866Y0062391D01*
X0176866Y0064082D02*
X0176961Y0064080D01*
X0177055Y0064075D01*
X0177150Y0064066D01*
X0177244Y0064053D01*
X0177337Y0064037D01*
X0177430Y0064018D01*
X0177522Y0063995D01*
X0177613Y0063968D01*
X0177703Y0063938D01*
X0177792Y0063905D01*
X0177879Y0063868D01*
X0177965Y0063828D01*
X0178388Y0063236D02*
X0178386Y0063188D01*
X0178380Y0063139D01*
X0178371Y0063092D01*
X0178358Y0063045D01*
X0178342Y0062999D01*
X0178321Y0062955D01*
X0178298Y0062913D01*
X0178271Y0062872D01*
X0178242Y0062834D01*
X0178209Y0062798D01*
X0178174Y0062765D01*
X0178136Y0062734D01*
X0178096Y0062707D01*
X0178054Y0062682D01*
X0178010Y0062661D01*
X0177965Y0062644D01*
X0177712Y0062560D02*
X0176021Y0063913D01*
X0175344Y0063236D02*
X0175346Y0063188D01*
X0175352Y0063139D01*
X0175361Y0063092D01*
X0175374Y0063045D01*
X0175390Y0062999D01*
X0175411Y0062955D01*
X0175434Y0062913D01*
X0175461Y0062872D01*
X0175490Y0062834D01*
X0175523Y0062798D01*
X0175558Y0062765D01*
X0175596Y0062734D01*
X0175636Y0062707D01*
X0175678Y0062682D01*
X0175722Y0062661D01*
X0175767Y0062644D01*
X0175344Y0063236D02*
X0175346Y0063284D01*
X0175352Y0063333D01*
X0175361Y0063380D01*
X0175374Y0063427D01*
X0175390Y0063473D01*
X0175411Y0063517D01*
X0175434Y0063559D01*
X0175461Y0063600D01*
X0175490Y0063638D01*
X0175523Y0063674D01*
X0175558Y0063707D01*
X0175596Y0063738D01*
X0175636Y0063765D01*
X0175678Y0063790D01*
X0175722Y0063811D01*
X0175767Y0063828D01*
X0176866Y0062391D02*
X0176961Y0062393D01*
X0177055Y0062398D01*
X0177150Y0062407D01*
X0177244Y0062420D01*
X0177337Y0062436D01*
X0177430Y0062455D01*
X0177522Y0062478D01*
X0177613Y0062505D01*
X0177703Y0062535D01*
X0177792Y0062568D01*
X0177879Y0062605D01*
X0177965Y0062645D01*
X0178388Y0063236D02*
X0178386Y0063284D01*
X0178380Y0063333D01*
X0178371Y0063380D01*
X0178358Y0063427D01*
X0178342Y0063473D01*
X0178321Y0063517D01*
X0178298Y0063559D01*
X0178271Y0063600D01*
X0178242Y0063638D01*
X0178209Y0063674D01*
X0178174Y0063707D01*
X0178136Y0063738D01*
X0178096Y0063765D01*
X0178054Y0063790D01*
X0178010Y0063811D01*
X0177965Y0063828D01*
X0176866Y0064082D02*
X0176771Y0064080D01*
X0176677Y0064075D01*
X0176582Y0064066D01*
X0176488Y0064053D01*
X0176395Y0064037D01*
X0176302Y0064018D01*
X0176210Y0063995D01*
X0176119Y0063968D01*
X0176029Y0063938D01*
X0175940Y0063905D01*
X0175853Y0063868D01*
X0175767Y0063828D01*
X0175344Y0060893D02*
X0175344Y0059202D01*
X0175344Y0060047D02*
X0178388Y0060047D01*
X0177712Y0060893D01*
X0185344Y0060893D02*
X0185344Y0059202D01*
X0185344Y0060893D02*
X0187035Y0059455D01*
X0188387Y0059963D02*
X0188385Y0060024D01*
X0188379Y0060086D01*
X0188370Y0060146D01*
X0188356Y0060206D01*
X0188339Y0060265D01*
X0188318Y0060323D01*
X0188294Y0060379D01*
X0188266Y0060434D01*
X0188235Y0060487D01*
X0188200Y0060538D01*
X0188162Y0060586D01*
X0188122Y0060632D01*
X0188078Y0060676D01*
X0188032Y0060716D01*
X0187984Y0060754D01*
X0187933Y0060788D01*
X0187880Y0060820D01*
X0187825Y0060847D01*
X0187769Y0060872D01*
X0187711Y0060892D01*
X0187035Y0059456D02*
X0187075Y0059417D01*
X0187117Y0059381D01*
X0187161Y0059348D01*
X0187207Y0059318D01*
X0187255Y0059291D01*
X0187305Y0059268D01*
X0187357Y0059248D01*
X0187409Y0059232D01*
X0187463Y0059219D01*
X0187517Y0059209D01*
X0187572Y0059204D01*
X0187627Y0059202D01*
X0187681Y0059204D01*
X0187735Y0059210D01*
X0187789Y0059219D01*
X0187841Y0059233D01*
X0187893Y0059250D01*
X0187943Y0059271D01*
X0187992Y0059295D01*
X0188038Y0059323D01*
X0188083Y0059354D01*
X0188125Y0059388D01*
X0188165Y0059425D01*
X0188202Y0059465D01*
X0188236Y0059507D01*
X0188267Y0059552D01*
X0188295Y0059598D01*
X0188319Y0059647D01*
X0188340Y0059697D01*
X0188357Y0059749D01*
X0188371Y0059801D01*
X0188380Y0059855D01*
X0188386Y0059909D01*
X0188388Y0059963D01*
X0186866Y0064082D02*
X0186771Y0064080D01*
X0186677Y0064075D01*
X0186582Y0064066D01*
X0186488Y0064053D01*
X0186395Y0064037D01*
X0186302Y0064018D01*
X0186210Y0063995D01*
X0186119Y0063968D01*
X0186029Y0063938D01*
X0185940Y0063905D01*
X0185853Y0063868D01*
X0185767Y0063828D01*
X0186021Y0063913D02*
X0187712Y0062560D01*
X0187965Y0062644D02*
X0188010Y0062661D01*
X0188054Y0062682D01*
X0188096Y0062707D01*
X0188136Y0062734D01*
X0188174Y0062765D01*
X0188209Y0062798D01*
X0188242Y0062834D01*
X0188271Y0062872D01*
X0188298Y0062913D01*
X0188321Y0062955D01*
X0188342Y0062999D01*
X0188358Y0063045D01*
X0188371Y0063092D01*
X0188380Y0063139D01*
X0188386Y0063188D01*
X0188388Y0063236D01*
X0188386Y0063284D01*
X0188380Y0063333D01*
X0188371Y0063380D01*
X0188358Y0063427D01*
X0188342Y0063473D01*
X0188321Y0063517D01*
X0188298Y0063559D01*
X0188271Y0063600D01*
X0188242Y0063638D01*
X0188209Y0063674D01*
X0188174Y0063707D01*
X0188136Y0063738D01*
X0188096Y0063765D01*
X0188054Y0063790D01*
X0188010Y0063811D01*
X0187965Y0063828D01*
X0187965Y0062645D02*
X0187879Y0062605D01*
X0187792Y0062568D01*
X0187703Y0062535D01*
X0187613Y0062505D01*
X0187522Y0062478D01*
X0187430Y0062455D01*
X0187337Y0062436D01*
X0187244Y0062420D01*
X0187150Y0062407D01*
X0187055Y0062398D01*
X0186961Y0062393D01*
X0186866Y0062391D01*
X0186866Y0064082D02*
X0186961Y0064080D01*
X0187055Y0064075D01*
X0187150Y0064066D01*
X0187244Y0064053D01*
X0187337Y0064037D01*
X0187430Y0064018D01*
X0187522Y0063995D01*
X0187613Y0063968D01*
X0187703Y0063938D01*
X0187792Y0063905D01*
X0187879Y0063868D01*
X0187965Y0063828D01*
X0186866Y0062391D02*
X0186771Y0062393D01*
X0186677Y0062398D01*
X0186582Y0062407D01*
X0186488Y0062420D01*
X0186395Y0062436D01*
X0186302Y0062455D01*
X0186210Y0062478D01*
X0186119Y0062505D01*
X0186029Y0062535D01*
X0185940Y0062568D01*
X0185853Y0062605D01*
X0185767Y0062645D01*
X0185767Y0062644D02*
X0185722Y0062661D01*
X0185678Y0062682D01*
X0185636Y0062707D01*
X0185596Y0062734D01*
X0185558Y0062765D01*
X0185523Y0062798D01*
X0185490Y0062834D01*
X0185461Y0062872D01*
X0185434Y0062913D01*
X0185411Y0062955D01*
X0185390Y0062999D01*
X0185374Y0063045D01*
X0185361Y0063092D01*
X0185352Y0063139D01*
X0185346Y0063188D01*
X0185344Y0063236D01*
X0185346Y0063284D01*
X0185352Y0063333D01*
X0185361Y0063380D01*
X0185374Y0063427D01*
X0185390Y0063473D01*
X0185411Y0063517D01*
X0185434Y0063559D01*
X0185461Y0063600D01*
X0185490Y0063638D01*
X0185523Y0063674D01*
X0185558Y0063707D01*
X0185596Y0063738D01*
X0185636Y0063765D01*
X0185678Y0063790D01*
X0185722Y0063811D01*
X0185767Y0063828D01*
X0185514Y0065384D02*
X0185344Y0065384D01*
X0185344Y0065553D01*
X0185514Y0065553D01*
X0185514Y0065384D01*
X0185344Y0066855D02*
X0185344Y0068546D01*
X0185344Y0067701D02*
X0188388Y0067701D01*
X0187712Y0068546D01*
X0195344Y0068546D02*
X0195344Y0066855D01*
X0195344Y0067701D02*
X0198388Y0067701D01*
X0197712Y0068546D01*
X0195514Y0065553D02*
X0195514Y0065384D01*
X0195344Y0065384D01*
X0195344Y0065553D01*
X0195514Y0065553D01*
X0195767Y0062645D02*
X0195853Y0062605D01*
X0195940Y0062568D01*
X0196029Y0062535D01*
X0196119Y0062505D01*
X0196210Y0062478D01*
X0196302Y0062455D01*
X0196395Y0062436D01*
X0196488Y0062420D01*
X0196582Y0062407D01*
X0196677Y0062398D01*
X0196771Y0062393D01*
X0196866Y0062391D01*
X0196866Y0064082D02*
X0196961Y0064080D01*
X0197055Y0064075D01*
X0197150Y0064066D01*
X0197244Y0064053D01*
X0197337Y0064037D01*
X0197430Y0064018D01*
X0197522Y0063995D01*
X0197613Y0063968D01*
X0197703Y0063938D01*
X0197792Y0063905D01*
X0197879Y0063868D01*
X0197965Y0063828D01*
X0198388Y0063236D02*
X0198386Y0063188D01*
X0198380Y0063139D01*
X0198371Y0063092D01*
X0198358Y0063045D01*
X0198342Y0062999D01*
X0198321Y0062955D01*
X0198298Y0062913D01*
X0198271Y0062872D01*
X0198242Y0062834D01*
X0198209Y0062798D01*
X0198174Y0062765D01*
X0198136Y0062734D01*
X0198096Y0062707D01*
X0198054Y0062682D01*
X0198010Y0062661D01*
X0197965Y0062644D01*
X0197712Y0062560D02*
X0196021Y0063913D01*
X0195344Y0063236D02*
X0195346Y0063188D01*
X0195352Y0063139D01*
X0195361Y0063092D01*
X0195374Y0063045D01*
X0195390Y0062999D01*
X0195411Y0062955D01*
X0195434Y0062913D01*
X0195461Y0062872D01*
X0195490Y0062834D01*
X0195523Y0062798D01*
X0195558Y0062765D01*
X0195596Y0062734D01*
X0195636Y0062707D01*
X0195678Y0062682D01*
X0195722Y0062661D01*
X0195767Y0062644D01*
X0195344Y0063236D02*
X0195346Y0063284D01*
X0195352Y0063333D01*
X0195361Y0063380D01*
X0195374Y0063427D01*
X0195390Y0063473D01*
X0195411Y0063517D01*
X0195434Y0063559D01*
X0195461Y0063600D01*
X0195490Y0063638D01*
X0195523Y0063674D01*
X0195558Y0063707D01*
X0195596Y0063738D01*
X0195636Y0063765D01*
X0195678Y0063790D01*
X0195722Y0063811D01*
X0195767Y0063828D01*
X0196866Y0062391D02*
X0196961Y0062393D01*
X0197055Y0062398D01*
X0197150Y0062407D01*
X0197244Y0062420D01*
X0197337Y0062436D01*
X0197430Y0062455D01*
X0197522Y0062478D01*
X0197613Y0062505D01*
X0197703Y0062535D01*
X0197792Y0062568D01*
X0197879Y0062605D01*
X0197965Y0062645D01*
X0198388Y0063236D02*
X0198386Y0063284D01*
X0198380Y0063333D01*
X0198371Y0063380D01*
X0198358Y0063427D01*
X0198342Y0063473D01*
X0198321Y0063517D01*
X0198298Y0063559D01*
X0198271Y0063600D01*
X0198242Y0063638D01*
X0198209Y0063674D01*
X0198174Y0063707D01*
X0198136Y0063738D01*
X0198096Y0063765D01*
X0198054Y0063790D01*
X0198010Y0063811D01*
X0197965Y0063828D01*
X0196866Y0064082D02*
X0196771Y0064080D01*
X0196677Y0064075D01*
X0196582Y0064066D01*
X0196488Y0064053D01*
X0196395Y0064037D01*
X0196302Y0064018D01*
X0196210Y0063995D01*
X0196119Y0063968D01*
X0196029Y0063938D01*
X0195940Y0063905D01*
X0195853Y0063868D01*
X0195767Y0063828D01*
X0196021Y0060893D02*
X0196021Y0059202D01*
X0196697Y0059709D02*
X0195344Y0059709D01*
X0196021Y0060893D02*
X0198388Y0060216D01*
X0205344Y0063236D02*
X0205346Y0063188D01*
X0205352Y0063139D01*
X0205361Y0063092D01*
X0205374Y0063045D01*
X0205390Y0062999D01*
X0205411Y0062955D01*
X0205434Y0062913D01*
X0205461Y0062872D01*
X0205490Y0062834D01*
X0205523Y0062798D01*
X0205558Y0062765D01*
X0205596Y0062734D01*
X0205636Y0062707D01*
X0205678Y0062682D01*
X0205722Y0062661D01*
X0205767Y0062644D01*
X0205344Y0063236D02*
X0205346Y0063284D01*
X0205352Y0063333D01*
X0205361Y0063380D01*
X0205374Y0063427D01*
X0205390Y0063473D01*
X0205411Y0063517D01*
X0205434Y0063559D01*
X0205461Y0063600D01*
X0205490Y0063638D01*
X0205523Y0063674D01*
X0205558Y0063707D01*
X0205596Y0063738D01*
X0205636Y0063765D01*
X0205678Y0063790D01*
X0205722Y0063811D01*
X0205767Y0063828D01*
X0206021Y0063913D02*
X0207712Y0062560D01*
X0207965Y0062644D02*
X0208010Y0062661D01*
X0208054Y0062682D01*
X0208096Y0062707D01*
X0208136Y0062734D01*
X0208174Y0062765D01*
X0208209Y0062798D01*
X0208242Y0062834D01*
X0208271Y0062872D01*
X0208298Y0062913D01*
X0208321Y0062955D01*
X0208342Y0062999D01*
X0208358Y0063045D01*
X0208371Y0063092D01*
X0208380Y0063139D01*
X0208386Y0063188D01*
X0208388Y0063236D01*
X0208386Y0063284D01*
X0208380Y0063333D01*
X0208371Y0063380D01*
X0208358Y0063427D01*
X0208342Y0063473D01*
X0208321Y0063517D01*
X0208298Y0063559D01*
X0208271Y0063600D01*
X0208242Y0063638D01*
X0208209Y0063674D01*
X0208174Y0063707D01*
X0208136Y0063738D01*
X0208096Y0063765D01*
X0208054Y0063790D01*
X0208010Y0063811D01*
X0207965Y0063828D01*
X0207965Y0062645D02*
X0207879Y0062605D01*
X0207792Y0062568D01*
X0207703Y0062535D01*
X0207613Y0062505D01*
X0207522Y0062478D01*
X0207430Y0062455D01*
X0207337Y0062436D01*
X0207244Y0062420D01*
X0207150Y0062407D01*
X0207055Y0062398D01*
X0206961Y0062393D01*
X0206866Y0062391D01*
X0206866Y0064082D02*
X0206961Y0064080D01*
X0207055Y0064075D01*
X0207150Y0064066D01*
X0207244Y0064053D01*
X0207337Y0064037D01*
X0207430Y0064018D01*
X0207522Y0063995D01*
X0207613Y0063968D01*
X0207703Y0063938D01*
X0207792Y0063905D01*
X0207879Y0063868D01*
X0207965Y0063828D01*
X0206866Y0062391D02*
X0206771Y0062393D01*
X0206677Y0062398D01*
X0206582Y0062407D01*
X0206488Y0062420D01*
X0206395Y0062436D01*
X0206302Y0062455D01*
X0206210Y0062478D01*
X0206119Y0062505D01*
X0206029Y0062535D01*
X0205940Y0062568D01*
X0205853Y0062605D01*
X0205767Y0062645D01*
X0205767Y0063828D02*
X0205853Y0063868D01*
X0205940Y0063905D01*
X0206029Y0063938D01*
X0206119Y0063968D01*
X0206210Y0063995D01*
X0206302Y0064018D01*
X0206395Y0064037D01*
X0206488Y0064053D01*
X0206582Y0064066D01*
X0206677Y0064075D01*
X0206771Y0064080D01*
X0206866Y0064082D01*
X0205514Y0065384D02*
X0205344Y0065384D01*
X0205344Y0065553D01*
X0205514Y0065553D01*
X0205514Y0065384D01*
X0205344Y0066855D02*
X0205344Y0068546D01*
X0205344Y0067701D02*
X0208388Y0067701D01*
X0207712Y0068546D01*
X0207035Y0060893D02*
X0206190Y0060893D01*
X0207035Y0060893D02*
X0207035Y0059878D01*
X0207035Y0060893D02*
X0207108Y0060891D01*
X0207181Y0060885D01*
X0207254Y0060875D01*
X0207326Y0060861D01*
X0207397Y0060844D01*
X0207467Y0060822D01*
X0207536Y0060797D01*
X0207603Y0060768D01*
X0207669Y0060735D01*
X0207733Y0060699D01*
X0207794Y0060660D01*
X0207854Y0060617D01*
X0207911Y0060571D01*
X0207965Y0060522D01*
X0208017Y0060470D01*
X0208066Y0060416D01*
X0208112Y0060359D01*
X0208155Y0060299D01*
X0208194Y0060238D01*
X0208230Y0060174D01*
X0208263Y0060108D01*
X0208292Y0060041D01*
X0208317Y0059972D01*
X0208339Y0059902D01*
X0208356Y0059831D01*
X0208370Y0059759D01*
X0208380Y0059686D01*
X0208386Y0059613D01*
X0208388Y0059540D01*
X0206359Y0059202D02*
X0206190Y0059202D01*
X0206359Y0059202D02*
X0206410Y0059204D01*
X0206460Y0059210D01*
X0206509Y0059219D01*
X0206558Y0059232D01*
X0206606Y0059249D01*
X0206652Y0059269D01*
X0206697Y0059293D01*
X0206740Y0059319D01*
X0206780Y0059349D01*
X0206819Y0059382D01*
X0206855Y0059418D01*
X0206888Y0059457D01*
X0206918Y0059497D01*
X0206944Y0059540D01*
X0206968Y0059585D01*
X0206988Y0059631D01*
X0207005Y0059679D01*
X0207018Y0059728D01*
X0207027Y0059777D01*
X0207033Y0059827D01*
X0207035Y0059878D01*
X0206190Y0059202D02*
X0206134Y0059204D01*
X0206077Y0059210D01*
X0206022Y0059219D01*
X0205967Y0059232D01*
X0205913Y0059249D01*
X0205860Y0059269D01*
X0205809Y0059293D01*
X0205759Y0059320D01*
X0205712Y0059350D01*
X0205666Y0059384D01*
X0205623Y0059420D01*
X0205583Y0059460D01*
X0205545Y0059501D01*
X0205510Y0059546D01*
X0205478Y0059592D01*
X0205449Y0059641D01*
X0205424Y0059691D01*
X0205401Y0059743D01*
X0205383Y0059797D01*
X0205368Y0059851D01*
X0205357Y0059906D01*
X0205349Y0059962D01*
X0205345Y0060019D01*
X0205345Y0060075D01*
X0205349Y0060132D01*
X0205357Y0060188D01*
X0205368Y0060243D01*
X0205383Y0060297D01*
X0205401Y0060351D01*
X0205424Y0060403D01*
X0205449Y0060453D01*
X0205478Y0060502D01*
X0205510Y0060548D01*
X0205545Y0060593D01*
X0205583Y0060634D01*
X0205623Y0060674D01*
X0205666Y0060710D01*
X0205712Y0060744D01*
X0205759Y0060774D01*
X0205809Y0060801D01*
X0205860Y0060825D01*
X0205913Y0060845D01*
X0205967Y0060862D01*
X0206022Y0060875D01*
X0206077Y0060884D01*
X0206134Y0060890D01*
X0206190Y0060892D01*
X0108388Y0063236D02*
X0105344Y0063236D01*
X0105344Y0062391D02*
X0105344Y0064082D01*
X0105344Y0065384D02*
X0105344Y0065553D01*
X0105514Y0065553D01*
X0105514Y0065384D01*
X0105344Y0065384D01*
X0105767Y0068292D02*
X0105853Y0068332D01*
X0105940Y0068369D01*
X0106029Y0068402D01*
X0106119Y0068432D01*
X0106210Y0068459D01*
X0106302Y0068482D01*
X0106395Y0068501D01*
X0106488Y0068517D01*
X0106582Y0068530D01*
X0106677Y0068539D01*
X0106771Y0068544D01*
X0106866Y0068546D01*
X0106866Y0066855D02*
X0106961Y0066857D01*
X0107055Y0066862D01*
X0107150Y0066871D01*
X0107244Y0066884D01*
X0107337Y0066900D01*
X0107430Y0066919D01*
X0107522Y0066942D01*
X0107613Y0066969D01*
X0107703Y0066999D01*
X0107792Y0067032D01*
X0107879Y0067069D01*
X0107965Y0067109D01*
X0107712Y0067024D02*
X0106021Y0068377D01*
X0105344Y0067701D02*
X0105346Y0067653D01*
X0105352Y0067604D01*
X0105361Y0067557D01*
X0105374Y0067510D01*
X0105390Y0067464D01*
X0105411Y0067420D01*
X0105434Y0067378D01*
X0105461Y0067337D01*
X0105490Y0067299D01*
X0105523Y0067263D01*
X0105558Y0067230D01*
X0105596Y0067199D01*
X0105636Y0067172D01*
X0105678Y0067147D01*
X0105722Y0067126D01*
X0105767Y0067109D01*
X0105344Y0067701D02*
X0105346Y0067749D01*
X0105352Y0067798D01*
X0105361Y0067845D01*
X0105374Y0067892D01*
X0105390Y0067938D01*
X0105411Y0067982D01*
X0105434Y0068024D01*
X0105461Y0068065D01*
X0105490Y0068103D01*
X0105523Y0068139D01*
X0105558Y0068172D01*
X0105596Y0068203D01*
X0105636Y0068230D01*
X0105678Y0068255D01*
X0105722Y0068276D01*
X0105767Y0068293D01*
X0105767Y0067109D02*
X0105853Y0067069D01*
X0105940Y0067032D01*
X0106029Y0066999D01*
X0106119Y0066969D01*
X0106210Y0066942D01*
X0106302Y0066919D01*
X0106395Y0066900D01*
X0106488Y0066884D01*
X0106582Y0066871D01*
X0106677Y0066862D01*
X0106771Y0066857D01*
X0106866Y0066855D01*
X0106866Y0068546D02*
X0106961Y0068544D01*
X0107055Y0068539D01*
X0107150Y0068530D01*
X0107244Y0068517D01*
X0107337Y0068501D01*
X0107430Y0068482D01*
X0107522Y0068459D01*
X0107613Y0068432D01*
X0107703Y0068402D01*
X0107792Y0068369D01*
X0107879Y0068332D01*
X0107965Y0068292D01*
X0108388Y0067701D02*
X0108386Y0067653D01*
X0108380Y0067604D01*
X0108371Y0067557D01*
X0108358Y0067510D01*
X0108342Y0067464D01*
X0108321Y0067420D01*
X0108298Y0067378D01*
X0108271Y0067337D01*
X0108242Y0067299D01*
X0108209Y0067263D01*
X0108174Y0067230D01*
X0108136Y0067199D01*
X0108096Y0067172D01*
X0108054Y0067147D01*
X0108010Y0067126D01*
X0107965Y0067109D01*
X0108388Y0067701D02*
X0108386Y0067749D01*
X0108380Y0067798D01*
X0108371Y0067845D01*
X0108358Y0067892D01*
X0108342Y0067938D01*
X0108321Y0067982D01*
X0108298Y0068024D01*
X0108271Y0068065D01*
X0108242Y0068103D01*
X0108209Y0068139D01*
X0108174Y0068172D01*
X0108136Y0068203D01*
X0108096Y0068230D01*
X0108054Y0068255D01*
X0108010Y0068276D01*
X0107965Y0068293D01*
X0105394Y0073053D02*
X0103703Y0073053D01*
X0105141Y0074744D01*
X0104633Y0076096D02*
X0104572Y0076094D01*
X0104510Y0076088D01*
X0104450Y0076079D01*
X0104390Y0076065D01*
X0104331Y0076048D01*
X0104273Y0076027D01*
X0104217Y0076003D01*
X0104162Y0075975D01*
X0104109Y0075944D01*
X0104058Y0075909D01*
X0104010Y0075871D01*
X0103964Y0075831D01*
X0103920Y0075787D01*
X0103880Y0075741D01*
X0103842Y0075693D01*
X0103808Y0075642D01*
X0103776Y0075589D01*
X0103749Y0075534D01*
X0103724Y0075478D01*
X0103704Y0075420D01*
X0105140Y0074744D02*
X0105179Y0074784D01*
X0105215Y0074826D01*
X0105248Y0074870D01*
X0105278Y0074916D01*
X0105305Y0074964D01*
X0105328Y0075014D01*
X0105348Y0075066D01*
X0105364Y0075118D01*
X0105377Y0075172D01*
X0105387Y0075226D01*
X0105392Y0075281D01*
X0105394Y0075336D01*
X0105392Y0075390D01*
X0105386Y0075444D01*
X0105377Y0075498D01*
X0105363Y0075550D01*
X0105346Y0075602D01*
X0105325Y0075652D01*
X0105301Y0075701D01*
X0105273Y0075747D01*
X0105242Y0075792D01*
X0105208Y0075834D01*
X0105171Y0075874D01*
X0105131Y0075911D01*
X0105089Y0075945D01*
X0105044Y0075976D01*
X0104998Y0076004D01*
X0104949Y0076028D01*
X0104899Y0076049D01*
X0104847Y0076066D01*
X0104795Y0076080D01*
X0104741Y0076089D01*
X0104687Y0076095D01*
X0104633Y0076097D01*
X0103947Y0078496D02*
X0100904Y0078496D01*
X0100904Y0079341D01*
X0100906Y0079397D01*
X0100912Y0079454D01*
X0100921Y0079509D01*
X0100934Y0079564D01*
X0100951Y0079618D01*
X0100971Y0079671D01*
X0100995Y0079722D01*
X0101022Y0079772D01*
X0101052Y0079819D01*
X0101086Y0079865D01*
X0101122Y0079908D01*
X0101162Y0079948D01*
X0101203Y0079986D01*
X0101248Y0080021D01*
X0101294Y0080053D01*
X0101343Y0080082D01*
X0101393Y0080107D01*
X0101445Y0080130D01*
X0101499Y0080148D01*
X0101553Y0080163D01*
X0101608Y0080174D01*
X0101664Y0080182D01*
X0101721Y0080186D01*
X0101777Y0080186D01*
X0101834Y0080182D01*
X0101890Y0080174D01*
X0101945Y0080163D01*
X0101999Y0080148D01*
X0102053Y0080130D01*
X0102105Y0080107D01*
X0102155Y0080082D01*
X0102204Y0080053D01*
X0102250Y0080021D01*
X0102295Y0079986D01*
X0102336Y0079948D01*
X0102376Y0079908D01*
X0102412Y0079865D01*
X0102446Y0079819D01*
X0102476Y0079772D01*
X0102503Y0079722D01*
X0102527Y0079671D01*
X0102547Y0079618D01*
X0102564Y0079564D01*
X0102577Y0079509D01*
X0102586Y0079454D01*
X0102592Y0079397D01*
X0102594Y0079341D01*
X0102594Y0078496D01*
X0102594Y0079510D02*
X0103947Y0080186D01*
X0103947Y0081656D02*
X0103947Y0082502D01*
X0103946Y0082502D02*
X0103944Y0082558D01*
X0103938Y0082615D01*
X0103929Y0082670D01*
X0103916Y0082725D01*
X0103899Y0082779D01*
X0103879Y0082832D01*
X0103855Y0082883D01*
X0103828Y0082933D01*
X0103798Y0082980D01*
X0103764Y0083026D01*
X0103728Y0083069D01*
X0103688Y0083109D01*
X0103647Y0083147D01*
X0103602Y0083182D01*
X0103556Y0083214D01*
X0103507Y0083243D01*
X0103457Y0083268D01*
X0103405Y0083291D01*
X0103351Y0083309D01*
X0103297Y0083324D01*
X0103242Y0083335D01*
X0103186Y0083343D01*
X0103129Y0083347D01*
X0103073Y0083347D01*
X0103016Y0083343D01*
X0102960Y0083335D01*
X0102905Y0083324D01*
X0102851Y0083309D01*
X0102797Y0083291D01*
X0102745Y0083268D01*
X0102695Y0083243D01*
X0102646Y0083214D01*
X0102600Y0083182D01*
X0102555Y0083147D01*
X0102514Y0083109D01*
X0102474Y0083069D01*
X0102438Y0083026D01*
X0102404Y0082980D01*
X0102374Y0082933D01*
X0102347Y0082883D01*
X0102323Y0082832D01*
X0102303Y0082779D01*
X0102286Y0082725D01*
X0102273Y0082670D01*
X0102264Y0082615D01*
X0102258Y0082558D01*
X0102256Y0082502D01*
X0102256Y0082671D02*
X0102256Y0081994D01*
X0102256Y0082671D02*
X0102254Y0082722D01*
X0102248Y0082772D01*
X0102239Y0082821D01*
X0102226Y0082870D01*
X0102209Y0082918D01*
X0102189Y0082964D01*
X0102165Y0083009D01*
X0102139Y0083052D01*
X0102109Y0083092D01*
X0102076Y0083131D01*
X0102040Y0083167D01*
X0102001Y0083200D01*
X0101961Y0083230D01*
X0101918Y0083256D01*
X0101873Y0083280D01*
X0101827Y0083300D01*
X0101779Y0083317D01*
X0101730Y0083330D01*
X0101681Y0083339D01*
X0101631Y0083345D01*
X0101580Y0083347D01*
X0101529Y0083345D01*
X0101479Y0083339D01*
X0101430Y0083330D01*
X0101381Y0083317D01*
X0101333Y0083300D01*
X0101287Y0083280D01*
X0101242Y0083256D01*
X0101199Y0083230D01*
X0101159Y0083200D01*
X0101120Y0083167D01*
X0101084Y0083131D01*
X0101051Y0083092D01*
X0101021Y0083052D01*
X0100995Y0083009D01*
X0100971Y0082964D01*
X0100951Y0082918D01*
X0100934Y0082870D01*
X0100921Y0082821D01*
X0100912Y0082772D01*
X0100906Y0082722D01*
X0100904Y0082671D01*
X0100904Y0081656D01*
X0097585Y0083833D02*
X0096909Y0083833D01*
X0096858Y0083835D01*
X0096808Y0083841D01*
X0096759Y0083850D01*
X0096710Y0083863D01*
X0096662Y0083880D01*
X0096616Y0083900D01*
X0096571Y0083924D01*
X0096528Y0083950D01*
X0096488Y0083980D01*
X0096449Y0084013D01*
X0096413Y0084049D01*
X0096380Y0084088D01*
X0096350Y0084128D01*
X0096324Y0084171D01*
X0096300Y0084216D01*
X0096280Y0084262D01*
X0096263Y0084310D01*
X0096250Y0084359D01*
X0096241Y0084408D01*
X0096235Y0084458D01*
X0096233Y0084509D01*
X0096233Y0086200D01*
X0096235Y0086251D01*
X0096241Y0086301D01*
X0096250Y0086350D01*
X0096263Y0086399D01*
X0096280Y0086447D01*
X0096300Y0086493D01*
X0096324Y0086538D01*
X0096350Y0086581D01*
X0096380Y0086621D01*
X0096413Y0086660D01*
X0096449Y0086696D01*
X0096488Y0086729D01*
X0096528Y0086759D01*
X0096571Y0086785D01*
X0096616Y0086809D01*
X0096662Y0086829D01*
X0096710Y0086846D01*
X0096759Y0086859D01*
X0096808Y0086868D01*
X0096858Y0086874D01*
X0096909Y0086876D01*
X0097585Y0086876D01*
X0094949Y0086876D02*
X0093597Y0086876D01*
X0093597Y0083833D01*
X0093597Y0085523D02*
X0094949Y0085523D01*
X0091877Y0086876D02*
X0091877Y0083833D01*
X0090186Y0086876D01*
X0090186Y0083833D01*
X0093403Y0079090D02*
X0093403Y0075340D01*
X0093369Y0072560D02*
X0093369Y0068810D01*
X0088388Y0067445D02*
X0088388Y0066430D01*
X0088388Y0067445D02*
X0088386Y0067496D01*
X0088380Y0067546D01*
X0088371Y0067595D01*
X0088358Y0067644D01*
X0088341Y0067692D01*
X0088321Y0067738D01*
X0088297Y0067783D01*
X0088271Y0067826D01*
X0088241Y0067866D01*
X0088208Y0067905D01*
X0088172Y0067941D01*
X0088133Y0067974D01*
X0088093Y0068004D01*
X0088050Y0068030D01*
X0088005Y0068054D01*
X0087959Y0068074D01*
X0087911Y0068091D01*
X0087862Y0068104D01*
X0087813Y0068113D01*
X0087763Y0068119D01*
X0087712Y0068121D01*
X0086021Y0068121D01*
X0085970Y0068119D01*
X0085920Y0068113D01*
X0085871Y0068104D01*
X0085822Y0068091D01*
X0085774Y0068074D01*
X0085728Y0068054D01*
X0085683Y0068030D01*
X0085640Y0068004D01*
X0085600Y0067974D01*
X0085561Y0067941D01*
X0085525Y0067905D01*
X0085492Y0067866D01*
X0085462Y0067826D01*
X0085436Y0067783D01*
X0085412Y0067738D01*
X0085392Y0067692D01*
X0085375Y0067644D01*
X0085362Y0067595D01*
X0085353Y0067546D01*
X0085347Y0067496D01*
X0085345Y0067445D01*
X0085344Y0067445D02*
X0085344Y0066430D01*
X0087035Y0066430D01*
X0087035Y0066937D01*
X0088388Y0064719D02*
X0085344Y0064719D01*
X0085344Y0063029D02*
X0088388Y0063029D01*
X0088388Y0064719D02*
X0085344Y0063029D01*
X0085344Y0061318D02*
X0085344Y0060472D01*
X0085344Y0061318D02*
X0088388Y0061318D01*
X0088388Y0060472D01*
X0088387Y0060472D02*
X0088385Y0060417D01*
X0088380Y0060362D01*
X0088371Y0060307D01*
X0088358Y0060253D01*
X0088342Y0060200D01*
X0088323Y0060149D01*
X0088300Y0060098D01*
X0088274Y0060049D01*
X0088245Y0060003D01*
X0088212Y0059958D01*
X0088177Y0059915D01*
X0088140Y0059874D01*
X0088099Y0059837D01*
X0088056Y0059802D01*
X0088011Y0059769D01*
X0087964Y0059740D01*
X0087916Y0059714D01*
X0087865Y0059691D01*
X0087814Y0059672D01*
X0087761Y0059656D01*
X0087707Y0059643D01*
X0087652Y0059634D01*
X0087597Y0059629D01*
X0087542Y0059627D01*
X0086190Y0059627D01*
X0086135Y0059629D01*
X0086080Y0059634D01*
X0086025Y0059643D01*
X0085971Y0059656D01*
X0085918Y0059672D01*
X0085867Y0059691D01*
X0085816Y0059714D01*
X0085768Y0059740D01*
X0085721Y0059769D01*
X0085676Y0059802D01*
X0085633Y0059837D01*
X0085592Y0059874D01*
X0085555Y0059915D01*
X0085520Y0059958D01*
X0085487Y0060003D01*
X0085458Y0060050D01*
X0085432Y0060098D01*
X0085409Y0060149D01*
X0085390Y0060200D01*
X0085374Y0060253D01*
X0085361Y0060307D01*
X0085352Y0060362D01*
X0085347Y0060417D01*
X0085345Y0060472D01*
X0091415Y0062561D02*
X0092429Y0059518D01*
X0093443Y0062561D01*
X0094944Y0062561D02*
X0094944Y0059518D01*
X0095790Y0059518D01*
X0095846Y0059520D01*
X0095903Y0059526D01*
X0095958Y0059535D01*
X0096013Y0059548D01*
X0096067Y0059565D01*
X0096120Y0059585D01*
X0096171Y0059609D01*
X0096221Y0059636D01*
X0096268Y0059666D01*
X0096314Y0059700D01*
X0096357Y0059736D01*
X0096397Y0059776D01*
X0096435Y0059817D01*
X0096470Y0059862D01*
X0096502Y0059908D01*
X0096531Y0059957D01*
X0096556Y0060007D01*
X0096579Y0060059D01*
X0096597Y0060113D01*
X0096612Y0060167D01*
X0096623Y0060222D01*
X0096631Y0060278D01*
X0096635Y0060335D01*
X0096635Y0060391D01*
X0096631Y0060448D01*
X0096623Y0060504D01*
X0096612Y0060559D01*
X0096597Y0060613D01*
X0096579Y0060667D01*
X0096556Y0060719D01*
X0096531Y0060769D01*
X0096502Y0060818D01*
X0096470Y0060864D01*
X0096435Y0060909D01*
X0096397Y0060950D01*
X0096357Y0060990D01*
X0096314Y0061026D01*
X0096268Y0061060D01*
X0096221Y0061090D01*
X0096171Y0061117D01*
X0096120Y0061141D01*
X0096067Y0061161D01*
X0096013Y0061178D01*
X0095958Y0061191D01*
X0095903Y0061200D01*
X0095846Y0061206D01*
X0095790Y0061208D01*
X0094944Y0061208D01*
X0095790Y0061209D02*
X0095841Y0061211D01*
X0095891Y0061217D01*
X0095940Y0061226D01*
X0095989Y0061239D01*
X0096037Y0061256D01*
X0096083Y0061276D01*
X0096128Y0061300D01*
X0096171Y0061326D01*
X0096211Y0061356D01*
X0096250Y0061389D01*
X0096286Y0061425D01*
X0096319Y0061464D01*
X0096349Y0061504D01*
X0096375Y0061547D01*
X0096399Y0061592D01*
X0096419Y0061638D01*
X0096436Y0061686D01*
X0096449Y0061735D01*
X0096458Y0061784D01*
X0096464Y0061834D01*
X0096466Y0061885D01*
X0096464Y0061936D01*
X0096458Y0061986D01*
X0096449Y0062035D01*
X0096436Y0062084D01*
X0096419Y0062132D01*
X0096399Y0062178D01*
X0096375Y0062223D01*
X0096349Y0062266D01*
X0096319Y0062306D01*
X0096286Y0062345D01*
X0096250Y0062381D01*
X0096211Y0062414D01*
X0096171Y0062444D01*
X0096128Y0062470D01*
X0096083Y0062494D01*
X0096037Y0062514D01*
X0095989Y0062531D01*
X0095940Y0062544D01*
X0095891Y0062553D01*
X0095841Y0062559D01*
X0095790Y0062561D01*
X0094944Y0062561D01*
X0098068Y0062561D02*
X0098068Y0060363D01*
X0098070Y0060307D01*
X0098076Y0060250D01*
X0098085Y0060195D01*
X0098098Y0060140D01*
X0098115Y0060086D01*
X0098135Y0060033D01*
X0098159Y0059982D01*
X0098186Y0059932D01*
X0098216Y0059885D01*
X0098250Y0059839D01*
X0098286Y0059796D01*
X0098326Y0059756D01*
X0098367Y0059718D01*
X0098412Y0059683D01*
X0098458Y0059651D01*
X0098507Y0059622D01*
X0098557Y0059597D01*
X0098609Y0059574D01*
X0098663Y0059556D01*
X0098717Y0059541D01*
X0098772Y0059530D01*
X0098828Y0059522D01*
X0098885Y0059518D01*
X0098941Y0059518D01*
X0098998Y0059522D01*
X0099054Y0059530D01*
X0099109Y0059541D01*
X0099163Y0059556D01*
X0099217Y0059574D01*
X0099269Y0059597D01*
X0099319Y0059622D01*
X0099368Y0059651D01*
X0099414Y0059683D01*
X0099459Y0059718D01*
X0099500Y0059756D01*
X0099540Y0059796D01*
X0099576Y0059839D01*
X0099610Y0059885D01*
X0099640Y0059932D01*
X0099667Y0059982D01*
X0099691Y0060033D01*
X0099711Y0060086D01*
X0099728Y0060140D01*
X0099741Y0060195D01*
X0099750Y0060250D01*
X0099756Y0060307D01*
X0099758Y0060363D01*
X0099759Y0060363D02*
X0099759Y0062561D01*
X0101680Y0061293D02*
X0102609Y0060786D01*
X0102271Y0059517D02*
X0102196Y0059519D01*
X0102121Y0059525D01*
X0102046Y0059535D01*
X0101972Y0059549D01*
X0101899Y0059566D01*
X0101827Y0059588D01*
X0101756Y0059613D01*
X0101687Y0059642D01*
X0101619Y0059674D01*
X0101553Y0059710D01*
X0101489Y0059750D01*
X0101427Y0059793D01*
X0101368Y0059839D01*
X0101311Y0059888D01*
X0101256Y0059940D01*
X0102610Y0060786D02*
X0102653Y0060758D01*
X0102693Y0060728D01*
X0102732Y0060694D01*
X0102768Y0060658D01*
X0102801Y0060619D01*
X0102831Y0060578D01*
X0102857Y0060535D01*
X0102881Y0060490D01*
X0102901Y0060443D01*
X0102918Y0060395D01*
X0102931Y0060346D01*
X0102940Y0060296D01*
X0102946Y0060245D01*
X0102948Y0060194D01*
X0102947Y0060194D02*
X0102945Y0060143D01*
X0102939Y0060093D01*
X0102930Y0060044D01*
X0102917Y0059995D01*
X0102900Y0059947D01*
X0102880Y0059901D01*
X0102856Y0059856D01*
X0102830Y0059813D01*
X0102800Y0059773D01*
X0102767Y0059734D01*
X0102731Y0059698D01*
X0102692Y0059665D01*
X0102652Y0059635D01*
X0102609Y0059609D01*
X0102564Y0059585D01*
X0102518Y0059565D01*
X0102470Y0059548D01*
X0102421Y0059535D01*
X0102372Y0059526D01*
X0102322Y0059520D01*
X0102271Y0059518D01*
X0102779Y0062307D02*
X0102723Y0062347D01*
X0102666Y0062383D01*
X0102606Y0062416D01*
X0102545Y0062446D01*
X0102483Y0062473D01*
X0102419Y0062496D01*
X0102354Y0062516D01*
X0102288Y0062532D01*
X0102221Y0062545D01*
X0102154Y0062554D01*
X0102086Y0062559D01*
X0102018Y0062561D01*
X0101967Y0062559D01*
X0101917Y0062553D01*
X0101868Y0062544D01*
X0101819Y0062531D01*
X0101771Y0062514D01*
X0101725Y0062494D01*
X0101680Y0062470D01*
X0101637Y0062444D01*
X0101597Y0062414D01*
X0101558Y0062381D01*
X0101522Y0062345D01*
X0101489Y0062306D01*
X0101459Y0062266D01*
X0101433Y0062223D01*
X0101409Y0062178D01*
X0101389Y0062132D01*
X0101372Y0062084D01*
X0101359Y0062035D01*
X0101350Y0061986D01*
X0101344Y0061936D01*
X0101342Y0061885D01*
X0101341Y0061885D02*
X0101343Y0061834D01*
X0101349Y0061783D01*
X0101358Y0061733D01*
X0101371Y0061684D01*
X0101388Y0061636D01*
X0101408Y0061589D01*
X0101432Y0061544D01*
X0101458Y0061501D01*
X0101488Y0061460D01*
X0101521Y0061421D01*
X0101557Y0061385D01*
X0101596Y0061351D01*
X0101636Y0061321D01*
X0101679Y0061293D01*
X0106190Y0060892D02*
X0106134Y0060890D01*
X0106077Y0060884D01*
X0106022Y0060875D01*
X0105967Y0060862D01*
X0105913Y0060845D01*
X0105860Y0060825D01*
X0105809Y0060801D01*
X0105759Y0060774D01*
X0105712Y0060744D01*
X0105666Y0060710D01*
X0105623Y0060674D01*
X0105583Y0060634D01*
X0105545Y0060593D01*
X0105510Y0060548D01*
X0105478Y0060502D01*
X0105449Y0060453D01*
X0105424Y0060403D01*
X0105401Y0060351D01*
X0105383Y0060297D01*
X0105368Y0060243D01*
X0105357Y0060188D01*
X0105349Y0060132D01*
X0105345Y0060075D01*
X0105345Y0060019D01*
X0105349Y0059962D01*
X0105357Y0059906D01*
X0105368Y0059851D01*
X0105383Y0059797D01*
X0105401Y0059743D01*
X0105424Y0059691D01*
X0105449Y0059641D01*
X0105478Y0059592D01*
X0105510Y0059546D01*
X0105545Y0059501D01*
X0105583Y0059460D01*
X0105623Y0059420D01*
X0105666Y0059384D01*
X0105712Y0059350D01*
X0105759Y0059320D01*
X0105809Y0059293D01*
X0105860Y0059269D01*
X0105913Y0059249D01*
X0105967Y0059232D01*
X0106022Y0059219D01*
X0106077Y0059210D01*
X0106134Y0059204D01*
X0106190Y0059202D01*
X0106246Y0059204D01*
X0106303Y0059210D01*
X0106358Y0059219D01*
X0106413Y0059232D01*
X0106467Y0059249D01*
X0106520Y0059269D01*
X0106571Y0059293D01*
X0106621Y0059320D01*
X0106668Y0059350D01*
X0106714Y0059384D01*
X0106757Y0059420D01*
X0106797Y0059460D01*
X0106835Y0059501D01*
X0106870Y0059546D01*
X0106902Y0059592D01*
X0106931Y0059641D01*
X0106956Y0059691D01*
X0106979Y0059743D01*
X0106997Y0059797D01*
X0107012Y0059851D01*
X0107023Y0059906D01*
X0107031Y0059962D01*
X0107035Y0060019D01*
X0107035Y0060075D01*
X0107031Y0060132D01*
X0107023Y0060188D01*
X0107012Y0060243D01*
X0106997Y0060297D01*
X0106979Y0060351D01*
X0106956Y0060403D01*
X0106931Y0060453D01*
X0106902Y0060502D01*
X0106870Y0060548D01*
X0106835Y0060593D01*
X0106797Y0060634D01*
X0106757Y0060674D01*
X0106714Y0060710D01*
X0106668Y0060744D01*
X0106621Y0060774D01*
X0106571Y0060801D01*
X0106520Y0060825D01*
X0106467Y0060845D01*
X0106413Y0060862D01*
X0106358Y0060875D01*
X0106303Y0060884D01*
X0106246Y0060890D01*
X0106190Y0060892D01*
X0107712Y0060723D02*
X0107661Y0060721D01*
X0107611Y0060715D01*
X0107562Y0060706D01*
X0107513Y0060693D01*
X0107465Y0060676D01*
X0107419Y0060656D01*
X0107374Y0060632D01*
X0107331Y0060606D01*
X0107291Y0060576D01*
X0107252Y0060543D01*
X0107216Y0060507D01*
X0107183Y0060468D01*
X0107153Y0060428D01*
X0107127Y0060385D01*
X0107103Y0060340D01*
X0107083Y0060294D01*
X0107066Y0060246D01*
X0107053Y0060197D01*
X0107044Y0060148D01*
X0107038Y0060098D01*
X0107036Y0060047D01*
X0107038Y0059996D01*
X0107044Y0059946D01*
X0107053Y0059897D01*
X0107066Y0059848D01*
X0107083Y0059800D01*
X0107103Y0059754D01*
X0107127Y0059709D01*
X0107153Y0059666D01*
X0107183Y0059626D01*
X0107216Y0059587D01*
X0107252Y0059551D01*
X0107291Y0059518D01*
X0107331Y0059488D01*
X0107374Y0059462D01*
X0107419Y0059438D01*
X0107465Y0059418D01*
X0107513Y0059401D01*
X0107562Y0059388D01*
X0107611Y0059379D01*
X0107661Y0059373D01*
X0107712Y0059371D01*
X0107763Y0059373D01*
X0107813Y0059379D01*
X0107862Y0059388D01*
X0107911Y0059401D01*
X0107959Y0059418D01*
X0108005Y0059438D01*
X0108050Y0059462D01*
X0108093Y0059488D01*
X0108133Y0059518D01*
X0108172Y0059551D01*
X0108208Y0059587D01*
X0108241Y0059626D01*
X0108271Y0059666D01*
X0108297Y0059709D01*
X0108321Y0059754D01*
X0108341Y0059800D01*
X0108358Y0059848D01*
X0108371Y0059897D01*
X0108380Y0059946D01*
X0108386Y0059996D01*
X0108388Y0060047D01*
X0108386Y0060098D01*
X0108380Y0060148D01*
X0108371Y0060197D01*
X0108358Y0060246D01*
X0108341Y0060294D01*
X0108321Y0060340D01*
X0108297Y0060385D01*
X0108271Y0060428D01*
X0108241Y0060468D01*
X0108208Y0060507D01*
X0108172Y0060543D01*
X0108133Y0060576D01*
X0108093Y0060606D01*
X0108050Y0060632D01*
X0108005Y0060656D01*
X0107959Y0060676D01*
X0107911Y0060693D01*
X0107862Y0060706D01*
X0107813Y0060715D01*
X0107763Y0060721D01*
X0107712Y0060723D01*
X0108388Y0063236D02*
X0107712Y0064082D01*
X0102234Y0073053D02*
X0101557Y0074406D01*
X0101388Y0074406D02*
X0100543Y0074406D01*
X0101388Y0074406D02*
X0101444Y0074408D01*
X0101501Y0074414D01*
X0101556Y0074423D01*
X0101611Y0074436D01*
X0101665Y0074453D01*
X0101718Y0074473D01*
X0101769Y0074497D01*
X0101819Y0074524D01*
X0101866Y0074554D01*
X0101912Y0074588D01*
X0101955Y0074624D01*
X0101995Y0074664D01*
X0102033Y0074705D01*
X0102068Y0074750D01*
X0102100Y0074796D01*
X0102129Y0074845D01*
X0102154Y0074895D01*
X0102177Y0074947D01*
X0102195Y0075001D01*
X0102210Y0075055D01*
X0102221Y0075110D01*
X0102229Y0075166D01*
X0102233Y0075223D01*
X0102233Y0075279D01*
X0102229Y0075336D01*
X0102221Y0075392D01*
X0102210Y0075447D01*
X0102195Y0075501D01*
X0102177Y0075555D01*
X0102154Y0075607D01*
X0102129Y0075657D01*
X0102100Y0075706D01*
X0102068Y0075752D01*
X0102033Y0075797D01*
X0101995Y0075838D01*
X0101955Y0075878D01*
X0101912Y0075914D01*
X0101866Y0075948D01*
X0101819Y0075978D01*
X0101769Y0076005D01*
X0101718Y0076029D01*
X0101665Y0076049D01*
X0101611Y0076066D01*
X0101556Y0076079D01*
X0101501Y0076088D01*
X0101444Y0076094D01*
X0101388Y0076096D01*
X0100543Y0076096D01*
X0100543Y0073053D01*
D14*
X0136236Y0093764D02*
X0136236Y0104299D01*
X0141236Y0107299D02*
X0142260Y0107299D01*
X0147260Y0104299D02*
X0147260Y0093764D01*
X0142260Y0090764D02*
X0141236Y0090764D01*
D15*
X0094898Y0089976D02*
X0080921Y0089976D01*
X0080921Y0108087D01*
X0094898Y0108087D01*
D16*
X0152772Y0125606D02*
X0152772Y0072457D01*
X0223638Y0072457D01*
X0223638Y0125606D01*
X0152772Y0125606D01*
D17*
X0216613Y0095032D02*
X0220447Y0095032D01*
X0220447Y0095031D02*
X0220502Y0095033D01*
X0220556Y0095039D01*
X0220610Y0095049D01*
X0220663Y0095062D01*
X0220715Y0095079D01*
X0220766Y0095100D01*
X0220815Y0095125D01*
X0220862Y0095153D01*
X0220907Y0095184D01*
X0220949Y0095218D01*
X0220989Y0095256D01*
X0221027Y0095296D01*
X0221061Y0095338D01*
X0221092Y0095383D01*
X0221120Y0095430D01*
X0221145Y0095479D01*
X0221166Y0095530D01*
X0221183Y0095582D01*
X0221196Y0095635D01*
X0221206Y0095689D01*
X0221212Y0095743D01*
X0221214Y0095798D01*
X0221213Y0095798D02*
X0221213Y0096054D01*
X0220447Y0097751D02*
X0219169Y0097751D01*
X0219680Y0097751D02*
X0219680Y0099796D01*
X0219169Y0099796D01*
X0219106Y0099794D01*
X0219043Y0099788D01*
X0218981Y0099779D01*
X0218920Y0099765D01*
X0218859Y0099748D01*
X0218800Y0099727D01*
X0218742Y0099702D01*
X0218685Y0099674D01*
X0218631Y0099643D01*
X0218579Y0099608D01*
X0218528Y0099570D01*
X0218480Y0099529D01*
X0218435Y0099485D01*
X0218393Y0099439D01*
X0218353Y0099390D01*
X0218317Y0099339D01*
X0218284Y0099285D01*
X0218254Y0099230D01*
X0218228Y0099172D01*
X0218205Y0099114D01*
X0218186Y0099054D01*
X0218171Y0098993D01*
X0218159Y0098931D01*
X0218151Y0098868D01*
X0218147Y0098805D01*
X0218147Y0098743D01*
X0218151Y0098680D01*
X0218159Y0098617D01*
X0218171Y0098555D01*
X0218186Y0098494D01*
X0218205Y0098434D01*
X0218228Y0098376D01*
X0218254Y0098318D01*
X0218284Y0098263D01*
X0218317Y0098209D01*
X0218353Y0098158D01*
X0218393Y0098109D01*
X0218435Y0098063D01*
X0218480Y0098019D01*
X0218528Y0097978D01*
X0218579Y0097940D01*
X0218631Y0097905D01*
X0218685Y0097874D01*
X0218742Y0097846D01*
X0218800Y0097821D01*
X0218859Y0097800D01*
X0218920Y0097783D01*
X0218981Y0097769D01*
X0219043Y0097760D01*
X0219106Y0097754D01*
X0219169Y0097752D01*
X0220447Y0097751D02*
X0220502Y0097753D01*
X0220556Y0097759D01*
X0220610Y0097769D01*
X0220663Y0097782D01*
X0220715Y0097799D01*
X0220766Y0097820D01*
X0220815Y0097845D01*
X0220862Y0097873D01*
X0220907Y0097904D01*
X0220949Y0097938D01*
X0220989Y0097976D01*
X0221027Y0098016D01*
X0221061Y0098058D01*
X0221092Y0098103D01*
X0221120Y0098150D01*
X0221145Y0098199D01*
X0221166Y0098250D01*
X0221183Y0098302D01*
X0221196Y0098355D01*
X0221206Y0098409D01*
X0221212Y0098463D01*
X0221214Y0098518D01*
X0221213Y0098518D02*
X0221213Y0099796D01*
X0221213Y0101801D02*
X0218147Y0101801D01*
X0218147Y0103079D01*
X0218146Y0103079D02*
X0218148Y0103134D01*
X0218154Y0103188D01*
X0218164Y0103242D01*
X0218177Y0103295D01*
X0218194Y0103347D01*
X0218215Y0103398D01*
X0218240Y0103447D01*
X0218268Y0103494D01*
X0218299Y0103539D01*
X0218333Y0103581D01*
X0218371Y0103621D01*
X0218411Y0103659D01*
X0218453Y0103693D01*
X0218498Y0103724D01*
X0218545Y0103752D01*
X0218594Y0103777D01*
X0218645Y0103798D01*
X0218697Y0103815D01*
X0218750Y0103828D01*
X0218804Y0103838D01*
X0218858Y0103844D01*
X0218913Y0103846D01*
X0221213Y0103846D01*
X0221213Y0106001D02*
X0218147Y0106001D01*
X0218147Y0107279D01*
X0218146Y0107279D02*
X0218148Y0107334D01*
X0218154Y0107388D01*
X0218164Y0107442D01*
X0218177Y0107495D01*
X0218194Y0107547D01*
X0218215Y0107598D01*
X0218240Y0107647D01*
X0218268Y0107694D01*
X0218299Y0107739D01*
X0218333Y0107781D01*
X0218371Y0107821D01*
X0218411Y0107859D01*
X0218453Y0107893D01*
X0218498Y0107924D01*
X0218545Y0107952D01*
X0218594Y0107977D01*
X0218645Y0107998D01*
X0218697Y0108015D01*
X0218750Y0108028D01*
X0218804Y0108038D01*
X0218858Y0108044D01*
X0218913Y0108046D01*
X0221213Y0108046D01*
X0218147Y0110284D02*
X0218147Y0111306D01*
X0218146Y0111306D02*
X0218148Y0111361D01*
X0218154Y0111415D01*
X0218164Y0111469D01*
X0218177Y0111522D01*
X0218194Y0111574D01*
X0218215Y0111625D01*
X0218240Y0111674D01*
X0218268Y0111721D01*
X0218299Y0111766D01*
X0218333Y0111808D01*
X0218371Y0111848D01*
X0218411Y0111886D01*
X0218453Y0111920D01*
X0218498Y0111951D01*
X0218545Y0111979D01*
X0218594Y0112004D01*
X0218645Y0112025D01*
X0218697Y0112042D01*
X0218750Y0112055D01*
X0218804Y0112065D01*
X0218858Y0112071D01*
X0218913Y0112073D01*
X0221213Y0112073D01*
X0221213Y0110923D01*
X0221211Y0110865D01*
X0221205Y0110806D01*
X0221196Y0110749D01*
X0221183Y0110692D01*
X0221166Y0110636D01*
X0221145Y0110581D01*
X0221121Y0110528D01*
X0221093Y0110476D01*
X0221062Y0110426D01*
X0221028Y0110379D01*
X0220991Y0110334D01*
X0220951Y0110291D01*
X0220908Y0110251D01*
X0220863Y0110214D01*
X0220816Y0110180D01*
X0220766Y0110149D01*
X0220714Y0110121D01*
X0220661Y0110097D01*
X0220606Y0110076D01*
X0220550Y0110059D01*
X0220493Y0110046D01*
X0220436Y0110037D01*
X0220377Y0110031D01*
X0220319Y0110029D01*
X0220261Y0110031D01*
X0220202Y0110037D01*
X0220145Y0110046D01*
X0220088Y0110059D01*
X0220032Y0110076D01*
X0219977Y0110097D01*
X0219924Y0110121D01*
X0219872Y0110149D01*
X0219822Y0110180D01*
X0219775Y0110214D01*
X0219730Y0110251D01*
X0219687Y0110291D01*
X0219647Y0110334D01*
X0219610Y0110379D01*
X0219576Y0110426D01*
X0219545Y0110476D01*
X0219517Y0110528D01*
X0219493Y0110581D01*
X0219472Y0110636D01*
X0219455Y0110692D01*
X0219442Y0110749D01*
X0219433Y0110806D01*
X0219427Y0110865D01*
X0219425Y0110923D01*
X0219425Y0112073D01*
X0218147Y0096054D02*
X0218147Y0094521D01*
X0218913Y0092896D02*
X0221213Y0092896D01*
X0221213Y0090851D02*
X0218147Y0090851D01*
X0218147Y0092129D01*
X0218146Y0092129D02*
X0218148Y0092184D01*
X0218154Y0092238D01*
X0218164Y0092292D01*
X0218177Y0092345D01*
X0218194Y0092397D01*
X0218215Y0092448D01*
X0218240Y0092497D01*
X0218268Y0092544D01*
X0218299Y0092589D01*
X0218333Y0092631D01*
X0218371Y0092671D01*
X0218411Y0092709D01*
X0218453Y0092743D01*
X0218498Y0092774D01*
X0218545Y0092802D01*
X0218594Y0092827D01*
X0218645Y0092848D01*
X0218697Y0092865D01*
X0218750Y0092878D01*
X0218804Y0092888D01*
X0218858Y0092894D01*
X0218913Y0092896D01*
X0220063Y0088674D02*
X0220063Y0086374D01*
X0221213Y0085990D02*
X0216613Y0087524D01*
X0221213Y0089057D01*
D18*
X0120390Y0111827D02*
X0120390Y0119701D01*
X0119012Y0119701D01*
X0119012Y0111827D01*
X0120390Y0111827D01*
X0101787Y0117339D02*
X0082496Y0117339D01*
X0082496Y0129937D01*
X0101787Y0129937D01*
X0101787Y0117339D01*
X0102299Y0131315D02*
X0102299Y0137319D01*
D19*
X0124622Y0110252D02*
X0124624Y0110296D01*
X0124630Y0110340D01*
X0124640Y0110383D01*
X0124653Y0110425D01*
X0124671Y0110465D01*
X0124692Y0110504D01*
X0124716Y0110541D01*
X0124743Y0110576D01*
X0124774Y0110608D01*
X0124807Y0110637D01*
X0124843Y0110663D01*
X0124881Y0110685D01*
X0124921Y0110704D01*
X0124962Y0110720D01*
X0125005Y0110732D01*
X0125048Y0110740D01*
X0125092Y0110744D01*
X0125136Y0110744D01*
X0125180Y0110740D01*
X0125223Y0110732D01*
X0125266Y0110720D01*
X0125307Y0110704D01*
X0125347Y0110685D01*
X0125385Y0110663D01*
X0125421Y0110637D01*
X0125454Y0110608D01*
X0125485Y0110576D01*
X0125512Y0110541D01*
X0125536Y0110504D01*
X0125557Y0110465D01*
X0125575Y0110425D01*
X0125588Y0110383D01*
X0125598Y0110340D01*
X0125604Y0110296D01*
X0125606Y0110252D01*
X0125604Y0110208D01*
X0125598Y0110164D01*
X0125588Y0110121D01*
X0125575Y0110079D01*
X0125557Y0110039D01*
X0125536Y0110000D01*
X0125512Y0109963D01*
X0125485Y0109928D01*
X0125454Y0109896D01*
X0125421Y0109867D01*
X0125385Y0109841D01*
X0125347Y0109819D01*
X0125307Y0109800D01*
X0125266Y0109784D01*
X0125223Y0109772D01*
X0125180Y0109764D01*
X0125136Y0109760D01*
X0125092Y0109760D01*
X0125048Y0109764D01*
X0125005Y0109772D01*
X0124962Y0109784D01*
X0124921Y0109800D01*
X0124881Y0109819D01*
X0124843Y0109841D01*
X0124807Y0109867D01*
X0124774Y0109896D01*
X0124743Y0109928D01*
X0124716Y0109963D01*
X0124692Y0110000D01*
X0124671Y0110039D01*
X0124653Y0110079D01*
X0124640Y0110121D01*
X0124630Y0110164D01*
X0124624Y0110208D01*
X0124622Y0110252D01*
M02*
